<svg xmlns="http://www.w3.org/2000/svg" width="820" height="350"><path fill="#fff" d="M0 0h820v350H0z"/><g transform="translate(259.289 112)" fill="#d7f3f5" stroke="#26ccda" stroke-width="2.4"><rect width="180" height="77" rx="10" stroke="none"/><rect x="1.2" y="1.2" width="177.6" height="74.6" rx="8.8" fill="none"/></g><path d="M272.148 26.836h-1.867V31h-2.344V19.625h4.227a4.778 4.778 0 0 1 3.109.9 3.1 3.1 0 0 1 1.094 2.539 3.5 3.5 0 0 1-.504 1.936 3.437 3.437 0 0 1-1.527 1.238l2.461 4.648V31h-2.516Zm-1.867-1.9h1.891a1.936 1.936 0 0 0 1.367-.449 1.606 1.606 0 0 0 .484-1.238 1.719 1.719 0 0 0-.457-1.266 1.9 1.9 0 0 0-1.4-.461h-1.883Zm11.608 6.22a4.15 4.15 0 0 1-3.026-1.14 4.054 4.054 0 0 1-1.168-3.039v-.219a5.106 5.106 0 0 1 .494-2.278 3.612 3.612 0 0 1 1.395-1.547 3.914 3.914 0 0 1 2.059-.543 3.508 3.508 0 0 1 2.73 1.094 4.444 4.444 0 0 1 1 3.1v.922h-5.384a2.1 2.1 0 0 0 .66 1.328 2 2 0 0 0 1.395.5 2.437 2.437 0 0 0 2.039-.945l1.106 1.244a3.389 3.389 0 0 1-1.377 1.121 4.511 4.511 0 0 1-1.923.402Zm-.258-6.945a1.411 1.411 0 0 0-1.09.455 2.357 2.357 0 0 0-.535 1.3h3.141v-.181a1.681 1.681 0 0 0-.406-1.165 1.456 1.456 0 0 0-1.108-.409Zm8.531 5.125a1.481 1.481 0 0 0 1.016-.344 1.2 1.2 0 0 0 .406-.914h2.117a2.9 2.9 0 0 1-.469 1.574 3.093 3.093 0 0 1-1.259 1.11 3.949 3.949 0 0 1-1.77.395A3.67 3.67 0 0 1 287.344 30a4.56 4.56 0 0 1-1.047-3.18v-.148a4.508 4.508 0 0 1 1.039-3.117 3.627 3.627 0 0 1 2.853-1.164 3.555 3.555 0 0 1 2.543.9 3.2 3.2 0 0 1 .973 2.4h-2.116a1.551 1.551 0 0 0-.406-1.072 1.354 1.354 0 0 0-1.031-.412 1.36 1.36 0 0 0-1.191.575 3.333 3.333 0 0 0-.4 1.866v.235a3.375 3.375 0 0 0 .4 1.878 1.377 1.377 0 0 0 1.203.575Zm9.891.8a2.831 2.831 0 0 1-2.311 1.02 2.67 2.67 0 0 1-2.074-.781 3.335 3.335 0 0 1-.73-2.289v-5.539h2.258v5.467q0 1.322 1.2 1.322a1.63 1.63 0 0 0 1.578-.8v-5.989h2.266V31h-2.125Zm8.641-5.477a6.134 6.134 0 0 0-.812-.062 1.654 1.654 0 0 0-1.68.867V31h-2.258v-8.453h2.133l.063 1.008a2.092 2.092 0 0 1 1.883-1.164 2.366 2.366 0 0 1 .7.1Zm5.664 4a.727.727 0 0 0-.41-.652 4.659 4.659 0 0 0-1.316-.426q-3.016-.633-3.016-2.562a2.323 2.323 0 0 1 .934-1.879 3.766 3.766 0 0 1 2.439-.749 4.053 4.053 0 0 1 2.574.758 2.388 2.388 0 0 1 .965 1.969h-2.258a1.092 1.092 0 0 0-.312-.8 1.322 1.322 0 0 0-.969-.318 1.351 1.351 0 0 0-.883.258.814.814 0 0 0-.312.656.7.7 0 0 0 .355.605 3.657 3.657 0 0 0 1.2.4 9.8 9.8 0 0 1 1.422.379 2.336 2.336 0 0 1 1.784 2.272 2.2 2.2 0 0 1-.992 1.871 4.28 4.28 0 0 1-2.562.715 4.47 4.47 0 0 1-1.887-.379 3.166 3.166 0 0 1-1.293-1.039 2.414 2.414 0 0 1-.469-1.426h2.137a1.179 1.179 0 0 0 .445.922 1.766 1.766 0 0 0 1.109.32 1.635 1.635 0 0 0 .98-.246.766.766 0 0 0 .336-.644Zm3.3-1.969a5.013 5.013 0 0 1 .484-2.242 3.546 3.546 0 0 1 1.393-1.518 4.069 4.069 0 0 1 2.113-.539 3.849 3.849 0 0 1 2.793 1.047 4.2 4.2 0 0 1 1.207 2.844l.016.578a4.418 4.418 0 0 1-1.086 3.12 3.775 3.775 0 0 1-2.914 1.176 3.793 3.793 0 0 1-2.918-1.172 4.5 4.5 0 0 1-1.09-3.184Zm2.258.16a3.16 3.16 0 0 0 .451 1.85 1.5 1.5 0 0 0 1.3.638 1.5 1.5 0 0 0 1.281-.63 3.457 3.457 0 0 0 .461-2.015 3.128 3.128 0 0 0-.461-1.831 1.5 1.5 0 0 0-1.3-.649 1.474 1.474 0 0 0-1.281.646 3.516 3.516 0 0 0-.453 1.997Zm11.719 1.808a.727.727 0 0 0-.41-.652 4.659 4.659 0 0 0-1.316-.426q-3.02-.627-3.02-2.557a2.323 2.323 0 0 1 .934-1.879 3.766 3.766 0 0 1 2.441-.754 4.053 4.053 0 0 1 2.574.758 2.388 2.388 0 0 1 .965 1.969h-2.258a1.092 1.092 0 0 0-.312-.8 1.322 1.322 0 0 0-.975-.317 1.351 1.351 0 0 0-.883.258.814.814 0 0 0-.312.656.7.7 0 0 0 .355.605 3.657 3.657 0 0 0 1.2.4 9.8 9.8 0 0 1 1.421.381 2.336 2.336 0 0 1 1.789 2.27 2.2 2.2 0 0 1-.992 1.871 4.28 4.28 0 0 1-2.562.715 4.47 4.47 0 0 1-1.885-.379 3.166 3.166 0 0 1-1.3-1.039 2.414 2.414 0 0 1-.469-1.426h2.141a1.179 1.179 0 0 0 .445.922 1.766 1.766 0 0 0 1.109.32 1.635 1.635 0 0 0 .98-.246.766.766 0 0 0 .338-.644Zm15.24-1.806a5.07 5.07 0 0 1-.886 3.128 2.843 2.843 0 0 1-2.4 1.176 2.633 2.633 0 0 1-2.07-.891v3.985h-2.258v-11.7h2.098l.078.828a2.654 2.654 0 0 1 2.141-.984 2.862 2.862 0 0 1 2.43 1.156 5.207 5.207 0 0 1 .867 3.188Zm-2.258-.164a3.327 3.327 0 0 0-.418-1.82 1.361 1.361 0 0 0-1.21-.641 1.478 1.478 0 0 0-1.461.813v3.46a1.5 1.5 0 0 0 1.477.836q1.612 0 1.612-2.648Zm8.406-2.024a6.134 6.134 0 0 0-.812-.064 1.654 1.654 0 0 0-1.68.867V31h-2.258v-8.453h2.133l.063 1.008a2.092 2.092 0 0 1 1.883-1.164 2.366 2.366 0 0 1 .7.1Zm4.829 6.492a4.15 4.15 0 0 1-3.028-1.14 4.054 4.054 0 0 1-1.168-3.039v-.219a5.106 5.106 0 0 1 .492-2.278 3.612 3.612 0 0 1 1.395-1.546 3.914 3.914 0 0 1 2.059-.543 3.508 3.508 0 0 1 2.73 1.094 4.444 4.444 0 0 1 1 3.1v.922h-5.387a2.1 2.1 0 0 0 .66 1.328 2 2 0 0 0 1.395.5 2.437 2.437 0 0 0 2.039-.944l1.109 1.242a3.389 3.389 0 0 1-1.375 1.121 4.511 4.511 0 0 1-1.921.402Zm-.263-6.945a1.411 1.411 0 0 0-1.09.455 2.357 2.357 0 0 0-.535 1.3h3.145v-.181a1.681 1.681 0 0 0-.406-1.165 1.456 1.456 0 0 0-1.114-.409Zm7.4 6.789h-2.262v-8.453h2.262Zm-2.4-10.641a1.112 1.112 0 0 1 .34-.836 1.277 1.277 0 0 1 .926-.328 1.28 1.28 0 0 1 .922.328 1.105 1.105 0 0 1 .344.836 1.108 1.108 0 0 1-.348.844 1.283 1.283 0 0 1-.918.328 1.283 1.283 0 0 1-.918-.328 1.108 1.108 0 0 1-.348-.844Zm6.38 2.188.07.945a2.971 2.971 0 0 1 2.43-1.1 2.255 2.255 0 0 1 2.242 1.288 2.9 2.9 0 0 1 2.539-1.289 2.521 2.521 0 0 1 2.047.8 3.681 3.681 0 0 1 .672 2.409V31h-2.266v-5.391a1.61 1.61 0 0 0-.281-1.051 1.246 1.246 0 0 0-.992-.332 1.409 1.409 0 0 0-1.406.969l.007 5.805h-2.258v-5.383a1.59 1.59 0 0 0-.284-1.062 1.259 1.259 0 0 0-.984-.328 1.463 1.463 0 0 0-1.391.8V31h-2.262v-8.453Zm19.344 4.3a5.07 5.07 0 0 1-.887 3.129 2.843 2.843 0 0 1-2.395 1.18 2.633 2.633 0 0 1-2.07-.891v3.985h-2.258v-11.7h2.094l.078.828a2.654 2.654 0 0 1 2.141-.984 2.862 2.862 0 0 1 2.43 1.156 5.207 5.207 0 0 1 .867 3.188Zm-2.258-.164a3.327 3.327 0 0 0-.418-1.82 1.361 1.361 0 0 0-1.215-.641 1.479 1.479 0 0 0-1.461.813V28.5a1.5 1.5 0 0 0 1.477.836q1.617 0 1.617-2.648Zm8.406-2.023a6.134 6.134 0 0 0-.812-.062 1.654 1.654 0 0 0-1.68.867V31h-2.258v-8.453h2.133l.063 1.008a2.092 2.092 0 0 1 1.882-1.164 2.366 2.366 0 0 1 .7.1Zm4.828 6.496a4.15 4.15 0 0 1-3.027-1.14 4.054 4.054 0 0 1-1.173-3.039v-.219a5.106 5.106 0 0 1 .5-2.278 3.612 3.612 0 0 1 1.395-1.547 3.914 3.914 0 0 1 2.059-.543 3.508 3.508 0 0 1 2.73 1.094 4.444 4.444 0 0 1 1 3.1v.922h-5.39a2.1 2.1 0 0 0 .66 1.328 2 2 0 0 0 1.395.5 2.437 2.437 0 0 0 2.039-.945l1.112 1.244a3.389 3.389 0 0 1-1.378 1.121 4.511 4.511 0 0 1-1.922.402Zm-.258-6.945a1.411 1.411 0 0 0-1.09.455 2.357 2.357 0 0 0-.535 1.3h3.141v-.181a1.681 1.681 0 0 0-.406-1.165 1.456 1.456 0 0 0-1.11-.409Zm9.594 4.453a.727.727 0 0 0-.41-.652 4.659 4.659 0 0 0-1.316-.426q-3.016-.633-3.016-2.562a2.323 2.323 0 0 1 .934-1.879 3.766 3.766 0 0 1 2.441-.754 4.053 4.053 0 0 1 2.574.758 2.388 2.388 0 0 1 .965 1.969h-2.258a1.092 1.092 0 0 0-.312-.8 1.322 1.322 0 0 0-.977-.318 1.351 1.351 0 0 0-.883.258.814.814 0 0 0-.312.656.7.7 0 0 0 .355.605 3.657 3.657 0 0 0 1.2.4 9.8 9.8 0 0 1 1.422.379 2.336 2.336 0 0 1 1.788 2.272 2.2 2.2 0 0 1-.992 1.871 4.28 4.28 0 0 1-2.562.715 4.47 4.47 0 0 1-1.887-.379 3.166 3.166 0 0 1-1.29-1.039 2.414 2.414 0 0 1-.469-1.426h2.141a1.179 1.179 0 0 0 .445.922 1.766 1.766 0 0 0 1.109.32 1.635 1.635 0 0 0 .974-.245.766.766 0 0 0 .336-.645ZM414.656 31h-2.267v-8.453h2.266Zm-2.4-10.641a1.112 1.112 0 0 1 .34-.836 1.277 1.277 0 0 1 .926-.328 1.28 1.28 0 0 1 .922.328 1.105 1.105 0 0 1 .344.836 1.108 1.108 0 0 1-.348.844 1.283 1.283 0 0 1-.918.328 1.283 1.283 0 0 1-.918-.328 1.108 1.108 0 0 1-.346-.844Zm3.908 6.341a5.013 5.013 0 0 1 .484-2.242 3.546 3.546 0 0 1 1.395-1.528 4.069 4.069 0 0 1 2.113-.539 3.849 3.849 0 0 1 2.793 1.047 4.2 4.2 0 0 1 1.207 2.844l.016.578a4.418 4.418 0 0 1-1.083 3.12 3.775 3.775 0 0 1-2.917 1.176 3.793 3.793 0 0 1-2.918-1.172 4.5 4.5 0 0 1-1.09-3.184Zm2.258.16a3.16 3.16 0 0 0 .453 1.84 1.5 1.5 0 0 0 1.3.638 1.5 1.5 0 0 0 1.281-.63 3.457 3.457 0 0 0 .461-2.015 3.128 3.128 0 0 0-.461-1.831 1.5 1.5 0 0 0-1.3-.649 1.474 1.474 0 0 0-1.281.646 3.516 3.516 0 0 0-.453 1.997Zm2.18-7.86h2.461l-2.165 2.422h-1.836Zm7.039 3.547.07.977a2.951 2.951 0 0 1 2.43-1.133 2.453 2.453 0 0 1 2 .789 3.682 3.682 0 0 1 .672 2.359V31h-2.258v-5.406a1.465 1.465 0 0 0-.312-1.043 1.4 1.4 0 0 0-1.039-.324 1.553 1.553 0 0 0-1.43.813V31h-2.258v-8.453ZM506.617 151.836h-1.867V156h-2.344v-11.375h4.227a4.778 4.778 0 0 1 3.109.9 3.1 3.1 0 0 1 1.094 2.539 3.5 3.5 0 0 1-.504 1.936 3.437 3.437 0 0 1-1.527 1.238l2.461 4.648V156h-2.516Zm-1.867-1.9h1.891a1.936 1.936 0 0 0 1.367-.449 1.606 1.606 0 0 0 .481-1.237 1.719 1.719 0 0 0-.457-1.266 1.9 1.9 0 0 0-1.4-.461h-1.883Zm11.609 6.22a4.15 4.15 0 0 1-3.027-1.14 4.054 4.054 0 0 1-1.168-3.039v-.219a5.106 5.106 0 0 1 .492-2.277 3.612 3.612 0 0 1 1.395-1.547 3.914 3.914 0 0 1 2.059-.543 3.508 3.508 0 0 1 2.73 1.094 4.444 4.444 0 0 1 1 3.1v.922h-5.383a2.1 2.1 0 0 0 .66 1.328 2 2 0 0 0 1.395.5 2.437 2.437 0 0 0 2.039-.945l1.109 1.242a3.389 3.389 0 0 1-1.379 1.122 4.511 4.511 0 0 1-1.922.402Zm-.258-6.945a1.411 1.411 0 0 0-1.09.455 2.357 2.357 0 0 0-.535 1.3h3.141v-.181a1.681 1.681 0 0 0-.406-1.165 1.456 1.456 0 0 0-1.109-.409Zm9.594 4.453a.727.727 0 0 0-.406-.652 4.659 4.659 0 0 0-1.316-.426q-3.016-.633-3.016-2.562a2.323 2.323 0 0 1 .932-1.879 3.766 3.766 0 0 1 2.441-.754 4.053 4.053 0 0 1 2.574.758 2.388 2.388 0 0 1 .965 1.969h-2.26a1.092 1.092 0 0 0-.312-.8 1.322 1.322 0 0 0-.977-.318 1.351 1.351 0 0 0-.883.258.814.814 0 0 0-.312.656.7.7 0 0 0 .355.605 3.657 3.657 0 0 0 1.2.4 9.8 9.8 0 0 1 1.422.379 2.336 2.336 0 0 1 1.787 2.272 2.2 2.2 0 0 1-.992 1.871 4.28 4.28 0 0 1-2.562.715 4.47 4.47 0 0 1-1.886-.379 3.166 3.166 0 0 1-1.293-1.039 2.414 2.414 0 0 1-.467-1.425h2.141a1.179 1.179 0 0 0 .445.922 1.766 1.766 0 0 0 1.109.32 1.635 1.635 0 0 0 .98-.246.766.766 0 0 0 .331-.645Zm8.711 1.477a2.831 2.831 0 0 1-2.317 1.015 2.67 2.67 0 0 1-2.07-.781 3.335 3.335 0 0 1-.73-2.289v-5.539h2.258v5.467q0 1.322 1.2 1.322a1.63 1.63 0 0 0 1.578-.8v-5.989h2.264V156h-2.12Zm6.274.859h-2.266v-12h2.266Zm4.563-10.531v2.078h1.446v1.653h-1.445v4.219a1.007 1.007 0 0 0 .18.672.9.9 0 0 0 .688.2 3.6 3.6 0 0 0 .664-.055v1.717a4.648 4.648 0 0 1-1.367.2 2.156 2.156 0 0 1-2.422-2.4V149.2h-1.234v-1.653h1.236v-2.078ZM552.844 156a2.507 2.507 0 0 1-.227-.758 2.732 2.732 0 0 1-2.128.914 3 3 0 0 1-2.059-.719 2.312 2.312 0 0 1-.816-1.812 2.389 2.389 0 0 1 1-2.062 4.915 4.915 0 0 1 2.875-.727h1.039v-.484a1.393 1.393 0 0 0-.3-.937 1.183 1.183 0 0 0-.949-.352 1.345 1.345 0 0 0-.895.273.929.929 0 0 0-.324.75h-2.258a2.268 2.268 0 0 1 .453-1.359 3 3 0 0 1 1.281-.98 4.669 4.669 0 0 1 1.853-.356 3.689 3.689 0 0 1 2.48.785 2.747 2.747 0 0 1 .92 2.207v3.664a4.041 4.041 0 0 0 .336 1.82V156Zm-1.867-1.57a1.945 1.945 0 0 0 .922-.223 1.462 1.462 0 0 0 .625-.6v-1.451h-.844q-1.7 0-1.8 1.172l-.008.133a.9.9 0 0 0 .3.7 1.153 1.153 0 0 0 .805.269Zm5.2-2.719a5.094 5.094 0 0 1 .887-3.148 2.877 2.877 0 0 1 2.425-1.172 2.589 2.589 0 0 1 2.039.922V144h2.261v12h-2.039l-.109-.9a2.657 2.657 0 0 1-2.172 1.056 2.869 2.869 0 0 1-2.395-1.176 5.258 5.258 0 0 1-.902-3.269Zm2.258.168a3.337 3.337 0 0 0 .409 1.821 1.349 1.349 0 0 0 1.2.634 1.511 1.511 0 0 0 1.477-.884v-3.339a1.489 1.489 0 0 0-1.461-.884q-1.63 0-1.63 2.652Zm6.754-.179a5.013 5.013 0 0 1 .484-2.242 3.546 3.546 0 0 1 1.393-1.528 4.069 4.069 0 0 1 2.113-.539 3.849 3.849 0 0 1 2.793 1.047 4.2 4.2 0 0 1 1.207 2.844l.016.578a4.418 4.418 0 0 1-1.086 3.12 3.775 3.775 0 0 1-2.914 1.176 3.793 3.793 0 0 1-2.918-1.172 4.5 4.5 0 0 1-1.088-3.184Zm2.258.16a3.16 3.16 0 0 0 .451 1.84 1.5 1.5 0 0 0 1.3.638 1.5 1.5 0 0 0 1.281-.63 3.457 3.457 0 0 0 .461-2.015 3.128 3.128 0 0 0-.461-1.831 1.5 1.5 0 0 0-1.3-.649 1.474 1.474 0 0 0-1.281.646 3.516 3.516 0 0 0-.453 1.997Zm11.719 1.808a.727.727 0 0 0-.41-.652 4.659 4.659 0 0 0-1.316-.426q-3.016-.633-3.016-2.562a2.323 2.323 0 0 1 .934-1.879 3.766 3.766 0 0 1 2.441-.754 4.053 4.053 0 0 1 2.574.758 2.388 2.388 0 0 1 .965 1.969h-2.258a1.092 1.092 0 0 0-.312-.8 1.322 1.322 0 0 0-.979-.322 1.351 1.351 0 0 0-.883.258.814.814 0 0 0-.312.656.7.7 0 0 0 .355.605 3.657 3.657 0 0 0 1.2.4 9.8 9.8 0 0 1 1.422.379 2.336 2.336 0 0 1 1.788 2.272 2.2 2.2 0 0 1-.992 1.871 4.28 4.28 0 0 1-2.562.715 4.47 4.47 0 0 1-1.887-.379 3.166 3.166 0 0 1-1.293-1.039 2.414 2.414 0 0 1-.469-1.426h2.141a1.179 1.179 0 0 0 .445.922 1.766 1.766 0 0 0 1.109.32 1.635 1.635 0 0 0 .98-.246.766.766 0 0 0 .333-.644Zm15.24-1.816a5.07 5.07 0 0 1-.887 3.128 2.843 2.843 0 0 1-2.394 1.176 2.633 2.633 0 0 1-2.07-.891v3.985h-2.258v-11.7h2.092l.078.828a2.654 2.654 0 0 1 2.142-.987 2.862 2.862 0 0 1 2.43 1.156 5.207 5.207 0 0 1 .867 3.188Zm-2.258-.164a3.327 3.327 0 0 0-.418-1.82 1.361 1.361 0 0 0-1.214-.641 1.478 1.478 0 0 0-1.461.813v3.46a1.5 1.5 0 0 0 1.477.836q1.616 0 1.616-2.648Zm8.407-2.024a6.134 6.134 0 0 0-.813-.064 1.654 1.654 0 0 0-1.68.867V156h-2.257v-8.453h2.132l.063 1.008a2.092 2.092 0 0 1 1.883-1.164 2.366 2.366 0 0 1 .7.1Zm4.828 6.492a4.15 4.15 0 0 1-3.028-1.14 4.054 4.054 0 0 1-1.166-3.039v-.219a5.106 5.106 0 0 1 .492-2.277 3.612 3.612 0 0 1 1.395-1.547 3.914 3.914 0 0 1 2.059-.543 3.508 3.508 0 0 1 2.73 1.094 4.444 4.444 0 0 1 1 3.1v.922h-5.388a2.1 2.1 0 0 0 .66 1.328 2 2 0 0 0 1.395.5 2.437 2.437 0 0 0 2.039-.945l1.109 1.242a3.389 3.389 0 0 1-1.375 1.122 4.511 4.511 0 0 1-1.922.402Zm-.258-6.945a1.411 1.411 0 0 0-1.09.455 2.357 2.357 0 0 0-.535 1.3h3.141v-.181a1.681 1.681 0 0 0-.406-1.165 1.456 1.456 0 0 0-1.11-.409Zm7.398 6.789h-2.265v-8.453h2.266Zm-2.4-10.641a1.112 1.112 0 0 1 .34-.836 1.277 1.277 0 0 1 .926-.323 1.28 1.28 0 0 1 .922.328 1.105 1.105 0 0 1 .344.836 1.108 1.108 0 0 1-.348.844 1.283 1.283 0 0 1-.918.328 1.283 1.283 0 0 1-.918-.328 1.108 1.108 0 0 1-.346-.849Zm6.375 2.188.07.945a2.971 2.971 0 0 1 2.43-1.1 2.255 2.255 0 0 1 2.244 1.288 2.9 2.9 0 0 1 2.539-1.289 2.521 2.521 0 0 1 2.047.8 3.681 3.681 0 0 1 .672 2.41V156h-2.266v-5.391a1.61 1.61 0 0 0-.281-1.051 1.246 1.246 0 0 0-.992-.332 1.409 1.409 0 0 0-1.406.969l.007 5.805h-2.257v-5.383a1.59 1.59 0 0 0-.289-1.062 1.259 1.259 0 0 0-.984-.328 1.463 1.463 0 0 0-1.391.8V156h-2.258v-8.453Zm19.344 4.3a5.07 5.07 0 0 1-.887 3.129 2.843 2.843 0 0 1-2.393 1.18 2.633 2.633 0 0 1-2.073-.89v3.984h-2.255v-11.7h2.094l.078.828a2.654 2.654 0 0 1 2.141-.984 2.862 2.862 0 0 1 2.43 1.156 5.207 5.207 0 0 1 .867 3.188Zm-2.253-.159a3.327 3.327 0 0 0-.418-1.82 1.361 1.361 0 0 0-1.215-.641 1.479 1.479 0 0 0-1.461.813v3.46a1.5 1.5 0 0 0 1.477.836q1.617 0 1.617-2.648Zm8.4-2.024a6.134 6.134 0 0 0-.812-.062 1.654 1.654 0 0 0-1.68.867V156h-2.255v-8.453h2.133l.063 1.008a2.092 2.092 0 0 1 1.883-1.164 2.366 2.366 0 0 1 .7.1Zm4.831 6.492a4.15 4.15 0 0 1-3.031-1.14 4.054 4.054 0 0 1-1.168-3.039v-.219a5.106 5.106 0 0 1 .492-2.277 3.612 3.612 0 0 1 1.395-1.547 3.914 3.914 0 0 1 2.059-.543 3.508 3.508 0 0 1 2.73 1.094 4.444 4.444 0 0 1 1 3.1v.922h-5.383a2.1 2.1 0 0 0 .66 1.328 2 2 0 0 0 1.395.5 2.437 2.437 0 0 0 2.039-.945l1.109 1.242a3.389 3.389 0 0 1-1.375 1.122 4.511 4.511 0 0 1-1.922.402Zm-.258-6.945a1.411 1.411 0 0 0-1.09.455 2.357 2.357 0 0 0-.535 1.3h3.141v-.181a1.681 1.681 0 0 0-.406-1.165 1.456 1.456 0 0 0-1.11-.409Zm9.594 4.453a.727.727 0 0 0-.41-.652 4.659 4.659 0 0 0-1.316-.426q-3.016-.633-3.016-2.562a2.323 2.323 0 0 1 .934-1.879 3.766 3.766 0 0 1 2.441-.754 4.053 4.053 0 0 1 2.574.758 2.388 2.388 0 0 1 .965 1.969h-2.258a1.092 1.092 0 0 0-.312-.8 1.322 1.322 0 0 0-.977-.318 1.351 1.351 0 0 0-.883.258.814.814 0 0 0-.312.656.7.7 0 0 0 .355.605 3.657 3.657 0 0 0 1.2.4 9.8 9.8 0 0 1 1.422.379 2.336 2.336 0 0 1 1.789 2.272 2.2 2.2 0 0 1-.993 1.871 4.28 4.28 0 0 1-2.562.715 4.47 4.47 0 0 1-1.887-.379 3.166 3.166 0 0 1-1.293-1.039 2.414 2.414 0 0 1-.469-1.426h2.141a1.179 1.179 0 0 0 .445.922 1.766 1.766 0 0 0 1.109.32 1.635 1.635 0 0 0 .98-.246.766.766 0 0 0 .333-.644Zm6.033 2.336h-2.267v-8.453h2.267Zm-2.4-10.641a1.112 1.112 0 0 1 .34-.836 1.277 1.277 0 0 1 .926-.328 1.28 1.28 0 0 1 .922.328 1.105 1.105 0 0 1 .344.836 1.108 1.108 0 0 1-.348.844 1.283 1.283 0 0 1-.918.328 1.283 1.283 0 0 1-.918-.328 1.108 1.108 0 0 1-.348-.844Zm3.906 6.341a5.013 5.013 0 0 1 .484-2.242 3.546 3.546 0 0 1 1.395-1.528 4.069 4.069 0 0 1 2.115-.539 3.849 3.849 0 0 1 2.793 1.047 4.2 4.2 0 0 1 1.207 2.843l.016.578a4.418 4.418 0 0 1-1.088 3.121 3.775 3.775 0 0 1-2.914 1.176 3.793 3.793 0 0 1-2.914-1.172 4.5 4.5 0 0 1-1.094-3.184Zm2.258.16a3.16 3.16 0 0 0 .453 1.84 1.5 1.5 0 0 0 1.3.638 1.5 1.5 0 0 0 1.281-.63 3.457 3.457 0 0 0 .461-2.015 3.128 3.128 0 0 0-.459-1.833 1.5 1.5 0 0 0-1.3-.649 1.474 1.474 0 0 0-1.281.646 3.516 3.516 0 0 0-.455 1.999Zm2.18-7.86h2.456l-2.159 2.422h-1.841Zm7.039 3.547.07.977a2.951 2.951 0 0 1 2.43-1.133 2.453 2.453 0 0 1 2 .789 3.682 3.682 0 0 1 .672 2.359V156h-2.255v-5.406a1.465 1.465 0 0 0-.312-1.043 1.4 1.4 0 0 0-1.039-.324 1.553 1.553 0 0 0-1.43.813V156h-2.261v-8.453ZM266.74 322.264a5.031 5.031 0 0 1-1.694 3.613 5.951 5.951 0 0 1-4.028 1.323 5.351 5.351 0 0 1-4.3-1.841 7.548 7.548 0 0 1-1.57-5.059v-.869a8.523 8.523 0 0 1 .723-3.613 5.416 5.416 0 0 1 2.065-2.4 5.786 5.786 0 0 1 3.12-.835 5.8 5.8 0 0 1 3.965 1.317 5.407 5.407 0 0 1 1.738 3.7h-2.93a2.97 2.97 0 0 0-.767-2 2.839 2.839 0 0 0-2.007-.62 2.489 2.489 0 0 0-2.192 1.05 5.883 5.883 0 0 0-.747 3.257v1.074a6.3 6.3 0 0 0 .7 3.369 2.443 2.443 0 0 0 2.2 1.064 2.892 2.892 0 0 0 2.026-.62 2.8 2.8 0 0 0 .767-1.919Zm1.3-.645a6.266 6.266 0 0 1 .605-2.8 4.432 4.432 0 0 1 1.743-1.9 5.086 5.086 0 0 1 2.642-.674 4.812 4.812 0 0 1 3.491 1.309 5.252 5.252 0 0 1 1.508 3.546l.02.723a5.523 5.523 0 0 1-1.357 3.9 4.718 4.718 0 0 1-3.643 1.477 4.742 4.742 0 0 1-3.648-1.47 5.62 5.62 0 0 1-1.362-3.984Zm2.822.2a3.95 3.95 0 0 0 .566 2.3 1.868 1.868 0 0 0 1.621.8 1.873 1.873 0 0 0 1.6-.787 4.322 4.322 0 0 0 .576-2.518 3.91 3.91 0 0 0-.576-2.289 1.873 1.873 0 0 0-1.621-.812 1.842 1.842 0 0 0-1.6.807 4.395 4.395 0 0 0-.567 2.499Zm11.527-5.385.088 1.221a3.689 3.689 0 0 1 3.037-1.416 3.066 3.066 0 0 1 2.5.986 4.6 4.6 0 0 1 .84 2.949V327h-2.822v-6.758a1.831 1.831 0 0 0-.391-1.3 1.749 1.749 0 0 0-1.3-.405 1.942 1.942 0 0 0-1.787 1.016V327h-2.822v-10.566Zm11.982-2.6v2.6h1.807v2.066h-1.807v5.273a1.259 1.259 0 0 0 .225.84 1.128 1.128 0 0 0 .859.254 4.5 4.5 0 0 0 .83-.068v2.142a5.81 5.81 0 0 1-1.713.259q-2.969 0-3.027-3v-5.7h-1.543v-2.07h1.543v-2.6Zm9.316 5.244a7.667 7.667 0 0 0-1.019-.078 2.067 2.067 0 0 0-2.1 1.084V327h-2.822v-10.566h2.666l.078 1.26a2.615 2.615 0 0 1 2.354-1.455 2.957 2.957 0 0 1 .879.127Zm.566 2.539a6.267 6.267 0 0 1 .605-2.8 4.432 4.432 0 0 1 1.743-1.9 5.086 5.086 0 0 1 2.642-.674 4.812 4.812 0 0 1 3.491 1.309 5.252 5.252 0 0 1 1.506 3.548l.02.723a5.523 5.523 0 0 1-1.357 3.9 4.718 4.718 0 0 1-3.643 1.477 4.742 4.742 0 0 1-3.648-1.47 5.62 5.62 0 0 1-1.362-3.984Zm2.822.2a3.95 3.95 0 0 0 .566 2.3 1.868 1.868 0 0 0 1.621.8 1.873 1.873 0 0 0 1.6-.787 4.322 4.322 0 0 0 .576-2.518 3.91 3.91 0 0 0-.576-2.289 1.873 1.873 0 0 0-1.621-.812 1.842 1.842 0 0 0-1.6.807 4.395 4.395 0 0 0-.569 2.501ZM318.977 327h-2.832v-15h2.832Zm16.812-5.186a6.337 6.337 0 0 1-1.1 3.912 3.554 3.554 0 0 1-3 1.474 3.292 3.292 0 0 1-2.586-1.118v4.98h-2.822v-14.628h2.617l.1 1.035a3.317 3.317 0 0 1 2.676-1.23 3.578 3.578 0 0 1 3.035 1.445 6.509 6.509 0 0 1 1.08 3.984Zm-2.822-.205a4.159 4.159 0 0 0-.522-2.275 1.7 1.7 0 0 0-1.519-.8 1.848 1.848 0 0 0-1.826 1.016v4.326a1.879 1.879 0 0 0 1.849 1.044q2.022 0 2.022-3.311Zm10.511-2.529a7.667 7.667 0 0 0-1.015-.08 2.067 2.067 0 0 0-2.1 1.084V327h-2.822v-10.566h2.666l.082 1.259a2.615 2.615 0 0 1 2.35-1.455 2.957 2.957 0 0 1 .879.127Zm6.036 8.12a5.187 5.187 0 0 1-3.785-1.43 5.068 5.068 0 0 1-1.46-3.8v-.27a6.383 6.383 0 0 1 .62-2.849 4.515 4.515 0 0 1 1.743-1.934 4.893 4.893 0 0 1 2.573-.679 4.385 4.385 0 0 1 3.409 1.367 5.555 5.555 0 0 1 1.245 3.877v1.152h-6.728a2.622 2.622 0 0 0 .825 1.66 2.5 2.5 0 0 0 1.743.626 3.046 3.046 0 0 0 2.549-1.182l1.387 1.553a4.237 4.237 0 0 1-1.719 1.4 5.639 5.639 0 0 1-2.402.509Zm-.325-8.686a1.764 1.764 0 0 0-1.362.569 2.946 2.946 0 0 0-.669 1.628h3.931v-.226a2.1 2.1 0 0 0-.508-1.457 1.819 1.819 0 0 0-1.392-.514Zm9.25 8.486h-2.832v-10.566h2.832Zm-3-13.3a1.39 1.39 0 0 1 .425-1.045 1.6 1.6 0 0 1 1.157-.41 1.6 1.6 0 0 1 1.152.41 1.382 1.382 0 0 1 .43 1.045 1.386 1.386 0 0 1-.435 1.055 1.6 1.6 0 0 1-1.147.41 1.6 1.6 0 0 1-1.147-.41 1.386 1.386 0 0 1-.433-1.055Zm7.969 2.734.088 1.182a3.713 3.713 0 0 1 3.037-1.377 2.818 2.818 0 0 1 2.8 1.611 3.628 3.628 0 0 1 3.174-1.611 3.152 3.152 0 0 1 2.559 1 4.6 4.6 0 0 1 .84 3.013V327h-2.828v-6.738a2.012 2.012 0 0 0-.352-1.313 1.558 1.558 0 0 0-1.24-.415 1.761 1.761 0 0 0-1.758 1.211l.01 7.255h-2.822v-6.729a1.988 1.988 0 0 0-.361-1.328 1.573 1.573 0 0 0-1.23-.41 1.829 1.829 0 0 0-1.738 1V327h-2.823v-10.566Zm24.181 5.38a6.337 6.337 0 0 1-1.108 3.911 3.554 3.554 0 0 1-2.992 1.475 3.292 3.292 0 0 1-2.589-1.118v4.98h-2.822v-14.628h2.617l.1 1.035a3.317 3.317 0 0 1 2.676-1.23 3.578 3.578 0 0 1 3.037 1.445 6.509 6.509 0 0 1 1.081 3.984Zm-2.822-.205a4.159 4.159 0 0 0-.522-2.275 1.7 1.7 0 0 0-1.519-.8 1.848 1.848 0 0 0-1.826 1.016v4.326a1.879 1.879 0 0 0 1.846 1.044q2.022 0 2.022-3.311Zm10.508-2.529a7.667 7.667 0 0 0-1.015-.08 2.067 2.067 0 0 0-2.1 1.084V327h-2.822v-10.566h2.666l.078 1.26a2.615 2.615 0 0 1 2.354-1.455 2.957 2.957 0 0 1 .879.127Zm6.035 8.12a5.187 5.187 0 0 1-3.784-1.43 5.068 5.068 0 0 1-1.46-3.8v-.27a6.383 6.383 0 0 1 .615-2.847 4.515 4.515 0 0 1 1.743-1.934 4.893 4.893 0 0 1 2.573-.679 4.385 4.385 0 0 1 3.413 1.367 5.555 5.555 0 0 1 1.245 3.877v1.152h-6.727a2.622 2.622 0 0 0 .825 1.66 2.5 2.5 0 0 0 1.743.625 3.046 3.046 0 0 0 2.549-1.182l1.387 1.553a4.237 4.237 0 0 1-1.719 1.4 5.639 5.639 0 0 1-2.403.508Zm-.321-8.686a1.764 1.764 0 0 0-1.362.569 2.946 2.946 0 0 0-.669 1.628h3.926v-.226a2.1 2.1 0 0 0-.508-1.457 1.819 1.819 0 0 0-1.387-.514Zm11.991 5.566a.909.909 0 0 0-.513-.815 5.824 5.824 0 0 0-1.646-.532q-3.77-.791-3.77-3.2a2.9 2.9 0 0 1 1.167-2.349 4.708 4.708 0 0 1 3.052-.942 5.067 5.067 0 0 1 3.218.947 2.985 2.985 0 0 1 1.206 2.461h-2.821a1.366 1.366 0 0 0-.391-1 1.653 1.653 0 0 0-1.221-.4 1.689 1.689 0 0 0-1.1.322 1.017 1.017 0 0 0-.391.82.87.87 0 0 0 .444.757 4.571 4.571 0 0 0 1.5.5 12.244 12.244 0 0 1 1.777.474 2.92 2.92 0 0 1 2.236 2.842 2.756 2.756 0 0 1-1.238 2.335 5.35 5.35 0 0 1-3.2.894 5.588 5.588 0 0 1-2.358-.474 3.957 3.957 0 0 1-1.616-1.3 3.018 3.018 0 0 1-.586-1.782h2.676a1.473 1.473 0 0 0 .557 1.152 2.208 2.208 0 0 0 1.387.4 2.044 2.044 0 0 0 1.226-.308.957.957 0 0 0 .405-.802Zm7.539 2.92h-2.83v-10.566h2.83Zm-3-13.3a1.39 1.39 0 0 1 .425-1.045 1.6 1.6 0 0 1 1.157-.41 1.6 1.6 0 0 1 1.152.41 1.382 1.382 0 0 1 .436 1.045 1.386 1.386 0 0 1-.435 1.055 1.6 1.6 0 0 1-1.147.41 1.6 1.6 0 0 1-1.147-.41 1.386 1.386 0 0 1-.439-1.055Zm4.883 7.92a6.266 6.266 0 0 1 .605-2.8 4.432 4.432 0 0 1 1.743-1.9 5.086 5.086 0 0 1 2.642-.674 4.812 4.812 0 0 1 3.497 1.301 5.252 5.252 0 0 1 1.505 3.553l.02.723a5.523 5.523 0 0 1-1.357 3.9 4.718 4.718 0 0 1-3.643 1.477 4.742 4.742 0 0 1-3.647-1.47 5.62 5.62 0 0 1-1.362-3.984Zm2.822.2a3.95 3.95 0 0 0 .566 2.3 1.868 1.868 0 0 0 1.621.8 1.873 1.873 0 0 0 1.6-.787 4.322 4.322 0 0 0 .578-2.519 3.91 3.91 0 0 0-.576-2.289 1.873 1.873 0 0 0-1.621-.812 1.842 1.842 0 0 0-1.6.807 4.395 4.395 0 0 0-.565 2.499Zm2.727-9.82h3.076l-2.705 3.027h-2.295Zm8.8 4.434.088 1.221a3.689 3.689 0 0 1 3.037-1.416 3.066 3.066 0 0 1 2.5.986 4.6 4.6 0 0 1 .84 2.949V327h-2.827v-6.758a1.831 1.831 0 0 0-.391-1.3 1.749 1.749 0 0 0-1.3-.405 1.942 1.942 0 0 0-1.787 1.016V327h-2.822v-10.566ZM287.516 152.489V158h-3.227v-15.641h6.1a7.059 7.059 0 0 1 3.1.645 4.75 4.75 0 0 1 2.057 1.832 5.107 5.107 0 0 1 .72 2.7 4.491 4.491 0 0 1-1.574 3.625 6.555 6.555 0 0 1-4.356 1.327Zm0-2.61h2.879a2.831 2.831 0 0 0 1.95-.6 2.188 2.188 0 0 0 .671-1.719 2.58 2.58 0 0 0-.677-1.86 2.528 2.528 0 0 0-1.869-.73h-2.954Zm17.295-.591a8.434 8.434 0 0 0-1.122-.088 2.274 2.274 0 0 0-2.3 1.195V158h-3.1v-11.623h2.933l.086 1.386a2.877 2.877 0 0 1 2.589-1.6 3.253 3.253 0 0 1 .967.14Zm6.639 8.927a5.706 5.706 0 0 1-4.161-1.569 5.575 5.575 0 0 1-1.606-4.179v-.3a7.021 7.021 0 0 1 .677-3.131 4.967 4.967 0 0 1 1.917-2.127 5.382 5.382 0 0 1 2.831-.747 4.824 4.824 0 0 1 3.754 1.5 6.111 6.111 0 0 1 1.37 4.265v1.273h-7.4a2.884 2.884 0 0 0 .908 1.826 2.744 2.744 0 0 0 1.917.688 3.351 3.351 0 0 0 2.8-1.3l1.525 1.708a4.66 4.66 0 0 1-1.893 1.54 6.2 6.2 0 0 1-2.639.553Zm-.354-9.55a1.94 1.94 0 0 0-1.5.626 3.241 3.241 0 0 0-.736 1.791h4.318v-.248a2.311 2.311 0 0 0-.559-1.6 2 2 0 0 0-1.524-.569ZM321.268 158h-3.115v-11.623h3.115Zm-3.3-14.631a1.529 1.529 0 0 1 .467-1.149 1.755 1.755 0 0 1 1.273-.451 1.759 1.759 0 0 1 1.268.451 1.52 1.52 0 0 1 .473 1.149 1.524 1.524 0 0 1-.478 1.16 1.764 1.764 0 0 1-1.262.451 1.764 1.764 0 0 1-1.262-.451 1.524 1.524 0 0 1-.477-1.16Zm8.766 3.008.1 1.3a4.085 4.085 0 0 1 3.341-1.515 3.1 3.1 0 0 1 3.083 1.772 3.991 3.991 0 0 1 3.491-1.772 3.467 3.467 0 0 1 2.814 1.1 5.061 5.061 0 0 1 .926 3.315V158h-3.115v-7.412a2.213 2.213 0 0 0-.387-1.445 1.714 1.714 0 0 0-1.364-.457 1.938 1.938 0 0 0-1.934 1.333l.008 7.981h-3.1v-7.4a2.186 2.186 0 0 0-.4-1.461 1.731 1.731 0 0 0-1.354-.451 2.012 2.012 0 0 0-1.912 1.1V158h-3.1v-11.623Zm26.599 5.923a6.971 6.971 0 0 1-1.219 4.3 3.909 3.909 0 0 1-3.292 1.615 3.621 3.621 0 0 1-2.847-1.225v5.479h-3.1v-16.092h2.874l.107 1.139a3.649 3.649 0 0 1 2.944-1.354 3.936 3.936 0 0 1 3.341 1.59 7.16 7.16 0 0 1 1.192 4.383Zm-3.104-.23a4.574 4.574 0 0 0-.575-2.5 1.872 1.872 0 0 0-1.67-.881 2.033 2.033 0 0 0-2.009 1.111v4.759a2.067 2.067 0 0 0 2.03 1.149q2.224.004 2.224-3.638Zm11.56-2.782a8.434 8.434 0 0 0-1.119-.088 2.274 2.274 0 0 0-2.31 1.192V158h-3.1v-11.623h2.929l.086 1.386a2.877 2.877 0 0 1 2.589-1.6 3.253 3.253 0 0 1 .967.14Zm6.637 8.927a5.706 5.706 0 0 1-4.163-1.568 5.575 5.575 0 0 1-1.606-4.179v-.3a7.021 7.021 0 0 1 .677-3.131 4.967 4.967 0 0 1 1.917-2.127 5.382 5.382 0 0 1 2.831-.747 4.824 4.824 0 0 1 3.754 1.5 6.111 6.111 0 0 1 1.37 4.265v1.272h-7.4a2.884 2.884 0 0 0 .908 1.826 2.744 2.744 0 0 0 1.917.688 3.351 3.351 0 0 0 2.8-1.3l1.528 1.706a4.66 4.66 0 0 1-1.89 1.542 6.2 6.2 0 0 1-2.643.553Zm-.354-9.55a1.94 1.94 0 0 0-1.5.626 3.241 3.241 0 0 0-.736 1.791h4.318v-.248a2.311 2.311 0 0 0-.559-1.6 2 2 0 0 0-1.523-.569Zm13.191 6.123a1 1 0 0 0-.564-.9 6.406 6.406 0 0 0-1.81-.585q-4.146-.87-4.146-3.523a3.194 3.194 0 0 1 1.283-2.58 5.178 5.178 0 0 1 3.357-1.037 5.573 5.573 0 0 1 3.54 1.042 3.284 3.284 0 0 1 1.326 2.706h-3.1a1.5 1.5 0 0 0-.43-1.1 1.818 1.818 0 0 0-1.343-.435 1.858 1.858 0 0 0-1.214.354 1.119 1.119 0 0 0-.43.9.957.957 0 0 0 .489.833 5.028 5.028 0 0 0 1.649.548 13.468 13.468 0 0 1 1.955.521 3.212 3.212 0 0 1 2.46 3.126 3.032 3.032 0 0 1-1.368 2.574 5.885 5.885 0 0 1-3.528.983 6.147 6.147 0 0 1-2.594-.521 4.353 4.353 0 0 1-1.778-1.429 3.32 3.32 0 0 1-.645-1.96h2.943a1.621 1.621 0 0 0 .612 1.268 2.429 2.429 0 0 0 1.525.44 2.248 2.248 0 0 0 1.348-.338 1.053 1.053 0 0 0 .463-.887Zm8.293 3.212h-3.115v-11.623h3.115Zm-3.3-14.631a1.529 1.529 0 0 1 .467-1.149 1.755 1.755 0 0 1 1.273-.451 1.759 1.759 0 0 1 1.268.451 1.52 1.52 0 0 1 .473 1.149 1.524 1.524 0 0 1-.478 1.16 1.764 1.764 0 0 1-1.262.451 1.764 1.764 0 0 1-1.262-.451 1.524 1.524 0 0 1-.477-1.16Zm5.373 8.712a6.893 6.893 0 0 1 .666-3.081 4.876 4.876 0 0 1 1.918-2.1 5.594 5.594 0 0 1 2.906-.741 5.293 5.293 0 0 1 3.84 1.441 5.777 5.777 0 0 1 1.66 3.91l.021.795a6.075 6.075 0 0 1-1.493 4.295 5.19 5.19 0 0 1-4.007 1.615 5.216 5.216 0 0 1-4.012-1.615 6.182 6.182 0 0 1-1.5-4.383Zm3.1.22a4.345 4.345 0 0 0 .623 2.534 2.055 2.055 0 0 0 1.783.877 2.06 2.06 0 0 0 1.762-.866 4.754 4.754 0 0 0 .634-2.77 4.3 4.3 0 0 0-.634-2.518 2.06 2.06 0 0 0-1.783-.893 2.027 2.027 0 0 0-1.762.888 4.834 4.834 0 0 0-.618 2.747Zm3-10.8h3.384l-2.974 3.329h-2.524Zm9.679 4.877.1 1.343a4.058 4.058 0 0 1 3.341-1.558 3.372 3.372 0 0 1 2.75 1.085 5.062 5.062 0 0 1 .924 3.244V158h-3.1v-7.434a2.014 2.014 0 0 0-.43-1.434 1.924 1.924 0 0 0-1.429-.446 2.136 2.136 0 0 0-1.975 1.114v8.2h-3.1v-11.623ZM615.844 197.07h-4.5v3.047h5.281V202H609v-11.375h7.609v1.9h-5.266v2.711h4.5Zm4.086-3.523.07.977a2.951 2.951 0 0 1 2.43-1.133 2.453 2.453 0 0 1 2 .789 3.682 3.682 0 0 1 .672 2.359V202h-2.258v-5.406a1.465 1.465 0 0 0-.312-1.043 1.4 1.4 0 0 0-1.043-.324 1.553 1.553 0 0 0-1.43.813V202h-2.258v-8.453Zm9.586-2.078v2.078h1.445v1.653h-1.445v4.219a1.007 1.007 0 0 0 .18.672.9.9 0 0 0 .688.2 3.6 3.6 0 0 0 .664-.055v1.717a4.648 4.648 0 0 1-1.367.2 2.156 2.156 0 0 1-2.422-2.4V195.2h-1.234v-1.653h1.234v-2.078Zm7.453 4.2a6.134 6.134 0 0 0-.812-.062 1.654 1.654 0 0 0-1.68.867V202h-2.258v-8.453h2.133l.063 1.008a2.092 2.092 0 0 1 1.883-1.164 2.366 2.366 0 0 1 .7.1Zm5.75 6.331a2.507 2.507 0 0 1-.23-.758 2.732 2.732 0 0 1-2.13.914 3 3 0 0 1-2.059-.719 2.312 2.312 0 0 1-.811-1.812 2.389 2.389 0 0 1 1-2.062 4.915 4.915 0 0 1 2.879-.727h1.039v-.484a1.393 1.393 0 0 0-.3-.937 1.183 1.183 0 0 0-.949-.352 1.345 1.345 0 0 0-.895.273.929.929 0 0 0-.324.75h-2.258a2.268 2.268 0 0 1 .453-1.359 3 3 0 0 1 1.281-.98 4.669 4.669 0 0 1 1.859-.355 3.689 3.689 0 0 1 2.48.785 2.747 2.747 0 0 1 .918 2.207v3.664a4.041 4.041 0 0 0 .336 1.82V202Zm-1.867-1.57a1.945 1.945 0 0 0 .922-.223 1.462 1.462 0 0 0 .625-.6v-1.451h-.844q-1.7 0-1.8 1.172l-.008.133a.9.9 0 0 0 .3.7 1.153 1.153 0 0 0 .805.269Zm5.2-2.719a5.094 5.094 0 0 1 .887-3.148 2.877 2.877 0 0 1 2.42-1.172 2.589 2.589 0 0 1 2.039.922V190h2.266v12h-2.039l-.109-.9a2.657 2.657 0 0 1-2.172 1.056 2.869 2.869 0 0 1-2.395-1.176 5.258 5.258 0 0 1-.902-3.269Zm2.258.168a3.337 3.337 0 0 0 .409 1.821 1.349 1.349 0 0 0 1.2.634 1.511 1.511 0 0 0 1.477-.884v-3.339a1.489 1.489 0 0 0-1.461-.884q-1.63 0-1.63 2.652ZM660.312 202a2.507 2.507 0 0 1-.223-.758 2.732 2.732 0 0 1-2.133.914 3 3 0 0 1-2.059-.719 2.312 2.312 0 0 1-.816-1.812 2.389 2.389 0 0 1 1-2.062 4.915 4.915 0 0 1 2.879-.727h1.029v-.484a1.393 1.393 0 0 0-.3-.937 1.183 1.183 0 0 0-.949-.352 1.345 1.345 0 0 0-.895.273.929.929 0 0 0-.324.75h-2.258a2.268 2.268 0 0 1 .453-1.359 3 3 0 0 1 1.281-.98 4.669 4.669 0 0 1 1.859-.355 3.689 3.689 0 0 1 2.48.785 2.747 2.747 0 0 1 .918 2.207v3.664a4.041 4.041 0 0 0 .335 1.819V202Zm-1.867-1.57a1.945 1.945 0 0 0 .922-.223 1.462 1.462 0 0 0 .625-.6v-1.451h-.844q-1.7 0-1.8 1.172l-.008.133a.9.9 0 0 0 .3.7 1.153 1.153 0 0 0 .805.269Zm10.125-.766a.727.727 0 0 0-.41-.652 4.659 4.659 0 0 0-1.316-.426q-3.016-.633-3.016-2.562a2.323 2.323 0 0 1 .934-1.879 3.766 3.766 0 0 1 2.441-.754 4.053 4.053 0 0 1 2.574.758 2.388 2.388 0 0 1 .965 1.969h-2.253a1.092 1.092 0 0 0-.312-.8 1.322 1.322 0 0 0-.982-.318 1.351 1.351 0 0 0-.883.258.814.814 0 0 0-.312.656.7.7 0 0 0 .355.605 3.657 3.657 0 0 0 1.2.4 9.8 9.8 0 0 1 1.422.379 2.336 2.336 0 0 1 1.789 2.272 2.2 2.2 0 0 1-.992 1.871 4.28 4.28 0 0 1-2.562.715 4.47 4.47 0 0 1-1.887-.379 3.166 3.166 0 0 1-1.293-1.039 2.414 2.414 0 0 1-.469-1.426h2.141a1.179 1.179 0 0 0 .445.922 1.766 1.766 0 0 0 1.109.32 1.635 1.635 0 0 0 .98-.246.766.766 0 0 0 .332-.644Zm15.242-1.812a5.07 5.07 0 0 1-.886 3.128 2.843 2.843 0 0 1-2.395 1.176 2.633 2.633 0 0 1-2.07-.891v3.985h-2.258v-11.7h2.094l.078.828a2.654 2.654 0 0 1 2.141-.984 2.862 2.862 0 0 1 2.43 1.156 5.207 5.207 0 0 1 .867 3.188Zm-2.258-.164a3.327 3.327 0 0 0-.418-1.82 1.361 1.361 0 0 0-1.215-.641 1.478 1.478 0 0 0-1.461.813v3.46a1.5 1.5 0 0 0 1.477.836q1.618 0 1.618-2.648Zm8.407-2.024a6.134 6.134 0 0 0-.813-.064 1.654 1.654 0 0 0-1.68.867V202h-2.257v-8.453h2.133l.063 1.008a2.092 2.092 0 0 1 1.882-1.164 2.366 2.366 0 0 1 .7.1Zm4.828 6.492a4.15 4.15 0 0 1-3.027-1.14 4.054 4.054 0 0 1-1.173-3.039v-.219a5.106 5.106 0 0 1 .5-2.278 3.612 3.612 0 0 1 1.391-1.546 3.914 3.914 0 0 1 2.059-.543 3.508 3.508 0 0 1 2.73 1.093 4.444 4.444 0 0 1 1 3.1v.922h-5.386a2.1 2.1 0 0 0 .66 1.328 2 2 0 0 0 1.395.5 2.437 2.437 0 0 0 2.039-.945l1.112 1.244a3.389 3.389 0 0 1-1.378 1.121 4.511 4.511 0 0 1-1.922.402Zm-.258-6.945a1.411 1.411 0 0 0-1.09.455 2.357 2.357 0 0 0-.535 1.3h3.141v-.181a1.681 1.681 0 0 0-.406-1.165 1.456 1.456 0 0 0-1.11-.409ZM701.93 202h-2.266v-8.453h2.266Zm-2.4-10.641a1.112 1.112 0 0 1 .34-.836 1.277 1.277 0 0 1 .926-.328 1.28 1.28 0 0 1 .922.328 1.105 1.105 0 0 1 .344.836 1.108 1.108 0 0 1-.348.844 1.283 1.283 0 0 1-.918.328 1.283 1.283 0 0 1-.917-.331 1.108 1.108 0 0 1-.348-.841Zm6.375 2.188.07.945a2.971 2.971 0 0 1 2.43-1.1 2.255 2.255 0 0 1 2.243 1.288 2.9 2.9 0 0 1 2.541-1.289 2.521 2.521 0 0 1 2.047.8 3.681 3.681 0 0 1 .672 2.41V202h-2.267v-5.391a1.61 1.61 0 0 0-.281-1.051 1.246 1.246 0 0 0-.992-.332 1.409 1.409 0 0 0-1.406.969l.007 5.805h-2.258v-5.383a1.59 1.59 0 0 0-.289-1.062 1.259 1.259 0 0 0-.984-.328 1.463 1.463 0 0 0-1.391.8V202h-2.258v-8.453Zm19.344 4.3a5.07 5.07 0 0 1-.887 3.129 2.843 2.843 0 0 1-2.393 1.18 2.633 2.633 0 0 1-2.07-.891v3.985h-2.258v-11.7h2.094l.078.828a2.654 2.654 0 0 1 2.141-.984 2.862 2.862 0 0 1 2.43 1.156 5.207 5.207 0 0 1 .867 3.188Zm-2.26-.159a3.327 3.327 0 0 0-.418-1.82 1.361 1.361 0 0 0-1.215-.641 1.478 1.478 0 0 0-1.461.813v3.46a1.5 1.5 0 0 0 1.477.836q1.617 0 1.617-2.648Zm8.406-2.023a6.134 6.134 0 0 0-.806-.065 1.654 1.654 0 0 0-1.68.867V202h-2.261v-8.453h2.133l.063 1.008a2.092 2.092 0 0 1 1.883-1.164 2.366 2.366 0 0 1 .7.1Zm4.832 6.491a4.15 4.15 0 0 1-3.028-1.14 4.054 4.054 0 0 1-1.168-3.039v-.219a5.106 5.106 0 0 1 .492-2.277 3.612 3.612 0 0 1 1.395-1.547 3.914 3.914 0 0 1 2.059-.543 3.508 3.508 0 0 1 2.73 1.094 4.444 4.444 0 0 1 1 3.1v.922h-5.387a2.1 2.1 0 0 0 .66 1.328 2 2 0 0 0 1.395.5 2.437 2.437 0 0 0 2.039-.945l1.109 1.242a3.389 3.389 0 0 1-1.375 1.122 4.511 4.511 0 0 1-1.921.402Zm-.258-6.945a1.411 1.411 0 0 0-1.09.455 2.357 2.357 0 0 0-.535 1.3h3.145v-.181a1.681 1.681 0 0 0-.406-1.165 1.456 1.456 0 0 0-1.114-.409Zm9.594 4.453a.727.727 0 0 0-.41-.652 4.659 4.659 0 0 0-1.316-.426q-3.016-.633-3.016-2.562a2.323 2.323 0 0 1 .934-1.879 3.766 3.766 0 0 1 2.441-.754 4.053 4.053 0 0 1 2.574.758 2.388 2.388 0 0 1 .965 1.969h-2.258a1.092 1.092 0 0 0-.312-.8 1.322 1.322 0 0 0-.976-.318 1.351 1.351 0 0 0-.883.258.814.814 0 0 0-.312.656.7.7 0 0 0 .355.605 3.657 3.657 0 0 0 1.2.4 9.8 9.8 0 0 1 1.42.381 2.336 2.336 0 0 1 1.789 2.27 2.2 2.2 0 0 1-.992 1.871 4.28 4.28 0 0 1-2.562.715 4.47 4.47 0 0 1-1.887-.379 3.166 3.166 0 0 1-1.293-1.039 2.414 2.414 0 0 1-.469-1.426h2.141a1.179 1.179 0 0 0 .445.922 1.766 1.766 0 0 0 1.109.32 1.635 1.635 0 0 0 .98-.246.766.766 0 0 0 .332-.644Zm6.026 2.336h-2.261v-8.453h2.261Zm-2.4-10.641a1.112 1.112 0 0 1 .34-.836 1.277 1.277 0 0 1 .926-.328 1.28 1.28 0 0 1 .922.328 1.105 1.105 0 0 1 .344.836 1.108 1.108 0 0 1-.348.844 1.283 1.283 0 0 1-.918.328 1.283 1.283 0 0 1-.918-.328 1.108 1.108 0 0 1-.342-.844Zm3.913 6.341a5.013 5.013 0 0 1 .487-2.247 3.546 3.546 0 0 1 1.391-1.523 4.069 4.069 0 0 1 2.109-.539 3.849 3.849 0 0 1 2.8 1.047 4.2 4.2 0 0 1 1.2 2.843l.016.578a4.418 4.418 0 0 1-1.082 3.121 3.775 3.775 0 0 1-2.914 1.176 3.793 3.793 0 0 1-2.92-1.172 4.5 4.5 0 0 1-1.087-3.184Zm2.258.16a3.16 3.16 0 0 0 .452 1.84 1.5 1.5 0 0 0 1.3.638 1.5 1.5 0 0 0 1.281-.63 3.457 3.457 0 0 0 .461-2.015 3.128 3.128 0 0 0-.465-1.833 1.5 1.5 0 0 0-1.3-.649 1.474 1.474 0 0 0-1.281.646 3.516 3.516 0 0 0-.449 1.999Zm2.179-7.86H760l-2.164 2.422H756Zm7.039 3.547.07.977a2.951 2.951 0 0 1 2.43-1.133 2.453 2.453 0 0 1 2 .789 3.682 3.682 0 0 1 .672 2.359V202h-2.261v-5.406a1.465 1.465 0 0 0-.312-1.043 1.4 1.4 0 0 0-1.039-.324 1.553 1.553 0 0 0-1.43.813V202h-2.255v-8.453ZM245.578 275.07h-4.5v3.047h5.281V280h-7.625v-11.375h7.609v1.9h-5.266v2.711h4.5Zm4.086-3.523.07.977a2.951 2.951 0 0 1 2.43-1.133 2.453 2.453 0 0 1 2 .789 3.682 3.682 0 0 1 .672 2.359V280h-2.258v-5.406a1.465 1.465 0 0 0-.312-1.043 1.4 1.4 0 0 0-1.039-.324 1.553 1.553 0 0 0-1.43.813V280h-2.258v-8.453Zm9.586-2.078v2.078h1.445v1.653h-1.445v4.219a1.007 1.007 0 0 0 .18.672.9.9 0 0 0 .688.2 3.6 3.6 0 0 0 .664-.055v1.717a4.648 4.648 0 0 1-1.367.2 2.156 2.156 0 0 1-2.426-2.395V273.2h-1.231v-1.653h1.231v-2.078Zm7.453 4.2a6.134 6.134 0 0 0-.814-.069 1.654 1.654 0 0 0-1.68.867V280h-2.256v-8.453h2.136l.063 1.008a2.092 2.092 0 0 1 1.879-1.164 2.366 2.366 0 0 1 .7.1Zm5.75 6.331a2.507 2.507 0 0 1-.227-.758 2.732 2.732 0 0 1-2.137.914 3 3 0 0 1-2.054-.718 2.312 2.312 0 0 1-.816-1.813 2.389 2.389 0 0 1 1-2.062 4.915 4.915 0 0 1 2.87-.727h1.044v-.484a1.393 1.393 0 0 0-.3-.937 1.183 1.183 0 0 0-.949-.352 1.345 1.345 0 0 0-.895.273.929.929 0 0 0-.324.75h-2.259a2.268 2.268 0 0 1 .453-1.359 3 3 0 0 1 1.281-.98 4.669 4.669 0 0 1 1.859-.355 3.689 3.689 0 0 1 2.48.785 2.747 2.747 0 0 1 .918 2.207v3.664a4.041 4.041 0 0 0 .336 1.82V280Zm-1.864-1.57a1.945 1.945 0 0 0 .922-.223 1.462 1.462 0 0 0 .625-.6v-1.451h-.847q-1.7 0-1.8 1.172l-.008.133a.9.9 0 0 0 .3.7 1.153 1.153 0 0 0 .808.269Zm5.2-2.719a5.094 5.094 0 0 1 .887-3.148 2.877 2.877 0 0 1 2.413-1.172 2.589 2.589 0 0 1 2.039.922V268h2.266v12h-2.035l-.109-.9a2.657 2.657 0 0 1-2.172 1.056 2.869 2.869 0 0 1-2.394-1.176 5.258 5.258 0 0 1-.903-3.269Zm2.258.168a3.337 3.337 0 0 0 .406 1.821 1.349 1.349 0 0 0 1.2.634 1.511 1.511 0 0 0 1.477-.884v-3.339a1.489 1.489 0 0 0-1.461-.884q-1.63 0-1.63 2.652Zm12 4.121a2.507 2.507 0 0 1-.227-.758 2.732 2.732 0 0 1-2.131.914 3 3 0 0 1-2.06-.718 2.312 2.312 0 0 1-.816-1.812 2.389 2.389 0 0 1 1-2.062 4.915 4.915 0 0 1 2.876-.728h1.039v-.484a1.393 1.393 0 0 0-.3-.937 1.183 1.183 0 0 0-.949-.352 1.345 1.345 0 0 0-.895.273.929.929 0 0 0-.324.75H285a2.268 2.268 0 0 1 .453-1.359 3 3 0 0 1 1.281-.98 4.669 4.669 0 0 1 1.855-.356 3.689 3.689 0 0 1 2.48.785 2.747 2.747 0 0 1 .92 2.207v3.664a4.041 4.041 0 0 0 .336 1.82V280Zm-1.867-1.57a1.945 1.945 0 0 0 .922-.223 1.462 1.462 0 0 0 .625-.6v-1.451h-.844q-1.7 0-1.8 1.172l-.008.133a.9.9 0 0 0 .3.7 1.153 1.153 0 0 0 .805.269ZM313.394 280v-11.375h3.5a5.315 5.315 0 0 1 2.684.676 4.712 4.712 0 0 1 1.848 1.922 5.928 5.928 0 0 1 .663 2.832v.523a5.945 5.945 0 0 1-.652 2.82 4.672 4.672 0 0 1-1.84 1.914 5.355 5.355 0 0 1-2.679.688Zm2.344-9.477v7.594h1.133a2.545 2.545 0 0 0 2.1-.9 4.06 4.06 0 0 0 .742-2.57v-.6a4.124 4.124 0 0 0-.719-2.629 2.537 2.537 0 0 0-2.1-.895Zm11.8 9.633a4.15 4.15 0 0 1-3.03-1.14 4.054 4.054 0 0 1-1.168-3.039v-.219a5.106 5.106 0 0 1 .492-2.277 3.612 3.612 0 0 1 1.395-1.547 3.914 3.914 0 0 1 2.062-.543 3.508 3.508 0 0 1 2.73 1.094 4.444 4.444 0 0 1 1 3.1v.922h-5.39a2.1 2.1 0 0 0 .66 1.329 2 2 0 0 0 1.395.5 2.437 2.437 0 0 0 2.039-.945l1.109 1.242a3.389 3.389 0 0 1-1.375 1.121 4.511 4.511 0 0 1-1.922.402Zm-.258-6.945a1.411 1.411 0 0 0-1.09.455 2.357 2.357 0 0 0-.535 1.3h3.134v-.181a1.681 1.681 0 0 0-.4-1.162 1.456 1.456 0 0 0-1.112-.412Zm9.594 4.453a.727.727 0 0 0-.41-.652 4.659 4.659 0 0 0-1.316-.426q-3.016-.633-3.016-2.562a2.323 2.323 0 0 1 .934-1.879 3.766 3.766 0 0 1 2.441-.754 4.053 4.053 0 0 1 2.574.758 2.388 2.388 0 0 1 .965 1.969h-2.257a1.092 1.092 0 0 0-.312-.8 1.322 1.322 0 0 0-.981-.318 1.351 1.351 0 0 0-.883.258.814.814 0 0 0-.312.656.7.7 0 0 0 .355.605 3.657 3.657 0 0 0 1.2.4 9.8 9.8 0 0 1 1.422.379 2.336 2.336 0 0 1 1.788 2.272 2.2 2.2 0 0 1-.992 1.871 4.28 4.28 0 0 1-2.562.715 4.47 4.47 0 0 1-1.887-.379 3.166 3.166 0 0 1-1.293-1.039 2.414 2.414 0 0 1-.469-1.426h2.141a1.179 1.179 0 0 0 .445.922 1.766 1.766 0 0 0 1.109.32 1.635 1.635 0 0 0 .98-.246.766.766 0 0 0 .333-.644Zm8.544 2.336a2.507 2.507 0 0 1-.229-.758 2.732 2.732 0 0 1-2.13.914 3 3 0 0 1-2.059-.718 2.312 2.312 0 0 1-.816-1.812 2.389 2.389 0 0 1 1-2.062 4.915 4.915 0 0 1 2.875-.728h1.039v-.484a1.393 1.393 0 0 0-.3-.937 1.183 1.183 0 0 0-.949-.352 1.345 1.345 0 0 0-.895.273.929.929 0 0 0-.324.75h-2.259a2.268 2.268 0 0 1 .453-1.359 3 3 0 0 1 1.281-.98 4.669 4.669 0 0 1 1.859-.355 3.689 3.689 0 0 1 2.48.785 2.747 2.747 0 0 1 .918 2.207v3.664a4.041 4.041 0 0 0 .337 1.819V280Zm-1.867-1.57a1.945 1.945 0 0 0 .922-.223 1.462 1.462 0 0 0 .625-.6v-1.451h-.844q-1.7 0-1.8 1.172l-.008.133a.9.9 0 0 0 .3.7 1.153 1.153 0 0 0 .805.269Zm10.3-4.766a6.134 6.134 0 0 0-.816-.064 1.654 1.654 0 0 0-1.68.867V280h-2.257v-8.453h2.132l.059 1.008a2.092 2.092 0 0 1 1.887-1.164 2.366 2.366 0 0 1 .7.1Zm5.836 0a6.134 6.134 0 0 0-.816-.064 1.654 1.654 0 0 0-1.68.867V280h-2.257v-8.453h2.132l.063 1.008a2.092 2.092 0 0 1 1.883-1.164 2.366 2.366 0 0 1 .7.1Zm.45 2.036a5.013 5.013 0 0 1 .484-2.242 3.546 3.546 0 0 1 1.395-1.528 4.069 4.069 0 0 1 2.113-.539 3.849 3.849 0 0 1 2.793 1.047 4.2 4.2 0 0 1 1.207 2.843l.016.578a4.418 4.418 0 0 1-1.086 3.121 3.775 3.775 0 0 1-2.915 1.176 3.793 3.793 0 0 1-2.918-1.172 4.5 4.5 0 0 1-1.089-3.184Zm2.258.16a3.16 3.16 0 0 0 .453 1.84 1.5 1.5 0 0 0 1.3.638 1.5 1.5 0 0 0 1.281-.63 3.457 3.457 0 0 0 .46-2.017 3.128 3.128 0 0 0-.461-1.831 1.5 1.5 0 0 0-1.3-.649 1.474 1.474 0 0 0-1.281.646 3.516 3.516 0 0 0-.453 1.999Zm9.523 4.14h-2.266v-12h2.266Zm4.242 0h-2.266v-12h2.266Zm1.508-4.3a5.013 5.013 0 0 1 .484-2.242 3.546 3.546 0 0 1 1.395-1.528 4.069 4.069 0 0 1 2.113-.539 3.849 3.849 0 0 1 2.793 1.047 4.2 4.2 0 0 1 1.207 2.844l.016.578a4.418 4.418 0 0 1-1.087 3.12 3.775 3.775 0 0 1-2.913 1.176 3.793 3.793 0 0 1-2.918-1.172 4.5 4.5 0 0 1-1.09-3.184Zm2.258.16a3.16 3.16 0 0 0 .453 1.84 1.5 1.5 0 0 0 1.3.638 1.5 1.5 0 0 0 1.281-.63 3.457 3.457 0 0 0 .461-2.015 3.128 3.128 0 0 0-.461-1.831 1.5 1.5 0 0 0-1.3-.649 1.474 1.474 0 0 0-1.281.646 3.516 3.516 0 0 0-.453 1.997ZM411.957 277.016a1.2 1.2 0 0 0-.468-1.016 6.148 6.148 0 0 0-1.687-.75 11.963 11.963 0 0 1-1.93-.777 3.153 3.153 0 0 1-1.937-2.82 2.747 2.747 0 0 1 .518-1.653 3.389 3.389 0 0 1 1.492-1.129 5.616 5.616 0 0 1 2.184-.406 5.112 5.112 0 0 1 2.172.441 3.458 3.458 0 0 1 1.48 1.246 3.261 3.261 0 0 1 .527 1.828h-2.344a1.534 1.534 0 0 0-.492-1.215 2.023 2.023 0 0 0-1.383-.429 2.162 2.162 0 0 0-1.336.363 1.146 1.146 0 0 0-.477.957 1.1 1.1 0 0 0 .559.93 6.311 6.311 0 0 0 1.645.7 7.106 7.106 0 0 1 2.914 1.492 2.972 2.972 0 0 1 .915 2.222 2.737 2.737 0 0 1-1.12 2.316 4.891 4.891 0 0 1-3.008.84 5.808 5.808 0 0 1-2.392-.48 3.783 3.783 0 0 1-1.645-1.316 3.371 3.371 0 0 1-.566-1.937h2.352q0 1.883 2.25 1.883a2.189 2.189 0 0 0 1.3-.34 1.106 1.106 0 0 0 .477-.95Zm8.687 2.984a2.507 2.507 0 0 1-.227-.758 2.732 2.732 0 0 1-2.128.914 3 3 0 0 1-2.059-.719 2.312 2.312 0 0 1-.816-1.812 2.389 2.389 0 0 1 1-2.062 4.915 4.915 0 0 1 2.875-.727h1.039v-.484a1.393 1.393 0 0 0-.3-.937 1.183 1.183 0 0 0-.949-.352 1.345 1.345 0 0 0-.895.273.929.929 0 0 0-.324.75h-2.258a2.268 2.268 0 0 1 .453-1.359 3 3 0 0 1 1.281-.98 4.669 4.669 0 0 1 1.853-.356 3.689 3.689 0 0 1 2.48.785 2.747 2.747 0 0 1 .92 2.207v3.664a4.041 4.041 0 0 0 .336 1.82V280Zm-1.867-1.57a1.945 1.945 0 0 0 .922-.223 1.462 1.462 0 0 0 .625-.6v-1.451h-.844q-1.7 0-1.8 1.172l-.008.133a.9.9 0 0 0 .3.7 1.153 1.153 0 0 0 .805.269Zm7.93 1.57h-2.266v-12h2.266Zm4.242 0h-2.265v-8.453h2.265Zm-2.4-10.641a1.112 1.112 0 0 1 .34-.836 1.277 1.277 0 0 1 .926-.328 1.28 1.28 0 0 1 .922.328 1.105 1.105 0 0 1 .344.836 1.108 1.108 0 0 1-.348.844 1.283 1.283 0 0 1-.918.328 1.283 1.283 0 0 1-.917-.331 1.108 1.108 0 0 1-.347-.841Zm3.908 6.352a5.094 5.094 0 0 1 .887-3.148 2.877 2.877 0 0 1 2.425-1.172 2.589 2.589 0 0 1 2.039.922V268h2.266v12h-2.039l-.109-.9a2.657 2.657 0 0 1-2.172 1.056 2.869 2.869 0 0 1-2.395-1.176 5.258 5.258 0 0 1-.902-3.269Zm2.258.168a3.337 3.337 0 0 0 .414 1.821 1.349 1.349 0 0 0 1.2.634 1.511 1.511 0 0 0 1.477-.884v-3.339a1.489 1.489 0 0 0-1.461-.884q-1.63 0-1.63 2.652ZM446.723 280a2.507 2.507 0 0 1-.227-.758 2.732 2.732 0 0 1-2.133.914 3 3 0 0 1-2.059-.719 2.312 2.312 0 0 1-.815-1.812 2.389 2.389 0 0 1 1-2.062 4.915 4.915 0 0 1 2.879-.727h1.039v-.484a1.393 1.393 0 0 0-.3-.937 1.183 1.183 0 0 0-.949-.352 1.345 1.345 0 0 0-.895.273.929.929 0 0 0-.324.75h-2.263a2.268 2.268 0 0 1 .453-1.359 3 3 0 0 1 1.281-.98 4.669 4.669 0 0 1 1.859-.355 3.689 3.689 0 0 1 2.48.785 2.747 2.747 0 0 1 .918 2.207v3.664a4.041 4.041 0 0 0 .336 1.82V280Zm-1.868-1.57a1.945 1.945 0 0 0 .922-.223 1.462 1.462 0 0 0 .625-.6v-1.451h-.843q-1.7 0-1.8 1.172l-.008.133a.9.9 0 0 0 .3.7 1.153 1.153 0 0 0 .804.269ZM56.844 107.07h-4.5v3.047h5.281V112H50v-11.375h7.609v1.9h-5.266v2.711h4.5Zm4.086-3.523.07.977a2.951 2.951 0 0 1 2.43-1.133 2.453 2.453 0 0 1 2 .789 3.682 3.682 0 0 1 .672 2.359V112h-2.258v-5.406a1.465 1.465 0 0 0-.312-1.043 1.4 1.4 0 0 0-1.043-.324 1.553 1.553 0 0 0-1.43.813V112h-2.258v-8.453Zm9.586-2.078v2.078h1.445v1.653h-1.445v4.219a1.007 1.007 0 0 0 .18.672.9.9 0 0 0 .688.2 3.6 3.6 0 0 0 .664-.055v1.717a4.648 4.648 0 0 1-1.367.2 2.156 2.156 0 0 1-2.422-2.4V105.2h-1.234v-1.653h1.234v-2.078Zm7.453 4.2a6.134 6.134 0 0 0-.812-.062 1.654 1.654 0 0 0-1.68.867V112h-2.258v-8.453h2.133l.063 1.008a2.092 2.092 0 0 1 1.883-1.164 2.366 2.366 0 0 1 .7.1Zm5.75 6.331a2.507 2.507 0 0 1-.23-.758 2.732 2.732 0 0 1-2.13.914 3 3 0 0 1-2.059-.719 2.312 2.312 0 0 1-.811-1.812 2.389 2.389 0 0 1 1-2.062 4.915 4.915 0 0 1 2.879-.727h1.039v-.484a1.393 1.393 0 0 0-.3-.937 1.183 1.183 0 0 0-.949-.352 1.345 1.345 0 0 0-.895.273.929.929 0 0 0-.324.75h-2.258a2.268 2.268 0 0 1 .453-1.359 3 3 0 0 1 1.281-.98 4.669 4.669 0 0 1 1.859-.355 3.689 3.689 0 0 1 2.48.785 2.747 2.747 0 0 1 .918 2.207v3.664a4.041 4.041 0 0 0 .336 1.82V112Zm-1.867-1.57a1.945 1.945 0 0 0 .922-.223 1.462 1.462 0 0 0 .625-.6v-1.451h-.844q-1.7 0-1.8 1.172l-.008.133a.9.9 0 0 0 .3.7 1.153 1.153 0 0 0 .805.269Zm5.2-2.719a5.094 5.094 0 0 1 .887-3.148 2.877 2.877 0 0 1 2.42-1.172 2.589 2.589 0 0 1 2.039.922V100h2.266v12h-2.039l-.109-.9a2.657 2.657 0 0 1-2.172 1.056 2.869 2.869 0 0 1-2.395-1.176 5.258 5.258 0 0 1-.902-3.269Zm2.258.168a3.337 3.337 0 0 0 .409 1.821 1.349 1.349 0 0 0 1.2.634 1.511 1.511 0 0 0 1.477-.884v-3.339a1.489 1.489 0 0 0-1.461-.884q-1.63 0-1.63 2.652ZM101.312 112a2.507 2.507 0 0 1-.223-.758 2.732 2.732 0 0 1-2.133.914 3 3 0 0 1-2.059-.719 2.312 2.312 0 0 1-.816-1.812 2.389 2.389 0 0 1 1-2.062 4.915 4.915 0 0 1 2.879-.727h1.029v-.484a1.393 1.393 0 0 0-.3-.937 1.183 1.183 0 0 0-.949-.352 1.345 1.345 0 0 0-.895.273.929.929 0 0 0-.324.75h-2.258a2.268 2.268 0 0 1 .453-1.359 3 3 0 0 1 1.281-.98 4.669 4.669 0 0 1 1.859-.355 3.689 3.689 0 0 1 2.48.785 2.747 2.747 0 0 1 .918 2.207v3.664a4.041 4.041 0 0 0 .335 1.819V112Zm-1.867-1.57a1.945 1.945 0 0 0 .922-.223 1.462 1.462 0 0 0 .625-.6v-1.451h-.844q-1.7 0-1.8 1.172l-.008.133a.9.9 0 0 0 .3.7 1.153 1.153 0 0 0 .805.269Zm10.125-.766a.727.727 0 0 0-.41-.652 4.659 4.659 0 0 0-1.316-.426q-3.016-.633-3.016-2.562a2.323 2.323 0 0 1 .934-1.879 3.766 3.766 0 0 1 2.441-.754 4.053 4.053 0 0 1 2.574.758 2.388 2.388 0 0 1 .965 1.969h-2.253a1.092 1.092 0 0 0-.312-.8 1.322 1.322 0 0 0-.982-.318 1.351 1.351 0 0 0-.883.258.814.814 0 0 0-.312.656.7.7 0 0 0 .355.605 3.657 3.657 0 0 0 1.2.4 9.8 9.8 0 0 1 1.422.379 2.336 2.336 0 0 1 1.789 2.272 2.2 2.2 0 0 1-.992 1.871 4.28 4.28 0 0 1-2.562.715 4.47 4.47 0 0 1-1.887-.379 3.166 3.166 0 0 1-1.293-1.039 2.414 2.414 0 0 1-.469-1.426h2.141a1.179 1.179 0 0 0 .445.922 1.766 1.766 0 0 0 1.109.32 1.635 1.635 0 0 0 .98-.246.766.766 0 0 0 .332-.644Zm15.242-1.812a5.07 5.07 0 0 1-.886 3.128 2.843 2.843 0 0 1-2.395 1.176 2.633 2.633 0 0 1-2.07-.891v3.985h-2.258v-11.7h2.094l.078.828a2.654 2.654 0 0 1 2.141-.984 2.862 2.862 0 0 1 2.43 1.156 5.207 5.207 0 0 1 .867 3.188Zm-2.258-.164a3.327 3.327 0 0 0-.418-1.82 1.361 1.361 0 0 0-1.215-.641 1.478 1.478 0 0 0-1.461.813v3.46a1.5 1.5 0 0 0 1.477.836q1.618 0 1.618-2.648Zm8.407-2.024a6.134 6.134 0 0 0-.813-.064 1.654 1.654 0 0 0-1.68.867V112h-2.257v-8.453h2.133l.063 1.008a2.092 2.092 0 0 1 1.882-1.164 2.366 2.366 0 0 1 .7.1Zm4.828 6.492a4.15 4.15 0 0 1-3.027-1.14 4.054 4.054 0 0 1-1.173-3.039v-.219a5.106 5.106 0 0 1 .5-2.278 3.612 3.612 0 0 1 1.391-1.546 3.914 3.914 0 0 1 2.059-.543 3.508 3.508 0 0 1 2.73 1.093 4.444 4.444 0 0 1 1 3.1v.922h-5.386a2.1 2.1 0 0 0 .66 1.328 2 2 0 0 0 1.395.5 2.437 2.437 0 0 0 2.039-.945l1.112 1.244a3.389 3.389 0 0 1-1.378 1.121 4.511 4.511 0 0 1-1.922.402Zm-.258-6.945a1.411 1.411 0 0 0-1.09.455 2.357 2.357 0 0 0-.535 1.3h3.141v-.181a1.681 1.681 0 0 0-.406-1.165 1.456 1.456 0 0 0-1.11-.409ZM142.93 112h-2.266v-8.453h2.266Zm-2.4-10.641a1.112 1.112 0 0 1 .34-.836 1.277 1.277 0 0 1 .926-.328 1.28 1.28 0 0 1 .922.328 1.105 1.105 0 0 1 .344.836 1.108 1.108 0 0 1-.348.844 1.283 1.283 0 0 1-.918.328 1.283 1.283 0 0 1-.917-.331 1.108 1.108 0 0 1-.348-.841Zm6.375 2.188.07.945a2.971 2.971 0 0 1 2.43-1.1 2.255 2.255 0 0 1 2.243 1.288 2.9 2.9 0 0 1 2.541-1.289 2.521 2.521 0 0 1 2.047.8 3.681 3.681 0 0 1 .672 2.41V112h-2.267v-5.391a1.61 1.61 0 0 0-.281-1.051 1.246 1.246 0 0 0-.992-.332 1.409 1.409 0 0 0-1.406.969l.007 5.805h-2.258v-5.383a1.59 1.59 0 0 0-.289-1.062 1.259 1.259 0 0 0-.984-.328 1.463 1.463 0 0 0-1.391.8V112h-2.258v-8.453Zm19.344 4.3a5.07 5.07 0 0 1-.887 3.129 2.843 2.843 0 0 1-2.393 1.18 2.633 2.633 0 0 1-2.07-.891v3.985h-2.258v-11.7h2.094l.078.828a2.654 2.654 0 0 1 2.141-.984 2.862 2.862 0 0 1 2.43 1.156 5.207 5.207 0 0 1 .867 3.188Zm-2.26-.159a3.327 3.327 0 0 0-.418-1.82 1.361 1.361 0 0 0-1.215-.641 1.478 1.478 0 0 0-1.461.813v3.46a1.5 1.5 0 0 0 1.477.836q1.617 0 1.617-2.648Zm8.406-2.023a6.134 6.134 0 0 0-.806-.065 1.654 1.654 0 0 0-1.68.867V112h-2.261v-8.453h2.133l.063 1.008a2.092 2.092 0 0 1 1.883-1.164 2.366 2.366 0 0 1 .7.1Zm4.832 6.491a4.15 4.15 0 0 1-3.028-1.14 4.054 4.054 0 0 1-1.168-3.039v-.219a5.106 5.106 0 0 1 .492-2.277 3.612 3.612 0 0 1 1.395-1.547 3.914 3.914 0 0 1 2.059-.543 3.508 3.508 0 0 1 2.73 1.094 4.444 4.444 0 0 1 1 3.1v.922h-5.387a2.1 2.1 0 0 0 .66 1.328 2 2 0 0 0 1.395.5 2.437 2.437 0 0 0 2.039-.945l1.109 1.242a3.389 3.389 0 0 1-1.375 1.122 4.511 4.511 0 0 1-1.921.402Zm-.258-6.945a1.411 1.411 0 0 0-1.09.455 2.357 2.357 0 0 0-.535 1.3h3.145v-.181a1.681 1.681 0 0 0-.406-1.165 1.456 1.456 0 0 0-1.114-.409Zm9.594 4.453a.727.727 0 0 0-.41-.652 4.659 4.659 0 0 0-1.316-.426q-3.016-.633-3.016-2.562a2.323 2.323 0 0 1 .934-1.879 3.766 3.766 0 0 1 2.441-.754 4.053 4.053 0 0 1 2.574.758 2.388 2.388 0 0 1 .965 1.969h-2.258a1.092 1.092 0 0 0-.312-.8 1.322 1.322 0 0 0-.976-.318 1.351 1.351 0 0 0-.883.258.814.814 0 0 0-.312.656.7.7 0 0 0 .355.605 3.657 3.657 0 0 0 1.2.4 9.8 9.8 0 0 1 1.42.381 2.336 2.336 0 0 1 1.789 2.27 2.2 2.2 0 0 1-.992 1.871 4.28 4.28 0 0 1-2.562.715 4.47 4.47 0 0 1-1.887-.379 3.166 3.166 0 0 1-1.293-1.039 2.414 2.414 0 0 1-.469-1.426h2.141a1.179 1.179 0 0 0 .445.922 1.766 1.766 0 0 0 1.109.32 1.635 1.635 0 0 0 .98-.246.766.766 0 0 0 .332-.644Zm6.026 2.336h-2.261v-8.453h2.261Zm-2.4-10.641a1.112 1.112 0 0 1 .34-.836 1.277 1.277 0 0 1 .926-.328 1.28 1.28 0 0 1 .922.328 1.105 1.105 0 0 1 .344.836 1.108 1.108 0 0 1-.348.844 1.283 1.283 0 0 1-.918.328 1.283 1.283 0 0 1-.918-.328 1.108 1.108 0 0 1-.342-.844Zm3.913 6.341a5.013 5.013 0 0 1 .487-2.247 3.546 3.546 0 0 1 1.391-1.523 4.069 4.069 0 0 1 2.109-.539 3.849 3.849 0 0 1 2.8 1.047 4.2 4.2 0 0 1 1.2 2.843l.016.578a4.418 4.418 0 0 1-1.082 3.121 3.775 3.775 0 0 1-2.914 1.176 3.793 3.793 0 0 1-2.92-1.172 4.5 4.5 0 0 1-1.087-3.184Zm2.258.16a3.16 3.16 0 0 0 .452 1.84 1.5 1.5 0 0 0 1.3.638 1.5 1.5 0 0 0 1.281-.63 3.457 3.457 0 0 0 .461-2.015 3.128 3.128 0 0 0-.465-1.833 1.5 1.5 0 0 0-1.3-.649 1.474 1.474 0 0 0-1.281.646 3.516 3.516 0 0 0-.449 1.999Zm2.179-7.86H201l-2.164 2.422H197Zm7.039 3.547.07.977a2.951 2.951 0 0 1 2.43-1.133 2.453 2.453 0 0 1 2 .789 3.682 3.682 0 0 1 .672 2.359V112h-2.261v-5.406a1.465 1.465 0 0 0-.312-1.043 1.4 1.4 0 0 0-1.039-.324 1.553 1.553 0 0 0-1.43.813V112h-2.255v-8.453Z" fill="#00223d"/><path d="M138.622 120.333V151h109.667M556.622 165.333V196h30.667M439.289 151.5h42.5M349.789 43.333V102.2M264.789 259v-58.867M349.789 259v-58.867M427.789 259v-58.867" fill="none" stroke="#ffa726" stroke-width="2"/><path d="m257.289 151-15 8v-16ZM596.289 196l-15 8v-16ZM489.289 151l-15 8v-16ZM349.289 110l-8-15h16ZM264.289 192.333l8 15h-16ZM349.289 192.333l8 15h-16ZM427.289 192.333l8 15h-16Z" fill="#f57c00"/></svg>