<svg xmlns="http://www.w3.org/2000/svg" width="105.372" height="90"><path d="M93.135.231a11.368 11.368 0 0 1 8.156 1.258 9.677 9.677 0 0 1 4.014 6.736 11.668 11.668 0 0 1-.835 6.078 9.435 9.435 0 0 1-6.651 5.375 10.947 10.947 0 0 1-7.992-1.432c-3.655-2.314-4.916-7.233-3.846-11.261A9.553 9.553 0 0 1 93.135.231ZM26.87 8.177c-.012-.694-.079-1.958.959-1.882 6.563-.021 13.129 0 19.694-.012.565.026 1.37-.1 1.6.585q14.488 40.784 28.918 81.6a1.651 1.651 0 0 1-.059 1.344c-5.443.138-10.888.015-16.331.065-.747-.032-1.788.171-2.105-.723-2.291-6.313-4.328-12.72-6.63-19.03-9.838.047-19.68-.041-29.518.044-1.885 6.216-3.978 12.364-5.954 18.551a1.373 1.373 0 0 1-1.374 1.134c-4.6.047-9.206 0-13.808.024a3.779 3.779 0 0 1-2.258-.373 7.868 7.868 0 0 1 .294-1.458q12.583-36.259 25.181-72.512A20.158 20.158 0 0 0 26.87 8.18m10.96 12.643a65.708 65.708 0 0 1-1.611 6.948c-1.864 6.407-4.019 12.726-5.825 19.147-.682 2.385-1.564 4.7-2.3 7.074 6.672.047 13.34.068 20.009 0-.77-3.17-1.955-6.225-2.917-9.341-2.011-6.777-4.334-13.461-6.184-20.285a16.962 16.962 0 0 0-1.172-3.543ZM87.043 26.598c5.354-.176 10.732-.038 16.1-.071a.913.913 0 0 1 1.061 1.082q.022 30.424.006 60.847c.015.591 0 1.408-.75 1.511-5.216.062-10.438.009-15.654.026a1.162 1.162 0 0 1-1.285-1.285c-.029-20.177 0-40.356-.015-60.536.011-.542-.066-1.313.537-1.574Z" fill="#ff9a00"/></svg>