<svg xmlns="http://www.w3.org/2000/svg" width="87.573" height="90"><path d="M69.813.786a.612.612 0 0 1 .625-.761C75.757.001 81.075.03 86.394.012a.62.62 0 0 1 .731.739q.012 31.8 0 63.6c.032 4.25-.077 8.5.085 12.751-.005 2.393.4 4.768.356 7.162a1.316 1.316 0 0 1-.973 1.011 62.64 62.64 0 0 1-18.8 4.473 46.747 46.747 0 0 1-15.73-.928 29.644 29.644 0 0 1-14.193-7.622 27.457 27.457 0 0 1-7.654-14.5 38.57 38.57 0 0 1 .473-17.86 32.055 32.055 0 0 1 15.629-19.261c5.561-3.061 11.967-4.239 18.262-4.377a46.909 46.909 0 0 1 5.218.247c.024-8.22-.005-16.44.013-24.66m-10.3 39.64a17.765 17.765 0 0 0-10.456 8.119c-1.79 3.345-2.037 7.265-1.838 10.986.386 4.718 2.221 9.669 6.2 12.509 3.6 2.518 8.209 3.215 12.515 2.856a11.673 11.673 0 0 0 3.888-.479q-.012-17.1 0-34.2a20.756 20.756 0 0 0-10.309.207ZM.591 6.746c5.281-.146 10.584-.027 15.871-.061.652-.04.917.734.891 1.268v79.5c.053.569-.229 1.306-.907 1.274-5.148.048-10.3.016-15.451.016-.843.109-1.032-.886-.989-1.524V7.958c-.022-.46.063-1.069.585-1.212Z" fill="#f36"/></svg>