<svg xmlns="http://www.w3.org/2000/svg" xmlns:xlink="http://www.w3.org/1999/xlink" width="1240" height="550" viewBox="0 0 1240 550"><defs><filter id="a" x="356.5" y="186.5" width="178" height="178" filterUnits="userSpaceOnUse"><feOffset dy="8" input="SourceAlpha"/><feGaussianBlur stdDeviation="3.5" result="b"/><feFlood flood-opacity="0.161"/><feComposite operator="in" in2="b"/><feComposite in="SourceGraphic"/></filter><filter id="c" x="704.5" y="186.5" width="178" height="178" filterUnits="userSpaceOnUse"><feOffset dy="8" input="SourceAlpha"/><feGaussianBlur stdDeviation="3.5" result="d"/><feFlood flood-opacity="0.161"/><feComposite operator="in" in2="d"/><feComposite in="SourceGraphic"/></filter><filter id="e" x="483.501" y="158.5" width="271.998" height="234" filterUnits="userSpaceOnUse"><feOffset dy="8" input="SourceAlpha"/><feGaussianBlur stdDeviation="3.5" result="f"/><feFlood flood-opacity="0.161"/><feComposite operator="in" in2="f"/><feComposite in="SourceGraphic"/></filter></defs><rect width="1240" height="550" fill="none"/><circle cx="145.5" cy="145.5" r="145.5" transform="translate(474 122)" fill="rgba(253,216,53,0.2)"/><circle cx="125.5" cy="125.5" r="125.5" transform="translate(494 142)" fill="rgba(253,216,53,0.3)"/><g transform="matrix(1, 0, 0, 1, 0, 0)" filter="url(#a)"><circle cx="78.5" cy="78.5" r="78.5" transform="translate(367 189)" fill="#fdd835"/></g><g transform="matrix(1, 0, 0, 1, 0, 0)" filter="url(#c)"><circle cx="78.5" cy="78.5" r="78.5" transform="translate(715 189)" fill="#26ccda"/></g><path d="M-33.855-5.432h-4.852v3.059h5.73V0h-8.815V-12.8h8.833v2.382h-5.748v2.7h4.852ZM-28.731,0H-31.7V-13.5h2.971Zm6.425.176a4.889,4.889,0,0,1-3.542-1.305,4.507,4.507,0,0,1-1.354-3.4v-.246a5.84,5.84,0,0,1,.541-2.575,3.955,3.955,0,0,1,1.578-1.727,4.763,4.763,0,0,1,2.461-.611,4.117,4.117,0,0,1,3.164,1.244A4.887,4.887,0,0,1-18.3-4.975v1.151h-5.889a2.135,2.135,0,0,0,.694,1.257,2.066,2.066,0,0,0,1.389.457,2.662,2.662,0,0,0,2.2-.984l1.354,1.6A3.784,3.784,0,0,1-20.123-.277,5.3,5.3,0,0,1-22.307.176ZM-22.641-7.4q-1.3,0-1.547,1.723H-21.2v-.229a1.467,1.467,0,0,0-.36-1.1A1.434,1.434,0,0,0-22.641-7.4Zm8.332-2.109.1,1.116A3.27,3.27,0,0,1-11.5-9.686,2.407,2.407,0,0,1-9.062-8.253,3.165,3.165,0,0,1-6.267-9.686q2.892,0,2.971,3.5V0H-6.267V-6a1.813,1.813,0,0,0-.246-1.063,1.048,1.048,0,0,0-.9-.334,1.4,1.4,0,0,0-1.31.782l.009.123V0h-2.971V-5.985a1.906,1.906,0,0,0-.237-1.081,1.045,1.045,0,0,0-.905-.334,1.42,1.42,0,0,0-1.3.782V0h-2.962V-9.51ZM3,.176A4.889,4.889,0,0,1-.545-1.129,4.507,4.507,0,0,1-1.9-4.526v-.246a5.84,5.84,0,0,1,.541-2.575A3.955,3.955,0,0,1,.22-9.075a4.763,4.763,0,0,1,2.461-.611A4.117,4.117,0,0,1,5.845-8.442,4.887,4.887,0,0,1,7-4.975v1.151H1.116a2.135,2.135,0,0,0,.694,1.257A2.066,2.066,0,0,0,3.2-2.109a2.662,2.662,0,0,0,2.2-.984l1.354,1.6A3.784,3.784,0,0,1,5.181-.277,5.3,5.3,0,0,1,3,.176ZM2.663-7.4q-1.3,0-1.547,1.723H4.1v-.229a1.467,1.467,0,0,0-.36-1.1A1.434,1.434,0,0,0,2.663-7.4ZM10.916-9.51l.1,1.116a3.225,3.225,0,0,1,2.716-1.292,2.713,2.713,0,0,1,2.219.888,4.226,4.226,0,0,1,.76,2.672V0H13.737V-6a1.6,1.6,0,0,0-.29-1.059A1.342,1.342,0,0,0,12.393-7.4a1.413,1.413,0,0,0-1.292.686V0H8.139V-9.51ZM21.8-11.874V-9.51h1.564v2.057H21.8V-3.1a1.111,1.111,0,0,0,.193.747,1.037,1.037,0,0,0,.765.211,4.345,4.345,0,0,0,.738-.053V-.079a5.466,5.466,0,0,1-1.67.255,3.1,3.1,0,0,1-2.259-.721,2.954,2.954,0,0,1-.729-2.188v-4.72H17.622V-9.51h1.213v-2.364Zm2.092,7.031a5.613,5.613,0,0,1,.554-2.536,3.96,3.96,0,0,1,1.591-1.709,4.791,4.791,0,0,1,2.435-.6,4.373,4.373,0,0,1,3.366,1.323,5.076,5.076,0,0,1,1.23,3.6v.105A4.925,4.925,0,0,1,31.83-1.129,4.384,4.384,0,0,1,28.485.176a4.434,4.434,0,0,1-3.261-1.217,4.761,4.761,0,0,1-1.327-3.3Zm2.962.185a3.538,3.538,0,0,0,.413,1.934,1.376,1.376,0,0,0,1.222.615q1.582,0,1.617-2.435v-.3Q30.1-7.4,28.468-7.4q-1.485,0-1.608,2.206Zm12.5,1.986a.684.684,0,0,0-.4-.606,6.016,6.016,0,0,0-1.5-.475A6.853,6.853,0,0,1,35.622-4.4a3.062,3.062,0,0,1-1.1-.971,2.319,2.319,0,0,1-.378-1.31,2.628,2.628,0,0,1,1.081-2.158,4.453,4.453,0,0,1,2.83-.848,4.934,4.934,0,0,1,3.023.853,2.666,2.666,0,0,1,1.143,2.241H39.252q0-1.143-1.2-1.143a1.194,1.194,0,0,0-.782.259.8.8,0,0,0-.316.646.737.737,0,0,0,.387.642,3.654,3.654,0,0,0,1.235.4,10.671,10.671,0,0,1,1.49.378A2.706,2.706,0,0,1,42.205-2.76,2.491,2.491,0,0,1,41.049-.642a5.068,5.068,0,0,1-2.993.817,5.172,5.172,0,0,1-2.18-.439,3.645,3.645,0,0,1-1.494-1.2,2.707,2.707,0,0,1-.536-1.591h2.769a1.145,1.145,0,0,0,.439.962,1.808,1.808,0,0,0,1.081.3,1.422,1.422,0,0,0,.91-.246A.787.787,0,0,0,39.349-2.672ZM-29.733,23H-32.7V13.49h2.971ZM-32.88,11.038A1.322,1.322,0,0,1-32.423,10a1.724,1.724,0,0,1,1.187-.4,1.724,1.724,0,0,1,1.187.4,1.322,1.322,0,0,1,.457,1.037,1.322,1.322,0,0,1-.457,1.037,1.724,1.724,0,0,1-1.187.4,1.724,1.724,0,0,1-1.187-.4A1.322,1.322,0,0,1-32.88,11.038Zm7.69,2.452.1,1.116a3.225,3.225,0,0,1,2.716-1.292,2.713,2.713,0,0,1,2.219.888,4.226,4.226,0,0,1,.76,2.672V23h-2.971V17a1.6,1.6,0,0,0-.29-1.059,1.342,1.342,0,0,0-1.055-.338A1.413,1.413,0,0,0-25,16.285V23h-2.962V13.49Zm10.881-2.364V13.49h1.564v2.057h-1.564V19.9a1.111,1.111,0,0,0,.193.747,1.037,1.037,0,0,0,.765.211,4.345,4.345,0,0,0,.738-.053v2.118a5.466,5.466,0,0,1-1.67.255,3.1,3.1,0,0,1-2.259-.721,2.954,2.954,0,0,1-.729-2.188v-4.72h-1.213V13.49h1.213V11.126Zm7.33,12.05a4.889,4.889,0,0,1-3.542-1.305,4.507,4.507,0,0,1-1.354-3.4v-.246a5.84,5.84,0,0,1,.541-2.575,3.955,3.955,0,0,1,1.578-1.727,4.763,4.763,0,0,1,2.461-.611,4.117,4.117,0,0,1,3.164,1.244,4.887,4.887,0,0,1,1.16,3.467v1.151H-8.859a2.135,2.135,0,0,0,.694,1.257,2.066,2.066,0,0,0,1.389.457,2.662,2.662,0,0,0,2.2-.984l1.354,1.6a3.784,3.784,0,0,1-1.569,1.217A5.3,5.3,0,0,1-6.979,23.176ZM-7.312,15.6q-1.3,0-1.547,1.723h2.988v-.229a1.467,1.467,0,0,0-.36-1.1A1.434,1.434,0,0,0-7.312,15.6Zm11.285.571L3,16.1a1.752,1.752,0,0,0-1.793.879V23H-1.758V13.49H1.02l.1,1.222a2.294,2.294,0,0,1,2.083-1.4,2.888,2.888,0,0,1,.826.105ZM7.761,13.49l.1,1.116a3.225,3.225,0,0,1,2.716-1.292,2.713,2.713,0,0,1,2.219.888,4.226,4.226,0,0,1,.76,2.672V23H10.582V17a1.6,1.6,0,0,0-.29-1.059A1.342,1.342,0,0,0,9.237,15.6a1.413,1.413,0,0,0-1.292.686V23H4.983V13.49Zm7.058,4.667a5.613,5.613,0,0,1,.554-2.536,3.96,3.96,0,0,1,1.591-1.709,4.791,4.791,0,0,1,2.435-.6,4.373,4.373,0,0,1,3.366,1.323,5.076,5.076,0,0,1,1.23,3.6v.105a4.925,4.925,0,0,1-1.235,3.529,4.384,4.384,0,0,1-3.344,1.305,4.434,4.434,0,0,1-3.261-1.217,4.761,4.761,0,0,1-1.327-3.3Zm2.962.185a3.538,3.538,0,0,0,.413,1.934,1.376,1.376,0,0,0,1.222.615q1.582,0,1.617-2.435v-.3q0-2.558-1.635-2.558-1.485,0-1.608,2.206Zm12.5,1.986a.684.684,0,0,0-.4-.606,6.016,6.016,0,0,0-1.5-.475,6.853,6.853,0,0,1-1.828-.646,3.062,3.062,0,0,1-1.1-.971,2.319,2.319,0,0,1-.378-1.31,2.628,2.628,0,0,1,1.081-2.158,4.453,4.453,0,0,1,2.83-.848,4.934,4.934,0,0,1,3.023.853,2.666,2.666,0,0,1,1.143,2.241H30.182q0-1.143-1.2-1.143a1.194,1.194,0,0,0-.782.259.8.8,0,0,0-.316.646.737.737,0,0,0,.387.642,3.654,3.654,0,0,0,1.235.4,10.671,10.671,0,0,1,1.49.378,2.706,2.706,0,0,1,2.145,2.646,2.491,2.491,0,0,1-1.156,2.118,5.068,5.068,0,0,1-2.993.817,5.172,5.172,0,0,1-2.18-.439,3.645,3.645,0,0,1-1.494-1.2,2.707,2.707,0,0,1-.536-1.591h2.769a1.145,1.145,0,0,0,.439.962,1.808,1.808,0,0,0,1.081.3,1.422,1.422,0,0,0,.91-.246A.787.787,0,0,0,30.278,20.328Z" transform="translate(446 262)" fill="#12263f"/><path d="M-33.855-5.432h-4.852v3.059h5.73V0h-8.815V-12.8h8.833v2.382h-5.748v2.7h4.852ZM-28.731,0H-31.7V-13.5h2.971Zm6.425.176a4.889,4.889,0,0,1-3.542-1.305,4.507,4.507,0,0,1-1.354-3.4v-.246a5.84,5.84,0,0,1,.541-2.575,3.955,3.955,0,0,1,1.578-1.727,4.763,4.763,0,0,1,2.461-.611,4.117,4.117,0,0,1,3.164,1.244A4.887,4.887,0,0,1-18.3-4.975v1.151h-5.889a2.135,2.135,0,0,0,.694,1.257,2.066,2.066,0,0,0,1.389.457,2.662,2.662,0,0,0,2.2-.984l1.354,1.6A3.784,3.784,0,0,1-20.123-.277,5.3,5.3,0,0,1-22.307.176ZM-22.641-7.4q-1.3,0-1.547,1.723H-21.2v-.229a1.467,1.467,0,0,0-.36-1.1A1.434,1.434,0,0,0-22.641-7.4Zm8.332-2.109.1,1.116A3.27,3.27,0,0,1-11.5-9.686,2.407,2.407,0,0,1-9.062-8.253,3.165,3.165,0,0,1-6.267-9.686q2.892,0,2.971,3.5V0H-6.267V-6a1.813,1.813,0,0,0-.246-1.063,1.048,1.048,0,0,0-.9-.334,1.4,1.4,0,0,0-1.31.782l.009.123V0h-2.971V-5.985a1.906,1.906,0,0,0-.237-1.081,1.045,1.045,0,0,0-.905-.334,1.42,1.42,0,0,0-1.3.782V0h-2.962V-9.51ZM3,.176A4.889,4.889,0,0,1-.545-1.129,4.507,4.507,0,0,1-1.9-4.526v-.246a5.84,5.84,0,0,1,.541-2.575A3.955,3.955,0,0,1,.22-9.075a4.763,4.763,0,0,1,2.461-.611A4.117,4.117,0,0,1,5.845-8.442,4.887,4.887,0,0,1,7-4.975v1.151H1.116a2.135,2.135,0,0,0,.694,1.257A2.066,2.066,0,0,0,3.2-2.109a2.662,2.662,0,0,0,2.2-.984l1.354,1.6A3.784,3.784,0,0,1,5.181-.277,5.3,5.3,0,0,1,3,.176ZM2.663-7.4q-1.3,0-1.547,1.723H4.1v-.229a1.467,1.467,0,0,0-.36-1.1A1.434,1.434,0,0,0,2.663-7.4ZM10.916-9.51l.1,1.116a3.225,3.225,0,0,1,2.716-1.292,2.713,2.713,0,0,1,2.219.888,4.226,4.226,0,0,1,.76,2.672V0H13.737V-6a1.6,1.6,0,0,0-.29-1.059A1.342,1.342,0,0,0,12.393-7.4a1.413,1.413,0,0,0-1.292.686V0H8.139V-9.51ZM21.8-11.874V-9.51h1.564v2.057H21.8V-3.1a1.111,1.111,0,0,0,.193.747,1.037,1.037,0,0,0,.765.211,4.345,4.345,0,0,0,.738-.053V-.079a5.466,5.466,0,0,1-1.67.255,3.1,3.1,0,0,1-2.259-.721,2.954,2.954,0,0,1-.729-2.188v-4.72H17.622V-9.51h1.213v-2.364Zm2.092,7.031a5.613,5.613,0,0,1,.554-2.536,3.96,3.96,0,0,1,1.591-1.709,4.791,4.791,0,0,1,2.435-.6,4.373,4.373,0,0,1,3.366,1.323,5.076,5.076,0,0,1,1.23,3.6v.105A4.925,4.925,0,0,1,31.83-1.129,4.384,4.384,0,0,1,28.485.176a4.434,4.434,0,0,1-3.261-1.217,4.761,4.761,0,0,1-1.327-3.3Zm2.962.185a3.538,3.538,0,0,0,.413,1.934,1.376,1.376,0,0,0,1.222.615q1.582,0,1.617-2.435v-.3Q30.1-7.4,28.468-7.4q-1.485,0-1.608,2.206Zm12.5,1.986a.684.684,0,0,0-.4-.606,6.016,6.016,0,0,0-1.5-.475A6.853,6.853,0,0,1,35.622-4.4a3.062,3.062,0,0,1-1.1-.971,2.319,2.319,0,0,1-.378-1.31,2.628,2.628,0,0,1,1.081-2.158,4.453,4.453,0,0,1,2.83-.848,4.934,4.934,0,0,1,3.023.853,2.666,2.666,0,0,1,1.143,2.241H39.252q0-1.143-1.2-1.143a1.194,1.194,0,0,0-.782.259.8.8,0,0,0-.316.646.737.737,0,0,0,.387.642,3.654,3.654,0,0,0,1.235.4,10.671,10.671,0,0,1,1.49.378A2.706,2.706,0,0,1,42.205-2.76,2.491,2.491,0,0,1,41.049-.642a5.068,5.068,0,0,1-2.993.817,5.172,5.172,0,0,1-2.18-.439,3.645,3.645,0,0,1-1.494-1.2,2.707,2.707,0,0,1-.536-1.591h2.769a1.145,1.145,0,0,0,.439.962,1.808,1.808,0,0,0,1.081.3,1.422,1.422,0,0,0,.91-.246A.787.787,0,0,0,39.349-2.672ZM-30.239,23.176a4.889,4.889,0,0,1-3.542-1.305,4.507,4.507,0,0,1-1.354-3.4v-.246a5.84,5.84,0,0,1,.541-2.575,3.955,3.955,0,0,1,1.578-1.727,4.763,4.763,0,0,1,2.461-.611,4.117,4.117,0,0,1,3.164,1.244,4.887,4.887,0,0,1,1.16,3.467v1.151H-32.12a2.135,2.135,0,0,0,.694,1.257,2.066,2.066,0,0,0,1.389.457,2.662,2.662,0,0,0,2.2-.984l1.354,1.6a3.784,3.784,0,0,1-1.569,1.217A5.3,5.3,0,0,1-30.239,23.176Zm-.334-7.576q-1.3,0-1.547,1.723h2.988v-.229a1.467,1.467,0,0,0-.36-1.1A1.434,1.434,0,0,0-30.573,15.6Zm9.387.51,1.38-2.619h3.076l-2.5,4.632L-16.607,23H-19.7l-1.494-2.812L-22.663,23h-3.111l2.637-4.878-2.5-4.632h3.111Zm8.859-4.983V13.49h1.564v2.057h-1.564V19.9a1.111,1.111,0,0,0,.193.747,1.037,1.037,0,0,0,.765.211,4.345,4.345,0,0,0,.738-.053v2.118a5.466,5.466,0,0,1-1.67.255,3.1,3.1,0,0,1-2.259-.721,2.954,2.954,0,0,1-.729-2.188v-4.72H-16.5V13.49h1.213V11.126ZM-5,23.176a4.889,4.889,0,0,1-3.542-1.305,4.507,4.507,0,0,1-1.354-3.4v-.246a5.84,5.84,0,0,1,.541-2.575,3.955,3.955,0,0,1,1.578-1.727,4.763,4.763,0,0,1,2.461-.611,4.117,4.117,0,0,1,3.164,1.244,4.887,4.887,0,0,1,1.16,3.467v1.151H-6.877a2.135,2.135,0,0,0,.694,1.257,2.066,2.066,0,0,0,1.389.457,2.662,2.662,0,0,0,2.2-.984l1.354,1.6a3.784,3.784,0,0,1-1.569,1.217A5.3,5.3,0,0,1-5,23.176ZM-5.331,15.6q-1.3,0-1.547,1.723h2.988v-.229a1.467,1.467,0,0,0-.36-1.1A1.434,1.434,0,0,0-5.331,15.6Zm11.285.571-.976-.07a1.752,1.752,0,0,0-1.793.879V23H.224V13.49H3l.1,1.222a2.294,2.294,0,0,1,2.083-1.4,2.888,2.888,0,0,1,.826.105ZM9.743,13.49l.1,1.116a3.225,3.225,0,0,1,2.716-1.292,2.713,2.713,0,0,1,2.219.888,4.226,4.226,0,0,1,.76,2.672V23H12.564V17a1.6,1.6,0,0,0-.29-1.059,1.342,1.342,0,0,0-1.055-.338,1.413,1.413,0,0,0-1.292.686V23H6.965V13.49ZM16.8,18.157a5.613,5.613,0,0,1,.554-2.536,3.96,3.96,0,0,1,1.591-1.709,4.791,4.791,0,0,1,2.435-.6,4.373,4.373,0,0,1,3.366,1.323,5.076,5.076,0,0,1,1.23,3.6v.105a4.925,4.925,0,0,1-1.235,3.529A4.384,4.384,0,0,1,21.4,23.176a4.434,4.434,0,0,1-3.261-1.217,4.761,4.761,0,0,1-1.327-3.3Zm2.962.185a3.538,3.538,0,0,0,.413,1.934,1.376,1.376,0,0,0,1.222.615q1.582,0,1.617-2.435v-.3q0-2.558-1.635-2.558-1.485,0-1.608,2.206Zm12.5,1.986a.684.684,0,0,0-.4-.606,6.016,6.016,0,0,0-1.5-.475,6.853,6.853,0,0,1-1.828-.646,3.062,3.062,0,0,1-1.1-.971,2.319,2.319,0,0,1-.378-1.31,2.628,2.628,0,0,1,1.081-2.158,4.453,4.453,0,0,1,2.83-.848,4.934,4.934,0,0,1,3.023.853,2.666,2.666,0,0,1,1.143,2.241H32.164q0-1.143-1.2-1.143a1.194,1.194,0,0,0-.782.259.8.8,0,0,0-.316.646.737.737,0,0,0,.387.642,3.654,3.654,0,0,0,1.235.4,10.671,10.671,0,0,1,1.49.378,2.706,2.706,0,0,1,2.145,2.646,2.491,2.491,0,0,1-1.156,2.118,5.068,5.068,0,0,1-2.993.817,5.172,5.172,0,0,1-2.18-.439,3.645,3.645,0,0,1-1.494-1.2,2.707,2.707,0,0,1-.536-1.591h2.769a1.145,1.145,0,0,0,.439.962,1.808,1.808,0,0,0,1.081.3,1.422,1.422,0,0,0,.91-.246A.787.787,0,0,0,32.26,20.328Z" transform="translate(794 262)" fill="#12263f"/><g transform="matrix(1, 0, 0, 1, 0, 0)" filter="url(#e)"><path d="M19.635,118.206,0,106.5,19.635,94.794a106.511,106.511,0,0,1,211.728,0L251,106.5l-19.635,11.705a106.51,106.51,0,0,1-211.728,0Z" transform="translate(494 161)" fill="#fff"/></g><path d="M4.952-5.307V0H1.182V-15.641H7.423a7.269,7.269,0,0,1,3.174.661,4.979,4.979,0,0,1,2.138,1.88,5.134,5.134,0,0,1,.757,2.766,4.526,4.526,0,0,1-1.638,3.658,6.8,6.8,0,0,1-4.5,1.37Zm0-2.911H7.423a2.33,2.33,0,0,0,1.67-.548,2.035,2.035,0,0,0,.575-1.547,2.516,2.516,0,0,0-.591-1.751,2.092,2.092,0,0,0-1.611-.666H4.952ZM21.764,0a4.087,4.087,0,0,1-.344-1.042A3.366,3.366,0,0,1,18.627.215a4.124,4.124,0,0,1-2.793-.994,3.163,3.163,0,0,1-1.149-2.5,3.251,3.251,0,0,1,1.4-2.857A7.114,7.114,0,0,1,20.142-7.1h1.117v-.615q0-1.608-1.386-1.608A1.133,1.133,0,0,0,18.584-8.05h-3.62A3.245,3.245,0,0,1,16.4-10.786a6.027,6.027,0,0,1,3.658-1.051,5.284,5.284,0,0,1,3.513,1.085A3.772,3.772,0,0,1,24.89-7.777v5.146a5.269,5.269,0,0,0,.494,2.449V0ZM19.5-2.363a2.019,2.019,0,0,0,1.123-.29,1.818,1.818,0,0,0,.639-.655V-5.167H20.206q-1.891,0-1.891,1.7a1.036,1.036,0,0,0,.333.8A1.205,1.205,0,0,0,19.5-2.363ZM33.924-8.347l-1.192-.086A2.142,2.142,0,0,0,30.54-7.358V0H26.92V-11.623h3.395l.118,1.493a2.8,2.8,0,0,1,2.546-1.708,3.53,3.53,0,0,1,1.01.129Zm6.059-6.166v2.89h1.912v2.514H39.982v5.317a1.358,1.358,0,0,0,.236.913,1.268,1.268,0,0,0,.935.258,5.311,5.311,0,0,0,.9-.064V-.1a6.681,6.681,0,0,1-2.041.312,3.792,3.792,0,0,1-2.761-.881,3.61,3.61,0,0,1-.892-2.675V-9.109H34.88v-2.514h1.482v-2.89ZM48.941.215a5.975,5.975,0,0,1-4.329-1.6,5.509,5.509,0,0,1-1.654-4.152v-.3a7.138,7.138,0,0,1,.661-3.147,4.834,4.834,0,0,1,1.928-2.111,5.821,5.821,0,0,1,3.008-.747,5.031,5.031,0,0,1,3.867,1.52A5.973,5.973,0,0,1,53.84-6.08v1.407h-7.2a2.609,2.609,0,0,0,.849,1.536,2.525,2.525,0,0,0,1.7.559,3.254,3.254,0,0,0,2.686-1.2l1.654,1.955A4.624,4.624,0,0,1,51.611-.338,6.48,6.48,0,0,1,48.941.215Zm-.408-9.26q-1.59,0-1.891,2.105h3.652v-.279a1.793,1.793,0,0,0-.44-1.348A1.753,1.753,0,0,0,48.533-9.045ZM61.381-3.266a.836.836,0,0,0-.483-.741,7.353,7.353,0,0,0-1.837-.58,8.376,8.376,0,0,1-2.234-.79,3.743,3.743,0,0,1-1.343-1.187,2.835,2.835,0,0,1-.462-1.6A3.212,3.212,0,0,1,56.343-10.8,5.443,5.443,0,0,1,59.8-11.838,6.03,6.03,0,0,1,63.5-10.8a3.258,3.258,0,0,1,1.4,2.739H61.263q0-1.4-1.472-1.4a1.459,1.459,0,0,0-.956.317.981.981,0,0,0-.387.79.9.9,0,0,0,.473.784,4.466,4.466,0,0,0,1.509.494,13.042,13.042,0,0,1,1.821.462q2.621.9,2.621,3.233A3.044,3.044,0,0,1,63.459-.784a6.2,6.2,0,0,1-3.658,1,6.322,6.322,0,0,1-2.664-.537,4.455,4.455,0,0,1-1.826-1.461,3.308,3.308,0,0,1-.655-1.944H58.04a1.4,1.4,0,0,0,.537,1.176,2.209,2.209,0,0,0,1.321.371,1.738,1.738,0,0,0,1.112-.3A.962.962,0,0,0,61.381-3.266ZM71.586-5.9a7.1,7.1,0,0,1,1.192-4.351,3.925,3.925,0,0,1,3.33-1.59,3.338,3.338,0,0,1,2.621,1.225V-16.5H82.36V0H79.105l-.183-1.246A3.428,3.428,0,0,1,76.087.215,3.918,3.918,0,0,1,72.8-1.375,7.325,7.325,0,0,1,71.586-5.9Zm3.62.226q0,3.094,1.8,3.094a1.782,1.782,0,0,0,1.719-1.01V-8.014a1.734,1.734,0,0,0-1.7-1.031q-1.676,0-1.815,2.707ZM90.041.215a5.975,5.975,0,0,1-4.329-1.6,5.509,5.509,0,0,1-1.654-4.152v-.3a7.138,7.138,0,0,1,.661-3.147,4.834,4.834,0,0,1,1.928-2.111,5.821,5.821,0,0,1,3.008-.747,5.031,5.031,0,0,1,3.867,1.52A5.973,5.973,0,0,1,94.939-6.08v1.407h-7.2a2.609,2.609,0,0,0,.849,1.536,2.525,2.525,0,0,0,1.7.559,3.254,3.254,0,0,0,2.686-1.2l1.654,1.955A4.624,4.624,0,0,1,92.71-.338,6.48,6.48,0,0,1,90.041.215Zm-.408-9.26q-1.59,0-1.891,2.105h3.652v-.279a1.793,1.793,0,0,0-.44-1.348A1.753,1.753,0,0,0,89.633-9.045ZM100.214,0H96.583V-16.5h3.631ZM111.74,0h-3.631V-16.5h3.631Zm6.048,0h-3.631V-11.623h3.631Zm-3.846-14.62a1.616,1.616,0,0,1,.559-1.268,2.108,2.108,0,0,1,1.45-.494,2.108,2.108,0,0,1,1.45.494,1.616,1.616,0,0,1,.559,1.268,1.616,1.616,0,0,1-.559,1.268,2.108,2.108,0,0,1-1.45.494,2.108,2.108,0,0,1-1.45-.494A1.616,1.616,0,0,1,113.942-14.62Zm16.865,8.905a7.084,7.084,0,0,1-1.182,4.394A3.958,3.958,0,0,1,126.3.215a3.435,3.435,0,0,1-2.857-1.407L123.288,0h-3.244V-16.5h3.62v5.812a3.314,3.314,0,0,1,2.61-1.149,3.959,3.959,0,0,1,3.352,1.558A7.121,7.121,0,0,1,130.808-5.9Zm-3.631-.231a4.725,4.725,0,0,0-.446-2.386,1.5,1.5,0,0,0-1.37-.713,1.733,1.733,0,0,0-1.7.933V-3.5a1.743,1.743,0,0,0,1.719.922A1.537,1.537,0,0,0,127-3.822,8.933,8.933,0,0,0,127.177-5.946Zm12.257-2.4-1.192-.086a2.142,2.142,0,0,0-2.191,1.074V0h-3.62V-11.623h3.395l.118,1.493a2.8,2.8,0,0,1,2.546-1.708,3.53,3.53,0,0,1,1.01.129Zm.462,2.428a6.86,6.86,0,0,1,.677-3.1,4.84,4.84,0,0,1,1.944-2.089,5.856,5.856,0,0,1,2.976-.73,5.344,5.344,0,0,1,4.114,1.617,6.2,6.2,0,0,1,1.5,4.4v.129A6.019,6.019,0,0,1,149.6-1.38a5.359,5.359,0,0,1-4.087,1.6,5.42,5.42,0,0,1-3.985-1.488,5.819,5.819,0,0,1-1.622-4.034Zm3.62.226a4.325,4.325,0,0,0,.5,2.363,1.682,1.682,0,0,0,1.493.752q1.934,0,1.977-2.976v-.365q0-3.126-2-3.126-1.815,0-1.966,2.7Z" transform="translate(547 285)" fill="#12263f"/><g transform="translate(582 308)"><rect width="7" height="7" fill="#fdd835"/><rect width="7" height="7" transform="translate(17)" fill="#fdd835"/><rect width="7" height="7" transform="translate(34)" fill="#fdd835"/><rect width="7" height="7" transform="translate(51)" fill="#fdd835"/><rect width="7" height="7" transform="translate(68)" fill="#fdd835"/></g><g transform="translate(987 20)" fill="#d0f2f5" stroke="#26ccda" stroke-width="2"><rect width="162" height="45" rx="7" stroke="none"/><rect x="1" y="1" width="160" height="43" rx="6" fill="none"/></g><g transform="translate(987 78)" fill="#d0f2f5" stroke="#26ccda" stroke-width="2"><rect width="162" height="45" rx="7" stroke="none"/><rect x="1" y="1" width="160" height="43" rx="6" fill="none"/></g><g transform="translate(987 136)" fill="#d0f2f5" stroke="#26ccda" stroke-width="2"><rect width="162" height="45" rx="7" stroke="none"/><rect x="1" y="1" width="160" height="43" rx="6" fill="none"/></g><g transform="translate(987 194)" fill="#d0f2f5" stroke="#26ccda" stroke-width="2"><rect width="162" height="45" rx="7" stroke="none"/><rect x="1" y="1" width="160" height="43" rx="6" fill="none"/></g><g transform="translate(987 253)" fill="#d0f2f5" stroke="#26ccda" stroke-width="2"><rect width="162" height="45" rx="7" stroke="none"/><rect x="1" y="1" width="160" height="43" rx="6" fill="none"/></g><g transform="translate(987 311)" fill="#d0f2f5" stroke="#26ccda" stroke-width="2"><rect width="162" height="45" rx="7" stroke="none"/><rect x="1" y="1" width="160" height="43" rx="6" fill="none"/></g><g transform="translate(987 369)" fill="#d0f2f5" stroke="#26ccda" stroke-width="2"><rect width="162" height="45" rx="7" stroke="none"/><rect x="1" y="1" width="160" height="43" rx="6" fill="none"/></g><g transform="translate(987 427)" fill="#d0f2f5" stroke="#26ccda" stroke-width="2"><rect width="162" height="45" rx="7" stroke="none"/><rect x="1" y="1" width="160" height="43" rx="6" fill="none"/></g><g transform="translate(987 485)" fill="#d0f2f5" stroke="#26ccda" stroke-width="2"><rect width="162" height="45" rx="7" stroke="none"/><rect x="1" y="1" width="160" height="43" rx="6" fill="none"/></g><path d="M-50.1-3.4a1.268,1.268,0,0,0-.479-1.055,5.954,5.954,0,0,0-1.683-.782,16.147,16.147,0,0,1-1.969-.782Q-56.72-7.242-56.72-9.378a3.011,3.011,0,0,1,.62-1.876,4.008,4.008,0,0,1,1.753-1.266,6.823,6.823,0,0,1,2.549-.453,5.969,5.969,0,0,1,2.474.492,3.917,3.917,0,0,1,1.7,1.4A3.661,3.661,0,0,1-47.017-9h-3.076a1.547,1.547,0,0,0-.479-1.213,1.867,1.867,0,0,0-1.3-.431,2.106,2.106,0,0,0-1.305.365,1.119,1.119,0,0,0-.479.927,1.127,1.127,0,0,0,.527.892,6.65,6.65,0,0,0,1.854.826,11.36,11.36,0,0,1,2.18.918,3.663,3.663,0,0,1,2.074,3.3A3.125,3.125,0,0,1-48.283-.782a5.629,5.629,0,0,1-3.472.958,6.888,6.888,0,0,1-2.817-.558,4.247,4.247,0,0,1-1.9-1.529,3.985,3.985,0,0,1-.637-2.237h3.094a1.963,1.963,0,0,0,.532,1.516,2.513,2.513,0,0,0,1.727.488,1.985,1.985,0,0,0,1.208-.33A1.088,1.088,0,0,0-50.1-3.4Zm4.157-1.441a5.613,5.613,0,0,1,.554-2.536A3.96,3.96,0,0,1-43.8-9.088a4.791,4.791,0,0,1,2.435-.6A4.373,4.373,0,0,1-38-8.363a5.076,5.076,0,0,1,1.23,3.6v.105A4.925,4.925,0,0,1-38-1.129,4.384,4.384,0,0,1-41.348.176a4.434,4.434,0,0,1-3.261-1.217,4.761,4.761,0,0,1-1.327-3.3Zm2.962.185a3.538,3.538,0,0,0,.413,1.934,1.376,1.376,0,0,0,1.222.615q1.582,0,1.617-2.435v-.3q0-2.558-1.635-2.558-1.485,0-1.608,2.206Zm16.348-.018A5.8,5.8,0,0,1-27.6-1.081,3.238,3.238,0,0,1-30.327.176,2.81,2.81,0,0,1-32.665-.976L-32.788,0h-2.654V-13.5h2.962v4.755a2.711,2.711,0,0,1,2.136-.94A3.239,3.239,0,0,1-27.6-8.411a5.826,5.826,0,0,1,.967,3.586Zm-2.971-.189a3.866,3.866,0,0,0-.365-1.952A1.229,1.229,0,0,0-31.091-7.4a1.418,1.418,0,0,0-1.389.763v3.773a1.426,1.426,0,0,0,1.406.755,1.258,1.258,0,0,0,1.327-1.018A7.309,7.309,0,0,0-29.606-4.865Zm10.028-1.964-.976-.07a1.752,1.752,0,0,0-1.793.879V0h-2.962V-9.51h2.777l.1,1.222a2.294,2.294,0,0,1,2.083-1.4,2.888,2.888,0,0,1,.826.105Zm5.5,7a4.889,4.889,0,0,1-3.542-1.305,4.507,4.507,0,0,1-1.354-3.4v-.246a5.84,5.84,0,0,1,.541-2.575,3.955,3.955,0,0,1,1.578-1.727,4.763,4.763,0,0,1,2.461-.611,4.117,4.117,0,0,1,3.164,1.244,4.887,4.887,0,0,1,1.16,3.467v1.151h-5.889a2.135,2.135,0,0,0,.694,1.257,2.066,2.066,0,0,0,1.389.457,2.662,2.662,0,0,0,2.2-.984l1.354,1.6A3.784,3.784,0,0,1-11.892-.277,5.3,5.3,0,0,1-14.076.176ZM-14.41-7.4q-1.3,0-1.547,1.723h2.988v-.229a1.467,1.467,0,0,0-.36-1.1A1.434,1.434,0,0,0-14.41-7.4Zm9.554,5.291a1.317,1.317,0,0,0,.967-.338,1.241,1.241,0,0,0,.334-.945H-.778A3.288,3.288,0,0,1-1.9-.826a4.168,4.168,0,0,1-2.887,1,4.22,4.22,0,0,1-3.27-1.3,5.125,5.125,0,0,1-1.2-3.6v-.123A5.792,5.792,0,0,1-8.719-7.4a3.872,3.872,0,0,1,1.534-1.7,4.573,4.573,0,0,1,2.373-.593A4.116,4.116,0,0,1-1.868-8.657,3.647,3.647,0,0,1-.778-5.871H-3.555A1.626,1.626,0,0,0-3.916-7a1.244,1.244,0,0,0-.967-.4q-1.151,0-1.345,1.468a10.357,10.357,0,0,0-.062,1.283,4.068,4.068,0,0,0,.343,1.986A1.187,1.187,0,0,0-4.856-2.109Zm11,1.081A3.054,3.054,0,0,1,3.6.176,3,3,0,0,1,1.23-.734a3.826,3.826,0,0,1-.8-2.615V-9.51H3.388v6.179A1.065,1.065,0,0,0,4.575-2.109a1.548,1.548,0,0,0,1.45-.729V-9.51H9V0H6.227ZM19.455-4.676a5.8,5.8,0,0,1-.967,3.595A3.238,3.238,0,0,1,15.763.176,2.81,2.81,0,0,1,13.425-.976L13.3,0H10.648V-13.5H13.61v4.755a2.711,2.711,0,0,1,2.136-.94,3.239,3.239,0,0,1,2.742,1.274,5.826,5.826,0,0,1,.967,3.586Zm-2.971-.189a3.866,3.866,0,0,0-.365-1.952A1.229,1.229,0,0,0,15-7.4a1.418,1.418,0,0,0-1.389.763v3.773a1.426,1.426,0,0,0,1.406.755,1.258,1.258,0,0,0,1.327-1.018A7.309,7.309,0,0,0,16.484-4.865ZM23.884,0H20.914V-9.51h2.971ZM20.738-11.962A1.322,1.322,0,0,1,21.195-13a1.724,1.724,0,0,1,1.187-.4,1.724,1.724,0,0,1,1.187.4,1.322,1.322,0,0,1,.457,1.037,1.322,1.322,0,0,1-.457,1.037,1.724,1.724,0,0,1-1.187.4,1.724,1.724,0,0,1-1.187-.4A1.322,1.322,0,0,1,20.738-11.962ZM30.309.176a4.889,4.889,0,0,1-3.542-1.305,4.507,4.507,0,0,1-1.354-3.4v-.246a5.84,5.84,0,0,1,.541-2.575,3.955,3.955,0,0,1,1.578-1.727,4.763,4.763,0,0,1,2.461-.611,4.117,4.117,0,0,1,3.164,1.244,4.887,4.887,0,0,1,1.16,3.467v1.151H28.428a2.135,2.135,0,0,0,.694,1.257,2.066,2.066,0,0,0,1.389.457,2.662,2.662,0,0,0,2.2-.984l1.354,1.6A3.784,3.784,0,0,1,32.493-.277,5.3,5.3,0,0,1,30.309.176ZM29.975-7.4q-1.3,0-1.547,1.723h2.988v-.229a1.467,1.467,0,0,0-.36-1.1A1.434,1.434,0,0,0,29.975-7.4Zm11.285.571-.976-.07a1.752,1.752,0,0,0-1.793.879V0H35.53V-9.51h2.777l.1,1.222a2.294,2.294,0,0,1,2.083-1.4,2.888,2.888,0,0,1,.826.105Zm4.957-5.045V-9.51h1.564v2.057H46.217V-3.1a1.111,1.111,0,0,0,.193.747,1.037,1.037,0,0,0,.765.211,4.345,4.345,0,0,0,.738-.053V-.079a5.466,5.466,0,0,1-1.67.255,3.1,3.1,0,0,1-2.259-.721,2.954,2.954,0,0,1-.729-2.188v-4.72H42.042V-9.51h1.213v-2.364ZM54.3,0a3.344,3.344,0,0,1-.281-.853A2.754,2.754,0,0,1,51.737.176a3.374,3.374,0,0,1-2.285-.813,2.588,2.588,0,0,1-.94-2.043,2.66,2.66,0,0,1,1.143-2.338,5.821,5.821,0,0,1,3.322-.791h.914v-.5q0-1.316-1.134-1.316A.927.927,0,0,0,51.7-6.587H48.74a2.655,2.655,0,0,1,1.173-2.239,4.931,4.931,0,0,1,2.993-.86A4.323,4.323,0,0,1,55.78-8.8a3.086,3.086,0,0,1,1.081,2.435v4.21a4.311,4.311,0,0,0,.4,2V0ZM52.449-1.934a1.652,1.652,0,0,0,.918-.237,1.487,1.487,0,0,0,.523-.536V-4.228h-.861q-1.547,0-1.547,1.389a.848.848,0,0,0,.272.655A.986.986,0,0,0,52.449-1.934Z" transform="translate(1068 49)" fill="#12263f"/><path d="M-20.215-3.4a1.268,1.268,0,0,0-.479-1.055,5.954,5.954,0,0,0-1.683-.782,16.147,16.147,0,0,1-1.969-.782q-2.487-1.222-2.487-3.357a3.011,3.011,0,0,1,.62-1.876A4.008,4.008,0,0,1-24.46-12.52a6.823,6.823,0,0,1,2.549-.453,5.969,5.969,0,0,1,2.474.492,3.917,3.917,0,0,1,1.7,1.4A3.661,3.661,0,0,1-17.13-9h-3.076a1.547,1.547,0,0,0-.479-1.213,1.867,1.867,0,0,0-1.3-.431,2.106,2.106,0,0,0-1.305.365,1.119,1.119,0,0,0-.479.927,1.127,1.127,0,0,0,.527.892,6.65,6.65,0,0,0,1.854.826,11.36,11.36,0,0,1,2.18.918,3.663,3.663,0,0,1,2.074,3.3A3.125,3.125,0,0,1-18.4-.782a5.629,5.629,0,0,1-3.472.958,6.888,6.888,0,0,1-2.817-.558,4.247,4.247,0,0,1-1.9-1.529,3.985,3.985,0,0,1-.637-2.237h3.094a1.963,1.963,0,0,0,.532,1.516,2.513,2.513,0,0,0,1.727.488,1.985,1.985,0,0,0,1.208-.33A1.088,1.088,0,0,0-20.215-3.4Zm4.157-1.441A5.613,5.613,0,0,1-15.5-7.378a3.96,3.96,0,0,1,1.591-1.709,4.791,4.791,0,0,1,2.435-.6A4.373,4.373,0,0,1-8.112-8.363a5.076,5.076,0,0,1,1.23,3.6v.105A4.925,4.925,0,0,1-8.117-1.129,4.384,4.384,0,0,1-11.461.176a4.434,4.434,0,0,1-3.261-1.217,4.761,4.761,0,0,1-1.327-3.3Zm2.962.185a3.538,3.538,0,0,0,.413,1.934,1.376,1.376,0,0,0,1.222.615q1.582,0,1.617-2.435v-.3q0-2.558-1.635-2.558-1.485,0-1.608,2.206ZM-2.452,0H-5.423V-13.5h2.971ZM4.729,0a3.344,3.344,0,0,1-.281-.853A2.754,2.754,0,0,1,2.162.176,3.374,3.374,0,0,1-.123-.637a2.588,2.588,0,0,1-.94-2.043A2.66,2.66,0,0,1,.079-5.019,5.821,5.821,0,0,1,3.4-5.81h.914v-.5q0-1.316-1.134-1.316A.927.927,0,0,0,2.127-6.587H-.835A2.655,2.655,0,0,1,.338-8.825a4.931,4.931,0,0,1,2.993-.86A4.323,4.323,0,0,1,6.205-8.8,3.086,3.086,0,0,1,7.286-6.363v4.21a4.311,4.311,0,0,0,.4,2V0ZM2.874-1.934a1.652,1.652,0,0,0,.918-.237,1.487,1.487,0,0,0,.523-.536V-4.228H3.454q-1.547,0-1.547,1.389a.848.848,0,0,0,.272.655A.986.986,0,0,0,2.874-1.934Zm14.88-2.751a5.735,5.735,0,0,1-1,3.538A3.2,3.2,0,0,1,14.063.176a2.742,2.742,0,0,1-2.153-.958V3.656H8.947V-9.51h2.769l.088.879a2.742,2.742,0,0,1,2.241-1.055,3.224,3.224,0,0,1,2.733,1.3,5.805,5.805,0,0,1,.976,3.564Zm-2.962-.185q0-2.531-1.477-2.531a1.394,1.394,0,0,0-1.406.756V-2.9a1.439,1.439,0,0,0,1.424.791q1.415,0,1.459-2.443ZM24.416,0a3.344,3.344,0,0,1-.281-.853A2.754,2.754,0,0,1,21.85.176a3.374,3.374,0,0,1-2.285-.813,2.588,2.588,0,0,1-.94-2.043,2.66,2.66,0,0,1,1.143-2.338,5.821,5.821,0,0,1,3.322-.791H24v-.5q0-1.316-1.134-1.316a.927.927,0,0,0-1.055,1.042H18.853a2.655,2.655,0,0,1,1.173-2.239,4.931,4.931,0,0,1,2.993-.86,4.323,4.323,0,0,1,2.874.888,3.086,3.086,0,0,1,1.081,2.435v4.21a4.311,4.311,0,0,0,.4,2V0ZM22.562-1.934a1.652,1.652,0,0,0,.918-.237A1.487,1.487,0,0,0,24-2.707V-4.228h-.861q-1.547,0-1.547,1.389a.848.848,0,0,0,.272.655A.986.986,0,0,0,22.562-1.934Z" transform="translate(1068 107)" fill="#12263f"/><path d="M-23.6-4.333a4.673,4.673,0,0,1-.721,2.36,4.35,4.35,0,0,1-1.85,1.586,6.3,6.3,0,0,1-2.72.563,5.025,5.025,0,0,1-3.973-1.644,6.786,6.786,0,0,1-1.45-4.641v-.633a7.746,7.746,0,0,1,.655-3.292,4.961,4.961,0,0,1,1.885-2.18,5.26,5.26,0,0,1,2.848-.769,5.516,5.516,0,0,1,3.744,1.226,4.844,4.844,0,0,1,1.608,3.379h-3.076a2.292,2.292,0,0,0-.589-1.679,2.422,2.422,0,0,0-1.687-.51,1.843,1.843,0,0,0-1.687.861,5.536,5.536,0,0,0-.562,2.751v.905a6.126,6.126,0,0,0,.514,2.927,1.882,1.882,0,0,0,1.771.879,2.369,2.369,0,0,0,1.626-.5,2.126,2.126,0,0,0,.6-1.591Zm6.987,3.3a3.054,3.054,0,0,1-2.54,1.2,3,3,0,0,1-2.369-.91,3.826,3.826,0,0,1-.8-2.615V-9.51h2.962v6.179a1.065,1.065,0,0,0,1.187,1.222,1.548,1.548,0,0,0,1.45-.729V-9.51h2.979V0h-2.777ZM-3.3-4.676a5.8,5.8,0,0,1-.967,3.595A3.238,3.238,0,0,1-6.987.176,2.81,2.81,0,0,1-9.325-.976L-9.448,0H-12.1V-13.5h2.962v4.755A2.711,2.711,0,0,1-7-9.686,3.239,3.239,0,0,1-4.263-8.411,5.826,5.826,0,0,1-3.3-4.825Zm-2.971-.189a3.866,3.866,0,0,0-.365-1.952A1.229,1.229,0,0,0-7.752-7.4a1.418,1.418,0,0,0-1.389.763v3.773a1.426,1.426,0,0,0,1.406.755A1.258,1.258,0,0,0-6.407-3.127,7.309,7.309,0,0,0-6.267-4.865ZM1.134,0H-1.837V-9.51H1.134ZM-2.013-11.962A1.322,1.322,0,0,1-1.556-13a1.724,1.724,0,0,1,1.187-.4A1.724,1.724,0,0,1,.817-13a1.322,1.322,0,0,1,.457,1.037,1.322,1.322,0,0,1-.457,1.037,1.724,1.724,0,0,1-1.187.4,1.724,1.724,0,0,1-1.187-.4A1.322,1.322,0,0,1-2.013-11.962ZM7.559.176A4.889,4.889,0,0,1,4.017-1.129a4.507,4.507,0,0,1-1.354-3.4v-.246A5.84,5.84,0,0,1,3.2-7.348,3.955,3.955,0,0,1,4.781-9.075a4.763,4.763,0,0,1,2.461-.611,4.117,4.117,0,0,1,3.164,1.244,4.887,4.887,0,0,1,1.16,3.467v1.151H5.678a2.135,2.135,0,0,0,.694,1.257,2.066,2.066,0,0,0,1.389.457,2.662,2.662,0,0,0,2.2-.984l1.354,1.6A3.784,3.784,0,0,1,9.743-.277,5.3,5.3,0,0,1,7.559.176ZM7.225-7.4q-1.3,0-1.547,1.723H8.666v-.229a1.467,1.467,0,0,0-.36-1.1A1.434,1.434,0,0,0,7.225-7.4Zm11.285.571-.976-.07a1.752,1.752,0,0,0-1.793.879V0H12.779V-9.51h2.777l.1,1.222a2.294,2.294,0,0,1,2.083-1.4,2.888,2.888,0,0,1,.826.105Zm4.957-5.045V-9.51h1.564v2.057H23.467V-3.1a1.111,1.111,0,0,0,.193.747,1.037,1.037,0,0,0,.765.211,4.345,4.345,0,0,0,.738-.053V-.079a5.466,5.466,0,0,1-1.67.255,3.1,3.1,0,0,1-2.259-.721A2.954,2.954,0,0,1,20.5-2.733v-4.72H19.292V-9.51H20.5v-2.364ZM31.553,0a3.344,3.344,0,0,1-.281-.853A2.754,2.754,0,0,1,28.986.176,3.374,3.374,0,0,1,26.7-.637a2.588,2.588,0,0,1-.94-2.043A2.66,2.66,0,0,1,26.9-5.019a5.821,5.821,0,0,1,3.322-.791h.914v-.5q0-1.316-1.134-1.316a.927.927,0,0,0-1.055,1.042H25.989a2.655,2.655,0,0,1,1.173-2.239,4.931,4.931,0,0,1,2.993-.86,4.323,4.323,0,0,1,2.874.888A3.086,3.086,0,0,1,34.11-6.363v4.21a4.311,4.311,0,0,0,.4,2V0ZM29.7-1.934a1.652,1.652,0,0,0,.918-.237,1.487,1.487,0,0,0,.523-.536V-4.228h-.861q-1.547,0-1.547,1.389A.848.848,0,0,0,29-2.184.986.986,0,0,0,29.7-1.934Z" transform="translate(1068 165)" fill="#12263f"/><path d="M-28.138-4.342V0h-3.085V-12.8h5.106a5.948,5.948,0,0,1,2.6.541,4.074,4.074,0,0,1,1.749,1.538,4.2,4.2,0,0,1,.62,2.263,3.7,3.7,0,0,1-1.34,2.993,5.561,5.561,0,0,1-3.678,1.121Zm0-2.382h2.021a1.906,1.906,0,0,0,1.367-.448,1.665,1.665,0,0,0,.47-1.266,2.059,2.059,0,0,0-.483-1.433,1.712,1.712,0,0,0-1.318-.545h-2.057Zm8.007,1.881a5.613,5.613,0,0,1,.554-2.536,3.96,3.96,0,0,1,1.591-1.709,4.791,4.791,0,0,1,2.435-.6,4.373,4.373,0,0,1,3.366,1.323,5.076,5.076,0,0,1,1.23,3.6v.105A4.925,4.925,0,0,1-12.19-1.129,4.384,4.384,0,0,1-15.535.176,4.434,4.434,0,0,1-18.8-1.042a4.761,4.761,0,0,1-1.327-3.3Zm2.962.185a3.538,3.538,0,0,0,.413,1.934,1.376,1.376,0,0,0,1.222.615q1.582,0,1.617-2.435v-.3q0-2.558-1.635-2.558-1.485,0-1.608,2.206ZM-3.9-6.829l-.976-.07a1.752,1.752,0,0,0-1.793.879V0H-9.628V-9.51h2.777l.1,1.222a2.294,2.294,0,0,1,2.083-1.4,2.888,2.888,0,0,1,.826.105Zm4.957-5.045V-9.51H2.624v2.057H1.059V-3.1a1.111,1.111,0,0,0,.193.747,1.037,1.037,0,0,0,.765.211A4.345,4.345,0,0,0,2.755-2.2V-.079a5.466,5.466,0,0,1-1.67.255A3.1,3.1,0,0,1-1.173-.545,2.954,2.954,0,0,1-1.9-2.733v-4.72H-3.116V-9.51H-1.9v-2.364ZM9.145,0a3.344,3.344,0,0,1-.281-.853A2.754,2.754,0,0,1,6.579.176,3.374,3.374,0,0,1,4.293-.637a2.588,2.588,0,0,1-.94-2.043A2.66,2.66,0,0,1,4.5-5.019,5.821,5.821,0,0,1,7.818-5.81h.914v-.5q0-1.316-1.134-1.316A.927.927,0,0,0,6.543-6.587H3.582A2.655,2.655,0,0,1,4.755-8.825a4.931,4.931,0,0,1,2.993-.86,4.323,4.323,0,0,1,2.874.888A3.086,3.086,0,0,1,11.7-6.363v4.21a4.311,4.311,0,0,0,.4,2V0ZM7.291-1.934a1.652,1.652,0,0,0,.918-.237,1.487,1.487,0,0,0,.523-.536V-4.228H7.871q-1.547,0-1.547,1.389a.848.848,0,0,0,.272.655A.986.986,0,0,0,7.291-1.934Zm5.678-2.892a5.809,5.809,0,0,1,.976-3.56,3.211,3.211,0,0,1,2.725-1.3,2.731,2.731,0,0,1,2.145,1V-13.5h2.971V0H19.121l-.149-1.02a2.8,2.8,0,0,1-2.32,1.2,3.205,3.205,0,0,1-2.689-1.3A5.993,5.993,0,0,1,12.968-4.825Zm2.962.185q0,2.531,1.477,2.531a1.458,1.458,0,0,0,1.406-.826V-6.557A1.419,1.419,0,0,0,17.424-7.4q-1.371,0-1.485,2.215ZM28.824,0a3.344,3.344,0,0,1-.281-.853A2.754,2.754,0,0,1,26.257.176a3.374,3.374,0,0,1-2.285-.813,2.588,2.588,0,0,1-.94-2.043,2.66,2.66,0,0,1,1.143-2.338A5.821,5.821,0,0,1,27.5-5.81h.914v-.5q0-1.316-1.134-1.316a.927.927,0,0,0-1.055,1.042H23.26a2.655,2.655,0,0,1,1.173-2.239,4.931,4.931,0,0,1,2.993-.86A4.323,4.323,0,0,1,30.3-8.8a3.086,3.086,0,0,1,1.081,2.435v4.21a4.311,4.311,0,0,0,.4,2V0ZM26.969-1.934a1.652,1.652,0,0,0,.918-.237,1.487,1.487,0,0,0,.523-.536V-4.228h-.861Q26-4.228,26-2.839a.848.848,0,0,0,.272.655A.986.986,0,0,0,26.969-1.934Z" transform="translate(1068 223)" fill="#12263f"/><path d="M-18.686-2.373h5.37V0h-8.455V-12.8h3.085Zm6.161-2.47a5.613,5.613,0,0,1,.554-2.536A3.96,3.96,0,0,1-10.38-9.088a4.791,4.791,0,0,1,2.435-.6A4.373,4.373,0,0,1-4.579-8.363a5.076,5.076,0,0,1,1.23,3.6v.105A4.925,4.925,0,0,1-4.583-1.129,4.384,4.384,0,0,1-7.928.176a4.434,4.434,0,0,1-3.261-1.217,4.761,4.761,0,0,1-1.327-3.3Zm2.962.185a3.538,3.538,0,0,0,.413,1.934,1.376,1.376,0,0,0,1.222.615q1.582,0,1.617-2.435v-.3q0-2.558-1.635-2.558-1.485,0-1.608,2.206ZM.756-9.51l.1,1.116A3.27,3.27,0,0,1,3.568-9.686,2.407,2.407,0,0,1,6-8.253,3.165,3.165,0,0,1,8.8-9.686q2.892,0,2.971,3.5V0H8.8V-6a1.813,1.813,0,0,0-.246-1.063,1.048,1.048,0,0,0-.9-.334,1.4,1.4,0,0,0-1.31.782l.009.123V0H3.384V-5.985a1.906,1.906,0,0,0-.237-1.081A1.045,1.045,0,0,0,2.241-7.4a1.42,1.42,0,0,0-1.3.782V0H-2.021V-9.51ZM13.087-4.843a5.613,5.613,0,0,1,.554-2.536,3.96,3.96,0,0,1,1.591-1.709,4.791,4.791,0,0,1,2.435-.6,4.373,4.373,0,0,1,3.366,1.323,5.076,5.076,0,0,1,1.23,3.6v.105a4.925,4.925,0,0,1-1.235,3.529A4.384,4.384,0,0,1,17.684.176a4.434,4.434,0,0,1-3.261-1.217,4.761,4.761,0,0,1-1.327-3.3Zm2.962.185a3.538,3.538,0,0,0,.413,1.934,1.376,1.376,0,0,0,1.222.615q1.582,0,1.617-2.435v-.3Q19.3-7.4,17.666-7.4q-1.485,0-1.608,2.206Z" transform="translate(1068 282)" fill="#12263f"/><path d="M-47.316-4.333a4.673,4.673,0,0,1-.721,2.36,4.35,4.35,0,0,1-1.85,1.586,6.3,6.3,0,0,1-2.72.563A5.025,5.025,0,0,1-56.58-1.468a6.786,6.786,0,0,1-1.45-4.641v-.633a7.746,7.746,0,0,1,.655-3.292,4.961,4.961,0,0,1,1.885-2.18,5.26,5.26,0,0,1,2.848-.769A5.516,5.516,0,0,1-48.9-11.755,4.844,4.844,0,0,1-47.29-8.376h-3.076a2.292,2.292,0,0,0-.589-1.679,2.422,2.422,0,0,0-1.687-.51A1.843,1.843,0,0,0-54.33-9.7a5.536,5.536,0,0,0-.562,2.751v.905a6.126,6.126,0,0,0,.514,2.927,1.882,1.882,0,0,0,1.771.879,2.369,2.369,0,0,0,1.626-.5,2.126,2.126,0,0,0,.6-1.591Zm.949-.51a5.613,5.613,0,0,1,.554-2.536,3.96,3.96,0,0,1,1.591-1.709,4.791,4.791,0,0,1,2.435-.6,4.373,4.373,0,0,1,3.366,1.323,5.076,5.076,0,0,1,1.23,3.6v.105a4.925,4.925,0,0,1-1.235,3.529A4.384,4.384,0,0,1-41.77.176a4.434,4.434,0,0,1-3.261-1.217,4.761,4.761,0,0,1-1.327-3.3Zm2.962.185a3.538,3.538,0,0,0,.413,1.934,1.376,1.376,0,0,0,1.222.615q1.582,0,1.617-2.435v-.3q0-2.558-1.635-2.558-1.485,0-1.608,2.206ZM-33.166-9.51l.1,1.116a3.225,3.225,0,0,1,2.716-1.292,2.713,2.713,0,0,1,2.219.888,4.226,4.226,0,0,1,.76,2.672V0h-2.971V-6a1.6,1.6,0,0,0-.29-1.059A1.342,1.342,0,0,0-31.689-7.4a1.413,1.413,0,0,0-1.292.686V0h-2.962V-9.51Zm10.881-2.364V-9.51h1.564v2.057h-1.564V-3.1a1.111,1.111,0,0,0,.193.747,1.037,1.037,0,0,0,.765.211,4.345,4.345,0,0,0,.738-.053V-.079a5.466,5.466,0,0,1-1.67.255,3.1,3.1,0,0,1-2.259-.721,2.954,2.954,0,0,1-.729-2.188v-4.72h-1.213V-9.51h1.213v-2.364ZM-13.8-6.829l-.976-.07a1.752,1.752,0,0,0-1.793.879V0h-2.962V-9.51h2.777l.1,1.222a2.294,2.294,0,0,1,2.083-1.4,2.888,2.888,0,0,1,.826.105ZM-7.642,0a3.344,3.344,0,0,1-.281-.853A2.754,2.754,0,0,1-10.208.176a3.374,3.374,0,0,1-2.285-.813,2.588,2.588,0,0,1-.94-2.043,2.66,2.66,0,0,1,1.143-2.338A5.821,5.821,0,0,1-8.969-5.81h.914v-.5q0-1.316-1.134-1.316a.927.927,0,0,0-1.055,1.042h-2.962a2.655,2.655,0,0,1,1.173-2.239,4.931,4.931,0,0,1,2.993-.86A4.323,4.323,0,0,1-6.166-8.8,3.086,3.086,0,0,1-5.084-6.363v4.21a4.311,4.311,0,0,0,.4,2V0ZM-9.5-1.934a1.652,1.652,0,0,0,.918-.237,1.487,1.487,0,0,0,.523-.536V-4.228h-.861q-1.547,0-1.547,1.389a.848.848,0,0,0,.272.655A.986.986,0,0,0-9.5-1.934ZM5.383-4.685a5.735,5.735,0,0,1-1,3.538A3.2,3.2,0,0,1,1.692.176,2.742,2.742,0,0,1-.461-.782V3.656H-3.423V-9.51H-.655l.088.879A2.742,2.742,0,0,1,1.674-9.686a3.224,3.224,0,0,1,2.733,1.3,5.805,5.805,0,0,1,.976,3.564ZM2.421-4.869Q2.421-7.4.945-7.4a1.394,1.394,0,0,0-1.406.756V-2.9a1.439,1.439,0,0,0,1.424.791q1.415,0,1.459-2.443Zm3.894.026a5.613,5.613,0,0,1,.554-2.536A3.96,3.96,0,0,1,8.459-9.088a4.791,4.791,0,0,1,2.435-.6A4.373,4.373,0,0,1,14.26-8.363a5.076,5.076,0,0,1,1.23,3.6v.105a4.925,4.925,0,0,1-1.235,3.529A4.384,4.384,0,0,1,10.912.176,4.434,4.434,0,0,1,7.651-1.042a4.761,4.761,0,0,1-1.327-3.3Zm2.962.185A3.538,3.538,0,0,0,9.69-2.725a1.376,1.376,0,0,0,1.222.615q1.582,0,1.617-2.435v-.3q0-2.558-1.635-2.558-1.485,0-1.608,2.206ZM22.548-6.829l-.976-.07a1.752,1.752,0,0,0-1.793.879V0H16.818V-9.51H19.6l.1,1.222a2.294,2.294,0,0,1,2.083-1.4,2.888,2.888,0,0,1,.826.105Zm4.957-5.045V-9.51H29.07v2.057H27.505V-3.1a1.111,1.111,0,0,0,.193.747,1.037,1.037,0,0,0,.765.211A4.345,4.345,0,0,0,29.2-2.2V-.079a5.466,5.466,0,0,1-1.67.255,3.1,3.1,0,0,1-2.259-.721,2.954,2.954,0,0,1-.729-2.188v-4.72H23.331V-9.51h1.213v-2.364ZM35.591,0a3.344,3.344,0,0,1-.281-.853A2.754,2.754,0,0,1,33.025.176,3.374,3.374,0,0,1,30.74-.637a2.588,2.588,0,0,1-.94-2.043,2.66,2.66,0,0,1,1.143-2.338,5.821,5.821,0,0,1,3.322-.791h.914v-.5q0-1.316-1.134-1.316A.927.927,0,0,0,32.99-6.587H30.028A2.655,2.655,0,0,1,31.2-8.825a4.931,4.931,0,0,1,2.993-.86,4.323,4.323,0,0,1,2.874.888,3.086,3.086,0,0,1,1.081,2.435v4.21a4.311,4.311,0,0,0,.4,2V0ZM33.737-1.934a1.652,1.652,0,0,0,.918-.237,1.487,1.487,0,0,0,.523-.536V-4.228h-.861q-1.547,0-1.547,1.389a.848.848,0,0,0,.272.655A.986.986,0,0,0,33.737-1.934Zm5.678-2.892a5.809,5.809,0,0,1,.976-3.56,3.211,3.211,0,0,1,2.725-1.3,2.731,2.731,0,0,1,2.145,1V-13.5H48.23V0H45.567l-.149-1.02A2.8,2.8,0,0,1,43.1.176a3.205,3.205,0,0,1-2.689-1.3A5.993,5.993,0,0,1,39.415-4.825Zm2.962.185q0,2.531,1.477,2.531a1.458,1.458,0,0,0,1.406-.826V-6.557A1.419,1.419,0,0,0,43.871-7.4q-1.371,0-1.485,2.215ZM55.27,0a3.344,3.344,0,0,1-.281-.853A2.754,2.754,0,0,1,52.7.176a3.374,3.374,0,0,1-2.285-.813,2.588,2.588,0,0,1-.94-2.043,2.66,2.66,0,0,1,1.143-2.338,5.821,5.821,0,0,1,3.322-.791h.914v-.5q0-1.316-1.134-1.316a.927.927,0,0,0-1.055,1.042H49.707A2.655,2.655,0,0,1,50.88-8.825a4.931,4.931,0,0,1,2.993-.86,4.323,4.323,0,0,1,2.874.888,3.086,3.086,0,0,1,1.081,2.435v4.21a4.311,4.311,0,0,0,.4,2V0ZM53.416-1.934a1.652,1.652,0,0,0,.918-.237,1.487,1.487,0,0,0,.523-.536V-4.228H54q-1.547,0-1.547,1.389a.848.848,0,0,0,.272.655A.986.986,0,0,0,53.416-1.934Z" transform="translate(1068 340)" fill="#12263f"/><path d="M-7.73-5.1H-12.7V0H-15.79V-12.8h8.561v2.382H-12.7v2.944H-7.73ZM-1.024,0a3.344,3.344,0,0,1-.281-.853A2.754,2.754,0,0,1-3.59.176,3.374,3.374,0,0,1-5.875-.637a2.588,2.588,0,0,1-.94-2.043A2.66,2.66,0,0,1-5.673-5.019,5.821,5.821,0,0,1-2.351-5.81h.914v-.5q0-1.316-1.134-1.316A.927.927,0,0,0-3.625-6.587H-6.587A2.655,2.655,0,0,1-5.414-8.825a4.931,4.931,0,0,1,2.993-.86A4.323,4.323,0,0,1,.453-8.8,3.086,3.086,0,0,1,1.534-6.363v4.21a4.311,4.311,0,0,0,.4,2V0ZM-2.878-1.934a1.652,1.652,0,0,0,.918-.237,1.487,1.487,0,0,0,.523-.536V-4.228H-2.3q-1.547,0-1.547,1.389a.848.848,0,0,0,.272.655A.986.986,0,0,0-2.878-1.934ZM6.359-9.51V.325a3.452,3.452,0,0,1-.967,2.6,3.714,3.714,0,0,1-2.672.914,6.308,6.308,0,0,1-1.4-.149V1.45a5.667,5.667,0,0,0,.835.079A1.084,1.084,0,0,0,3.388.308V-9.51Zm-3.19-2.452A1.322,1.322,0,0,1,3.625-13a1.724,1.724,0,0,1,1.187-.4A1.724,1.724,0,0,1,6-13a1.322,1.322,0,0,1,.457,1.037A1.322,1.322,0,0,1,6-10.925a1.724,1.724,0,0,1-1.187.4,1.724,1.724,0,0,1-1.187-.4A1.322,1.322,0,0,1,3.168-11.962ZM13.39,0a3.344,3.344,0,0,1-.281-.853A2.754,2.754,0,0,1,10.824.176,3.374,3.374,0,0,1,8.539-.637,2.588,2.588,0,0,1,7.6-2.681,2.66,2.66,0,0,1,8.741-5.019a5.821,5.821,0,0,1,3.322-.791h.914v-.5q0-1.316-1.134-1.316a.927.927,0,0,0-1.055,1.042H7.827A2.655,2.655,0,0,1,9-8.825a4.931,4.931,0,0,1,2.993-.86,4.323,4.323,0,0,1,2.874.888,3.086,3.086,0,0,1,1.081,2.435v4.21a4.311,4.311,0,0,0,.4,2V0ZM11.536-1.934a1.652,1.652,0,0,0,.918-.237,1.487,1.487,0,0,0,.523-.536V-4.228h-.861q-1.547,0-1.547,1.389a.848.848,0,0,0,.272.655A.986.986,0,0,0,11.536-1.934Z" transform="translate(1068 398)" fill="#12263f"/><path d="M-22.97-4.333a4.673,4.673,0,0,1-.721,2.36,4.35,4.35,0,0,1-1.85,1.586,6.3,6.3,0,0,1-2.72.563,5.025,5.025,0,0,1-3.973-1.644,6.786,6.786,0,0,1-1.45-4.641v-.633a7.746,7.746,0,0,1,.655-3.292,4.961,4.961,0,0,1,1.885-2.18,5.26,5.26,0,0,1,2.848-.769,5.516,5.516,0,0,1,3.744,1.226,4.844,4.844,0,0,1,1.608,3.379H-26.02a2.292,2.292,0,0,0-.589-1.679,2.422,2.422,0,0,0-1.687-.51,1.843,1.843,0,0,0-1.687.861,5.536,5.536,0,0,0-.562,2.751v.905a6.126,6.126,0,0,0,.514,2.927,1.882,1.882,0,0,0,1.771.879,2.369,2.369,0,0,0,1.626-.5,2.126,2.126,0,0,0,.6-1.591Zm7.075-2.5-.976-.07a1.752,1.752,0,0,0-1.793.879V0h-2.962V-9.51h2.777l.1,1.222a2.294,2.294,0,0,1,2.083-1.4,2.888,2.888,0,0,1,.826.105Zm5.5,7a4.889,4.889,0,0,1-3.542-1.305,4.507,4.507,0,0,1-1.354-3.4v-.246a5.84,5.84,0,0,1,.541-2.575A3.955,3.955,0,0,1-13.17-9.075a4.763,4.763,0,0,1,2.461-.611A4.117,4.117,0,0,1-7.545-8.442a4.887,4.887,0,0,1,1.16,3.467v1.151h-5.889a2.135,2.135,0,0,0,.694,1.257,2.066,2.066,0,0,0,1.389.457,2.662,2.662,0,0,0,2.2-.984l1.354,1.6A3.784,3.784,0,0,1-8.209-.277,5.3,5.3,0,0,1-10.393.176ZM-10.727-7.4q-1.3,0-1.547,1.723h2.988v-.229a1.467,1.467,0,0,0-.36-1.1A1.434,1.434,0,0,0-10.727-7.4Zm-.035-6.108h3.129l-2.443,2.76-2.417,0Zm5.194,8.684a5.809,5.809,0,0,1,.976-3.56,3.211,3.211,0,0,1,2.725-1.3,2.731,2.731,0,0,1,2.145,1V-13.5H3.248V0H.584L.435-1.02a2.8,2.8,0,0,1-2.32,1.2,3.205,3.205,0,0,1-2.689-1.3A5.993,5.993,0,0,1-5.568-4.825Zm2.962.185q0,2.531,1.477,2.531A1.458,1.458,0,0,0,.277-2.936V-6.557A1.419,1.419,0,0,0-1.112-7.4Q-2.483-7.4-2.6-5.186ZM8.055,0H5.084V-9.51H8.055ZM4.909-11.962A1.322,1.322,0,0,1,5.366-13a1.724,1.724,0,0,1,1.187-.4,1.724,1.724,0,0,1,1.187.4A1.322,1.322,0,0,1,8.2-11.962a1.322,1.322,0,0,1-.457,1.037,1.724,1.724,0,0,1-1.187.4,1.724,1.724,0,0,1-1.187-.4A1.322,1.322,0,0,1,4.909-11.962Zm8.42.088V-9.51h1.564v2.057H13.329V-3.1a1.111,1.111,0,0,0,.193.747,1.037,1.037,0,0,0,.765.211,4.345,4.345,0,0,0,.738-.053V-.079a5.466,5.466,0,0,1-1.67.255A3.1,3.1,0,0,1,11.1-.545a2.954,2.954,0,0,1-.729-2.188v-4.72H9.154V-9.51h1.213v-2.364ZM15.42-4.843a5.613,5.613,0,0,1,.554-2.536,3.96,3.96,0,0,1,1.591-1.709A4.791,4.791,0,0,1,20-9.686a4.373,4.373,0,0,1,3.366,1.323,5.076,5.076,0,0,1,1.23,3.6v.105a4.925,4.925,0,0,1-1.235,3.529A4.384,4.384,0,0,1,20.017.176a4.434,4.434,0,0,1-3.261-1.217,4.761,4.761,0,0,1-1.327-3.3Zm2.962.185A3.538,3.538,0,0,0,18.8-2.725a1.376,1.376,0,0,0,1.222.615q1.582,0,1.617-2.435v-.3Q21.634-7.4,20-7.4q-1.485,0-1.608,2.206Zm12.5,1.986a.684.684,0,0,0-.4-.606,6.016,6.016,0,0,0-1.5-.475A6.853,6.853,0,0,1,27.154-4.4a3.062,3.062,0,0,1-1.1-.971,2.319,2.319,0,0,1-.378-1.31,2.628,2.628,0,0,1,1.081-2.158,4.453,4.453,0,0,1,2.83-.848,4.934,4.934,0,0,1,3.023.853,2.666,2.666,0,0,1,1.143,2.241H30.784q0-1.143-1.2-1.143a1.194,1.194,0,0,0-.782.259.8.8,0,0,0-.316.646.737.737,0,0,0,.387.642,3.654,3.654,0,0,0,1.235.4,10.671,10.671,0,0,1,1.49.378A2.706,2.706,0,0,1,33.737-2.76,2.491,2.491,0,0,1,32.581-.642a5.068,5.068,0,0,1-2.993.817,5.172,5.172,0,0,1-2.18-.439,3.645,3.645,0,0,1-1.494-1.2,2.707,2.707,0,0,1-.536-1.591h2.769a1.145,1.145,0,0,0,.439.962,1.808,1.808,0,0,0,1.081.3,1.422,1.422,0,0,0,.91-.246A.787.787,0,0,0,30.88-2.672Z" transform="translate(1068 456)" fill="#12263f"/><path d="M-22.32-1.582A4.96,4.96,0,0,1-24.4-.308a8.984,8.984,0,0,1-3.006.483,5.36,5.36,0,0,1-4.017-1.538,6.226,6.226,0,0,1-1.608-4.28l-.009-1.107a7.637,7.637,0,0,1,.668-3.3,4.96,4.96,0,0,1,1.912-2.171,5.407,5.407,0,0,1,2.878-.76,5.669,5.669,0,0,1,3.713,1.094,4.637,4.637,0,0,1,1.542,3.265H-25.3a2.426,2.426,0,0,0-.686-1.529,2.212,2.212,0,0,0-1.494-.457,2.013,2.013,0,0,0-1.793.984,5.256,5.256,0,0,0-.642,2.813v.773a5.145,5.145,0,0,0,.655,2.878A2.316,2.316,0,0,0-27.2-2.2,2.592,2.592,0,0,0-25.4-2.733V-4.72h-2.145V-6.838h5.229ZM-15-1.028a3.054,3.054,0,0,1-2.54,1.2,3,3,0,0,1-2.369-.91,3.826,3.826,0,0,1-.8-2.615V-9.51h2.962v6.179a1.065,1.065,0,0,0,1.187,1.222,1.548,1.548,0,0,0,1.45-.729V-9.51h2.979V0h-2.777ZM-5.155,0a3.344,3.344,0,0,1-.281-.853A2.754,2.754,0,0,1-7.721.176a3.374,3.374,0,0,1-2.285-.813,2.588,2.588,0,0,1-.94-2.043A2.66,2.66,0,0,1-9.8-5.019,5.821,5.821,0,0,1-6.482-5.81h.914v-.5q0-1.316-1.134-1.316A.927.927,0,0,0-7.756-6.587h-2.962A2.655,2.655,0,0,1-9.545-8.825a4.931,4.931,0,0,1,2.993-.86A4.323,4.323,0,0,1-3.678-8.8,3.086,3.086,0,0,1-2.6-6.363v4.21a4.311,4.311,0,0,0,.4,2V0ZM-7.009-1.934a1.652,1.652,0,0,0,.918-.237,1.487,1.487,0,0,0,.523-.536V-4.228h-.861q-1.547,0-1.547,1.389a.848.848,0,0,0,.272.655A.986.986,0,0,0-7.009-1.934Zm11.8-4.9L3.819-6.9a1.752,1.752,0,0,0-1.793.879V0H-.936V-9.51H1.841l.1,1.222a2.294,2.294,0,0,1,2.083-1.4,2.888,2.888,0,0,1,.826.105Zm.527,2A5.809,5.809,0,0,1,6.3-8.385a3.211,3.211,0,0,1,2.725-1.3,2.731,2.731,0,0,1,2.145,1V-13.5h2.971V0H11.474l-.149-1.02A2.8,2.8,0,0,1,9,.176a3.205,3.205,0,0,1-2.689-1.3A5.993,5.993,0,0,1,5.322-4.825Zm2.962.185q0,2.531,1.477,2.531a1.458,1.458,0,0,0,1.406-.826V-6.557A1.419,1.419,0,0,0,9.778-7.4q-1.371,0-1.485,2.215ZM21.177,0A3.344,3.344,0,0,1,20.9-.853,2.754,2.754,0,0,1,18.611.176a3.374,3.374,0,0,1-2.285-.813,2.588,2.588,0,0,1-.94-2.043,2.66,2.66,0,0,1,1.143-2.338A5.821,5.821,0,0,1,19.85-5.81h.914v-.5q0-1.316-1.134-1.316a.927.927,0,0,0-1.055,1.042H15.614a2.655,2.655,0,0,1,1.173-2.239,4.931,4.931,0,0,1,2.993-.86,4.323,4.323,0,0,1,2.874.888,3.086,3.086,0,0,1,1.081,2.435v4.21a4.311,4.311,0,0,0,.4,2V0ZM19.323-1.934a1.652,1.652,0,0,0,.918-.237,1.487,1.487,0,0,0,.523-.536V-4.228H19.9q-1.547,0-1.547,1.389a.848.848,0,0,0,.272.655A.986.986,0,0,0,19.323-1.934Zm11.03-.738a.684.684,0,0,0-.4-.606,6.016,6.016,0,0,0-1.5-.475A6.853,6.853,0,0,1,26.626-4.4a3.062,3.062,0,0,1-1.1-.971,2.319,2.319,0,0,1-.378-1.31,2.628,2.628,0,0,1,1.081-2.158,4.453,4.453,0,0,1,2.83-.848,4.934,4.934,0,0,1,3.023.853,2.666,2.666,0,0,1,1.143,2.241H30.256q0-1.143-1.2-1.143a1.194,1.194,0,0,0-.782.259.8.8,0,0,0-.316.646.737.737,0,0,0,.387.642,3.654,3.654,0,0,0,1.235.4,10.671,10.671,0,0,1,1.49.378A2.706,2.706,0,0,1,33.209-2.76,2.491,2.491,0,0,1,32.054-.642a5.068,5.068,0,0,1-2.993.817,5.172,5.172,0,0,1-2.18-.439,3.645,3.645,0,0,1-1.494-1.2,2.707,2.707,0,0,1-.536-1.591H27.62a1.145,1.145,0,0,0,.439.962,1.808,1.808,0,0,0,1.081.3,1.422,1.422,0,0,0,.91-.246A.787.787,0,0,0,30.353-2.672Z" transform="translate(1068 514)" fill="#12263f"/><g transform="translate(91)" fill="#f2e7b6" stroke="#fdd835" stroke-width="2"><rect width="173" height="45" rx="7" stroke="none"/><rect x="1" y="1" width="171" height="43" rx="6" fill="none"/></g><g transform="translate(91 56)" fill="#f2e7b6" stroke="#fdd835" stroke-width="2"><rect width="173" height="45" rx="7" stroke="none"/><rect x="1" y="1" width="171" height="43" rx="6" fill="none"/></g><g transform="translate(91 112)" fill="#f2e7b6" stroke="#fdd835" stroke-width="2"><rect width="173" height="45" rx="7" stroke="none"/><rect x="1" y="1" width="171" height="43" rx="6" fill="none"/></g><g transform="translate(91 168)" fill="#f2e7b6" stroke="#fdd835" stroke-width="2"><rect width="173" height="45" rx="7" stroke="none"/><rect x="1" y="1" width="171" height="43" rx="6" fill="none"/></g><g transform="translate(91 224)" fill="#f2e7b6" stroke="#fdd835" stroke-width="2"><rect width="173" height="45" rx="7" stroke="none"/><rect x="1" y="1" width="171" height="43" rx="6" fill="none"/></g><g transform="translate(91 280)" fill="#f2e7b6" stroke="#fdd835" stroke-width="2"><rect width="173" height="45" rx="7" stroke="none"/><rect x="1" y="1" width="171" height="43" rx="6" fill="none"/></g><g transform="translate(91 336)" fill="#f2e7b6" stroke="#fdd835" stroke-width="2"><rect width="173" height="45" rx="7" stroke="none"/><rect x="1" y="1" width="171" height="43" rx="6" fill="none"/></g><g transform="translate(91 392)" fill="#f2e7b6" stroke="#fdd835" stroke-width="2"><rect width="173" height="45" rx="7" stroke="none"/><rect x="1" y="1" width="171" height="43" rx="6" fill="none"/></g><g transform="translate(91 448)" fill="#f2e7b6" stroke="#fdd835" stroke-width="2"><rect width="173" height="45" rx="7" stroke="none"/><rect x="1" y="1" width="171" height="43" rx="6" fill="none"/></g><g transform="translate(91 504)" fill="#f2e7b6" stroke="#fdd835" stroke-width="2"><rect width="173" height="45" rx="7" stroke="none"/><rect x="1" y="1" width="171" height="43" rx="6" fill="none"/></g><path d="M-24.038-4.342V0h-3.085V-12.8h5.106a5.948,5.948,0,0,1,2.6.541,4.074,4.074,0,0,1,1.749,1.538,4.2,4.2,0,0,1,.62,2.263,3.7,3.7,0,0,1-1.34,2.993,5.561,5.561,0,0,1-3.678,1.121Zm0-2.382h2.021a1.906,1.906,0,0,0,1.367-.448,1.665,1.665,0,0,0,.47-1.266,2.059,2.059,0,0,0-.483-1.433,1.712,1.712,0,0,0-1.318-.545h-2.057ZM-10.283,0a3.344,3.344,0,0,1-.281-.853A2.754,2.754,0,0,1-12.85.176a3.374,3.374,0,0,1-2.285-.813,2.588,2.588,0,0,1-.94-2.043,2.66,2.66,0,0,1,1.143-2.338A5.821,5.821,0,0,1-11.61-5.81h.914v-.5q0-1.316-1.134-1.316a.927.927,0,0,0-1.055,1.042h-2.962a2.655,2.655,0,0,1,1.173-2.239,4.931,4.931,0,0,1,2.993-.86A4.323,4.323,0,0,1-8.807-8.8,3.086,3.086,0,0,1-7.726-6.363v4.21a4.311,4.311,0,0,0,.4,2V0Zm-1.854-1.934a1.652,1.652,0,0,0,.918-.237,1.487,1.487,0,0,0,.523-.536V-4.228h-.861q-1.547,0-1.547,1.389a.848.848,0,0,0,.272.655A.986.986,0,0,0-12.138-1.934ZM-11.4-13.5h3.129l-2.443,2.76-2.417,0Zm4.966,8.675a6.421,6.421,0,0,1,.475-2.549A3.821,3.821,0,0,1-4.6-9.083a3.591,3.591,0,0,1,2.065-.6,2.855,2.855,0,0,1,2.32,1l.105-.826H2.584V-.36A4.009,4.009,0,0,1,2,1.824,3.75,3.75,0,0,1,.308,3.248a6.219,6.219,0,0,1-2.566.5,5.365,5.365,0,0,1-2.026-.4,3.657,3.657,0,0,1-1.5-1.028L-4.544.58a2.716,2.716,0,0,0,2.18.976A1.764,1.764,0,0,0-.4-.466v-.3a2.781,2.781,0,0,1-2.153.94A3.437,3.437,0,0,1-5.361-1.156,5.517,5.517,0,0,1-6.434-4.72Zm2.971.185a3.383,3.383,0,0,0,.439,1.85,1.386,1.386,0,0,0,1.23.681A1.573,1.573,0,0,0-.4-2.751v-4a1.534,1.534,0,0,0-1.38-.65,1.4,1.4,0,0,0-1.239.708A3.858,3.858,0,0,0-3.463-4.641ZM7.392,0H4.421V-9.51H7.392ZM4.245-11.962A1.322,1.322,0,0,1,4.7-13a1.724,1.724,0,0,1,1.187-.4,1.724,1.724,0,0,1,1.187.4,1.322,1.322,0,0,1,.457,1.037,1.322,1.322,0,0,1-.457,1.037,1.724,1.724,0,0,1-1.187.4,1.724,1.724,0,0,1-1.187-.4A1.322,1.322,0,0,1,4.245-11.962Zm7.69,2.452.1,1.116a3.225,3.225,0,0,1,2.716-1.292,2.713,2.713,0,0,1,2.219.888,4.226,4.226,0,0,1,.76,2.672V0H14.757V-6a1.6,1.6,0,0,0-.29-1.059A1.342,1.342,0,0,0,13.412-7.4a1.413,1.413,0,0,0-1.292.686V0H9.158V-9.51ZM24.724,0a3.344,3.344,0,0,1-.281-.853A2.754,2.754,0,0,1,22.157.176a3.374,3.374,0,0,1-2.285-.813,2.588,2.588,0,0,1-.94-2.043,2.66,2.66,0,0,1,1.143-2.338A5.821,5.821,0,0,1,23.4-5.81h.914v-.5q0-1.316-1.134-1.316a.927.927,0,0,0-1.055,1.042H19.16a2.655,2.655,0,0,1,1.173-2.239,4.931,4.931,0,0,1,2.993-.86A4.323,4.323,0,0,1,26.2-8.8a3.086,3.086,0,0,1,1.081,2.435v4.21a4.311,4.311,0,0,0,.4,2V0ZM22.869-1.934a1.652,1.652,0,0,0,.918-.237,1.487,1.487,0,0,0,.523-.536V-4.228h-.861q-1.547,0-1.547,1.389a.848.848,0,0,0,.272.655A.986.986,0,0,0,22.869-1.934Z" transform="translate(178 29)" fill="#12263f"/><path d="M-60.205-4.333a4.673,4.673,0,0,1-.721,2.36,4.35,4.35,0,0,1-1.85,1.586A6.3,6.3,0,0,1-65.5.176a5.025,5.025,0,0,1-3.973-1.644,6.786,6.786,0,0,1-1.45-4.641v-.633a7.746,7.746,0,0,1,.655-3.292,4.961,4.961,0,0,1,1.885-2.18,5.26,5.26,0,0,1,2.848-.769,5.516,5.516,0,0,1,3.744,1.226,4.844,4.844,0,0,1,1.608,3.379h-3.076a2.292,2.292,0,0,0-.589-1.679,2.422,2.422,0,0,0-1.687-.51,1.843,1.843,0,0,0-1.687.861,5.536,5.536,0,0,0-.562,2.751v.905a6.126,6.126,0,0,0,.514,2.927,1.882,1.882,0,0,0,1.771.879,2.369,2.369,0,0,0,1.626-.5,2.126,2.126,0,0,0,.6-1.591Zm6.987,3.3a3.054,3.054,0,0,1-2.54,1.2,3,3,0,0,1-2.369-.91,3.826,3.826,0,0,1-.8-2.615V-9.51h2.962v6.179a1.065,1.065,0,0,0,1.187,1.222,1.548,1.548,0,0,0,1.45-.729V-9.51h2.979V0H-53.13Zm9.088,1.2a4.889,4.889,0,0,1-3.542-1.305,4.507,4.507,0,0,1-1.354-3.4v-.246a5.84,5.84,0,0,1,.541-2.575,3.955,3.955,0,0,1,1.578-1.727,4.763,4.763,0,0,1,2.461-.611,4.117,4.117,0,0,1,3.164,1.244,4.887,4.887,0,0,1,1.16,3.467v1.151h-5.889a2.135,2.135,0,0,0,.694,1.257,2.066,2.066,0,0,0,1.389.457,2.662,2.662,0,0,0,2.2-.984l1.354,1.6A3.784,3.784,0,0,1-41.946-.277,5.3,5.3,0,0,1-44.13.176ZM-44.464-7.4q-1.3,0-1.547,1.723h2.988v-.229a1.467,1.467,0,0,0-.36-1.1A1.434,1.434,0,0,0-44.464-7.4Zm11.285.571-.976-.07a1.752,1.752,0,0,0-1.793.879V0h-2.962V-9.51h2.777l.1,1.222a2.294,2.294,0,0,1,2.083-1.4,2.888,2.888,0,0,1,.826.105Zm9.9,2.145a5.735,5.735,0,0,1-1,3.538A3.2,3.2,0,0,1-26.974.176a2.742,2.742,0,0,1-2.153-.958V3.656h-2.962V-9.51h2.769l.088.879a2.742,2.742,0,0,1,2.241-1.055,3.224,3.224,0,0,1,2.733,1.3,5.805,5.805,0,0,1,.976,3.564Zm-2.962-.185q0-2.531-1.477-2.531a1.394,1.394,0,0,0-1.406.756V-2.9a1.439,1.439,0,0,0,1.424.791q1.415,0,1.459-2.443Zm3.894.026A5.613,5.613,0,0,1-21.8-7.378a3.96,3.96,0,0,1,1.591-1.709,4.791,4.791,0,0,1,2.435-.6,4.373,4.373,0,0,1,3.366,1.323,5.076,5.076,0,0,1,1.23,3.6v.105A4.925,4.925,0,0,1-14.41-1.129,4.384,4.384,0,0,1-17.754.176a4.434,4.434,0,0,1-3.261-1.217,4.761,4.761,0,0,1-1.327-3.3Zm2.962.185a3.538,3.538,0,0,0,.413,1.934,1.376,1.376,0,0,0,1.222.615q1.582,0,1.617-2.435v-.3q0-2.558-1.635-2.558-1.485,0-1.608,2.206Zm11.628-.167a5.809,5.809,0,0,1,.976-3.56,3.211,3.211,0,0,1,2.725-1.3,2.731,2.731,0,0,1,2.145,1V-13.5H1.055V0H-1.608l-.149-1.02a2.8,2.8,0,0,1-2.32,1.2,3.205,3.205,0,0,1-2.689-1.3A5.993,5.993,0,0,1-7.761-4.825Zm2.962.185q0,2.531,1.477,2.531a1.458,1.458,0,0,0,1.406-.826V-6.557A1.419,1.419,0,0,0-3.3-7.4q-1.371,0-1.485,2.215ZM7.339.176A4.889,4.889,0,0,1,3.8-1.129a4.507,4.507,0,0,1-1.354-3.4v-.246a5.84,5.84,0,0,1,.541-2.575A3.955,3.955,0,0,1,4.562-9.075a4.763,4.763,0,0,1,2.461-.611,4.117,4.117,0,0,1,3.164,1.244,4.887,4.887,0,0,1,1.16,3.467v1.151H5.458a2.135,2.135,0,0,0,.694,1.257,2.066,2.066,0,0,0,1.389.457,2.662,2.662,0,0,0,2.2-.984l1.354,1.6A3.784,3.784,0,0,1,9.523-.277,5.3,5.3,0,0,1,7.339.176ZM7-7.4q-1.3,0-1.547,1.723H8.446v-.229a1.467,1.467,0,0,0-.36-1.1A1.434,1.434,0,0,0,7-7.4ZM20.145,0H17.174V-13.5h2.971Zm7.181,0a3.344,3.344,0,0,1-.281-.853A2.754,2.754,0,0,1,24.759.176a3.374,3.374,0,0,1-2.285-.813,2.588,2.588,0,0,1-.94-2.043,2.66,2.66,0,0,1,1.143-2.338A5.821,5.821,0,0,1,26-5.81h.914v-.5q0-1.316-1.134-1.316a.927.927,0,0,0-1.055,1.042H21.762a2.655,2.655,0,0,1,1.173-2.239,4.931,4.931,0,0,1,2.993-.86A4.323,4.323,0,0,1,28.8-8.8a3.086,3.086,0,0,1,1.081,2.435v4.21a4.311,4.311,0,0,0,.4,2V0ZM25.471-1.934a1.652,1.652,0,0,0,.918-.237,1.487,1.487,0,0,0,.523-.536V-4.228h-.861q-1.547,0-1.547,1.389a.848.848,0,0,0,.272.655A.986.986,0,0,0,25.471-1.934Zm10.16-2.909a5.613,5.613,0,0,1,.554-2.536,3.96,3.96,0,0,1,1.591-1.709,4.791,4.791,0,0,1,2.435-.6,4.373,4.373,0,0,1,3.366,1.323,5.076,5.076,0,0,1,1.23,3.6v.105a4.925,4.925,0,0,1-1.235,3.529A4.384,4.384,0,0,1,40.228.176a4.434,4.434,0,0,1-3.261-1.217,4.761,4.761,0,0,1-1.327-3.3Zm2.962.185a3.538,3.538,0,0,0,.413,1.934,1.376,1.376,0,0,0,1.222.615q1.582,0,1.617-2.435v-.3q0-2.558-1.635-2.558-1.485,0-1.608,2.206ZM54.94-4.676a5.8,5.8,0,0,1-.967,3.595A3.238,3.238,0,0,1,51.249.176,2.81,2.81,0,0,1,48.911-.976L48.788,0H46.134V-13.5H49.1v4.755a2.711,2.711,0,0,1,2.136-.94,3.239,3.239,0,0,1,2.742,1.274,5.826,5.826,0,0,1,.967,3.586ZM51.97-4.865A3.866,3.866,0,0,0,51.6-6.817,1.229,1.229,0,0,0,50.484-7.4a1.418,1.418,0,0,0-1.389.763v3.773a1.426,1.426,0,0,0,1.406.755,1.258,1.258,0,0,0,1.327-1.018A7.309,7.309,0,0,0,51.97-4.865ZM62-6.829l-.976-.07a1.752,1.752,0,0,0-1.793.879V0H56.268V-9.51h2.777l.1,1.222a2.294,2.294,0,0,1,2.083-1.4,2.888,2.888,0,0,1,.826.105ZM68.159,0a3.344,3.344,0,0,1-.281-.853A2.754,2.754,0,0,1,65.593.176a3.374,3.374,0,0,1-2.285-.813,2.588,2.588,0,0,1-.94-2.043A2.66,2.66,0,0,1,63.51-5.019a5.821,5.821,0,0,1,3.322-.791h.914v-.5q0-1.316-1.134-1.316a.927.927,0,0,0-1.055,1.042H62.6a2.655,2.655,0,0,1,1.173-2.239,4.931,4.931,0,0,1,2.993-.86,4.323,4.323,0,0,1,2.874.888,3.086,3.086,0,0,1,1.081,2.435v4.21a4.311,4.311,0,0,0,.4,2V0ZM66.3-1.934a1.652,1.652,0,0,0,.918-.237,1.487,1.487,0,0,0,.523-.536V-4.228h-.861q-1.547,0-1.547,1.389a.848.848,0,0,0,.272.655A.986.986,0,0,0,66.3-1.934Z" transform="translate(178 85)" fill="#12263f"/><path d="M-20.65,0h-3.076V-12.8h3.076Zm-1.169-16.225h3.129l-2.443,2.76-2.417,0Zm5.9,6.715.1,1.116a3.225,3.225,0,0,1,2.716-1.292A2.713,2.713,0,0,1-10.89-8.8a4.226,4.226,0,0,1,.76,2.672V0H-13.1V-6a1.6,1.6,0,0,0-.29-1.059A1.342,1.342,0,0,0-14.445-7.4a1.413,1.413,0,0,0-1.292.686V0H-18.7V-9.51Zm7.058,4.685a5.809,5.809,0,0,1,.976-3.56,3.211,3.211,0,0,1,2.725-1.3,2.731,2.731,0,0,1,2.145,1V-13.5H-.048V0H-2.711l-.149-1.02a2.8,2.8,0,0,1-2.32,1.2,3.205,3.205,0,0,1-2.689-1.3A5.993,5.993,0,0,1-8.864-4.825Zm2.962.185q0,2.531,1.477,2.531a1.458,1.458,0,0,0,1.406-.826V-6.557A1.419,1.419,0,0,0-4.408-7.4q-1.371,0-1.485,2.215ZM4.759,0H1.789V-9.51H4.759ZM1.613-11.962A1.322,1.322,0,0,1,2.07-13a1.724,1.724,0,0,1,1.187-.4,1.724,1.724,0,0,1,1.187.4A1.322,1.322,0,0,1,4.9-11.962a1.322,1.322,0,0,1-.457,1.037,1.724,1.724,0,0,1-1.187.4,1.724,1.724,0,0,1-1.187-.4A1.322,1.322,0,0,1,1.613-11.962ZM10.6-2.109a1.317,1.317,0,0,0,.967-.338,1.241,1.241,0,0,0,.334-.945h2.777A3.288,3.288,0,0,1,13.562-.826a4.168,4.168,0,0,1-2.887,1,4.22,4.22,0,0,1-3.27-1.3,5.125,5.125,0,0,1-1.2-3.6v-.123A5.792,5.792,0,0,1,6.741-7.4a3.872,3.872,0,0,1,1.534-1.7,4.573,4.573,0,0,1,2.373-.593,4.116,4.116,0,0,1,2.944,1.028,3.647,3.647,0,0,1,1.09,2.786H11.9A1.626,1.626,0,0,0,11.544-7a1.244,1.244,0,0,0-.967-.4q-1.151,0-1.345,1.468a10.357,10.357,0,0,0-.062,1.283,4.068,4.068,0,0,0,.343,1.986A1.187,1.187,0,0,0,10.6-2.109ZM20.536.176a4.889,4.889,0,0,1-3.542-1.305,4.507,4.507,0,0,1-1.354-3.4v-.246a5.84,5.84,0,0,1,.541-2.575,3.955,3.955,0,0,1,1.578-1.727,4.763,4.763,0,0,1,2.461-.611,4.117,4.117,0,0,1,3.164,1.244,4.887,4.887,0,0,1,1.16,3.467v1.151H18.655a2.135,2.135,0,0,0,.694,1.257,2.066,2.066,0,0,0,1.389.457,2.662,2.662,0,0,0,2.2-.984l1.354,1.6A3.784,3.784,0,0,1,22.72-.277,5.3,5.3,0,0,1,20.536.176ZM20.2-7.4q-1.3,0-1.547,1.723h2.988v-.229a1.467,1.467,0,0,0-.36-1.1A1.434,1.434,0,0,0,20.2-7.4Z" transform="translate(178 141)" fill="#12263f"/><path d="M-27.87-4.342V0h-3.085V-12.8h5.106a5.948,5.948,0,0,1,2.6.541A4.074,4.074,0,0,1-21.5-10.718a4.2,4.2,0,0,1,.62,2.263,3.7,3.7,0,0,1-1.34,2.993A5.561,5.561,0,0,1-25.9-4.342Zm0-2.382h2.021a1.906,1.906,0,0,0,1.367-.448,1.665,1.665,0,0,0,.47-1.266A2.059,2.059,0,0,0-24.5-9.87a1.712,1.712,0,0,0-1.318-.545H-27.87Zm14.247-.105L-14.6-6.9a1.752,1.752,0,0,0-1.793.879V0h-2.962V-9.51h2.777l.1,1.222a2.294,2.294,0,0,1,2.083-1.4,2.888,2.888,0,0,1,.826.105Zm.378,1.986a5.613,5.613,0,0,1,.554-2.536A3.96,3.96,0,0,1-11.1-9.088a4.791,4.791,0,0,1,2.435-.6A4.373,4.373,0,0,1-5.3-8.363a5.076,5.076,0,0,1,1.23,3.6v.105A4.925,4.925,0,0,1-5.3-1.129,4.384,4.384,0,0,1-8.648.176a4.434,4.434,0,0,1-3.261-1.217,4.761,4.761,0,0,1-1.327-3.3Zm2.962.185A3.538,3.538,0,0,0-9.87-2.725a1.376,1.376,0,0,0,1.222.615q1.582,0,1.617-2.435v-.3q0-2.558-1.635-2.558-1.485,0-1.608,2.206ZM-8.262-13.5h3.129l-2.443,2.76-2.417,0ZM.36,0H-2.61V-13.5H.36Zm1.45-4.843a5.613,5.613,0,0,1,.554-2.536A3.96,3.96,0,0,1,3.955-9.088a4.791,4.791,0,0,1,2.435-.6A4.373,4.373,0,0,1,9.756-8.363a5.076,5.076,0,0,1,1.23,3.6v.105A4.925,4.925,0,0,1,9.751-1.129,4.384,4.384,0,0,1,6.407.176,4.434,4.434,0,0,1,3.146-1.042a4.761,4.761,0,0,1-1.327-3.3Zm2.962.185a3.538,3.538,0,0,0,.413,1.934,1.376,1.376,0,0,0,1.222.615q1.582,0,1.617-2.435v-.3Q8.024-7.4,6.39-7.4,4.9-7.4,4.781-5.194Zm7.172-.167a6.421,6.421,0,0,1,.475-2.549,3.821,3.821,0,0,1,1.362-1.709,3.591,3.591,0,0,1,2.065-.6,2.855,2.855,0,0,1,2.32,1l.105-.826h2.689V-.36a4.009,4.009,0,0,1-.584,2.184,3.75,3.75,0,0,1-1.692,1.424,6.219,6.219,0,0,1-2.566.5,5.365,5.365,0,0,1-2.026-.4,3.657,3.657,0,0,1-1.5-1.028L13.834.58a2.716,2.716,0,0,0,2.18.976A1.764,1.764,0,0,0,17.982-.466v-.3a2.781,2.781,0,0,1-2.153.94,3.437,3.437,0,0,1-2.812-1.332A5.517,5.517,0,0,1,11.944-4.72Zm2.971.185a3.383,3.383,0,0,0,.439,1.85,1.386,1.386,0,0,0,1.23.681,1.573,1.573,0,0,0,1.4-.642v-4A1.534,1.534,0,0,0,16.6-7.4a1.4,1.4,0,0,0-1.239.708A3.858,3.858,0,0,0,14.915-4.641Zm7.356-.2a5.613,5.613,0,0,1,.554-2.536,3.96,3.96,0,0,1,1.591-1.709,4.791,4.791,0,0,1,2.435-.6,4.373,4.373,0,0,1,3.366,1.323,5.076,5.076,0,0,1,1.23,3.6v.105a4.925,4.925,0,0,1-1.235,3.529A4.384,4.384,0,0,1,26.868.176a4.434,4.434,0,0,1-3.261-1.217,4.761,4.761,0,0,1-1.327-3.3Zm2.962.185a3.538,3.538,0,0,0,.413,1.934,1.376,1.376,0,0,0,1.222.615q1.582,0,1.617-2.435v-.3q0-2.558-1.635-2.558-1.485,0-1.608,2.206Z" transform="translate(178 197)" fill="#12263f"/><path d="M-30.274-4.342V0h-3.085V-12.8h5.106a5.948,5.948,0,0,1,2.6.541,4.074,4.074,0,0,1,1.749,1.538,4.2,4.2,0,0,1,.62,2.263,3.7,3.7,0,0,1-1.34,2.993,5.561,5.561,0,0,1-3.678,1.121Zm0-2.382h2.021a1.906,1.906,0,0,0,1.367-.448,1.665,1.665,0,0,0,.47-1.266A2.059,2.059,0,0,0-26.9-9.87a1.712,1.712,0,0,0-1.318-.545h-2.057Zm14.247-.105L-17-6.9a1.752,1.752,0,0,0-1.793.879V0h-2.962V-9.51h2.777l.1,1.222a2.294,2.294,0,0,1,2.083-1.4,2.888,2.888,0,0,1,.826.105Zm5.5,7a4.889,4.889,0,0,1-3.542-1.305,4.507,4.507,0,0,1-1.354-3.4v-.246a5.84,5.84,0,0,1,.541-2.575A3.955,3.955,0,0,1-13.3-9.075a4.763,4.763,0,0,1,2.461-.611A4.117,4.117,0,0,1-7.677-8.442a4.887,4.887,0,0,1,1.16,3.467v1.151h-5.889a2.135,2.135,0,0,0,.694,1.257,2.066,2.066,0,0,0,1.389.457,2.662,2.662,0,0,0,2.2-.984l1.354,1.6A3.784,3.784,0,0,1-8.341-.277,5.3,5.3,0,0,1-10.525.176ZM-10.859-7.4q-1.3,0-1.547,1.723h2.988v-.229a1.467,1.467,0,0,0-.36-1.1A1.434,1.434,0,0,0-10.859-7.4ZM-4.671,0V-7.453h-1.38V-9.51h1.38v-.756a3.286,3.286,0,0,1,.958-2.522,3.785,3.785,0,0,1,2.689-.9A5.89,5.89,0,0,1,.365-13.5l.009,2.18A2.706,2.706,0,0,0-.356-11.4q-1.345,0-1.345,1.16v.729H.154v2.057H-1.7V0ZM6.552,0a3.344,3.344,0,0,1-.281-.853A2.754,2.754,0,0,1,3.986.176,3.374,3.374,0,0,1,1.7-.637,2.588,2.588,0,0,1,.76-2.681,2.66,2.66,0,0,1,1.9-5.019,5.821,5.821,0,0,1,5.225-5.81h.914v-.5q0-1.316-1.134-1.316A.927.927,0,0,0,3.951-6.587H.989A2.655,2.655,0,0,1,2.162-8.825a4.931,4.931,0,0,1,2.993-.86A4.323,4.323,0,0,1,8.029-8.8,3.086,3.086,0,0,1,9.11-6.363v4.21a4.311,4.311,0,0,0,.4,2V0ZM4.7-1.934a1.652,1.652,0,0,0,.918-.237,1.487,1.487,0,0,0,.523-.536V-4.228H5.278q-1.547,0-1.547,1.389A.848.848,0,0,0,4-2.184.986.986,0,0,0,4.7-1.934ZM14.77-2.109a1.317,1.317,0,0,0,.967-.338,1.241,1.241,0,0,0,.334-.945h2.777A3.288,3.288,0,0,1,17.728-.826a4.168,4.168,0,0,1-2.887,1,4.22,4.22,0,0,1-3.27-1.3,5.125,5.125,0,0,1-1.2-3.6v-.123A5.792,5.792,0,0,1,10.907-7.4a3.872,3.872,0,0,1,1.534-1.7,4.573,4.573,0,0,1,2.373-.593,4.116,4.116,0,0,1,2.944,1.028,3.647,3.647,0,0,1,1.09,2.786H16.071A1.626,1.626,0,0,0,15.71-7a1.244,1.244,0,0,0-.967-.4q-1.151,0-1.345,1.468a10.357,10.357,0,0,0-.062,1.283,4.068,4.068,0,0,0,.343,1.986A1.187,1.187,0,0,0,14.77-2.109ZM23.225,0H20.254V-9.51h2.971ZM20.079-11.962A1.322,1.322,0,0,1,20.536-13a1.724,1.724,0,0,1,1.187-.4,1.724,1.724,0,0,1,1.187.4,1.322,1.322,0,0,1,.457,1.037,1.322,1.322,0,0,1-.457,1.037,1.724,1.724,0,0,1-1.187.4,1.724,1.724,0,0,1-1.187-.4A1.322,1.322,0,0,1,20.079-11.962Zm4.6,7.119a5.613,5.613,0,0,1,.554-2.536A3.96,3.96,0,0,1,26.82-9.088a4.791,4.791,0,0,1,2.435-.6,4.373,4.373,0,0,1,3.366,1.323,5.076,5.076,0,0,1,1.23,3.6v.105a4.925,4.925,0,0,1-1.235,3.529A4.384,4.384,0,0,1,29.272.176a4.434,4.434,0,0,1-3.261-1.217,4.761,4.761,0,0,1-1.327-3.3Zm2.962.185a3.538,3.538,0,0,0,.413,1.934,1.376,1.376,0,0,0,1.222.615q1.582,0,1.617-2.435v-.3q0-2.558-1.635-2.558-1.485,0-1.608,2.206Z" transform="translate(178 253)" fill="#12263f"/><path d="M-29.663-5.432h-4.852v3.059h5.73V0H-37.6V-12.8h8.833v2.382h-5.748v2.7h4.852Zm10.828.747a5.735,5.735,0,0,1-1,3.538A3.2,3.2,0,0,1-22.526.176,2.742,2.742,0,0,1-24.68-.782V3.656h-2.962V-9.51h2.769l.088.879a2.742,2.742,0,0,1,2.241-1.055,3.224,3.224,0,0,1,2.733,1.3,5.805,5.805,0,0,1,.976,3.564ZM-21.8-4.869q0-2.531-1.477-2.531a1.394,1.394,0,0,0-1.406.756V-2.9a1.439,1.439,0,0,0,1.424.791q1.415,0,1.459-2.443ZM-14.3,0h-2.979V-9.51H-14.3Zm-1.107-13.324h3.129l-2.443,2.76-2.417,0Zm2.663,8.5a6.421,6.421,0,0,1,.475-2.549,3.821,3.821,0,0,1,1.362-1.709,3.591,3.591,0,0,1,2.065-.6,2.855,2.855,0,0,1,2.32,1l.105-.826h2.689V-.36a4.009,4.009,0,0,1-.584,2.184A3.75,3.75,0,0,1-6,3.248a6.219,6.219,0,0,1-2.566.5,5.365,5.365,0,0,1-2.026-.4,3.657,3.657,0,0,1-1.5-1.028L-10.854.58a2.716,2.716,0,0,0,2.18.976A1.764,1.764,0,0,0-6.706-.466v-.3a2.781,2.781,0,0,1-2.153.94,3.437,3.437,0,0,1-2.812-1.332A5.517,5.517,0,0,1-12.744-4.72Zm2.971.185a3.383,3.383,0,0,0,.439,1.85,1.386,1.386,0,0,0,1.23.681,1.573,1.573,0,0,0,1.4-.642v-4a1.534,1.534,0,0,0-1.38-.65,1.4,1.4,0,0,0-1.239.708A3.858,3.858,0,0,0-9.773-4.641ZM3.709-6.829,2.733-6.9A1.752,1.752,0,0,0,.94-6.021V0H-2.021V-9.51H.756l.1,1.222a2.294,2.294,0,0,1,2.083-1.4,2.888,2.888,0,0,1,.826.105ZM9.87,0a3.344,3.344,0,0,1-.281-.853A2.754,2.754,0,0,1,7.3.176,3.374,3.374,0,0,1,5.019-.637a2.588,2.588,0,0,1-.94-2.043A2.66,2.66,0,0,1,5.221-5.019,5.821,5.821,0,0,1,8.543-5.81h.914v-.5q0-1.316-1.134-1.316A.927.927,0,0,0,7.269-6.587H4.307A2.655,2.655,0,0,1,5.48-8.825a4.931,4.931,0,0,1,2.993-.86,4.323,4.323,0,0,1,2.874.888,3.086,3.086,0,0,1,1.081,2.435v4.21a4.311,4.311,0,0,0,.4,2V0ZM8.016-1.934a1.652,1.652,0,0,0,.918-.237,1.487,1.487,0,0,0,.523-.536V-4.228H8.6q-1.547,0-1.547,1.389a.848.848,0,0,0,.272.655A.986.986,0,0,0,8.016-1.934ZM14.722,0V-7.453h-1.38V-9.51h1.38v-.756a3.286,3.286,0,0,1,.958-2.522,3.785,3.785,0,0,1,2.689-.9,5.89,5.89,0,0,1,1.389.185l.009,2.18a2.706,2.706,0,0,0-.729-.079q-1.345,0-1.345,1.16v.729h1.854v2.057H17.692V0ZM24.979.176a4.889,4.889,0,0,1-3.542-1.305,4.507,4.507,0,0,1-1.354-3.4v-.246a5.84,5.84,0,0,1,.541-2.575A3.955,3.955,0,0,1,22.2-9.075a4.763,4.763,0,0,1,2.461-.611,4.117,4.117,0,0,1,3.164,1.244,4.887,4.887,0,0,1,1.16,3.467v1.151H23.1a2.135,2.135,0,0,0,.694,1.257,2.066,2.066,0,0,0,1.389.457,2.662,2.662,0,0,0,2.2-.984l1.354,1.6A3.784,3.784,0,0,1,27.163-.277,5.3,5.3,0,0,1,24.979.176ZM24.645-7.4q-1.3,0-1.547,1.723h2.988v-.229a1.467,1.467,0,0,0-.36-1.1A1.434,1.434,0,0,0,24.645-7.4ZM35.156-2.672a.684.684,0,0,0-.4-.606,6.016,6.016,0,0,0-1.5-.475A6.853,6.853,0,0,1,31.43-4.4a3.062,3.062,0,0,1-1.1-.971,2.319,2.319,0,0,1-.378-1.31,2.628,2.628,0,0,1,1.081-2.158,4.453,4.453,0,0,1,2.83-.848,4.934,4.934,0,0,1,3.023.853A2.666,2.666,0,0,1,38.03-6.592H35.06q0-1.143-1.2-1.143a1.194,1.194,0,0,0-.782.259.8.8,0,0,0-.316.646.737.737,0,0,0,.387.642,3.654,3.654,0,0,0,1.235.4,10.671,10.671,0,0,1,1.49.378A2.706,2.706,0,0,1,38.013-2.76,2.491,2.491,0,0,1,36.857-.642a5.068,5.068,0,0,1-2.993.817,5.172,5.172,0,0,1-2.18-.439,3.645,3.645,0,0,1-1.494-1.2,2.707,2.707,0,0,1-.536-1.591h2.769a1.145,1.145,0,0,0,.439.962,1.808,1.808,0,0,0,1.081.3,1.422,1.422,0,0,0,.91-.246A.787.787,0,0,0,35.156-2.672Z" transform="translate(178 309)" fill="#12263f"/><path d="M-27.3-4.333a4.673,4.673,0,0,1-.721,2.36A4.35,4.35,0,0,1-29.87-.387a6.3,6.3,0,0,1-2.72.563,5.025,5.025,0,0,1-3.973-1.644,6.786,6.786,0,0,1-1.45-4.641v-.633a7.746,7.746,0,0,1,.655-3.292,4.961,4.961,0,0,1,1.885-2.18,5.26,5.26,0,0,1,2.848-.769,5.516,5.516,0,0,1,3.744,1.226,4.844,4.844,0,0,1,1.608,3.379h-3.076a2.292,2.292,0,0,0-.589-1.679,2.422,2.422,0,0,0-1.687-.51,1.843,1.843,0,0,0-1.687.861,5.536,5.536,0,0,0-.562,2.751v.905a6.126,6.126,0,0,0,.514,2.927,1.882,1.882,0,0,0,1.771.879,2.369,2.369,0,0,0,1.626-.5,2.126,2.126,0,0,0,.6-1.591ZM-20.619,0A3.344,3.344,0,0,1-20.9-.853,2.754,2.754,0,0,1-23.186.176a3.374,3.374,0,0,1-2.285-.813,2.588,2.588,0,0,1-.94-2.043,2.66,2.66,0,0,1,1.143-2.338,5.821,5.821,0,0,1,3.322-.791h.914v-.5q0-1.316-1.134-1.316a.927.927,0,0,0-1.055,1.042h-2.962a2.655,2.655,0,0,1,1.173-2.239,4.931,4.931,0,0,1,2.993-.86,4.323,4.323,0,0,1,2.874.888,3.086,3.086,0,0,1,1.081,2.435v4.21a4.311,4.311,0,0,0,.4,2V0Zm-1.854-1.934a1.652,1.652,0,0,0,.918-.237,1.487,1.487,0,0,0,.523-.536V-4.228h-.861q-1.547,0-1.547,1.389a.848.848,0,0,0,.272.655A.986.986,0,0,0-22.474-1.934Zm14.88-2.751a5.735,5.735,0,0,1-1,3.538A3.2,3.2,0,0,1-11.285.176a2.742,2.742,0,0,1-2.153-.958V3.656H-16.4V-9.51h2.769l.088.879A2.742,2.742,0,0,1-11.3-9.686a3.224,3.224,0,0,1,2.733,1.3,5.805,5.805,0,0,1,.976,3.564Zm-2.962-.185q0-2.531-1.477-2.531a1.394,1.394,0,0,0-1.406.756V-2.9a1.439,1.439,0,0,0,1.424.791q1.415,0,1.459-2.443ZM-3.059,0H-6.038V-9.51h2.979ZM-4.166-13.324h3.129l-2.443,2.76-2.417,0Zm6.46,1.45V-9.51H3.858v2.057H2.294V-3.1a1.111,1.111,0,0,0,.193.747,1.037,1.037,0,0,0,.765.211A4.345,4.345,0,0,0,3.99-2.2V-.079A5.466,5.466,0,0,1,2.32.176,3.1,3.1,0,0,1,.062-.545,2.954,2.954,0,0,1-.668-2.733v-4.72H-1.881V-9.51H-.668v-2.364ZM10.688-1.028a3.054,3.054,0,0,1-2.54,1.2,3,3,0,0,1-2.369-.91,3.826,3.826,0,0,1-.8-2.615V-9.51H7.937v6.179A1.065,1.065,0,0,0,9.123-2.109a1.548,1.548,0,0,0,1.45-.729V-9.51h2.979V0H10.775ZM18.3,0H15.328V-13.5H18.3Zm1.45-4.843A5.613,5.613,0,0,1,20.3-7.378a3.96,3.96,0,0,1,1.591-1.709,4.791,4.791,0,0,1,2.435-.6,4.373,4.373,0,0,1,3.366,1.323,5.076,5.076,0,0,1,1.23,3.6v.105A4.925,4.925,0,0,1,27.69-1.129,4.384,4.384,0,0,1,24.346.176a4.434,4.434,0,0,1-3.261-1.217,4.761,4.761,0,0,1-1.327-3.3Zm2.962.185a3.538,3.538,0,0,0,.413,1.934,1.376,1.376,0,0,0,1.222.615q1.582,0,1.617-2.435v-.3q0-2.558-1.635-2.558-1.485,0-1.608,2.206Zm12.5,1.986a.684.684,0,0,0-.4-.606,6.016,6.016,0,0,0-1.5-.475A6.853,6.853,0,0,1,31.482-4.4a3.062,3.062,0,0,1-1.1-.971,2.319,2.319,0,0,1-.378-1.31,2.628,2.628,0,0,1,1.081-2.158,4.453,4.453,0,0,1,2.83-.848,4.934,4.934,0,0,1,3.023.853,2.666,2.666,0,0,1,1.143,2.241H35.112q0-1.143-1.2-1.143a1.194,1.194,0,0,0-.782.259.8.8,0,0,0-.316.646.737.737,0,0,0,.387.642,3.654,3.654,0,0,0,1.235.4,10.671,10.671,0,0,1,1.49.378A2.706,2.706,0,0,1,38.065-2.76,2.491,2.491,0,0,1,36.91-.642a5.068,5.068,0,0,1-2.993.817,5.172,5.172,0,0,1-2.18-.439,3.645,3.645,0,0,1-1.494-1.2,2.707,2.707,0,0,1-.536-1.591h2.769a1.145,1.145,0,0,0,.439.962,1.808,1.808,0,0,0,1.081.3,1.422,1.422,0,0,0,.91-.246A.787.787,0,0,0,35.209-2.672Z" transform="translate(178 365)" fill="#12263f"/><path d="M-46.217,0V-12.8h4.6a6.509,6.509,0,0,1,3.757.905,3.012,3.012,0,0,1,1.288,2.628,3.045,3.045,0,0,1-.457,1.7A2.663,2.663,0,0,1-38.377-6.53a2.7,2.7,0,0,1,1.538.984A2.862,2.862,0,0,1-36.3-3.788,3.388,3.388,0,0,1-37.494-.962,5.667,5.667,0,0,1-41.023,0Zm3.085-5.44v3.067h2.021a1.923,1.923,0,0,0,1.283-.382,1.338,1.338,0,0,0,.448-1.077A1.419,1.419,0,0,0-40.97-5.44Zm0-2.021h1.608a2.285,2.285,0,0,0,1.441-.37A1.314,1.314,0,0,0-39.652-8.9a1.379,1.379,0,0,0-.466-1.168,2.493,2.493,0,0,0-1.5-.357h-1.512ZM-31.619,0h-2.971V-9.51h2.971Zm-3.146-11.962A1.322,1.322,0,0,1-34.308-13a1.724,1.724,0,0,1,1.187-.4,1.724,1.724,0,0,1,1.187.4,1.322,1.322,0,0,1,.457,1.037,1.322,1.322,0,0,1-.457,1.037,1.724,1.724,0,0,1-1.187.4,1.724,1.724,0,0,1-1.187-.4A1.322,1.322,0,0,1-34.765-11.962Zm13.8,7.286a5.8,5.8,0,0,1-.967,3.595A3.238,3.238,0,0,1-24.658.176,2.81,2.81,0,0,1-27-.976L-27.119,0h-2.654V-13.5h2.962v4.755a2.711,2.711,0,0,1,2.136-.94,3.239,3.239,0,0,1,2.742,1.274,5.826,5.826,0,0,1,.967,3.586Zm-2.971-.189A3.866,3.866,0,0,0-24.3-6.817,1.229,1.229,0,0,0-25.422-7.4a1.418,1.418,0,0,0-1.389.763v3.773a1.426,1.426,0,0,0,1.406.755,1.258,1.258,0,0,0,1.327-1.018A7.309,7.309,0,0,0-23.937-4.865ZM-16.537,0h-2.971V-13.5h2.971Zm4.948,0h-2.971V-9.51h2.971Zm-3.146-11.962A1.322,1.322,0,0,1-14.278-13a1.724,1.724,0,0,1,1.187-.4A1.724,1.724,0,0,1-11.9-13a1.322,1.322,0,0,1,.457,1.037,1.322,1.322,0,0,1-.457,1.037,1.724,1.724,0,0,1-1.187.4,1.724,1.724,0,0,1-1.187-.4A1.322,1.322,0,0,1-14.735-11.962Zm4.6,7.119a5.613,5.613,0,0,1,.554-2.536A3.96,3.96,0,0,1-7.994-9.088a4.791,4.791,0,0,1,2.435-.6A4.373,4.373,0,0,1-2.193-8.363a5.076,5.076,0,0,1,1.23,3.6v.105A4.925,4.925,0,0,1-2.2-1.129,4.384,4.384,0,0,1-5.542.176,4.434,4.434,0,0,1-8.8-1.042a4.761,4.761,0,0,1-1.327-3.3Zm2.962.185a3.538,3.538,0,0,0,.413,1.934,1.376,1.376,0,0,0,1.222.615q1.582,0,1.617-2.435v-.3q0-2.558-1.635-2.558-1.485,0-1.608,2.206ZM0-4.825A6.421,6.421,0,0,1,.47-7.374,3.821,3.821,0,0,1,1.833-9.083a3.591,3.591,0,0,1,2.065-.6,2.855,2.855,0,0,1,2.32,1l.105-.826H9.013V-.36a4.009,4.009,0,0,1-.584,2.184A3.75,3.75,0,0,1,6.737,3.248a6.219,6.219,0,0,1-2.566.5,5.365,5.365,0,0,1-2.026-.4A3.657,3.657,0,0,1,.646,2.32L1.885.58a2.716,2.716,0,0,0,2.18.976A1.764,1.764,0,0,0,6.034-.466v-.3A2.781,2.781,0,0,1,3.88.176,3.437,3.437,0,0,1,1.068-1.156,5.517,5.517,0,0,1,0-4.72Zm2.971.185a3.383,3.383,0,0,0,.439,1.85,1.386,1.386,0,0,0,1.23.681,1.573,1.573,0,0,0,1.4-.642v-4a1.534,1.534,0,0,0-1.38-.65,1.4,1.4,0,0,0-1.239.708A3.858,3.858,0,0,0,2.966-4.641ZM16.449-6.829l-.976-.07a1.752,1.752,0,0,0-1.793.879V0H10.718V-9.51H13.5l.1,1.222a2.294,2.294,0,0,1,2.083-1.4,2.888,2.888,0,0,1,.826.105ZM22.61,0a3.344,3.344,0,0,1-.281-.853A2.754,2.754,0,0,1,20.043.176a3.374,3.374,0,0,1-2.285-.813,2.588,2.588,0,0,1-.94-2.043A2.66,2.66,0,0,1,17.96-5.019a5.821,5.821,0,0,1,3.322-.791H22.2v-.5q0-1.316-1.134-1.316a.927.927,0,0,0-1.055,1.042H17.046A2.655,2.655,0,0,1,18.22-8.825a4.931,4.931,0,0,1,2.993-.86,4.323,4.323,0,0,1,2.874.888,3.086,3.086,0,0,1,1.081,2.435v4.21a4.311,4.311,0,0,0,.4,2V0ZM20.755-1.934a1.652,1.652,0,0,0,.918-.237,1.487,1.487,0,0,0,.523-.536V-4.228h-.861q-1.547,0-1.547,1.389a.848.848,0,0,0,.272.655A.986.986,0,0,0,20.755-1.934ZM27.461,0V-7.453h-1.38V-9.51h1.38v-.756a3.286,3.286,0,0,1,.958-2.522,3.785,3.785,0,0,1,2.689-.9A5.89,5.89,0,0,1,32.5-13.5l.009,2.18a2.706,2.706,0,0,0-.729-.079q-1.345,0-1.345,1.16v.729h1.854v2.057H30.432V0Zm9.1,0H33.579V-9.51h2.979ZM35.451-13.324H38.58l-2.443,2.76-2.417,0ZM43.818,0a3.344,3.344,0,0,1-.281-.853A2.754,2.754,0,0,1,41.251.176a3.374,3.374,0,0,1-2.285-.813,2.588,2.588,0,0,1-.94-2.043,2.66,2.66,0,0,1,1.143-2.338,5.821,5.821,0,0,1,3.322-.791H43.4v-.5q0-1.316-1.134-1.316a.927.927,0,0,0-1.055,1.042H38.254a2.655,2.655,0,0,1,1.173-2.239,4.931,4.931,0,0,1,2.993-.86,4.323,4.323,0,0,1,2.874.888,3.086,3.086,0,0,1,1.081,2.435v4.21a4.311,4.311,0,0,0,.4,2V0ZM41.963-1.934a1.652,1.652,0,0,0,.918-.237,1.487,1.487,0,0,0,.523-.536V-4.228h-.861Q41-4.228,41-2.839a.848.848,0,0,0,.272.655A.986.986,0,0,0,41.963-1.934Z" transform="translate(178 421)" fill="#12263f"/><path d="M-20.558-4.333a4.673,4.673,0,0,1-.721,2.36,4.35,4.35,0,0,1-1.85,1.586,6.3,6.3,0,0,1-2.72.563,5.025,5.025,0,0,1-3.973-1.644,6.786,6.786,0,0,1-1.45-4.641v-.633a7.746,7.746,0,0,1,.655-3.292,4.961,4.961,0,0,1,1.885-2.18,5.26,5.26,0,0,1,2.848-.769,5.516,5.516,0,0,1,3.744,1.226,4.844,4.844,0,0,1,1.608,3.379h-3.076a2.292,2.292,0,0,0-.589-1.679,2.422,2.422,0,0,0-1.687-.51,1.843,1.843,0,0,0-1.687.861,5.536,5.536,0,0,0-.562,2.751v.905A6.126,6.126,0,0,0-27.62-3.12a1.882,1.882,0,0,0,1.771.879,2.369,2.369,0,0,0,1.626-.5,2.126,2.126,0,0,0,.6-1.591Zm.949-.51a5.613,5.613,0,0,1,.554-2.536,3.96,3.96,0,0,1,1.591-1.709,4.791,4.791,0,0,1,2.435-.6,4.373,4.373,0,0,1,3.366,1.323,5.076,5.076,0,0,1,1.23,3.6v.105a4.925,4.925,0,0,1-1.235,3.529A4.384,4.384,0,0,1-15.012.176a4.434,4.434,0,0,1-3.261-1.217,4.761,4.761,0,0,1-1.327-3.3Zm2.962.185a3.538,3.538,0,0,0,.413,1.934,1.376,1.376,0,0,0,1.222.615q1.582,0,1.617-2.435v-.3q0-2.558-1.635-2.558-1.485,0-1.608,2.206ZM-6,0H-8.974V-13.5H-6Zm1.45-4.843A5.613,5.613,0,0,1-4-7.378,3.96,3.96,0,0,1-2.408-9.088a4.791,4.791,0,0,1,2.435-.6A4.373,4.373,0,0,1,3.393-8.363a5.076,5.076,0,0,1,1.23,3.6v.105A4.925,4.925,0,0,1,3.388-1.129,4.384,4.384,0,0,1,.044.176,4.434,4.434,0,0,1-3.217-1.042a4.761,4.761,0,0,1-1.327-3.3Zm2.962.185a3.538,3.538,0,0,0,.413,1.934,1.376,1.376,0,0,0,1.222.615q1.582,0,1.617-2.435v-.3Q1.661-7.4.026-7.4q-1.485,0-1.608,2.206ZM6.583,0V-7.453H5.2V-9.51h1.38v-.756a3.286,3.286,0,0,1,.958-2.522,3.785,3.785,0,0,1,2.689-.9,5.89,5.89,0,0,1,1.389.185l.009,2.18A2.706,2.706,0,0,0,10.9-11.4q-1.345,0-1.345,1.16v.729h1.854v2.057H9.554V0Zm5.493-4.843a5.613,5.613,0,0,1,.554-2.536,3.96,3.96,0,0,1,1.591-1.709,4.791,4.791,0,0,1,2.435-.6,4.373,4.373,0,0,1,3.366,1.323,5.076,5.076,0,0,1,1.23,3.6v.105a4.925,4.925,0,0,1-1.235,3.529A4.384,4.384,0,0,1,16.673.176a4.434,4.434,0,0,1-3.261-1.217,4.761,4.761,0,0,1-1.327-3.3Zm2.962.185a3.538,3.538,0,0,0,.413,1.934,1.376,1.376,0,0,0,1.222.615q1.582,0,1.617-2.435v-.3q0-2.558-1.635-2.558-1.485,0-1.608,2.206ZM17.06-13.5h3.129l-2.443,2.76-2.417,0Zm8.218,3.99.1,1.116A3.225,3.225,0,0,1,28.09-9.686a2.713,2.713,0,0,1,2.219.888,4.226,4.226,0,0,1,.76,2.672V0H28.1V-6a1.6,1.6,0,0,0-.29-1.059A1.342,1.342,0,0,0,26.754-7.4a1.413,1.413,0,0,0-1.292.686V0H22.5V-9.51Z" transform="translate(178 477)" fill="#12263f"/><path d="M-21.524-5.432h-4.852v3.059h5.73V0h-8.815V-12.8h8.833v2.382h-5.748v2.7h4.852Zm10.828.747a5.735,5.735,0,0,1-1,3.538A3.2,3.2,0,0,1-14.388.176a2.742,2.742,0,0,1-2.153-.958V3.656H-19.5V-9.51h2.769l.088.879a2.742,2.742,0,0,1,2.241-1.055,3.224,3.224,0,0,1,2.733,1.3A5.805,5.805,0,0,1-10.7-4.825Zm-2.962-.185q0-2.531-1.477-2.531a1.394,1.394,0,0,0-1.406.756V-2.9a1.439,1.439,0,0,0,1.424.791q1.415,0,1.459-2.443ZM-6.161,0H-9.141V-9.51h2.979ZM-7.269-13.324H-4.14l-2.443,2.76-2.417,0ZM-1.134,0H-4.1V-13.5h2.971ZM.316-4.843A5.613,5.613,0,0,1,.87-7.378,3.96,3.96,0,0,1,2.461-9.088a4.791,4.791,0,0,1,2.435-.6A4.373,4.373,0,0,1,8.262-8.363a5.076,5.076,0,0,1,1.23,3.6v.105A4.925,4.925,0,0,1,8.257-1.129,4.384,4.384,0,0,1,4.913.176,4.434,4.434,0,0,1,1.652-1.042a4.761,4.761,0,0,1-1.327-3.3Zm2.962.185a3.538,3.538,0,0,0,.413,1.934,1.376,1.376,0,0,0,1.222.615q1.582,0,1.617-2.435v-.3Q6.53-7.4,4.9-7.4,3.41-7.4,3.287-5.194Zm7.172-.167a6.421,6.421,0,0,1,.475-2.549,3.821,3.821,0,0,1,1.362-1.709,3.591,3.591,0,0,1,2.065-.6,2.855,2.855,0,0,1,2.32,1l.105-.826h2.689V-.36a4.009,4.009,0,0,1-.584,2.184,3.75,3.75,0,0,1-1.692,1.424,6.219,6.219,0,0,1-2.566.5,5.365,5.365,0,0,1-2.026-.4A3.657,3.657,0,0,1,11.1,2.32L12.34.58a2.716,2.716,0,0,0,2.18.976A1.764,1.764,0,0,0,16.488-.466v-.3a2.781,2.781,0,0,1-2.153.94,3.437,3.437,0,0,1-2.812-1.332A5.517,5.517,0,0,1,10.45-4.72Zm2.971.185a3.383,3.383,0,0,0,.439,1.85,1.386,1.386,0,0,0,1.23.681,1.573,1.573,0,0,0,1.4-.642v-4a1.534,1.534,0,0,0-1.38-.65,1.4,1.4,0,0,0-1.239.708A3.858,3.858,0,0,0,13.421-4.641Zm7.356-.2a5.613,5.613,0,0,1,.554-2.536,3.96,3.96,0,0,1,1.591-1.709,4.791,4.791,0,0,1,2.435-.6,4.373,4.373,0,0,1,3.366,1.323,5.076,5.076,0,0,1,1.23,3.6v.105a4.925,4.925,0,0,1-1.235,3.529A4.384,4.384,0,0,1,25.374.176a4.434,4.434,0,0,1-3.261-1.217,4.761,4.761,0,0,1-1.327-3.3Zm2.962.185a3.538,3.538,0,0,0,.413,1.934,1.376,1.376,0,0,0,1.222.615q1.582,0,1.617-2.435v-.3q0-2.558-1.635-2.558-1.485,0-1.608,2.206Z" transform="translate(178 533)" fill="#12263f"/><g transform="translate(586 190.467)"><rect width="64.341" height="47.453" transform="translate(0.98 8.095)" fill="#fdd835"/><path d="M3237-4907v46.9h19.4l6,2.372,1.954,1.4,4.606-3.768h21.772V-4907h-21.772l-4.606,4.605-5.164-4.605Z" transform="translate(-3230.297 4908.675)" fill="#fff"/><rect width="5.443" height="46.337" transform="translate(54.994 1.675)" fill="#e8e8e8"/><path d="M21.412,51.565a1.7,1.7,0,0,1,1.181-.335c6.236.008,12.47,0,18.706.007a9.867,9.867,0,0,1,5.936,1.957,11.2,11.2,0,0,1,1.992,1.965,9.839,9.839,0,0,1,7.842-3.92q9.494-.017,18.987,0A1.347,1.347,0,0,1,77.47,52.6c.021,1.9,0,3.8.008,5.7,1.341.018,2.685-.032,4.027.024a1.33,1.33,0,0,1,1.2,1.39q.017,23.242.006,46.485a1.5,1.5,0,0,1-.5,1.262,1.916,1.916,0,0,1-1.27.3c-2.652-.014-5.305.008-7.957-.011a1.331,1.331,0,0,1-1.292-.871,1.3,1.3,0,0,1,.657-1.6,3.348,3.348,0,0,1,1.316-.145c2.142.007,4.285,0,6.427,0q.008-22.114,0-44.227c-.872,0-1.745,0-2.617,0q0,19.145,0,38.292a1.367,1.367,0,0,1-1.417,1.478c-6.237.013-12.475,0-18.712.006a7.607,7.607,0,0,0-3.195.628,7.288,7.288,0,0,0-3.736,3.82H61.966a1.571,1.571,0,0,1,1.112.348,1.3,1.3,0,0,1,.11,1.81,1.517,1.517,0,0,1-1.234.461q-22.336,0-44.67,0a1.513,1.513,0,0,1-1.234-.463,2.426,2.426,0,0,1-.334-1.669q.008-22.4,0-44.8a8.443,8.443,0,0,1,.061-1.549,1.294,1.294,0,0,1,1.23-.966c1.313-.036,2.628,0,3.941-.015,0-1.858,0-3.717,0-5.574a1.469,1.469,0,0,1,.458-1.158M23.57,53.85V98.076c5.951,0,11.9-.007,17.854,0a9.9,9.9,0,0,1,6.483,2.487q0-15.892,0-31.785c-.015-3.577.032-7.159-.022-10.734a7.131,7.131,0,0,0-4.737-3.962,11.176,11.176,0,0,0-2.973-.236H23.57m26.975,4.205c-.056.642,0,1.291-.02,1.936q0,20.288,0,40.578a9.908,9.908,0,0,1,6.543-2.49q8.9-.013,17.792,0,0-22.114,0-44.227H58.326c-.656,0-1.312-.013-1.967.047a7.147,7.147,0,0,0-5.814,4.158M18.338,60.916q0,22.112,0,44.224,14.837,0,29.675,0a7.65,7.65,0,0,0-1.475-2.236A7.235,7.235,0,0,0,41.3,100.7c-6.285-.011-12.571,0-18.857-.006a1.465,1.465,0,0,1-1.149-.455,1.648,1.648,0,0,1-.339-1.156q0-19.083,0-38.165Q19.646,60.914,18.338,60.916Z" transform="translate(-15.714 -51.23)"/><path d="M102.035,99.227a1.292,1.292,0,1,1-.847,1.445A1.3,1.3,0,0,1,102.035,99.227Z" transform="translate(-89.238 -92.464)"/><path d="M137.413,99.054c2.871-.08,5.749-.01,8.623-.035a1.4,1.4,0,0,1,1.513.957,1.306,1.306,0,0,1-1.241,1.65c-2.837.027-5.678.007-8.515.01a1.364,1.364,0,0,1-1.431-.957A1.293,1.293,0,0,1,137.413,99.054Z" transform="translate(-119.478 -92.345)"/><path d="M295.39,99.068a11.063,11.063,0,0,1,1.361-.033H308.9a1.563,1.563,0,0,1,1.23.428,1.3,1.3,0,0,1-.008,1.771,1.563,1.563,0,0,1-1.214.42q-6.57,0-13.138,0a1.367,1.367,0,0,1-1.435-.953A1.292,1.292,0,0,1,295.39,99.068Z" transform="translate(-255.401 -92.358)"/><path d="M102.28,159.068a8.245,8.245,0,0,1,1.083-.032c4.2.007,8.391-.007,12.586.006a1.309,1.309,0,1,1-.021,2.61q-6.632.013-13.265,0a1.377,1.377,0,0,1-1.456-.963A1.294,1.294,0,0,1,102.28,159.068Z" transform="translate(-89.231 -143.987)"/><path d="M295.389,159.068a11.131,11.131,0,0,1,1.365-.034c3.953,0,7.9,0,11.856,0a1.959,1.959,0,0,1,1.447.361,1.3,1.3,0,0,1,.06,1.84,1.566,1.566,0,0,1-1.216.42q-6.57,0-13.138,0a1.384,1.384,0,0,1-1.39-.822A1.3,1.3,0,0,1,295.389,159.068Z" transform="translate(-255.397 -143.984)"/><path d="M102.292,219.06a11.92,11.92,0,0,1,1.358-.029h12.143a1.494,1.494,0,0,1,1.3.525,1.3,1.3,0,0,1-.225,1.8,1.846,1.846,0,0,1-1.2.3c-4.378-.013-8.757.008-13.135-.01a1.323,1.323,0,0,1-1.343-1.076A1.292,1.292,0,0,1,102.292,219.06Z" transform="translate(-89.236 -195.607)"/><path d="M295.393,219.074a5.5,5.5,0,0,1,.8-.035c4.325.014,8.651-.014,12.976.014a1.3,1.3,0,0,1,1.281,1.519,1.344,1.344,0,0,1-1.415,1.084q-6.637.01-13.274,0a1.367,1.367,0,0,1-1.433-.955A1.293,1.293,0,0,1,295.393,219.074Z" transform="translate(-255.397 -195.618)"/><path d="M102.274,279.069a8.133,8.133,0,0,1,1.091-.034c4.193.007,8.387-.007,12.581.006a1.309,1.309,0,1,1-.021,2.61q-6.63.013-13.259,0a1.378,1.378,0,0,1-1.461-.962A1.292,1.292,0,0,1,102.274,279.069Z" transform="translate(-89.228 -247.239)"/><path d="M295.388,279.055c4.36-.078,8.726-.007,13.089-.035a2.146,2.146,0,0,1,1.58.364,1.3,1.3,0,0,1,.061,1.833,1.57,1.57,0,0,1-1.23.424q-6.561,0-13.122,0a1.389,1.389,0,0,1-1.4-.822A1.3,1.3,0,0,1,295.388,279.055Z" transform="translate(-255.394 -247.225)"/><path d="M102.285,339.064a12.309,12.309,0,0,1,1.362-.029h12.141a1.494,1.494,0,0,1,1.291.522,1.3,1.3,0,0,1-.145,1.738,1.746,1.746,0,0,1-1.276.363c-4.334-.008-8.666,0-13,0a1.377,1.377,0,0,1-1.452-.956A1.294,1.294,0,0,1,102.285,339.064Z" transform="translate(-89.228 -298.862)"/><path d="M295.386,339.04c4.5-.08,9.006-.01,13.507-.035a1.392,1.392,0,0,1,1.565,1.118,1.33,1.33,0,0,1-1.417,1.5q-6.643.01-13.287,0a1.364,1.364,0,0,1-1.426-.96A1.292,1.292,0,0,1,295.386,339.04Z" transform="translate(-255.397 -298.834)"/><path d="M378.995,437.69a1.292,1.292,0,1,1-.145,2.241A1.3,1.3,0,0,1,378.995,437.69Z" transform="translate(-327.674 -383.634)"/></g><path d="M3146-5531.5h54V-5264" transform="translate(-2882 5554)" fill="none" stroke="#12263f" stroke-width="3"/><path d="M3200-5264h-54v-267.5" transform="translate(-2213 5772)" fill="none" stroke="#12263f" stroke-width="3"/><path d="M3146-5531.5h54" transform="translate(-2882 5610.5)" fill="none" stroke="#12263f" stroke-width="3"/><path d="M3146-5531.5h54" transform="translate(-2213 5632.5)" fill="none" stroke="#12263f" stroke-width="3"/><path d="M3146-5531.5h54" transform="translate(-2213 5690.5)" fill="none" stroke="#12263f" stroke-width="3"/><path d="M3146-5531.5h54" transform="translate(-2213 5807.5)" fill="none" stroke="#12263f" stroke-width="3"/><path d="M3146-5531.5h54" transform="translate(-2213 5923.5)" fill="none" stroke="#12263f" stroke-width="3"/><path d="M3146-5531.5h54" transform="translate(-2213 5748.5)" fill="none" stroke="#12263f" stroke-width="3"/><path d="M3146-5531.5h54" transform="translate(-2213 5865.5)" fill="none" stroke="#12263f" stroke-width="3"/><path d="M3146-5531.5h54" transform="translate(-2213 5981.5)" fill="none" stroke="#12263f" stroke-width="3"/><path d="M3146-5531.5h54" transform="translate(-2882 5666.5)" fill="none" stroke="#12263f" stroke-width="3"/><path d="M3146-5531.5h54" transform="translate(-2882 5722.5)" fill="none" stroke="#12263f" stroke-width="3"/><path d="M3146-5531.5h54" transform="translate(-2882 5776.5)" fill="none" stroke="#12263f" stroke-width="3"/><path d="M3146-5531.5h49" transform="translate(-2828 5799)" fill="none" stroke="#12263f" stroke-width="3"/><path d="M3146-5531.5h61" transform="translate(-2273.999 5799)" fill="none" stroke="#12263f" stroke-width="3"/><path d="M3146-5531.5h54" transform="translate(-2882 5834.5)" fill="none" stroke="#12263f" stroke-width="3"/><path d="M3146-5531.5h54" transform="translate(-2882 5890.5)" fill="none" stroke="#12263f" stroke-width="3"/><path d="M3146-5531.5h54" transform="translate(-2882 5946.5)" fill="none" stroke="#12263f" stroke-width="3"/><path d="M3146-5531.5h54" transform="translate(-2882 6002.5)" fill="none" stroke="#12263f" stroke-width="3"/><path d="M3146-5264h54v-267.5" transform="translate(-2882 5791)" fill="none" stroke="#12263f" stroke-width="3"/><path d="M3200-5531.5h-54V-5264" transform="translate(-2213 5575.5)" fill="none" stroke="#12263f" stroke-width="3"/></svg>