<svg xmlns="http://www.w3.org/2000/svg" width="1240" height="550"><defs><filter id="a" x="356.5" y="186.5" width="178" height="178" filterUnits="userSpaceOnUse"><feOffset dy="8"/><feGaussianBlur stdDeviation="3.5" result="b"/><feFlood flood-opacity=".161"/><feComposite operator="in" in2="b"/><feComposite in="SourceGraphic"/></filter><filter id="b" x="704.5" y="186.5" width="178" height="178" filterUnits="userSpaceOnUse"><feOffset dy="8"/><feGaussianBlur stdDeviation="3.5" result="d"/><feFlood flood-opacity=".161"/><feComposite operator="in" in2="d"/><feComposite in="SourceGraphic"/></filter><filter id="c" x="483.501" y="158.5" width="271.998" height="234" filterUnits="userSpaceOnUse"><feOffset dy="8"/><feGaussianBlur stdDeviation="3.5" result="f"/><feFlood flood-opacity=".161"/><feComposite operator="in" in2="f"/><feComposite in="SourceGraphic"/></filter></defs><path fill="#fff" d="M0 0h1240v550H0z"/><circle cx="145.5" cy="145.5" r="145.5" transform="translate(474 122)" fill="rgba(253,216,53,0.2)"/><circle cx="125.5" cy="125.5" r="125.5" transform="translate(494 142)" fill="rgba(253,216,53,0.3)"/><g filter="url(#a)"><circle cx="78.5" cy="78.5" r="78.5" transform="translate(367 189)" fill="#fdd835"/></g><g filter="url(#b)"><circle cx="78.5" cy="78.5" r="78.5" transform="translate(715 189)" fill="#26ccda"/></g><path d="M412.145 256.568h-4.852v3.059h5.73V262h-8.815v-12.8h8.833v2.382h-5.748v2.7h4.852Zm5.124 5.432H414.3v-13.5h2.971Zm6.425.176a4.889 4.889 0 0 1-3.542-1.305 4.507 4.507 0 0 1-1.354-3.4v-.246a5.84 5.84 0 0 1 .541-2.575 3.955 3.955 0 0 1 1.578-1.727 4.763 4.763 0 0 1 2.461-.611 4.117 4.117 0 0 1 3.164 1.244 4.887 4.887 0 0 1 1.158 3.469v1.151h-5.889a2.135 2.135 0 0 0 .694 1.257 2.066 2.066 0 0 0 1.389.457 2.662 2.662 0 0 0 2.2-.984l1.354 1.6a3.784 3.784 0 0 1-1.571 1.217 5.3 5.3 0 0 1-2.184.453Zm-.335-7.576q-1.3 0-1.547 1.723h2.988v-.229a1.467 1.467 0 0 0-.36-1.1 1.434 1.434 0 0 0-1.081-.394Zm8.332-2.109.1 1.116a3.27 3.27 0 0 1 2.709-1.293 2.407 2.407 0 0 1 2.438 1.433 3.165 3.165 0 0 1 2.795-1.433q2.892 0 2.971 3.5V262h-2.971v-6a1.813 1.813 0 0 0-.246-1.063 1.048 1.048 0 0 0-.9-.334 1.4 1.4 0 0 0-1.31.782l.009.123V262h-2.971v-5.985a1.906 1.906 0 0 0-.237-1.081 1.045 1.045 0 0 0-.905-.334 1.42 1.42 0 0 0-1.3.782V262h-2.962v-9.51ZM449 262.176a4.889 4.889 0 0 1-3.545-1.305 4.507 4.507 0 0 1-1.355-3.397v-.246a5.84 5.84 0 0 1 .541-2.575 3.955 3.955 0 0 1 1.579-1.728 4.763 4.763 0 0 1 2.461-.611 4.117 4.117 0 0 1 3.164 1.244 4.887 4.887 0 0 1 1.155 3.467v1.151h-5.884a2.135 2.135 0 0 0 .694 1.257 2.066 2.066 0 0 0 1.39.458 2.662 2.662 0 0 0 2.2-.984l1.354 1.6a3.784 3.784 0 0 1-1.573 1.216 5.3 5.3 0 0 1-2.181.453Zm-.337-7.576q-1.3 0-1.547 1.723h2.984v-.229a1.467 1.467 0 0 0-.36-1.1 1.434 1.434 0 0 0-1.077-.394Zm8.253-2.11.1 1.116a3.225 3.225 0 0 1 2.716-1.292 2.713 2.713 0 0 1 2.219.888 4.226 4.226 0 0 1 .76 2.672V262h-2.974v-6a1.6 1.6 0 0 0-.29-1.059 1.342 1.342 0 0 0-1.054-.341 1.413 1.413 0 0 0-1.292.686V262h-2.962v-9.51Zm10.884-2.364v2.364h1.564v2.057H467.8v4.353a1.111 1.111 0 0 0 .193.747 1.037 1.037 0 0 0 .765.211 4.345 4.345 0 0 0 .738-.053v2.116a5.466 5.466 0 0 1-1.67.255 3.1 3.1 0 0 1-2.259-.721 2.954 2.954 0 0 1-.729-2.188v-4.72h-1.216v-2.057h1.213v-2.364Zm2.092 7.031a5.613 5.613 0 0 1 .554-2.536 3.96 3.96 0 0 1 1.591-1.709 4.791 4.791 0 0 1 2.435-.6 4.373 4.373 0 0 1 3.366 1.323 5.076 5.076 0 0 1 1.23 3.6v.105a4.925 4.925 0 0 1-1.238 3.531 4.384 4.384 0 0 1-3.345 1.305 4.434 4.434 0 0 1-3.261-1.217 4.761 4.761 0 0 1-1.327-3.3Zm2.962.185a3.538 3.538 0 0 0 .413 1.934 1.376 1.376 0 0 0 1.222.615q1.582 0 1.617-2.435v-.3q-.006-2.556-1.638-2.556-1.485 0-1.608 2.206Zm12.5 1.986a.684.684 0 0 0-.4-.606 6.016 6.016 0 0 0-1.5-.475 6.853 6.853 0 0 1-1.832-.647 3.062 3.062 0 0 1-1.1-.971 2.319 2.319 0 0 1-.378-1.31 2.628 2.628 0 0 1 1.081-2.158 4.453 4.453 0 0 1 2.83-.848 4.934 4.934 0 0 1 3.023.853 2.666 2.666 0 0 1 1.143 2.241h-2.969q0-1.143-1.2-1.143a1.194 1.194 0 0 0-.782.259.8.8 0 0 0-.316.646.737.737 0 0 0 .387.642 3.654 3.654 0 0 0 1.235.4 10.671 10.671 0 0 1 1.49.378 2.706 2.706 0 0 1 2.139 2.651 2.491 2.491 0 0 1-1.156 2.118 5.068 5.068 0 0 1-2.993.817 5.172 5.172 0 0 1-2.18-.439 3.645 3.645 0 0 1-1.494-1.2 2.707 2.707 0 0 1-.536-1.591h2.769a1.145 1.145 0 0 0 .439.962 1.808 1.808 0 0 0 1.081.3 1.422 1.422 0 0 0 .91-.246.787.787 0 0 0 .304-.633ZM416.267 285H413.3v-9.51h2.971Zm-3.147-11.962a1.322 1.322 0 0 1 .457-1.038 1.724 1.724 0 0 1 1.187-.4 1.724 1.724 0 0 1 1.187.4 1.322 1.322 0 0 1 .457 1.037 1.322 1.322 0 0 1-.457 1.037 1.724 1.724 0 0 1-1.187.4 1.724 1.724 0 0 1-1.187-.4 1.322 1.322 0 0 1-.457-1.036Zm7.69 2.452.1 1.116a3.225 3.225 0 0 1 2.716-1.292 2.713 2.713 0 0 1 2.219.888 4.226 4.226 0 0 1 .76 2.672V285h-2.971v-6a1.6 1.6 0 0 0-.29-1.059 1.342 1.342 0 0 0-1.055-.338 1.413 1.413 0 0 0-1.289.682V285h-2.962v-9.51Zm10.881-2.364v2.364h1.564v2.057h-1.564v4.353a1.111 1.111 0 0 0 .193.747 1.037 1.037 0 0 0 .765.211 4.345 4.345 0 0 0 .738-.053v2.118a5.466 5.466 0 0 1-1.67.255 3.1 3.1 0 0 1-2.259-.721 2.954 2.954 0 0 1-.729-2.188v-4.72h-1.213v-2.059h1.213v-2.364Zm7.33 12.05a4.889 4.889 0 0 1-3.542-1.305 4.507 4.507 0 0 1-1.354-3.4v-.246a5.84 5.84 0 0 1 .541-2.575 3.955 3.955 0 0 1 1.578-1.727 4.763 4.763 0 0 1 2.461-.611 4.117 4.117 0 0 1 3.164 1.244 4.887 4.887 0 0 1 1.16 3.467v1.151h-5.888a2.135 2.135 0 0 0 .694 1.257 2.066 2.066 0 0 0 1.389.457 2.662 2.662 0 0 0 2.2-.984l1.354 1.6a3.784 3.784 0 0 1-1.569 1.217 5.3 5.3 0 0 1-2.188.455Zm-.333-7.576q-1.3 0-1.547 1.723h2.988v-.229a1.467 1.467 0 0 0-.36-1.1 1.434 1.434 0 0 0-1.081-.394Zm11.285.571L449 278.1a1.752 1.752 0 0 0-1.793.879V285h-2.965v-9.51h2.778l.1 1.222a2.294 2.294 0 0 1 2.083-1.4 2.888 2.888 0 0 1 .826.105Zm3.788-2.681.1 1.116a3.225 3.225 0 0 1 2.716-1.292 2.713 2.713 0 0 1 2.219.888 4.226 4.226 0 0 1 .76 2.672V285h-2.974v-6a1.6 1.6 0 0 0-.29-1.059 1.342 1.342 0 0 0-1.055-.341 1.413 1.413 0 0 0-1.292.686V285h-2.962v-9.51Zm7.058 4.667a5.613 5.613 0 0 1 .554-2.536 3.96 3.96 0 0 1 1.591-1.709 4.791 4.791 0 0 1 2.435-.6 4.373 4.373 0 0 1 3.366 1.323 5.076 5.076 0 0 1 1.23 3.6v.105a4.925 4.925 0 0 1-1.235 3.529 4.384 4.384 0 0 1-3.344 1.305 4.434 4.434 0 0 1-3.261-1.217 4.761 4.761 0 0 1-1.327-3.3Zm2.962.185a3.538 3.538 0 0 0 .413 1.934 1.376 1.376 0 0 0 1.222.615q1.582 0 1.617-2.435v-.3q0-2.558-1.635-2.558-1.485 0-1.608 2.206Zm12.5 1.986a.684.684 0 0 0-.4-.606 6.016 6.016 0 0 0-1.5-.475 6.853 6.853 0 0 1-1.828-.646 3.062 3.062 0 0 1-1.1-.971 2.319 2.319 0 0 1-.378-1.31 2.628 2.628 0 0 1 1.081-2.158 4.453 4.453 0 0 1 2.83-.848 4.934 4.934 0 0 1 3.023.853 2.666 2.666 0 0 1 1.143 2.241h-2.97q0-1.143-1.2-1.143a1.194 1.194 0 0 0-.782.259.8.8 0 0 0-.316.646.737.737 0 0 0 .387.642 3.654 3.654 0 0 0 1.235.4 10.671 10.671 0 0 1 1.49.378 2.706 2.706 0 0 1 2.145 2.646 2.491 2.491 0 0 1-1.156 2.118 5.068 5.068 0 0 1-2.993.817 5.172 5.172 0 0 1-2.18-.439 3.645 3.645 0 0 1-1.494-1.2 2.707 2.707 0 0 1-.536-1.591h2.769a1.145 1.145 0 0 0 .439.962 1.808 1.808 0 0 0 1.081.3 1.422 1.422 0 0 0 .91-.246.787.787 0 0 0 .297-.629ZM760.145 256.568h-4.852v3.059h5.73V262h-8.815v-12.8h8.833v2.382h-5.748v2.7h4.852Zm5.124 5.432H762.3v-13.5h2.971Zm6.425.176a4.889 4.889 0 0 1-3.542-1.305 4.507 4.507 0 0 1-1.354-3.4v-.246a5.84 5.84 0 0 1 .541-2.575 3.955 3.955 0 0 1 1.578-1.727 4.763 4.763 0 0 1 2.461-.611 4.117 4.117 0 0 1 3.164 1.244 4.887 4.887 0 0 1 1.158 3.469v1.151h-5.889a2.135 2.135 0 0 0 .694 1.257 2.066 2.066 0 0 0 1.389.457 2.662 2.662 0 0 0 2.2-.984l1.354 1.6a3.784 3.784 0 0 1-1.571 1.217 5.3 5.3 0 0 1-2.184.453Zm-.335-7.576q-1.3 0-1.547 1.723h2.988v-.229a1.467 1.467 0 0 0-.36-1.1 1.434 1.434 0 0 0-1.081-.394Zm8.332-2.109.1 1.116a3.27 3.27 0 0 1 2.709-1.293 2.407 2.407 0 0 1 2.438 1.433 3.165 3.165 0 0 1 2.795-1.433q2.892 0 2.971 3.5V262h-2.971v-6a1.813 1.813 0 0 0-.246-1.063 1.048 1.048 0 0 0-.9-.334 1.4 1.4 0 0 0-1.31.782l.009.123V262h-2.971v-5.985a1.906 1.906 0 0 0-.237-1.081 1.045 1.045 0 0 0-.905-.334 1.42 1.42 0 0 0-1.3.782V262h-2.962v-9.51ZM797 262.176a4.889 4.889 0 0 1-3.545-1.305 4.507 4.507 0 0 1-1.355-3.397v-.246a5.84 5.84 0 0 1 .541-2.575 3.955 3.955 0 0 1 1.579-1.728 4.763 4.763 0 0 1 2.461-.611 4.117 4.117 0 0 1 3.164 1.244 4.887 4.887 0 0 1 1.155 3.467v1.151h-5.884a2.135 2.135 0 0 0 .694 1.257 2.066 2.066 0 0 0 1.39.458 2.662 2.662 0 0 0 2.2-.984l1.354 1.6a3.784 3.784 0 0 1-1.573 1.216 5.3 5.3 0 0 1-2.181.453Zm-.337-7.576q-1.3 0-1.547 1.723h2.984v-.229a1.467 1.467 0 0 0-.36-1.1 1.434 1.434 0 0 0-1.077-.394Zm8.253-2.11.1 1.116a3.225 3.225 0 0 1 2.716-1.292 2.713 2.713 0 0 1 2.219.888 4.226 4.226 0 0 1 .76 2.672V262h-2.974v-6a1.6 1.6 0 0 0-.29-1.059 1.342 1.342 0 0 0-1.054-.341 1.413 1.413 0 0 0-1.292.686V262h-2.962v-9.51Zm10.884-2.364v2.364h1.564v2.057H815.8v4.353a1.111 1.111 0 0 0 .193.747 1.037 1.037 0 0 0 .765.211 4.345 4.345 0 0 0 .738-.053v2.116a5.466 5.466 0 0 1-1.67.255 3.1 3.1 0 0 1-2.259-.721 2.954 2.954 0 0 1-.729-2.188v-4.72h-1.216v-2.057h1.213v-2.364Zm2.092 7.031a5.613 5.613 0 0 1 .554-2.536 3.96 3.96 0 0 1 1.591-1.709 4.791 4.791 0 0 1 2.435-.6 4.373 4.373 0 0 1 3.366 1.323 5.076 5.076 0 0 1 1.23 3.6v.105a4.925 4.925 0 0 1-1.238 3.531 4.384 4.384 0 0 1-3.345 1.305 4.434 4.434 0 0 1-3.261-1.217 4.761 4.761 0 0 1-1.327-3.3Zm2.962.185a3.538 3.538 0 0 0 .413 1.934 1.376 1.376 0 0 0 1.222.615q1.582 0 1.617-2.435v-.3q-.006-2.556-1.638-2.556-1.485 0-1.608 2.206Zm12.5 1.986a.684.684 0 0 0-.4-.606 6.016 6.016 0 0 0-1.5-.475 6.853 6.853 0 0 1-1.832-.647 3.062 3.062 0 0 1-1.1-.971 2.319 2.319 0 0 1-.378-1.31 2.628 2.628 0 0 1 1.081-2.158 4.453 4.453 0 0 1 2.83-.848 4.934 4.934 0 0 1 3.023.853 2.666 2.666 0 0 1 1.143 2.241h-2.969q0-1.143-1.2-1.143a1.194 1.194 0 0 0-.782.259.8.8 0 0 0-.316.646.737.737 0 0 0 .387.642 3.654 3.654 0 0 0 1.235.4 10.671 10.671 0 0 1 1.49.378 2.706 2.706 0 0 1 2.139 2.651 2.491 2.491 0 0 1-1.156 2.118 5.068 5.068 0 0 1-2.993.817 5.172 5.172 0 0 1-2.18-.439 3.645 3.645 0 0 1-1.494-1.2 2.707 2.707 0 0 1-.536-1.591h2.769a1.145 1.145 0 0 0 .439.962 1.808 1.808 0 0 0 1.081.3 1.422 1.422 0 0 0 .91-.246.787.787 0 0 0 .304-.633Zm-69.593 25.848a4.889 4.889 0 0 1-3.542-1.305 4.507 4.507 0 0 1-1.354-3.4v-.246a5.84 5.84 0 0 1 .541-2.575 3.955 3.955 0 0 1 1.578-1.727 4.763 4.763 0 0 1 2.461-.611 4.117 4.117 0 0 1 3.164 1.244 4.887 4.887 0 0 1 1.16 3.467v1.151h-5.889a2.135 2.135 0 0 0 .694 1.257 2.066 2.066 0 0 0 1.389.457 2.662 2.662 0 0 0 2.2-.984l1.354 1.6a3.784 3.784 0 0 1-1.569 1.217 5.3 5.3 0 0 1-2.187.455Zm-.334-7.576q-1.3 0-1.547 1.723h2.988v-.229a1.467 1.467 0 0 0-.36-1.1 1.434 1.434 0 0 0-1.081-.394Zm9.387.51 1.38-2.619h3.076l-2.5 4.632 2.623 4.877H774.3l-1.494-2.812-1.469 2.812h-3.111l2.637-4.878-2.5-4.632h3.111Zm8.859-4.983v2.363h1.564v2.057h-1.564v4.353a1.111 1.111 0 0 0 .193.747 1.037 1.037 0 0 0 .765.211 4.345 4.345 0 0 0 .738-.053v2.118a5.466 5.466 0 0 1-1.67.255 3.1 3.1 0 0 1-2.259-.721 2.954 2.954 0 0 1-.729-2.188v-4.72H777.5v-2.059h1.213v-2.364ZM789 285.176a4.889 4.889 0 0 1-3.542-1.305 4.507 4.507 0 0 1-1.354-3.4v-.246a5.84 5.84 0 0 1 .541-2.575 3.955 3.955 0 0 1 1.578-1.727 4.763 4.763 0 0 1 2.461-.611 4.117 4.117 0 0 1 3.164 1.244 4.887 4.887 0 0 1 1.16 3.467v1.151h-5.885a2.135 2.135 0 0 0 .694 1.257 2.066 2.066 0 0 0 1.389.457 2.662 2.662 0 0 0 2.2-.984l1.354 1.6a3.784 3.784 0 0 1-1.569 1.217 5.3 5.3 0 0 1-2.191.455Zm-.331-7.576q-1.3 0-1.547 1.723h2.988v-.229a1.467 1.467 0 0 0-.36-1.1 1.434 1.434 0 0 0-1.081-.394Zm11.285.571-.976-.07a1.752 1.752 0 0 0-1.793.879V285h-2.961v-9.51H797l.1 1.222a2.294 2.294 0 0 1 2.083-1.4 2.888 2.888 0 0 1 .826.105Zm3.789-2.681.1 1.116a3.225 3.225 0 0 1 2.716-1.292 2.713 2.713 0 0 1 2.219.888 4.226 4.226 0 0 1 .76 2.672V285h-2.974v-6a1.6 1.6 0 0 0-.29-1.059 1.342 1.342 0 0 0-1.055-.338 1.413 1.413 0 0 0-1.292.686V285h-2.962v-9.51Zm7.057 4.667a5.613 5.613 0 0 1 .554-2.536 3.96 3.96 0 0 1 1.591-1.709 4.791 4.791 0 0 1 2.435-.6 4.373 4.373 0 0 1 3.366 1.323 5.076 5.076 0 0 1 1.23 3.6v.105a4.925 4.925 0 0 1-1.235 3.529 4.384 4.384 0 0 1-3.341 1.307 4.434 4.434 0 0 1-3.261-1.217 4.761 4.761 0 0 1-1.327-3.3Zm2.962.185a3.538 3.538 0 0 0 .413 1.934 1.376 1.376 0 0 0 1.222.615q1.582 0 1.617-2.435v-.3q0-2.558-1.635-2.558-1.485 0-1.608 2.206Zm12.5 1.986a.684.684 0 0 0-.4-.606 6.016 6.016 0 0 0-1.5-.475 6.853 6.853 0 0 1-1.828-.646 3.062 3.062 0 0 1-1.1-.971 2.319 2.319 0 0 1-.378-1.31 2.628 2.628 0 0 1 1.081-2.158 4.453 4.453 0 0 1 2.83-.848 4.934 4.934 0 0 1 3.023.853 2.666 2.666 0 0 1 1.143 2.241h-2.969q0-1.143-1.2-1.143a1.194 1.194 0 0 0-.782.259.8.8 0 0 0-.316.646.737.737 0 0 0 .387.642 3.654 3.654 0 0 0 1.235.4 10.671 10.671 0 0 1 1.49.378 2.706 2.706 0 0 1 2.145 2.646 2.491 2.491 0 0 1-1.156 2.118 5.068 5.068 0 0 1-2.993.817 5.172 5.172 0 0 1-2.18-.439 3.645 3.645 0 0 1-1.494-1.2 2.707 2.707 0 0 1-.536-1.591h2.769a1.145 1.145 0 0 0 .439.962 1.808 1.808 0 0 0 1.081.3 1.422 1.422 0 0 0 .91-.246.787.787 0 0 0 .297-.629Z" fill="#12263f"/><g filter="url(#c)"><path d="M513.635 279.206 494 267.5l19.635-11.706a106.511 106.511 0 0 1 211.728 0L745 267.5l-19.635 11.705a106.51 106.51 0 0 1-211.728 0Z" fill="#fff"/></g><path d="M551.952 279.693V285h-3.77v-15.641h6.241a7.269 7.269 0 0 1 3.174.661 4.979 4.979 0 0 1 2.138 1.88 5.134 5.134 0 0 1 .757 2.766 4.526 4.526 0 0 1-1.638 3.658 6.8 6.8 0 0 1-4.5 1.37Zm0-2.911h2.471a2.33 2.33 0 0 0 1.67-.548 2.035 2.035 0 0 0 .575-1.547 2.516 2.516 0 0 0-.591-1.751 2.092 2.092 0 0 0-1.611-.666h-2.514ZM568.764 285a4.087 4.087 0 0 1-.344-1.042 3.366 3.366 0 0 1-2.793 1.257 4.124 4.124 0 0 1-2.793-.994 3.163 3.163 0 0 1-1.149-2.5 3.251 3.251 0 0 1 1.4-2.857 7.114 7.114 0 0 1 4.057-.964h1.117v-.615q0-1.608-1.386-1.608a1.133 1.133 0 0 0-1.289 1.273h-3.62a3.245 3.245 0 0 1 1.436-2.736 6.027 6.027 0 0 1 3.658-1.051 5.284 5.284 0 0 1 3.513 1.085 3.772 3.772 0 0 1 1.319 2.975v5.146a5.269 5.269 0 0 0 .494 2.449V285Zm-2.264-2.363a2.019 2.019 0 0 0 1.123-.29 1.818 1.818 0 0 0 .639-.655v-1.859h-1.056q-1.891 0-1.891 1.7a1.036 1.036 0 0 0 .333.8 1.205 1.205 0 0 0 .852.304Zm14.424-5.984-1.192-.086a2.142 2.142 0 0 0-2.192 1.075V285h-3.62v-11.623h3.395l.118 1.493a2.8 2.8 0 0 1 2.546-1.708 3.53 3.53 0 0 1 1.01.129Zm6.059-6.166v2.89h1.912v2.514h-1.913v5.317a1.358 1.358 0 0 0 .236.913 1.268 1.268 0 0 0 .935.258 5.311 5.311 0 0 0 .9-.064v2.585a6.681 6.681 0 0 1-2.041.312 3.792 3.792 0 0 1-2.761-.881 3.61 3.61 0 0 1-.892-2.675v-5.765h-1.479v-2.514h1.482v-2.89Zm8.958 14.728a5.975 5.975 0 0 1-4.329-1.6 5.509 5.509 0 0 1-1.654-4.152v-.3a7.138 7.138 0 0 1 .661-3.147 4.834 4.834 0 0 1 1.928-2.111 5.821 5.821 0 0 1 3.008-.747 5.031 5.031 0 0 1 3.867 1.52 5.973 5.973 0 0 1 1.418 4.242v1.407h-7.2a2.609 2.609 0 0 0 .849 1.536 2.525 2.525 0 0 0 1.7.559 3.254 3.254 0 0 0 2.686-1.2l1.654 1.955a4.624 4.624 0 0 1-1.918 1.485 6.48 6.48 0 0 1-2.67.553Zm-.408-9.26q-1.59 0-1.891 2.105h3.652v-.279a1.793 1.793 0 0 0-.44-1.348 1.753 1.753 0 0 0-1.321-.478Zm12.848 5.779a.836.836 0 0 0-.483-.741 7.353 7.353 0 0 0-1.837-.58 8.376 8.376 0 0 1-2.234-.79 3.743 3.743 0 0 1-1.343-1.187 2.835 2.835 0 0 1-.462-1.6 3.212 3.212 0 0 1 1.321-2.636 5.443 5.443 0 0 1 3.457-1.038 6.03 6.03 0 0 1 3.7 1.038 3.258 3.258 0 0 1 1.4 2.739h-3.637q0-1.4-1.472-1.4a1.459 1.459 0 0 0-.956.317.981.981 0 0 0-.387.79.9.9 0 0 0 .473.784 4.466 4.466 0 0 0 1.509.494 13.042 13.042 0 0 1 1.821.462q2.621.9 2.621 3.233a3.044 3.044 0 0 1-1.413 2.597 6.2 6.2 0 0 1-3.658 1 6.322 6.322 0 0 1-2.664-.537 4.455 4.455 0 0 1-1.826-1.461 3.308 3.308 0 0 1-.655-1.944h3.384a1.4 1.4 0 0 0 .537 1.176 2.209 2.209 0 0 0 1.321.371 1.738 1.738 0 0 0 1.112-.3.962.962 0 0 0 .371-.787Zm10.205-2.634a7.1 7.1 0 0 1 1.192-4.351 3.925 3.925 0 0 1 3.33-1.59 3.338 3.338 0 0 1 2.621 1.225V268.5h3.631V285h-3.255l-.183-1.246a3.428 3.428 0 0 1-2.835 1.461 3.918 3.918 0 0 1-3.287-1.59 7.325 7.325 0 0 1-1.214-4.525Zm3.62.226q0 3.094 1.8 3.094a1.782 1.782 0 0 0 1.719-1.01v-4.424a1.734 1.734 0 0 0-1.7-1.031q-1.676 0-1.815 2.707Zm14.835 5.889a5.975 5.975 0 0 1-4.329-1.6 5.509 5.509 0 0 1-1.654-4.152v-.3a7.138 7.138 0 0 1 .661-3.147 4.834 4.834 0 0 1 1.928-2.111 5.821 5.821 0 0 1 3.008-.747 5.031 5.031 0 0 1 3.867 1.52 5.973 5.973 0 0 1 1.417 4.242v1.407h-7.2a2.609 2.609 0 0 0 .849 1.536 2.525 2.525 0 0 0 1.7.559 3.254 3.254 0 0 0 2.686-1.2l1.654 1.955a4.624 4.624 0 0 1-1.918 1.485 6.48 6.48 0 0 1-2.669.553Zm-.408-9.26q-1.59 0-1.891 2.105h3.652v-.279a1.793 1.793 0 0 0-.44-1.348 1.753 1.753 0 0 0-1.321-.478ZM647.214 285h-3.631v-16.5h3.631Zm11.526 0h-3.631v-16.5h3.631Zm6.048 0h-3.631v-11.623h3.631Zm-3.846-14.62a1.616 1.616 0 0 1 .559-1.268 2.108 2.108 0 0 1 1.45-.494 2.108 2.108 0 0 1 1.45.494 1.616 1.616 0 0 1 .559 1.268 1.616 1.616 0 0 1-.559 1.268 2.108 2.108 0 0 1-1.45.494 2.108 2.108 0 0 1-1.45-.494 1.616 1.616 0 0 1-.559-1.268Zm16.865 8.905a7.084 7.084 0 0 1-1.182 4.394 3.958 3.958 0 0 1-3.325 1.536 3.435 3.435 0 0 1-2.857-1.407l-.155 1.192h-3.244v-16.5h3.62v5.812a3.314 3.314 0 0 1 2.61-1.149 3.959 3.959 0 0 1 3.352 1.558 7.121 7.121 0 0 1 1.182 4.379Zm-3.631-.231a4.725 4.725 0 0 0-.446-2.386 1.5 1.5 0 0 0-1.37-.713 1.733 1.733 0 0 0-1.7.933v4.612a1.743 1.743 0 0 0 1.719.922 1.537 1.537 0 0 0 1.621-1.244 8.933 8.933 0 0 0 .177-2.124Zm12.257-2.4-1.192-.086a2.142 2.142 0 0 0-2.191 1.074V285h-3.62v-11.623h3.395l.118 1.493a2.8 2.8 0 0 1 2.546-1.708 3.53 3.53 0 0 1 1.01.129Zm.462 2.428a6.86 6.86 0 0 1 .677-3.1 4.84 4.84 0 0 1 1.944-2.089 5.856 5.856 0 0 1 2.976-.73 5.344 5.344 0 0 1 4.114 1.617 6.2 6.2 0 0 1 1.5 4.4v.129a6.019 6.019 0 0 1-1.506 4.311 5.359 5.359 0 0 1-4.087 1.6 5.42 5.42 0 0 1-3.985-1.488 5.819 5.819 0 0 1-1.622-4.034Zm3.62.226a4.325 4.325 0 0 0 .5 2.363 1.682 1.682 0 0 0 1.493.752q1.934 0 1.977-2.976v-.365q0-3.126-2-3.126-1.815 0-1.966 2.7Z" fill="#12263f"/><g fill="#fdd835"><path d="M582 308h7v7h-7zM599 308h7v7h-7zM616 308h7v7h-7zM633 308h7v7h-7zM650 308h7v7h-7z"/></g><g transform="translate(987 20)" fill="#d0f2f5" stroke="#26ccda" stroke-width="2"><rect width="162" height="45" rx="7" stroke="none"/><rect x="1" y="1" width="160" height="43" rx="6" fill="none"/></g><g transform="translate(987 78)" fill="#d0f2f5" stroke="#26ccda" stroke-width="2"><rect width="162" height="45" rx="7" stroke="none"/><rect x="1" y="1" width="160" height="43" rx="6" fill="none"/></g><g transform="translate(987 136)" fill="#d0f2f5" stroke="#26ccda" stroke-width="2"><rect width="162" height="45" rx="7" stroke="none"/><rect x="1" y="1" width="160" height="43" rx="6" fill="none"/></g><g transform="translate(987 194)" fill="#d0f2f5" stroke="#26ccda" stroke-width="2"><rect width="162" height="45" rx="7" stroke="none"/><rect x="1" y="1" width="160" height="43" rx="6" fill="none"/></g><g transform="translate(987 253)" fill="#d0f2f5" stroke="#26ccda" stroke-width="2"><rect width="162" height="45" rx="7" stroke="none"/><rect x="1" y="1" width="160" height="43" rx="6" fill="none"/></g><g transform="translate(987 311)" fill="#d0f2f5" stroke="#26ccda" stroke-width="2"><rect width="162" height="45" rx="7" stroke="none"/><rect x="1" y="1" width="160" height="43" rx="6" fill="none"/></g><g transform="translate(987 369)" fill="#d0f2f5" stroke="#26ccda" stroke-width="2"><rect width="162" height="45" rx="7" stroke="none"/><rect x="1" y="1" width="160" height="43" rx="6" fill="none"/></g><g transform="translate(987 427)" fill="#d0f2f5" stroke="#26ccda" stroke-width="2"><rect width="162" height="45" rx="7" stroke="none"/><rect x="1" y="1" width="160" height="43" rx="6" fill="none"/></g><g transform="translate(987 485)" fill="#d0f2f5" stroke="#26ccda" stroke-width="2"><rect width="162" height="45" rx="7" stroke="none"/><rect x="1" y="1" width="160" height="43" rx="6" fill="none"/></g><path d="M1017.9 45.6a1.268 1.268 0 0 0-.479-1.055 5.954 5.954 0 0 0-1.683-.782 16.147 16.147 0 0 1-1.969-.782q-2.489-1.223-2.489-3.359a3.011 3.011 0 0 1 .62-1.876 4.008 4.008 0 0 1 1.753-1.266 6.823 6.823 0 0 1 2.549-.453 5.969 5.969 0 0 1 2.474.492 3.917 3.917 0 0 1 1.7 1.4 3.661 3.661 0 0 1 .607 2.081h-3.076a1.547 1.547 0 0 0-.479-1.213 1.867 1.867 0 0 0-1.3-.431 2.106 2.106 0 0 0-1.305.365 1.119 1.119 0 0 0-.479.927 1.127 1.127 0 0 0 .527.892 6.65 6.65 0 0 0 1.854.826 11.36 11.36 0 0 1 2.18.918 3.663 3.663 0 0 1 2.074 3.3 3.125 3.125 0 0 1-1.262 2.634 5.629 5.629 0 0 1-3.472.958 6.888 6.888 0 0 1-2.817-.558 4.247 4.247 0 0 1-1.9-1.529 3.985 3.985 0 0 1-.637-2.237h3.094a1.963 1.963 0 0 0 .532 1.516 2.513 2.513 0 0 0 1.727.488 1.985 1.985 0 0 0 1.208-.33 1.088 1.088 0 0 0 .448-.926Zm4.157-1.441a5.613 5.613 0 0 1 .554-2.536 3.96 3.96 0 0 1 1.589-1.711 4.791 4.791 0 0 1 2.435-.6 4.373 4.373 0 0 1 3.365 1.325 5.076 5.076 0 0 1 1.23 3.6v.105a4.925 4.925 0 0 1-1.23 3.529 4.384 4.384 0 0 1-3.348 1.305 4.434 4.434 0 0 1-3.261-1.217 4.761 4.761 0 0 1-1.327-3.3Zm2.962.185a3.538 3.538 0 0 0 .413 1.934 1.376 1.376 0 0 0 1.222.615q1.582 0 1.617-2.435v-.3q0-2.558-1.635-2.558-1.485 0-1.608 2.206Zm16.348-.018a5.8 5.8 0 0 1-.967 3.593 3.238 3.238 0 0 1-2.727 1.257 2.81 2.81 0 0 1-2.338-1.152l-.123.976h-2.654V35.5h2.962v4.755a2.711 2.711 0 0 1 2.136-.94 3.239 3.239 0 0 1 2.744 1.274 5.826 5.826 0 0 1 .967 3.586Zm-2.971-.189a3.866 3.866 0 0 0-.365-1.952 1.229 1.229 0 0 0-1.122-.585 1.418 1.418 0 0 0-1.389.763v3.773a1.426 1.426 0 0 0 1.406.755 1.258 1.258 0 0 0 1.327-1.018 7.309 7.309 0 0 0 .141-1.738Zm10.028-1.964-.976-.07a1.752 1.752 0 0 0-1.793.879V49h-2.962v-9.51h2.777l.1 1.222a2.294 2.294 0 0 1 2.083-1.4 2.888 2.888 0 0 1 .826.105Zm5.5 7a4.889 4.889 0 0 1-3.542-1.305 4.507 4.507 0 0 1-1.354-3.4v-.246a5.84 5.84 0 0 1 .541-2.575 3.955 3.955 0 0 1 1.578-1.727 4.763 4.763 0 0 1 2.461-.611 4.117 4.117 0 0 1 3.164 1.244 4.887 4.887 0 0 1 1.16 3.467v1.151h-5.889a2.135 2.135 0 0 0 .694 1.257 2.066 2.066 0 0 0 1.389.457 2.662 2.662 0 0 0 2.2-.984l1.354 1.6a3.784 3.784 0 0 1-1.572 1.222 5.3 5.3 0 0 1-2.184.453Zm-.334-7.573q-1.3 0-1.547 1.723h2.988v-.229a1.467 1.467 0 0 0-.36-1.1 1.434 1.434 0 0 0-1.081-.394Zm9.554 5.291a1.317 1.317 0 0 0 .967-.338 1.241 1.241 0 0 0 .334-.945h2.777a3.288 3.288 0 0 1-1.122 2.566 4.168 4.168 0 0 1-2.887 1 4.22 4.22 0 0 1-3.27-1.3 5.125 5.125 0 0 1-1.2-3.6v-.123a5.792 5.792 0 0 1 .538-2.551 3.872 3.872 0 0 1 1.534-1.7 4.573 4.573 0 0 1 2.373-.593 4.116 4.116 0 0 1 2.944 1.036 3.647 3.647 0 0 1 1.09 2.786h-2.777a1.626 1.626 0 0 0-.361-1.129 1.244 1.244 0 0 0-.967-.4q-1.151 0-1.345 1.468a10.357 10.357 0 0 0-.062 1.283 4.068 4.068 0 0 0 .343 1.986 1.187 1.187 0 0 0 1.091.554Zm11 1.081a3.054 3.054 0 0 1-2.544 1.204 3 3 0 0 1-2.37-.91 3.826 3.826 0 0 1-.8-2.615V39.49h2.958v6.179a1.065 1.065 0 0 0 1.187 1.222 1.548 1.548 0 0 0 1.45-.729V39.49H1077V49h-2.773Zm13.311-3.648a5.8 5.8 0 0 1-.967 3.595 3.238 3.238 0 0 1-2.725 1.257 2.81 2.81 0 0 1-2.338-1.152l-.125.976h-2.652V35.5h2.962v4.755a2.711 2.711 0 0 1 2.136-.94 3.239 3.239 0 0 1 2.742 1.274 5.826 5.826 0 0 1 .967 3.586Zm-2.971-.189a3.866 3.866 0 0 0-.365-1.952A1.229 1.229 0 0 0 1083 41.6a1.418 1.418 0 0 0-1.389.763v3.773a1.426 1.426 0 0 0 1.406.755 1.258 1.258 0 0 0 1.327-1.018 7.309 7.309 0 0 0 .14-1.738Zm7.4 4.865h-2.97v-9.51h2.971Zm-3.146-11.962a1.322 1.322 0 0 1 .457-1.038 1.724 1.724 0 0 1 1.187-.4 1.724 1.724 0 0 1 1.187.4 1.322 1.322 0 0 1 .457 1.037 1.322 1.322 0 0 1-.457 1.037 1.724 1.724 0 0 1-1.187.4 1.724 1.724 0 0 1-1.187-.4 1.322 1.322 0 0 1-.457-1.036Zm9.571 12.138a4.889 4.889 0 0 1-3.542-1.305 4.507 4.507 0 0 1-1.354-3.4v-.246a5.84 5.84 0 0 1 .541-2.575 3.955 3.955 0 0 1 1.578-1.727 4.763 4.763 0 0 1 2.461-.611 4.117 4.117 0 0 1 3.164 1.244 4.887 4.887 0 0 1 1.16 3.467v1.151h-5.889a2.135 2.135 0 0 0 .694 1.257 2.066 2.066 0 0 0 1.389.457 2.662 2.662 0 0 0 2.2-.984l1.354 1.6a3.784 3.784 0 0 1-1.572 1.219 5.3 5.3 0 0 1-2.184.453Zm-.334-7.576q-1.3 0-1.547 1.723h2.988v-.229a1.467 1.467 0 0 0-.36-1.1 1.434 1.434 0 0 0-1.081-.394Zm11.285.571-.976-.07a1.752 1.752 0 0 0-1.793.879V49h-2.961v-9.51h2.777l.1 1.222a2.294 2.294 0 0 1 2.083-1.4 2.888 2.888 0 0 1 .826.105Zm4.957-5.045v2.364h1.564v2.057h-1.564V45.9a1.111 1.111 0 0 0 .193.747 1.037 1.037 0 0 0 .765.211 4.345 4.345 0 0 0 .738-.053v2.116a5.466 5.466 0 0 1-1.67.255 3.1 3.1 0 0 1-2.259-.721 2.954 2.954 0 0 1-.729-2.188v-4.72h-1.213V39.49h1.213v-2.364ZM1122.3 49a3.344 3.344 0 0 1-.281-.853 2.754 2.754 0 0 1-2.282 1.029 3.374 3.374 0 0 1-2.285-.813 2.588 2.588 0 0 1-.94-2.043 2.66 2.66 0 0 1 1.143-2.338 5.821 5.821 0 0 1 3.322-.791h.914v-.5q0-1.316-1.134-1.316a.927.927 0 0 0-1.057 1.038h-2.96a2.655 2.655 0 0 1 1.173-2.239 4.931 4.931 0 0 1 2.993-.86 4.323 4.323 0 0 1 2.874.886 3.086 3.086 0 0 1 1.081 2.435v4.21a4.311 4.311 0 0 0 .4 2V49Zm-1.851-1.934a1.652 1.652 0 0 0 .918-.237 1.487 1.487 0 0 0 .523-.536v-1.521h-.861q-1.547 0-1.547 1.389a.848.848 0 0 0 .272.655.986.986 0 0 0 .695.25ZM1047.785 103.6a1.268 1.268 0 0 0-.479-1.055 5.954 5.954 0 0 0-1.683-.782 16.147 16.147 0 0 1-1.969-.782q-2.487-1.222-2.487-3.357a3.011 3.011 0 0 1 .62-1.876 4.008 4.008 0 0 1 1.753-1.268 6.823 6.823 0 0 1 2.549-.453 5.969 5.969 0 0 1 2.474.492 3.917 3.917 0 0 1 1.7 1.4 3.661 3.661 0 0 1 .607 2.081h-3.076a1.547 1.547 0 0 0-.479-1.213 1.867 1.867 0 0 0-1.3-.431 2.106 2.106 0 0 0-1.305.365 1.119 1.119 0 0 0-.479.927 1.127 1.127 0 0 0 .527.892 6.65 6.65 0 0 0 1.854.826 11.36 11.36 0 0 1 2.18.918 3.663 3.663 0 0 1 2.074 3.3 3.125 3.125 0 0 1-1.266 2.634 5.629 5.629 0 0 1-3.472.958 6.888 6.888 0 0 1-2.817-.558 4.247 4.247 0 0 1-1.9-1.529 3.985 3.985 0 0 1-.637-2.237h3.094a1.963 1.963 0 0 0 .532 1.516 2.513 2.513 0 0 0 1.727.488 1.985 1.985 0 0 0 1.208-.33 1.088 1.088 0 0 0 .45-.926Zm4.157-1.441a5.613 5.613 0 0 1 .558-2.537 3.96 3.96 0 0 1 1.591-1.709 4.791 4.791 0 0 1 2.435-.6 4.373 4.373 0 0 1 3.362 1.324 5.076 5.076 0 0 1 1.23 3.6v.105a4.925 4.925 0 0 1-1.235 3.529 4.384 4.384 0 0 1-3.344 1.305 4.434 4.434 0 0 1-3.261-1.217 4.761 4.761 0 0 1-1.327-3.3Zm2.962.185a3.538 3.538 0 0 0 .413 1.934 1.376 1.376 0 0 0 1.222.615q1.582 0 1.617-2.435v-.3q0-2.558-1.635-2.558-1.485 0-1.608 2.206Zm10.644 4.656h-2.971V93.5h2.971Zm7.181 0a3.344 3.344 0 0 1-.281-.853 2.754 2.754 0 0 1-2.286 1.029 3.374 3.374 0 0 1-2.285-.813 2.588 2.588 0 0 1-.94-2.043 2.66 2.66 0 0 1 1.142-2.339 5.821 5.821 0 0 1 3.321-.791h.914v-.5q0-1.316-1.134-1.316a.927.927 0 0 0-1.053 1.039h-2.962a2.655 2.655 0 0 1 1.173-2.238 4.931 4.931 0 0 1 2.993-.86 4.323 4.323 0 0 1 2.874.885 3.086 3.086 0 0 1 1.081 2.437v4.21a4.311 4.311 0 0 0 .4 2V107Zm-1.855-1.934a1.652 1.652 0 0 0 .918-.237 1.487 1.487 0 0 0 .523-.536v-1.521h-.861q-1.547 0-1.547 1.389a.848.848 0 0 0 .272.655.986.986 0 0 0 .695.25Zm14.88-2.751a5.735 5.735 0 0 1-1 3.538 3.2 3.2 0 0 1-2.691 1.323 2.742 2.742 0 0 1-2.153-.958v4.438h-2.963V97.49h2.769l.088.879a2.742 2.742 0 0 1 2.241-1.055 3.224 3.224 0 0 1 2.733 1.3 5.805 5.805 0 0 1 .976 3.564Zm-2.962-.185q0-2.531-1.477-2.531a1.394 1.394 0 0 0-1.406.756v3.745a1.439 1.439 0 0 0 1.424.791q1.415 0 1.459-2.443Zm9.624 4.87a3.344 3.344 0 0 1-.281-.853 2.754 2.754 0 0 1-2.285 1.029 3.374 3.374 0 0 1-2.285-.813 2.588 2.588 0 0 1-.94-2.043 2.66 2.66 0 0 1 1.143-2.338 5.821 5.821 0 0 1 3.322-.791h.91v-.5q0-1.316-1.134-1.316a.927.927 0 0 0-1.055 1.042h-2.958a2.655 2.655 0 0 1 1.173-2.239 4.931 4.931 0 0 1 2.993-.86 4.323 4.323 0 0 1 2.874.888 3.086 3.086 0 0 1 1.081 2.435v4.21a4.311 4.311 0 0 0 .4 2V107Zm-1.854-1.934a1.652 1.652 0 0 0 .918-.237 1.487 1.487 0 0 0 .52-.536v-1.521h-.861q-1.547 0-1.547 1.389a.848.848 0 0 0 .272.655.986.986 0 0 0 .698.25ZM1044.4 160.667a4.673 4.673 0 0 1-.721 2.36 4.35 4.35 0 0 1-1.85 1.586 6.3 6.3 0 0 1-2.72.563 5.025 5.025 0 0 1-3.973-1.644 6.786 6.786 0 0 1-1.45-4.641v-.633a7.746 7.746 0 0 1 .655-3.292 4.961 4.961 0 0 1 1.885-2.18 5.26 5.26 0 0 1 2.848-.769 5.516 5.516 0 0 1 3.744 1.226 4.844 4.844 0 0 1 1.608 3.379h-3.076a2.292 2.292 0 0 0-.589-1.679 2.422 2.422 0 0 0-1.687-.51 1.843 1.843 0 0 0-1.687.861 5.536 5.536 0 0 0-.562 2.751v.905a6.126 6.126 0 0 0 .514 2.927 1.882 1.882 0 0 0 1.771.879 2.369 2.369 0 0 0 1.626-.5 2.126 2.126 0 0 0 .6-1.591Zm6.987 3.3a3.054 3.054 0 0 1-2.54 1.2 3 3 0 0 1-2.369-.91 3.826 3.826 0 0 1-.8-2.615v-6.152h2.962v6.179a1.065 1.065 0 0 0 1.187 1.222 1.548 1.548 0 0 0 1.45-.729v-6.672h2.979V165h-2.777Zm13.313-3.643a5.8 5.8 0 0 1-.967 3.595 3.238 3.238 0 0 1-2.72 1.257 2.81 2.81 0 0 1-2.338-1.152l-.123.976h-2.652v-13.5h2.962v4.755a2.711 2.711 0 0 1 2.138-.941 3.239 3.239 0 0 1 2.737 1.275 5.826 5.826 0 0 1 .963 3.586Zm-2.971-.189a3.866 3.866 0 0 0-.365-1.952 1.229 1.229 0 0 0-1.116-.583 1.418 1.418 0 0 0-1.389.763v3.773a1.426 1.426 0 0 0 1.406.755 1.258 1.258 0 0 0 1.328-1.018 7.309 7.309 0 0 0 .14-1.738Zm7.405 4.865h-2.971v-9.51h2.971Zm-3.147-11.962a1.322 1.322 0 0 1 .457-1.038 1.724 1.724 0 0 1 1.187-.4 1.724 1.724 0 0 1 1.186.4 1.322 1.322 0 0 1 .457 1.037 1.322 1.322 0 0 1-.457 1.037 1.724 1.724 0 0 1-1.187.4 1.724 1.724 0 0 1-1.187-.4 1.322 1.322 0 0 1-.456-1.036Zm9.572 12.138a4.889 4.889 0 0 1-3.542-1.305 4.507 4.507 0 0 1-1.354-3.4v-.246a5.84 5.84 0 0 1 .537-2.573 3.955 3.955 0 0 1 1.581-1.727 4.763 4.763 0 0 1 2.461-.611 4.117 4.117 0 0 1 3.164 1.244 4.887 4.887 0 0 1 1.16 3.467v1.151h-5.888a2.135 2.135 0 0 0 .694 1.257 2.066 2.066 0 0 0 1.389.457 2.662 2.662 0 0 0 2.2-.984l1.354 1.6a3.784 3.784 0 0 1-1.572 1.217 5.3 5.3 0 0 1-2.184.453Zm-.334-7.576q-1.3 0-1.547 1.723h2.988v-.229a1.467 1.467 0 0 0-.36-1.1 1.434 1.434 0 0 0-1.081-.394Zm11.285.571-.976-.07a1.752 1.752 0 0 0-1.793.879V165h-2.962v-9.51h2.777l.1 1.222a2.294 2.294 0 0 1 2.083-1.4 2.888 2.888 0 0 1 .826.105Zm4.957-5.045v2.364h1.564v2.057h-1.564v4.353a1.111 1.111 0 0 0 .193.747 1.037 1.037 0 0 0 .765.211 4.345 4.345 0 0 0 .738-.053v2.116a5.466 5.466 0 0 1-1.67.255 3.1 3.1 0 0 1-2.259-.721 2.954 2.954 0 0 1-.734-2.188v-4.72h-1.208v-2.057h1.208v-2.364Zm8.086 11.874a3.344 3.344 0 0 1-.281-.853 2.754 2.754 0 0 1-2.286 1.029 3.374 3.374 0 0 1-2.286-.813 2.588 2.588 0 0 1-.94-2.043 2.66 2.66 0 0 1 1.14-2.339 5.821 5.821 0 0 1 3.322-.791h.914v-.5q0-1.316-1.134-1.316a.927.927 0 0 0-1.055 1.042h-2.958a2.655 2.655 0 0 1 1.173-2.239 4.931 4.931 0 0 1 2.993-.86 4.323 4.323 0 0 1 2.874.888 3.086 3.086 0 0 1 1.081 2.432v4.21a4.311 4.311 0 0 0 .4 2V165Zm-1.853-1.934a1.652 1.652 0 0 0 .918-.237 1.487 1.487 0 0 0 .523-.536v-1.521h-.861q-1.547 0-1.547 1.389a.848.848 0 0 0 .267.655.986.986 0 0 0 .7.25ZM1039.862 218.658V223h-3.085v-12.8h5.106a5.948 5.948 0 0 1 2.6.541 4.074 4.074 0 0 1 1.749 1.538 4.2 4.2 0 0 1 .62 2.263 3.7 3.7 0 0 1-1.34 2.993 5.561 5.561 0 0 1-3.678 1.121Zm0-2.382h2.021a1.906 1.906 0 0 0 1.367-.448 1.665 1.665 0 0 0 .47-1.266 2.059 2.059 0 0 0-.483-1.433 1.712 1.712 0 0 0-1.318-.545h-2.057Zm8.007 1.881a5.613 5.613 0 0 1 .554-2.536 3.96 3.96 0 0 1 1.591-1.709 4.791 4.791 0 0 1 2.435-.6 4.373 4.373 0 0 1 3.366 1.323 5.076 5.076 0 0 1 1.23 3.6v.105a4.925 4.925 0 0 1-1.235 3.531 4.384 4.384 0 0 1-3.345 1.305 4.434 4.434 0 0 1-3.265-1.218 4.761 4.761 0 0 1-1.327-3.3Zm2.962.185a3.538 3.538 0 0 0 .413 1.934 1.376 1.376 0 0 0 1.222.615q1.582 0 1.617-2.435v-.3q0-2.558-1.635-2.558-1.485 0-1.608 2.206Zm13.269-2.171-.976-.07a1.752 1.752 0 0 0-1.793.879V223h-2.959v-9.51h2.777l.1 1.222a2.294 2.294 0 0 1 2.083-1.4 2.888 2.888 0 0 1 .826.105Zm4.957-5.045v2.364h1.567v2.057h-1.565v4.353a1.111 1.111 0 0 0 .193.747 1.037 1.037 0 0 0 .765.211 4.345 4.345 0 0 0 .738-.058v2.121a5.466 5.466 0 0 1-1.67.255 3.1 3.1 0 0 1-2.258-.721 2.954 2.954 0 0 1-.727-2.188v-4.72h-1.216v-2.057h1.216v-2.364Zm8.088 11.874a3.344 3.344 0 0 1-.281-.853 2.754 2.754 0 0 1-2.285 1.029 3.374 3.374 0 0 1-2.286-.813 2.588 2.588 0 0 1-.94-2.043 2.66 2.66 0 0 1 1.147-2.339 5.821 5.821 0 0 1 3.318-.791h.914v-.5q0-1.316-1.134-1.316a.927.927 0 0 0-1.055 1.039h-2.961a2.655 2.655 0 0 1 1.173-2.238 4.931 4.931 0 0 1 2.993-.86 4.323 4.323 0 0 1 2.874.888 3.086 3.086 0 0 1 1.078 2.434v4.21a4.311 4.311 0 0 0 .4 2V223Zm-1.854-1.934a1.652 1.652 0 0 0 .918-.237 1.487 1.487 0 0 0 .523-.536v-1.521h-.861q-1.547 0-1.547 1.389a.848.848 0 0 0 .272.655.986.986 0 0 0 .695.25Zm5.678-2.892a5.809 5.809 0 0 1 .976-3.56 3.211 3.211 0 0 1 2.725-1.3 2.731 2.731 0 0 1 2.145 1V209.5h2.971V223h-2.665l-.149-1.02a2.8 2.8 0 0 1-2.32 1.2 3.205 3.205 0 0 1-2.689-1.3 5.993 5.993 0 0 1-.995-3.705Zm2.962.185q0 2.531 1.477 2.531a1.458 1.458 0 0 0 1.406-.826v-3.621a1.419 1.419 0 0 0-1.39-.843q-1.371 0-1.485 2.215Zm12.893 4.641a3.344 3.344 0 0 1-.281-.853 2.754 2.754 0 0 1-2.286 1.029 3.374 3.374 0 0 1-2.285-.813 2.588 2.588 0 0 1-.94-2.043 2.66 2.66 0 0 1 1.143-2.338 5.821 5.821 0 0 1 3.325-.792h.914v-.5q0-1.316-1.134-1.316a.927.927 0 0 0-1.055 1.042h-2.965a2.655 2.655 0 0 1 1.173-2.239 4.931 4.931 0 0 1 2.993-.86 4.323 4.323 0 0 1 2.874.883 3.086 3.086 0 0 1 1.081 2.435v4.21a4.311 4.311 0 0 0 .4 2V223Zm-1.855-1.934a1.652 1.652 0 0 0 .918-.237 1.487 1.487 0 0 0 .523-.536v-1.521h-.861q-1.549 0-1.549 1.389a.848.848 0 0 0 .272.655.986.986 0 0 0 .697.25ZM1049.314 279.627h5.37V282h-8.455v-12.8h3.085Zm6.161-2.47a5.613 5.613 0 0 1 .554-2.536 3.96 3.96 0 0 1 1.591-1.709 4.791 4.791 0 0 1 2.435-.6 4.373 4.373 0 0 1 3.366 1.325 5.076 5.076 0 0 1 1.23 3.6v.105a4.925 4.925 0 0 1-1.234 3.529 4.384 4.384 0 0 1-3.345 1.305 4.434 4.434 0 0 1-3.261-1.217 4.761 4.761 0 0 1-1.327-3.3Zm2.962.185a3.538 3.538 0 0 0 .413 1.934 1.376 1.376 0 0 0 1.222.615q1.582 0 1.617-2.435v-.3q0-2.558-1.635-2.558-1.485 0-1.608 2.206Zm10.319-4.852.1 1.116a3.27 3.27 0 0 1 2.712-1.292 2.407 2.407 0 0 1 2.432 1.433 3.165 3.165 0 0 1 2.8-1.433q2.892 0 2.971 3.5V282h-2.971v-6a1.813 1.813 0 0 0-.246-1.063 1.048 1.048 0 0 0-.9-.334 1.4 1.4 0 0 0-1.31.782l.009.123V282h-2.969v-5.985a1.906 1.906 0 0 0-.237-1.081 1.045 1.045 0 0 0-.906-.334 1.42 1.42 0 0 0-1.3.782V282h-2.962v-9.51Zm12.331 4.667a5.613 5.613 0 0 1 .554-2.536 3.96 3.96 0 0 1 1.591-1.709 4.791 4.791 0 0 1 2.435-.6 4.373 4.373 0 0 1 3.366 1.323 5.076 5.076 0 0 1 1.23 3.6v.105a4.925 4.925 0 0 1-1.235 3.529 4.384 4.384 0 0 1-3.344 1.307 4.434 4.434 0 0 1-3.261-1.217 4.761 4.761 0 0 1-1.327-3.3Zm2.962.185a3.538 3.538 0 0 0 .413 1.934 1.376 1.376 0 0 0 1.222.615q1.582 0 1.617-2.435v-.3q-.001-2.556-1.635-2.556-1.485 0-1.608 2.206ZM1020.684 335.667a4.673 4.673 0 0 1-.721 2.36 4.35 4.35 0 0 1-1.85 1.586 6.3 6.3 0 0 1-2.72.563 5.025 5.025 0 0 1-3.973-1.644 6.786 6.786 0 0 1-1.45-4.641v-.633a7.746 7.746 0 0 1 .655-3.292 4.961 4.961 0 0 1 1.885-2.18 5.26 5.26 0 0 1 2.848-.769 5.516 5.516 0 0 1 3.742 1.228 4.844 4.844 0 0 1 1.61 3.379h-3.076a2.292 2.292 0 0 0-.589-1.679 2.422 2.422 0 0 0-1.687-.51 1.843 1.843 0 0 0-1.688.865 5.536 5.536 0 0 0-.562 2.751v.905a6.126 6.126 0 0 0 .514 2.927 1.882 1.882 0 0 0 1.771.879 2.369 2.369 0 0 0 1.626-.5 2.126 2.126 0 0 0 .6-1.591Zm.949-.51a5.613 5.613 0 0 1 .554-2.536 3.96 3.96 0 0 1 1.591-1.709 4.791 4.791 0 0 1 2.435-.6 4.373 4.373 0 0 1 3.366 1.323 5.076 5.076 0 0 1 1.23 3.6v.105a4.925 4.925 0 0 1-1.235 3.529 4.384 4.384 0 0 1-3.344 1.307 4.434 4.434 0 0 1-3.261-1.217 4.761 4.761 0 0 1-1.327-3.3Zm2.962.185a3.538 3.538 0 0 0 .413 1.934 1.376 1.376 0 0 0 1.222.615q1.582 0 1.617-2.435v-.3q0-2.558-1.635-2.558-1.485 0-1.608 2.206Zm10.239-4.852.1 1.116a3.225 3.225 0 0 1 2.716-1.292 2.713 2.713 0 0 1 2.219.888 4.226 4.226 0 0 1 .76 2.672V340h-2.971v-6a1.6 1.6 0 0 0-.29-1.059 1.342 1.342 0 0 0-1.057-.341 1.413 1.413 0 0 0-1.292.686V340h-2.962v-9.51Zm10.881-2.364v2.364h1.564v2.057h-1.564v4.353a1.111 1.111 0 0 0 .193.747 1.037 1.037 0 0 0 .765.211 4.345 4.345 0 0 0 .738-.053v2.116a5.466 5.466 0 0 1-1.67.255 3.1 3.1 0 0 1-2.259-.721 2.954 2.954 0 0 1-.729-2.188v-4.72h-1.213v-2.057h1.213v-2.364Zm8.485 5.045-.976-.07a1.752 1.752 0 0 0-1.793.879V340h-2.962v-9.51h2.777l.1 1.222a2.294 2.294 0 0 1 2.083-1.4 2.888 2.888 0 0 1 .826.105Zm6.158 6.829a3.344 3.344 0 0 1-.281-.853 2.754 2.754 0 0 1-2.285 1.029 3.374 3.374 0 0 1-2.285-.813 2.588 2.588 0 0 1-.94-2.043 2.66 2.66 0 0 1 1.143-2.338 5.821 5.821 0 0 1 3.321-.792h.914v-.5q0-1.316-1.134-1.316a.927.927 0 0 0-1.055 1.042h-2.962a2.655 2.655 0 0 1 1.173-2.239 4.931 4.931 0 0 1 2.993-.86 4.323 4.323 0 0 1 2.874.883 3.086 3.086 0 0 1 1.082 2.437v4.21a4.311 4.311 0 0 0 .4 2V340Zm-1.858-1.934a1.652 1.652 0 0 0 .918-.237 1.487 1.487 0 0 0 .523-.536v-1.521h-.861q-1.547 0-1.547 1.389a.848.848 0 0 0 .272.655.986.986 0 0 0 .695.25Zm14.883-2.751a5.735 5.735 0 0 1-1 3.538 3.2 3.2 0 0 1-2.691 1.323 2.742 2.742 0 0 1-2.153-.958v4.438h-2.962V330.49h2.768l.088.879a2.742 2.742 0 0 1 2.241-1.055 3.224 3.224 0 0 1 2.733 1.3 5.805 5.805 0 0 1 .976 3.564Zm-2.962-.184q0-2.531-1.476-2.531a1.394 1.394 0 0 0-1.406.756v3.744a1.439 1.439 0 0 0 1.424.791q1.415 0 1.459-2.443Zm3.894.026a5.613 5.613 0 0 1 .554-2.536 3.96 3.96 0 0 1 1.59-1.709 4.791 4.791 0 0 1 2.435-.6 4.373 4.373 0 0 1 3.366 1.325 5.076 5.076 0 0 1 1.23 3.6v.105a4.925 4.925 0 0 1-1.235 3.529 4.384 4.384 0 0 1-3.343 1.305 4.434 4.434 0 0 1-3.261-1.218 4.761 4.761 0 0 1-1.327-3.3Zm2.962.185a3.538 3.538 0 0 0 .413 1.933 1.376 1.376 0 0 0 1.222.615q1.582 0 1.617-2.435v-.3q0-2.558-1.635-2.558-1.485 0-1.608 2.206Zm13.271-2.171-.976-.07a1.752 1.752 0 0 0-1.793.879V340h-2.961v-9.51h2.782l.1 1.222a2.294 2.294 0 0 1 2.083-1.4 2.888 2.888 0 0 1 .826.105Zm4.957-5.045v2.364h1.565v2.057h-1.565v4.353a1.111 1.111 0 0 0 .193.747 1.037 1.037 0 0 0 .765.211 4.345 4.345 0 0 0 .737-.058v2.121a5.466 5.466 0 0 1-1.67.255 3.1 3.1 0 0 1-2.259-.721 2.954 2.954 0 0 1-.729-2.188v-4.72h-1.211v-2.057h1.213v-2.364Zm8.086 11.874a3.344 3.344 0 0 1-.281-.853 2.754 2.754 0 0 1-2.285 1.029 3.374 3.374 0 0 1-2.285-.813 2.588 2.588 0 0 1-.94-2.043 2.66 2.66 0 0 1 1.143-2.338 5.821 5.821 0 0 1 3.322-.791h.914v-.5q0-1.316-1.134-1.316a.927.927 0 0 0-1.055 1.038h-2.962a2.655 2.655 0 0 1 1.172-2.238 4.931 4.931 0 0 1 2.993-.86 4.323 4.323 0 0 1 2.874.888 3.086 3.086 0 0 1 1.081 2.435v4.21a4.311 4.311 0 0 0 .4 2V340Zm-1.854-1.934a1.652 1.652 0 0 0 .918-.237 1.487 1.487 0 0 0 .523-.536v-1.521h-.861q-1.547 0-1.547 1.389a.848.848 0 0 0 .272.655.986.986 0 0 0 .695.25Zm5.678-2.892a5.809 5.809 0 0 1 .976-3.56 3.211 3.211 0 0 1 2.725-1.3 2.731 2.731 0 0 1 2.145 1V326.5h2.969V340h-2.663l-.149-1.02a2.8 2.8 0 0 1-2.318 1.196 3.205 3.205 0 0 1-2.689-1.3 5.993 5.993 0 0 1-.996-3.701Zm2.962.185q0 2.531 1.477 2.531a1.458 1.458 0 0 0 1.406-.826v-3.621a1.419 1.419 0 0 0-1.389-.843q-1.371 0-1.485 2.215ZM1123.27 340a3.344 3.344 0 0 1-.281-.853 2.754 2.754 0 0 1-2.289 1.029 3.374 3.374 0 0 1-2.285-.813 2.588 2.588 0 0 1-.94-2.043 2.66 2.66 0 0 1 1.143-2.338 5.821 5.821 0 0 1 3.322-.791h.914v-.5q0-1.316-1.134-1.316a.927.927 0 0 0-1.055 1.042h-2.958a2.655 2.655 0 0 1 1.173-2.242 4.931 4.931 0 0 1 2.993-.86 4.323 4.323 0 0 1 2.874.888 3.086 3.086 0 0 1 1.081 2.435v4.21a4.311 4.311 0 0 0 .4 2V340Zm-1.854-1.934a1.652 1.652 0 0 0 .918-.237 1.487 1.487 0 0 0 .523-.536v-1.521H1122q-1.547 0-1.547 1.389a.848.848 0 0 0 .272.655.986.986 0 0 0 .691.25ZM1060.27 392.9h-4.97v5.1h-3.09v-12.8h8.561v2.382h-5.471v2.944h4.97Zm6.706 5.1a3.344 3.344 0 0 1-.281-.853 2.754 2.754 0 0 1-2.285 1.029 3.374 3.374 0 0 1-2.285-.813 2.588 2.588 0 0 1-.94-2.043 2.66 2.66 0 0 1 1.142-2.339 5.821 5.821 0 0 1 3.322-.791h.914v-.5q0-1.316-1.134-1.316a.927.927 0 0 0-1.054 1.039h-2.962a2.655 2.655 0 0 1 1.173-2.238 4.931 4.931 0 0 1 2.993-.86 4.323 4.323 0 0 1 2.874.885 3.086 3.086 0 0 1 1.081 2.437v4.21a4.311 4.311 0 0 0 .4 2V398Zm-1.854-1.934a1.652 1.652 0 0 0 .918-.237 1.487 1.487 0 0 0 .523-.536v-1.521h-.863q-1.547 0-1.547 1.389a.848.848 0 0 0 .272.655.986.986 0 0 0 .697.25Zm9.237-7.576v9.835a3.452 3.452 0 0 1-.967 2.6 3.714 3.714 0 0 1-2.672.914 6.308 6.308 0 0 1-1.4-.149v-2.24a5.667 5.667 0 0 0 .835.079 1.084 1.084 0 0 0 1.233-1.221v-9.818Zm-3.19-2.452a1.322 1.322 0 0 1 .456-1.038 1.724 1.724 0 0 1 1.187-.4 1.724 1.724 0 0 1 1.188.4 1.322 1.322 0 0 1 .457 1.037 1.322 1.322 0 0 1-.457 1.038 1.724 1.724 0 0 1-1.187.4 1.724 1.724 0 0 1-1.187-.4 1.322 1.322 0 0 1-.458-1.037ZM1081.39 398a3.344 3.344 0 0 1-.281-.853 2.754 2.754 0 0 1-2.285 1.029 3.374 3.374 0 0 1-2.285-.813 2.588 2.588 0 0 1-.939-2.044 2.66 2.66 0 0 1 1.141-2.338 5.821 5.821 0 0 1 3.322-.791h.914v-.5q0-1.316-1.134-1.316a.927.927 0 0 0-1.055 1.042h-2.961a2.655 2.655 0 0 1 1.173-2.241 4.931 4.931 0 0 1 2.993-.86 4.323 4.323 0 0 1 2.874.888 3.086 3.086 0 0 1 1.081 2.435v4.21a4.311 4.311 0 0 0 .4 2V398Zm-1.854-1.934a1.652 1.652 0 0 0 .918-.237 1.487 1.487 0 0 0 .523-.536v-1.521h-.861q-1.547 0-1.547 1.389a.848.848 0 0 0 .272.655.986.986 0 0 0 .695.25ZM1045.03 451.667a4.673 4.673 0 0 1-.721 2.36 4.35 4.35 0 0 1-1.85 1.586 6.3 6.3 0 0 1-2.72.563 5.025 5.025 0 0 1-3.973-1.644 6.786 6.786 0 0 1-1.45-4.641v-.633a7.746 7.746 0 0 1 .655-3.292 4.961 4.961 0 0 1 1.885-2.18 5.26 5.26 0 0 1 2.848-.769 5.516 5.516 0 0 1 3.744 1.226 4.844 4.844 0 0 1 1.608 3.379h-3.076a2.292 2.292 0 0 0-.589-1.679 2.422 2.422 0 0 0-1.687-.51 1.843 1.843 0 0 0-1.687.861 5.536 5.536 0 0 0-.562 2.751v.905a6.126 6.126 0 0 0 .514 2.927 1.882 1.882 0 0 0 1.771.879 2.369 2.369 0 0 0 1.626-.5 2.126 2.126 0 0 0 .6-1.591Zm7.075-2.5-.976-.07a1.752 1.752 0 0 0-1.793.879V456h-2.962v-9.51h2.777l.1 1.222a2.294 2.294 0 0 1 2.083-1.4 2.888 2.888 0 0 1 .826.105Zm5.5 7a4.889 4.889 0 0 1-3.542-1.305 4.507 4.507 0 0 1-1.354-3.4v-.246a5.84 5.84 0 0 1 .541-2.575 3.955 3.955 0 0 1 1.58-1.716 4.763 4.763 0 0 1 2.461-.611 4.117 4.117 0 0 1 3.164 1.244 4.887 4.887 0 0 1 1.16 3.467v1.151h-5.889a2.135 2.135 0 0 0 .694 1.257 2.066 2.066 0 0 0 1.389.457 2.662 2.662 0 0 0 2.2-.984l1.354 1.6a3.784 3.784 0 0 1-1.572 1.217 5.3 5.3 0 0 1-2.184.453Zm-.332-7.567q-1.3 0-1.547 1.723h2.988v-.229a1.467 1.467 0 0 0-.36-1.1 1.434 1.434 0 0 0-1.081-.394Zm-.035-6.108h3.129l-2.443 2.76h-2.417Zm5.194 8.684a5.809 5.809 0 0 1 .976-3.56 3.211 3.211 0 0 1 2.725-1.3 2.731 2.731 0 0 1 2.145 1V442.5h2.97V456h-2.664l-.149-1.02a2.8 2.8 0 0 1-2.32 1.2 3.205 3.205 0 0 1-2.689-1.3 5.993 5.993 0 0 1-.994-3.705Zm2.962.185q0 2.531 1.477 2.531a1.458 1.458 0 0 0 1.406-.828v-3.621a1.419 1.419 0 0 0-1.389-.843q-1.371 0-1.488 2.214Zm10.661 4.639h-2.971v-9.51h2.971Zm-3.146-11.962a1.322 1.322 0 0 1 .457-1.038 1.724 1.724 0 0 1 1.187-.4 1.724 1.724 0 0 1 1.187.4 1.322 1.322 0 0 1 .46 1.038 1.322 1.322 0 0 1-.457 1.037 1.724 1.724 0 0 1-1.187.4 1.724 1.724 0 0 1-1.187-.4 1.322 1.322 0 0 1-.46-1.037Zm8.42.088v2.364h1.564v2.057h-1.564v4.353a1.111 1.111 0 0 0 .193.747 1.037 1.037 0 0 0 .765.211 4.345 4.345 0 0 0 .738-.053v2.116a5.466 5.466 0 0 1-1.67.255 3.1 3.1 0 0 1-2.255-.721 2.954 2.954 0 0 1-.729-2.188v-4.72h-1.217v-2.057h1.213v-2.364Zm2.091 7.031a5.613 5.613 0 0 1 .554-2.536 3.96 3.96 0 0 1 1.591-1.709 4.791 4.791 0 0 1 2.435-.598 4.373 4.373 0 0 1 3.366 1.323 5.076 5.076 0 0 1 1.23 3.6v.105a4.925 4.925 0 0 1-1.235 3.529 4.384 4.384 0 0 1-3.344 1.305 4.434 4.434 0 0 1-3.261-1.217 4.761 4.761 0 0 1-1.327-3.3Zm2.962.185a3.538 3.538 0 0 0 .418 1.933 1.376 1.376 0 0 0 1.222.615q1.582 0 1.617-2.435v-.3q-.005-2.555-1.639-2.555-1.485 0-1.608 2.206Zm12.5 1.986a.684.684 0 0 0-.4-.606 6.016 6.016 0 0 0-1.5-.475 6.853 6.853 0 0 1-1.828-.647 3.062 3.062 0 0 1-1.1-.971 2.319 2.319 0 0 1-.378-1.31 2.628 2.628 0 0 1 1.081-2.158 4.453 4.453 0 0 1 2.83-.848 4.934 4.934 0 0 1 3.023.853 2.666 2.666 0 0 1 1.143 2.241h-2.969q0-1.143-1.2-1.143a1.194 1.194 0 0 0-.782.259.8.8 0 0 0-.316.646.737.737 0 0 0 .387.642 3.654 3.654 0 0 0 1.235.4 10.671 10.671 0 0 1 1.49.378 2.706 2.706 0 0 1 2.139 2.651 2.491 2.491 0 0 1-1.156 2.118 5.068 5.068 0 0 1-2.993.817 5.172 5.172 0 0 1-2.18-.439 3.645 3.645 0 0 1-1.494-1.2 2.707 2.707 0 0 1-.536-1.591h2.769a1.145 1.145 0 0 0 .439.962 1.808 1.808 0 0 0 1.081.3 1.422 1.422 0 0 0 .91-.246.787.787 0 0 0 .303-.633ZM1045.68 512.418a4.96 4.96 0 0 1-2.08 1.274 8.984 8.984 0 0 1-3.006.483 5.36 5.36 0 0 1-4.017-1.538 6.226 6.226 0 0 1-1.608-4.28l-.009-1.107a7.637 7.637 0 0 1 .668-3.3 4.96 4.96 0 0 1 1.912-2.171 5.407 5.407 0 0 1 2.878-.76 5.669 5.669 0 0 1 3.713 1.094 4.637 4.637 0 0 1 1.542 3.265h-2.973a2.426 2.426 0 0 0-.686-1.529 2.212 2.212 0 0 0-1.494-.457 2.013 2.013 0 0 0-1.793.984 5.256 5.256 0 0 0-.642 2.813v.773a5.145 5.145 0 0 0 .655 2.878 2.316 2.316 0 0 0 2.06.96 2.592 2.592 0 0 0 1.8-.533v-1.987h-2.145v-2.118h5.229Zm7.32.554a3.054 3.054 0 0 1-2.54 1.2 3 3 0 0 1-2.369-.91 3.826 3.826 0 0 1-.8-2.615v-6.157h2.962v6.179a1.065 1.065 0 0 0 1.187 1.222 1.548 1.548 0 0 0 1.45-.729v-6.672h2.979V514h-2.777Zm9.845 1.028a3.344 3.344 0 0 1-.281-.853 2.754 2.754 0 0 1-2.285 1.029 3.374 3.374 0 0 1-2.285-.813 2.588 2.588 0 0 1-.94-2.043 2.66 2.66 0 0 1 1.146-2.339 5.821 5.821 0 0 1 3.318-.791h.914v-.5q0-1.316-1.134-1.316a.927.927 0 0 0-1.054 1.039h-2.962a2.655 2.655 0 0 1 1.173-2.238 4.931 4.931 0 0 1 2.993-.86 4.323 4.323 0 0 1 2.874.885 3.086 3.086 0 0 1 1.078 2.437v4.21a4.311 4.311 0 0 0 .4 2V514Zm-1.854-1.934a1.652 1.652 0 0 0 .918-.237 1.487 1.487 0 0 0 .523-.536v-1.521h-.861q-1.547 0-1.547 1.389a.848.848 0 0 0 .272.655.986.986 0 0 0 .695.25Zm11.8-4.9-.972-.066a1.752 1.752 0 0 0-1.793.879V514h-2.962v-9.51h2.777l.1 1.222a2.294 2.294 0 0 1 2.083-1.4 2.888 2.888 0 0 1 .826.105Zm.527 2a5.809 5.809 0 0 1 .982-3.551 3.211 3.211 0 0 1 2.725-1.3 2.731 2.731 0 0 1 2.145 1V500.5h2.971V514h-2.667l-.149-1.02a2.8 2.8 0 0 1-2.325 1.196 3.205 3.205 0 0 1-2.689-1.3 5.993 5.993 0 0 1-.989-3.701Zm2.962.185q0 2.531 1.477 2.531a1.458 1.458 0 0 0 1.406-.826v-3.613a1.419 1.419 0 0 0-1.385-.843q-1.371 0-1.485 2.215Zm12.897 4.649a3.344 3.344 0 0 1-.277-.853 2.754 2.754 0 0 1-2.289 1.029 3.374 3.374 0 0 1-2.285-.813 2.588 2.588 0 0 1-.94-2.043 2.66 2.66 0 0 1 1.143-2.338 5.821 5.821 0 0 1 3.321-.792h.914v-.5q0-1.316-1.134-1.316a.927.927 0 0 0-1.055 1.042h-2.961a2.655 2.655 0 0 1 1.173-2.239 4.931 4.931 0 0 1 2.993-.86 4.323 4.323 0 0 1 2.874.888 3.086 3.086 0 0 1 1.081 2.435v4.21a4.311 4.311 0 0 0 .4 2v.15Zm-1.854-1.934a1.652 1.652 0 0 0 .918-.237 1.487 1.487 0 0 0 .523-.536v-1.521h-.864q-1.547 0-1.547 1.389a.848.848 0 0 0 .272.655.986.986 0 0 0 .698.25Zm11.03-.738a.684.684 0 0 0-.4-.606 6.016 6.016 0 0 0-1.5-.475 6.853 6.853 0 0 1-1.827-.647 3.062 3.062 0 0 1-1.1-.971 2.319 2.319 0 0 1-.378-1.31 2.628 2.628 0 0 1 1.081-2.158 4.453 4.453 0 0 1 2.83-.848 4.934 4.934 0 0 1 3.023.853 2.666 2.666 0 0 1 1.143 2.241h-2.969q0-1.143-1.2-1.143a1.194 1.194 0 0 0-.782.259.8.8 0 0 0-.316.646.737.737 0 0 0 .387.642 3.654 3.654 0 0 0 1.235.4 10.671 10.671 0 0 1 1.49.378 2.706 2.706 0 0 1 2.139 2.651 2.491 2.491 0 0 1-1.155 2.118 5.068 5.068 0 0 1-2.993.817 5.172 5.172 0 0 1-2.18-.439 3.645 3.645 0 0 1-1.494-1.2 2.707 2.707 0 0 1-.536-1.591h2.769a1.145 1.145 0 0 0 .439.962 1.808 1.808 0 0 0 1.081.3 1.422 1.422 0 0 0 .91-.246.787.787 0 0 0 .303-.633Z" fill="#12263f"/><g transform="translate(1137 32)"><circle cx="10.5" cy="10.5" r="10.5" fill="#fff"/><circle cx="8.5" cy="8.5" r="8.5" transform="translate(2 2)" fill="#26ccda"/><path d="M9.309 6h2.523v3.52h3.321v2.347h-3.321v3.743H9.309v-3.743H6V9.52h3.309Z" fill="#12263f"/></g><g transform="translate(1137 90)"><circle cx="10.5" cy="10.5" r="10.5" fill="#fff"/><circle cx="8.5" cy="8.5" r="8.5" transform="translate(2 2)" fill="#26ccda"/><path d="M9.309 6h2.523v3.52h3.321v2.347h-3.321v3.743H9.309v-3.743H6V9.52h3.309Z" fill="#12263f"/></g><g transform="translate(1137 148)"><circle cx="10.5" cy="10.5" r="10.5" fill="#fff"/><circle cx="8.5" cy="8.5" r="8.5" transform="translate(2 2)" fill="#26ccda"/><path d="M9.309 6h2.523v3.52h3.321v2.347h-3.321v3.743H9.309v-3.743H6V9.52h3.309Z" fill="#12263f"/></g><g transform="translate(1137 206)"><circle cx="10.5" cy="10.5" r="10.5" fill="#fff"/><circle cx="8.5" cy="8.5" r="8.5" transform="translate(2 2)" fill="#26ccda"/><path d="M9.309 6h2.523v3.52h3.321v2.347h-3.321v3.743H9.309v-3.743H6V9.52h3.309Z" fill="#12263f"/></g><g transform="translate(1137 265)"><circle cx="10.5" cy="10.5" r="10.5" fill="#fff"/><circle cx="8.5" cy="8.5" r="8.5" transform="translate(2 2)" fill="#26ccda"/><path d="M9.309 6h2.523v3.52h3.321v2.347h-3.321v3.743H9.309v-3.743H6V9.52h3.309Z" fill="#12263f"/></g><g transform="translate(1137 323)"><circle cx="10.5" cy="10.5" r="10.5" fill="#fff"/><circle cx="8.5" cy="8.5" r="8.5" transform="translate(2 2)" fill="#26ccda"/><path d="M9.309 6h2.523v3.52h3.321v2.347h-3.321v3.743H9.309v-3.743H6V9.52h3.309Z" fill="#12263f"/></g><g transform="translate(1137 381)"><circle cx="10.5" cy="10.5" r="10.5" fill="#fff"/><circle cx="8.5" cy="8.5" r="8.5" transform="translate(2 2)" fill="#26ccda"/><path d="M9.309 6h2.523v3.52h3.321v2.347h-3.321v3.743H9.309v-3.743H6V9.52h3.309Z" fill="#12263f"/></g><g transform="translate(1137 439)"><circle cx="10.5" cy="10.5" r="10.5" fill="#fff"/><circle cx="8.5" cy="8.5" r="8.5" transform="translate(2 2)" fill="#26ccda"/><path d="M9.309 6h2.523v3.52h3.321v2.347h-3.321v3.743H9.309v-3.743H6V9.52h3.309Z" fill="#12263f"/></g><g transform="translate(1137 497)"><circle cx="10.5" cy="10.5" r="10.5" fill="#fff"/><circle cx="8.5" cy="8.5" r="8.5" transform="translate(2 2)" fill="#26ccda"/><path d="M9.309 6h2.523v3.52h3.321v2.347h-3.321v3.743H9.309v-3.743H6V9.52h3.309Z" fill="#12263f"/></g><g transform="translate(91)" fill="#f2e7b6" stroke="#fdd835" stroke-width="2"><rect width="173" height="45" rx="7" stroke="none"/><rect x="1" y="1" width="171" height="43" rx="6" fill="none"/></g><g transform="translate(91 56)" fill="#f2e7b6" stroke="#fdd835" stroke-width="2"><rect width="173" height="45" rx="7" stroke="none"/><rect x="1" y="1" width="171" height="43" rx="6" fill="none"/></g><g transform="translate(91 112)" fill="#f2e7b6" stroke="#fdd835" stroke-width="2"><rect width="173" height="45" rx="7" stroke="none"/><rect x="1" y="1" width="171" height="43" rx="6" fill="none"/></g><g transform="translate(91 168)" fill="#f2e7b6" stroke="#fdd835" stroke-width="2"><rect width="173" height="45" rx="7" stroke="none"/><rect x="1" y="1" width="171" height="43" rx="6" fill="none"/></g><g transform="translate(91 224)" fill="#f2e7b6" stroke="#fdd835" stroke-width="2"><rect width="173" height="45" rx="7" stroke="none"/><rect x="1" y="1" width="171" height="43" rx="6" fill="none"/></g><g transform="translate(91 280)" fill="#f2e7b6" stroke="#fdd835" stroke-width="2"><rect width="173" height="45" rx="7" stroke="none"/><rect x="1" y="1" width="171" height="43" rx="6" fill="none"/></g><g transform="translate(91 336)" fill="#f2e7b6" stroke="#fdd835" stroke-width="2"><rect width="173" height="45" rx="7" stroke="none"/><rect x="1" y="1" width="171" height="43" rx="6" fill="none"/></g><g transform="translate(91 392)" fill="#f2e7b6" stroke="#fdd835" stroke-width="2"><rect width="173" height="45" rx="7" stroke="none"/><rect x="1" y="1" width="171" height="43" rx="6" fill="none"/></g><g transform="translate(91 448)" fill="#f2e7b6" stroke="#fdd835" stroke-width="2"><rect width="173" height="45" rx="7" stroke="none"/><rect x="1" y="1" width="171" height="43" rx="6" fill="none"/></g><g transform="translate(91 504)" fill="#f2e7b6" stroke="#fdd835" stroke-width="2"><rect width="173" height="45" rx="7" stroke="none"/><rect x="1" y="1" width="171" height="43" rx="6" fill="none"/></g><path d="M153.962 24.658V29h-3.085V16.2h5.106a5.948 5.948 0 0 1 2.6.541 4.074 4.074 0 0 1 1.749 1.538 4.2 4.2 0 0 1 .62 2.263 3.7 3.7 0 0 1-1.34 2.993 5.561 5.561 0 0 1-3.678 1.121Zm0-2.382h2.021a1.906 1.906 0 0 0 1.367-.448 1.665 1.665 0 0 0 .47-1.266 2.059 2.059 0 0 0-.483-1.433 1.712 1.712 0 0 0-1.318-.545h-2.057ZM167.717 29a3.344 3.344 0 0 1-.281-.853 2.754 2.754 0 0 1-2.286 1.029 3.374 3.374 0 0 1-2.285-.813 2.588 2.588 0 0 1-.94-2.043 2.66 2.66 0 0 1 1.143-2.338 5.821 5.821 0 0 1 3.322-.792h.914v-.5q0-1.316-1.134-1.316a.927.927 0 0 0-1.055 1.042h-2.962a2.655 2.655 0 0 1 1.173-2.239 4.931 4.931 0 0 1 2.993-.86 4.323 4.323 0 0 1 2.874.883 3.086 3.086 0 0 1 1.081 2.437v4.21a4.311 4.311 0 0 0 .4 2V29Zm-1.854-1.934a1.652 1.652 0 0 0 .918-.237 1.487 1.487 0 0 0 .523-.536v-1.521h-.861q-1.547 0-1.547 1.389a.848.848 0 0 0 .272.655.986.986 0 0 0 .694.25ZM166.6 15.5h3.129l-2.443 2.76h-2.417Zm4.966 8.675a6.421 6.421 0 0 1 .475-2.549 3.821 3.821 0 0 1 1.359-1.709 3.591 3.591 0 0 1 2.065-.6 2.855 2.855 0 0 1 2.32 1l.105-.826h2.694v9.149a4.009 4.009 0 0 1-.584 2.184 3.75 3.75 0 0 1-1.692 1.424 6.219 6.219 0 0 1-2.566.5 5.365 5.365 0 0 1-2.026-.4 3.657 3.657 0 0 1-1.5-1.028l1.24-1.74a2.716 2.716 0 0 0 2.18.976 1.764 1.764 0 0 0 1.964-2.022v-.3a2.781 2.781 0 0 1-2.153.94 3.437 3.437 0 0 1-2.808-1.33 5.517 5.517 0 0 1-1.073-3.564Zm2.971.185a3.383 3.383 0 0 0 .439 1.85 1.386 1.386 0 0 0 1.23.681 1.573 1.573 0 0 0 1.394-.642v-4a1.534 1.534 0 0 0-1.38-.65 1.4 1.4 0 0 0-1.239.708 3.858 3.858 0 0 0-.444 2.052ZM185.392 29h-2.971v-9.51h2.971Zm-3.147-11.962A1.322 1.322 0 0 1 182.7 16a1.724 1.724 0 0 1 1.187-.4 1.724 1.724 0 0 1 1.187.4 1.322 1.322 0 0 1 .457 1.037 1.322 1.322 0 0 1-.457 1.037 1.724 1.724 0 0 1-1.187.4 1.724 1.724 0 0 1-1.187-.4 1.322 1.322 0 0 1-.455-1.036Zm7.69 2.452.1 1.116a3.225 3.225 0 0 1 2.716-1.292 2.713 2.713 0 0 1 2.219.888 4.226 4.226 0 0 1 .76 2.672V29h-2.973v-6a1.6 1.6 0 0 0-.29-1.059 1.342 1.342 0 0 0-1.055-.341 1.413 1.413 0 0 0-1.292.686V29h-2.962v-9.51ZM202.724 29a3.344 3.344 0 0 1-.281-.853 2.754 2.754 0 0 1-2.286 1.029 3.374 3.374 0 0 1-2.285-.813 2.588 2.588 0 0 1-.94-2.043 2.66 2.66 0 0 1 1.143-2.338 5.821 5.821 0 0 1 3.325-.792h.914v-.5q0-1.316-1.134-1.316a.927.927 0 0 0-1.055 1.042h-2.965a2.655 2.655 0 0 1 1.173-2.239 4.931 4.931 0 0 1 2.993-.86 4.323 4.323 0 0 1 2.874.883 3.086 3.086 0 0 1 1.081 2.435v4.21a4.311 4.311 0 0 0 .4 2V29Zm-1.855-1.934a1.652 1.652 0 0 0 .918-.237 1.487 1.487 0 0 0 .523-.536v-1.521h-.861q-1.547 0-1.547 1.389a.848.848 0 0 0 .272.655.986.986 0 0 0 .695.25ZM117.795 80.667a4.673 4.673 0 0 1-.721 2.36 4.35 4.35 0 0 1-1.85 1.586 6.3 6.3 0 0 1-2.724.563 5.025 5.025 0 0 1-3.973-1.644 6.786 6.786 0 0 1-1.45-4.641v-.633a7.746 7.746 0 0 1 .655-3.292 4.961 4.961 0 0 1 1.885-2.18 5.26 5.26 0 0 1 2.848-.769 5.516 5.516 0 0 1 3.744 1.226 4.844 4.844 0 0 1 1.608 3.379h-3.076a2.292 2.292 0 0 0-.589-1.679 2.422 2.422 0 0 0-1.687-.51 1.843 1.843 0 0 0-1.687.861 5.536 5.536 0 0 0-.562 2.751v.905a6.126 6.126 0 0 0 .514 2.927 1.882 1.882 0 0 0 1.771.879 2.369 2.369 0 0 0 1.626-.5 2.126 2.126 0 0 0 .6-1.591Zm6.987 3.3a3.054 3.054 0 0 1-2.54 1.2 3 3 0 0 1-2.369-.91 3.826 3.826 0 0 1-.8-2.615V75.49h2.962v6.179a1.065 1.065 0 0 0 1.187 1.222 1.548 1.548 0 0 0 1.45-.729V75.49h2.979V85h-2.781Zm9.088 1.2a4.889 4.889 0 0 1-3.542-1.305 4.507 4.507 0 0 1-1.354-3.4v-.246a5.84 5.84 0 0 1 .541-2.575 3.955 3.955 0 0 1 1.578-1.727 4.763 4.763 0 0 1 2.461-.611 4.117 4.117 0 0 1 3.164 1.244 4.887 4.887 0 0 1 1.16 3.467v1.151h-5.889a2.135 2.135 0 0 0 .694 1.257 2.066 2.066 0 0 0 1.389.457 2.662 2.662 0 0 0 2.2-.984l1.354 1.6a3.784 3.784 0 0 1-1.572 1.228 5.3 5.3 0 0 1-2.184.453Zm-.334-7.567q-1.3 0-1.547 1.723h2.988v-.229a1.467 1.467 0 0 0-.36-1.1 1.434 1.434 0 0 0-1.081-.394Zm11.285.571-.976-.07a1.752 1.752 0 0 0-1.793.879V85h-2.962v-9.51h2.777l.1 1.222a2.294 2.294 0 0 1 2.083-1.4 2.888 2.888 0 0 1 .826.105Zm9.9 2.145a5.735 5.735 0 0 1-1 3.538 3.2 3.2 0 0 1-2.695 1.322 2.742 2.742 0 0 1-2.153-.958v4.438h-2.962V75.49h2.769l.088.879a2.742 2.742 0 0 1 2.241-1.055 3.224 3.224 0 0 1 2.733 1.3 5.805 5.805 0 0 1 .976 3.564Zm-2.962-.185q0-2.531-1.477-2.531a1.394 1.394 0 0 0-1.406.756V82.1a1.439 1.439 0 0 0 1.424.791q1.415 0 1.459-2.443Zm3.894.026a5.613 5.613 0 0 1 .547-2.535 3.96 3.96 0 0 1 1.591-1.709 4.791 4.791 0 0 1 2.435-.6 4.373 4.373 0 0 1 3.366 1.323 5.076 5.076 0 0 1 1.23 3.6v.105a4.925 4.925 0 0 1-1.232 3.53 4.384 4.384 0 0 1-3.344 1.305 4.434 4.434 0 0 1-3.261-1.217 4.761 4.761 0 0 1-1.327-3.3Zm2.962.185a3.538 3.538 0 0 0 .413 1.934 1.376 1.376 0 0 0 1.222.615q1.582 0 1.617-2.435v-.3q0-2.558-1.635-2.558-1.485 0-1.608 2.206Zm11.628-.167a5.809 5.809 0 0 1 .976-3.56 3.211 3.211 0 0 1 2.725-1.3 2.731 2.731 0 0 1 2.145 1V71.5h2.966V85h-2.663l-.149-1.02a2.8 2.8 0 0 1-2.32 1.2 3.205 3.205 0 0 1-2.689-1.3 5.993 5.993 0 0 1-.995-3.705Zm2.962.185q0 2.531 1.477 2.531a1.458 1.458 0 0 0 1.406-.826v-3.622a1.419 1.419 0 0 0-1.388-.843q-1.371 0-1.485 2.215Zm12.134 4.816a4.889 4.889 0 0 1-3.539-1.305 4.507 4.507 0 0 1-1.354-3.4v-.246a5.84 5.84 0 0 1 .541-2.575 3.955 3.955 0 0 1 1.575-1.725 4.763 4.763 0 0 1 2.461-.611 4.117 4.117 0 0 1 3.164 1.244 4.887 4.887 0 0 1 1.16 3.467v1.151h-5.889a2.135 2.135 0 0 0 .694 1.257 2.066 2.066 0 0 0 1.389.457 2.662 2.662 0 0 0 2.2-.984l1.354 1.6a3.784 3.784 0 0 1-1.572 1.217 5.3 5.3 0 0 1-2.184.453ZM185 77.6q-1.3 0-1.547 1.723h2.993v-.229a1.467 1.467 0 0 0-.36-1.1A1.434 1.434 0 0 0 185 77.6Zm13.145 7.4h-2.971V71.5h2.971Zm7.181 0a3.344 3.344 0 0 1-.281-.853 2.754 2.754 0 0 1-2.286 1.029 3.374 3.374 0 0 1-2.285-.813 2.588 2.588 0 0 1-.94-2.043 2.66 2.66 0 0 1 1.143-2.338A5.821 5.821 0 0 1 204 79.19h.914v-.5q0-1.316-1.134-1.316a.927.927 0 0 0-1.055 1.042h-2.963a2.655 2.655 0 0 1 1.173-2.239 4.931 4.931 0 0 1 2.993-.86 4.323 4.323 0 0 1 2.872.883 3.086 3.086 0 0 1 1.081 2.435v4.21a4.311 4.311 0 0 0 .4 2V85Zm-1.855-1.934a1.652 1.652 0 0 0 .918-.237 1.487 1.487 0 0 0 .523-.536v-1.521h-.861q-1.547 0-1.547 1.389a.848.848 0 0 0 .272.655.986.986 0 0 0 .695.25Zm10.16-2.909a5.613 5.613 0 0 1 .554-2.536 3.96 3.96 0 0 1 1.591-1.709 4.791 4.791 0 0 1 2.435-.6 4.373 4.373 0 0 1 3.366 1.323 5.076 5.076 0 0 1 1.23 3.6v.105a4.925 4.925 0 0 1-1.235 3.529 4.384 4.384 0 0 1-3.344 1.307 4.434 4.434 0 0 1-3.261-1.217 4.761 4.761 0 0 1-1.327-3.3Zm2.962.185a3.538 3.538 0 0 0 .413 1.934 1.376 1.376 0 0 0 1.222.615q1.582 0 1.617-2.435v-.3q0-2.558-1.635-2.558-1.485 0-1.608 2.206Zm16.347-.018a5.8 5.8 0 0 1-.967 3.595 3.238 3.238 0 0 1-2.724 1.257 2.81 2.81 0 0 1-2.338-1.152l-.123.976h-2.654V71.5h2.966v4.755a2.711 2.711 0 0 1 2.136-.94 3.239 3.239 0 0 1 2.742 1.274 5.826 5.826 0 0 1 .967 3.586Zm-2.97-.189a3.866 3.866 0 0 0-.37-1.952 1.229 1.229 0 0 0-1.116-.583 1.418 1.418 0 0 0-1.389.763v3.773a1.426 1.426 0 0 0 1.406.755 1.258 1.258 0 0 0 1.327-1.018 7.309 7.309 0 0 0 .142-1.738ZM240 78.171l-.976-.07a1.752 1.752 0 0 0-1.793.879V85h-2.963v-9.51h2.777l.1 1.222a2.294 2.294 0 0 1 2.083-1.4 2.888 2.888 0 0 1 .826.105ZM246.159 85a3.344 3.344 0 0 1-.281-.853 2.754 2.754 0 0 1-2.285 1.029 3.374 3.374 0 0 1-2.285-.813 2.588 2.588 0 0 1-.94-2.043 2.66 2.66 0 0 1 1.142-2.339 5.821 5.821 0 0 1 3.322-.791h.914v-.5q0-1.316-1.134-1.316a.927.927 0 0 0-1.055 1.042H240.6a2.655 2.655 0 0 1 1.173-2.239 4.931 4.931 0 0 1 2.993-.86 4.323 4.323 0 0 1 2.874.888 3.086 3.086 0 0 1 1.081 2.435v4.21a4.311 4.311 0 0 0 .4 2V85Zm-1.859-1.934a1.652 1.652 0 0 0 .918-.237 1.487 1.487 0 0 0 .523-.536v-1.521h-.861q-1.547 0-1.547 1.389a.848.848 0 0 0 .272.655.986.986 0 0 0 .695.25ZM157.35 141h-3.076v-12.8h3.076Zm-1.169-16.225h3.129l-2.443 2.76h-2.417Zm5.9 6.715.1 1.116a3.225 3.225 0 0 1 2.716-1.292 2.713 2.713 0 0 1 2.213.886 4.226 4.226 0 0 1 .76 2.672V141h-2.97v-6a1.6 1.6 0 0 0-.29-1.059 1.342 1.342 0 0 0-1.055-.341 1.413 1.413 0 0 0-1.292.686V141H159.3v-9.51Zm7.058 4.685a5.809 5.809 0 0 1 .976-3.56 3.211 3.211 0 0 1 2.725-1.3 2.731 2.731 0 0 1 2.145 1V127.5h2.967V141h-2.663l-.149-1.02a2.8 2.8 0 0 1-2.32 1.2 3.205 3.205 0 0 1-2.689-1.3 5.993 5.993 0 0 1-.995-3.705Zm2.962.185q0 2.531 1.477 2.531a1.458 1.458 0 0 0 1.406-.826v-3.622a1.419 1.419 0 0 0-1.392-.843q-1.371 0-1.485 2.215Zm10.658 4.64h-2.97v-9.51h2.97Zm-3.146-11.962a1.322 1.322 0 0 1 .457-1.038 1.724 1.724 0 0 1 1.187-.4 1.724 1.724 0 0 1 1.187.4 1.322 1.322 0 0 1 .456 1.038 1.322 1.322 0 0 1-.457 1.037 1.724 1.724 0 0 1-1.187.4 1.724 1.724 0 0 1-1.187-.4 1.322 1.322 0 0 1-.456-1.037Zm8.987 9.853a1.317 1.317 0 0 0 .967-.338 1.241 1.241 0 0 0 .334-.945h2.777a3.288 3.288 0 0 1-1.116 2.566 4.168 4.168 0 0 1-2.887 1 4.22 4.22 0 0 1-3.27-1.3 5.125 5.125 0 0 1-1.2-3.6v-.123a5.792 5.792 0 0 1 .536-2.551 3.872 3.872 0 0 1 1.534-1.7 4.573 4.573 0 0 1 2.373-.593 4.116 4.116 0 0 1 2.944 1.028 3.647 3.647 0 0 1 1.09 2.786H189.9a1.626 1.626 0 0 0-.356-1.121 1.244 1.244 0 0 0-.967-.4q-1.151 0-1.345 1.468a10.357 10.357 0 0 0-.062 1.283 4.068 4.068 0 0 0 .343 1.986 1.187 1.187 0 0 0 1.087.554Zm9.936 2.285a4.889 4.889 0 0 1-3.542-1.305 4.507 4.507 0 0 1-1.354-3.4v-.246a5.84 5.84 0 0 1 .541-2.575 3.955 3.955 0 0 1 1.578-1.727 4.763 4.763 0 0 1 2.461-.611 4.117 4.117 0 0 1 3.164 1.244 4.887 4.887 0 0 1 1.16 3.467v1.151h-5.889a2.135 2.135 0 0 0 .694 1.257 2.066 2.066 0 0 0 1.389.457 2.662 2.662 0 0 0 2.2-.984l1.354 1.6a3.784 3.784 0 0 1-1.572 1.219 5.3 5.3 0 0 1-2.184.453Zm-.336-7.576q-1.3 0-1.547 1.723h2.988v-.229a1.467 1.467 0 0 0-.36-1.1 1.434 1.434 0 0 0-1.081-.394ZM150.13 192.658V197h-3.085v-12.8h5.106a5.948 5.948 0 0 1 2.6.541 4.074 4.074 0 0 1 1.749 1.541 4.2 4.2 0 0 1 .62 2.263 3.7 3.7 0 0 1-1.34 2.993 5.561 5.561 0 0 1-3.68 1.12Zm0-2.382h2.021a1.906 1.906 0 0 0 1.367-.448 1.665 1.665 0 0 0 .47-1.266 2.059 2.059 0 0 0-.488-1.432 1.712 1.712 0 0 0-1.318-.545h-2.052Zm14.247-.105-.977-.071a1.752 1.752 0 0 0-1.793.879V197h-2.962v-9.51h2.777l.1 1.222a2.294 2.294 0 0 1 2.083-1.4 2.888 2.888 0 0 1 .826.105Zm.378 1.986a5.613 5.613 0 0 1 .554-2.536 3.96 3.96 0 0 1 1.591-1.709 4.791 4.791 0 0 1 2.435-.6 4.373 4.373 0 0 1 3.365 1.325 5.076 5.076 0 0 1 1.23 3.6v.105a4.925 4.925 0 0 1-1.23 3.529 4.384 4.384 0 0 1-3.348 1.305 4.434 4.434 0 0 1-3.261-1.217 4.761 4.761 0 0 1-1.327-3.3Zm2.962.185a3.538 3.538 0 0 0 .413 1.933 1.376 1.376 0 0 0 1.222.615q1.582 0 1.617-2.435v-.3q0-2.558-1.635-2.558-1.485 0-1.608 2.206Zm2.021-8.842h3.129l-2.443 2.76h-2.417Zm8.622 13.5h-2.97v-13.5h2.97Zm1.45-4.843a5.613 5.613 0 0 1 .554-2.536 3.96 3.96 0 0 1 1.591-1.709 4.791 4.791 0 0 1 2.435-.6 4.373 4.373 0 0 1 3.366 1.325 5.076 5.076 0 0 1 1.23 3.6v.105a4.925 4.925 0 0 1-1.235 3.529 4.384 4.384 0 0 1-3.344 1.305 4.434 4.434 0 0 1-3.261-1.218 4.761 4.761 0 0 1-1.327-3.3Zm2.962.185a3.538 3.538 0 0 0 .413 1.934 1.376 1.376 0 0 0 1.222.615q1.582 0 1.617-2.435v-.3q0-2.556-1.634-2.556-1.49 0-1.609 2.206Zm7.172-.167a6.421 6.421 0 0 1 .475-2.549 3.821 3.821 0 0 1 1.362-1.709 3.591 3.591 0 0 1 2.065-.6 2.855 2.855 0 0 1 2.32 1l.105-.826h2.689v9.149a4.009 4.009 0 0 1-.584 2.184 3.75 3.75 0 0 1-1.692 1.424 6.219 6.219 0 0 1-2.566.5 5.365 5.365 0 0 1-2.026-.4 3.657 3.657 0 0 1-1.5-1.028l1.242-1.74a2.716 2.716 0 0 0 2.18.976 1.764 1.764 0 0 0 1.968-2.022v-.3a2.781 2.781 0 0 1-2.153.94 3.437 3.437 0 0 1-2.812-1.332 5.517 5.517 0 0 1-1.073-3.562Zm2.971.185a3.383 3.383 0 0 0 .439 1.85 1.386 1.386 0 0 0 1.23.681 1.573 1.573 0 0 0 1.4-.642v-4a1.534 1.534 0 0 0-1.384-.649 1.4 1.4 0 0 0-1.239.708 3.858 3.858 0 0 0-.446 2.051Zm7.356-.2a5.613 5.613 0 0 1 .554-2.536 3.96 3.96 0 0 1 1.591-1.709 4.791 4.791 0 0 1 2.435-.6 4.373 4.373 0 0 1 3.366 1.323 5.076 5.076 0 0 1 1.23 3.6v.105a4.925 4.925 0 0 1-1.235 3.529 4.384 4.384 0 0 1-3.344 1.304 4.434 4.434 0 0 1-3.261-1.217 4.761 4.761 0 0 1-1.327-3.3Zm2.962.185a3.538 3.538 0 0 0 .413 1.934 1.376 1.376 0 0 0 1.222.615q1.582 0 1.617-2.435v-.3q0-2.558-1.635-2.558-1.485 0-1.608 2.206ZM147.726 248.658V253h-3.085v-12.8h5.106a5.948 5.948 0 0 1 2.6.541 4.074 4.074 0 0 1 1.749 1.538 4.2 4.2 0 0 1 .62 2.263 3.7 3.7 0 0 1-1.34 2.993 5.561 5.561 0 0 1-3.678 1.121Zm0-2.382h2.021a1.906 1.906 0 0 0 1.367-.448 1.665 1.665 0 0 0 .47-1.266 2.059 2.059 0 0 0-.484-1.432 1.712 1.712 0 0 0-1.318-.545h-2.057Zm14.247-.105L161 246.1a1.752 1.752 0 0 0-1.793.879V253h-2.962v-9.51h2.777l.1 1.222a2.294 2.294 0 0 1 2.083-1.4 2.888 2.888 0 0 1 .826.105Zm5.5 7a4.889 4.889 0 0 1-3.542-1.305 4.507 4.507 0 0 1-1.354-3.4v-.246a5.84 5.84 0 0 1 .541-2.575 3.955 3.955 0 0 1 1.582-1.72 4.763 4.763 0 0 1 2.461-.611 4.117 4.117 0 0 1 3.162 1.244 4.887 4.887 0 0 1 1.16 3.467v1.151h-5.889a2.135 2.135 0 0 0 .694 1.257 2.066 2.066 0 0 0 1.389.457 2.662 2.662 0 0 0 2.2-.984l1.354 1.6a3.784 3.784 0 0 1-1.572 1.217 5.3 5.3 0 0 1-2.184.453Zm-.332-7.571q-1.3 0-1.547 1.723h2.988v-.229a1.467 1.467 0 0 0-.36-1.1 1.434 1.434 0 0 0-1.081-.394Zm6.188 7.4v-7.453h-1.38v-2.057h1.38v-.756a3.286 3.286 0 0 1 .958-2.522 3.785 3.785 0 0 1 2.689-.9 5.89 5.89 0 0 1 1.389.188l.009 2.18a2.706 2.706 0 0 0-.73-.08q-1.345 0-1.345 1.16v.729h1.855v2.057H176.3V253Zm11.223 0a3.344 3.344 0 0 1-.281-.853 2.754 2.754 0 0 1-2.285 1.029 3.374 3.374 0 0 1-2.286-.813 2.588 2.588 0 0 1-.94-2.044 2.66 2.66 0 0 1 1.14-2.338 5.821 5.821 0 0 1 3.325-.791h.914v-.5q0-1.316-1.134-1.316a.927.927 0 0 0-1.054 1.039h-2.962a2.655 2.655 0 0 1 1.173-2.238 4.931 4.931 0 0 1 2.993-.86 4.323 4.323 0 0 1 2.874.885 3.086 3.086 0 0 1 1.081 2.437v4.21a4.311 4.311 0 0 0 .4 2V253Zm-1.852-1.934a1.652 1.652 0 0 0 .918-.237 1.487 1.487 0 0 0 .523-.536v-1.521h-.863q-1.547 0-1.547 1.389a.848.848 0 0 0 .269.655.986.986 0 0 0 .7.25Zm10.07-.175a1.317 1.317 0 0 0 .967-.338 1.241 1.241 0 0 0 .334-.945h2.777a3.288 3.288 0 0 1-1.12 2.566 4.168 4.168 0 0 1-2.887 1 4.22 4.22 0 0 1-3.27-1.3 5.125 5.125 0 0 1-1.2-3.6v-.123a5.792 5.792 0 0 1 .536-2.551 3.872 3.872 0 0 1 1.534-1.7 4.573 4.573 0 0 1 2.373-.593 4.116 4.116 0 0 1 2.944 1.028 3.647 3.647 0 0 1 1.09 2.786h-2.777a1.626 1.626 0 0 0-.361-1.121 1.244 1.244 0 0 0-.967-.4q-1.151 0-1.345 1.468a10.357 10.357 0 0 0-.062 1.283 4.068 4.068 0 0 0 .343 1.986 1.187 1.187 0 0 0 1.091.554Zm8.455 2.109h-2.971v-9.51h2.971Zm-3.146-11.962a1.322 1.322 0 0 1 .457-1.038 1.724 1.724 0 0 1 1.187-.4 1.724 1.724 0 0 1 1.187.4 1.322 1.322 0 0 1 .457 1.037 1.322 1.322 0 0 1-.457 1.037 1.724 1.724 0 0 1-1.187.4 1.724 1.724 0 0 1-1.187-.4 1.322 1.322 0 0 1-.457-1.036Zm4.6 7.119a5.613 5.613 0 0 1 .554-2.536 3.96 3.96 0 0 1 1.587-1.709 4.791 4.791 0 0 1 2.435-.6 4.373 4.373 0 0 1 3.366 1.323 5.076 5.076 0 0 1 1.23 3.6v.105a4.925 4.925 0 0 1-1.235 3.529 4.384 4.384 0 0 1-3.344 1.307 4.434 4.434 0 0 1-3.261-1.217 4.761 4.761 0 0 1-1.327-3.3Zm2.962.185a3.538 3.538 0 0 0 .413 1.934 1.376 1.376 0 0 0 1.222.615q1.582 0 1.617-2.435v-.3q0-2.558-1.635-2.558-1.485 0-1.608 2.206ZM148.337 303.568h-4.852v3.059h5.73V309H140.4v-12.8h8.833v2.382h-5.748v2.7h4.852Zm10.828.747a5.735 5.735 0 0 1-1 3.538 3.2 3.2 0 0 1-2.691 1.323 2.742 2.742 0 0 1-2.154-.958v4.438h-2.962V299.49h2.769l.088.879a2.742 2.742 0 0 1 2.241-1.055 3.224 3.224 0 0 1 2.733 1.3 5.805 5.805 0 0 1 .976 3.564Zm-2.965-.184q0-2.531-1.477-2.531a1.394 1.394 0 0 0-1.406.756v3.744a1.439 1.439 0 0 0 1.424.791q1.415 0 1.459-2.443Zm7.5 4.869h-2.979v-9.51h2.979Zm-1.107-13.324h3.129l-2.443 2.76h-2.417Zm2.663 8.5a6.421 6.421 0 0 1 .475-2.549 3.821 3.821 0 0 1 1.362-1.709 3.591 3.591 0 0 1 2.065-.6 2.855 2.855 0 0 1 2.32 1l.105-.826h2.689v9.148a4.009 4.009 0 0 1-.584 2.184 3.75 3.75 0 0 1-1.688 1.424 6.219 6.219 0 0 1-2.566.5 5.365 5.365 0 0 1-2.026-.4 3.657 3.657 0 0 1-1.5-1.028l1.238-1.74a2.716 2.716 0 0 0 2.18.976 1.764 1.764 0 0 0 1.968-2.022v-.3a2.781 2.781 0 0 1-2.153.94 3.437 3.437 0 0 1-2.812-1.332 5.517 5.517 0 0 1-1.073-3.562Zm2.971.185a3.383 3.383 0 0 0 .439 1.85 1.386 1.386 0 0 0 1.23.681 1.573 1.573 0 0 0 1.4-.642v-4a1.534 1.534 0 0 0-1.38-.65 1.4 1.4 0 0 0-1.239.708 3.858 3.858 0 0 0-.45 2.051Zm13.482-2.19-.976-.071a1.752 1.752 0 0 0-1.793.879V309h-2.961v-9.51h2.777l.1 1.222a2.294 2.294 0 0 1 2.083-1.4 2.888 2.888 0 0 1 .826.105ZM187.87 309a3.344 3.344 0 0 1-.281-.853 2.754 2.754 0 0 1-2.289 1.029 3.374 3.374 0 0 1-2.281-.813 2.588 2.588 0 0 1-.94-2.043 2.66 2.66 0 0 1 1.142-2.339 5.821 5.821 0 0 1 3.322-.791h.914v-.5q0-1.316-1.134-1.316a.927.927 0 0 0-1.054 1.039h-2.962a2.655 2.655 0 0 1 1.173-2.238 4.931 4.931 0 0 1 2.993-.86 4.323 4.323 0 0 1 2.874.888 3.086 3.086 0 0 1 1.081 2.435v4.21a4.311 4.311 0 0 0 .4 2V309Zm-1.854-1.934a1.652 1.652 0 0 0 .918-.237 1.487 1.487 0 0 0 .523-.536v-1.521h-.857q-1.547 0-1.547 1.389a.848.848 0 0 0 .272.655.986.986 0 0 0 .691.25Zm6.706 1.934v-7.453h-1.38v-2.057h1.38v-.756a3.286 3.286 0 0 1 .958-2.522 3.785 3.785 0 0 1 2.689-.9 5.89 5.89 0 0 1 1.389.185l.009 2.18a2.706 2.706 0 0 0-.729-.079q-1.345 0-1.345 1.16v.729h1.854v2.057h-1.855V309Zm10.257.176a4.889 4.889 0 0 1-3.542-1.305 4.507 4.507 0 0 1-1.354-3.4v-.246a5.84 5.84 0 0 1 .541-2.575 3.955 3.955 0 0 1 1.576-1.725 4.763 4.763 0 0 1 2.461-.611 4.117 4.117 0 0 1 3.164 1.244 4.887 4.887 0 0 1 1.16 3.467v1.151H201.1a2.135 2.135 0 0 0 .694 1.257 2.066 2.066 0 0 0 1.389.457 2.662 2.662 0 0 0 2.2-.984l1.354 1.6a3.784 3.784 0 0 1-1.574 1.217 5.3 5.3 0 0 1-2.184.453Zm-.334-7.576q-1.3 0-1.547 1.723h2.988v-.229a1.467 1.467 0 0 0-.36-1.1 1.434 1.434 0 0 0-1.081-.394Zm10.511 4.728a.684.684 0 0 0-.4-.606 6.016 6.016 0 0 0-1.5-.475 6.853 6.853 0 0 1-1.826-.647 3.062 3.062 0 0 1-1.1-.971 2.319 2.319 0 0 1-.378-1.31 2.628 2.628 0 0 1 1.081-2.158 4.453 4.453 0 0 1 2.83-.848 4.934 4.934 0 0 1 3.023.853 2.666 2.666 0 0 1 1.144 2.242h-2.97q0-1.143-1.2-1.143a1.194 1.194 0 0 0-.782.259.8.8 0 0 0-.316.646.737.737 0 0 0 .387.642 3.654 3.654 0 0 0 1.235.4 10.671 10.671 0 0 1 1.49.378 2.706 2.706 0 0 1 2.139 2.65 2.491 2.491 0 0 1-1.156 2.118 5.068 5.068 0 0 1-2.993.817 5.172 5.172 0 0 1-2.18-.439 3.645 3.645 0 0 1-1.494-1.2 2.707 2.707 0 0 1-.536-1.591h2.769a1.145 1.145 0 0 0 .439.962 1.808 1.808 0 0 0 1.081.3 1.422 1.422 0 0 0 .91-.246.787.787 0 0 0 .303-.633ZM150.7 360.667a4.673 4.673 0 0 1-.721 2.36 4.35 4.35 0 0 1-1.849 1.586 6.3 6.3 0 0 1-2.72.563 5.025 5.025 0 0 1-3.973-1.644 6.786 6.786 0 0 1-1.45-4.641v-.633a7.746 7.746 0 0 1 .655-3.292 4.961 4.961 0 0 1 1.885-2.18 5.26 5.26 0 0 1 2.848-.769 5.516 5.516 0 0 1 3.744 1.226 4.844 4.844 0 0 1 1.608 3.379h-3.076a2.292 2.292 0 0 0-.589-1.679 2.422 2.422 0 0 0-1.687-.51 1.843 1.843 0 0 0-1.687.861 5.536 5.536 0 0 0-.562 2.751v.905a6.126 6.126 0 0 0 .514 2.927 1.882 1.882 0 0 0 1.771.879 2.369 2.369 0 0 0 1.626-.5 2.126 2.126 0 0 0 .6-1.591Zm6.681 4.333a3.344 3.344 0 0 1-.281-.853 2.754 2.754 0 0 1-2.286 1.029 3.374 3.374 0 0 1-2.285-.813 2.588 2.588 0 0 1-.94-2.043 2.66 2.66 0 0 1 1.143-2.338 5.821 5.821 0 0 1 3.322-.791h.914v-.5q0-1.316-1.134-1.316a.927.927 0 0 0-1.055 1.042h-2.962a2.655 2.655 0 0 1 1.173-2.239 4.931 4.931 0 0 1 2.993-.86 4.323 4.323 0 0 1 2.874.888 3.086 3.086 0 0 1 1.081 2.435v4.21a4.311 4.311 0 0 0 .4 2V365Zm-1.854-1.934a1.652 1.652 0 0 0 .918-.237 1.487 1.487 0 0 0 .523-.536v-1.521h-.861q-1.547 0-1.547 1.389a.848.848 0 0 0 .272.655.986.986 0 0 0 .694.25Zm14.88-2.751a5.735 5.735 0 0 1-1 3.538 3.2 3.2 0 0 1-2.692 1.323 2.742 2.742 0 0 1-2.153-.958v4.438H161.6V355.49h2.769l.088.879a2.742 2.742 0 0 1 2.243-1.055 3.224 3.224 0 0 1 2.733 1.3 5.805 5.805 0 0 1 .976 3.564Zm-2.962-.185q0-2.531-1.477-2.531a1.394 1.394 0 0 0-1.406.756v3.745a1.439 1.439 0 0 0 1.424.791q1.415 0 1.459-2.443Zm7.496 4.87h-2.979v-9.51h2.979Zm-1.107-13.324h3.129l-2.443 2.76h-2.417Zm6.46 1.45v2.364h1.564v2.057h-1.564v4.353a1.111 1.111 0 0 0 .193.747 1.037 1.037 0 0 0 .765.211 4.345 4.345 0 0 0 .738-.058v2.121a5.466 5.466 0 0 1-1.67.255 3.1 3.1 0 0 1-2.258-.721 2.954 2.954 0 0 1-.73-2.188v-4.72h-1.213v-2.057h1.213v-2.364Zm8.394 10.846a3.054 3.054 0 0 1-2.54 1.2 3 3 0 0 1-2.369-.91 3.826 3.826 0 0 1-.8-2.615v-6.157h2.958v6.179a1.065 1.065 0 0 0 1.186 1.222 1.548 1.548 0 0 0 1.45-.729v-6.672h2.979V365h-2.777ZM196.3 365h-2.972v-13.5h2.972Zm1.45-4.843a5.613 5.613 0 0 1 .55-2.535 3.96 3.96 0 0 1 1.591-1.709 4.791 4.791 0 0 1 2.435-.6 4.373 4.373 0 0 1 3.366 1.323 5.076 5.076 0 0 1 1.23 3.6v.105a4.925 4.925 0 0 1-1.232 3.53 4.384 4.384 0 0 1-3.344 1.305 4.434 4.434 0 0 1-3.261-1.217 4.761 4.761 0 0 1-1.327-3.3Zm2.962.185a3.538 3.538 0 0 0 .413 1.934 1.376 1.376 0 0 0 1.222.615q1.582 0 1.617-2.435v-.3q0-2.558-1.635-2.558-1.485 0-1.608 2.206Zm12.5 1.986a.684.684 0 0 0-.4-.606 6.016 6.016 0 0 0-1.5-.475 6.853 6.853 0 0 1-1.83-.647 3.062 3.062 0 0 1-1.1-.971 2.319 2.319 0 0 1-.378-1.31 2.628 2.628 0 0 1 1.081-2.158 4.453 4.453 0 0 1 2.83-.848 4.934 4.934 0 0 1 3.023.853 2.666 2.666 0 0 1 1.143 2.241h-2.969q0-1.143-1.2-1.143a1.194 1.194 0 0 0-.782.259.8.8 0 0 0-.316.646.737.737 0 0 0 .387.642 3.654 3.654 0 0 0 1.235.4 10.671 10.671 0 0 1 1.49.378 2.706 2.706 0 0 1 2.139 2.651 2.491 2.491 0 0 1-1.155 2.118 5.068 5.068 0 0 1-2.993.817 5.172 5.172 0 0 1-2.18-.439 3.645 3.645 0 0 1-1.494-1.2 2.707 2.707 0 0 1-.536-1.591h2.769a1.145 1.145 0 0 0 .439.962 1.808 1.808 0 0 0 1.081.3 1.422 1.422 0 0 0 .91-.246.787.787 0 0 0 .303-.633ZM131.783 421v-12.8h4.6a6.509 6.509 0 0 1 3.757.905 3.012 3.012 0 0 1 1.288 2.628 3.045 3.045 0 0 1-.457 1.7 2.663 2.663 0 0 1-1.348 1.037 2.7 2.7 0 0 1 1.538.984 2.862 2.862 0 0 1 .539 1.758 3.388 3.388 0 0 1-1.194 2.826 5.667 5.667 0 0 1-3.529.962Zm3.085-5.44v3.067h2.021a1.923 1.923 0 0 0 1.283-.382 1.338 1.338 0 0 0 .448-1.077 1.419 1.419 0 0 0-1.59-1.608Zm0-2.021h1.608a2.285 2.285 0 0 0 1.441-.37 1.314 1.314 0 0 0 .431-1.069 1.379 1.379 0 0 0-.466-1.168 2.493 2.493 0 0 0-1.5-.357h-1.512ZM146.381 421h-2.971v-9.51h2.971Zm-3.146-11.962a1.322 1.322 0 0 1 .457-1.038 1.724 1.724 0 0 1 1.187-.4 1.724 1.724 0 0 1 1.187.4 1.322 1.322 0 0 1 .457 1.037 1.322 1.322 0 0 1-.457 1.037 1.724 1.724 0 0 1-1.187.4 1.724 1.724 0 0 1-1.187-.4 1.322 1.322 0 0 1-.457-1.036Zm13.8 7.286a5.8 5.8 0 0 1-.967 3.595 3.238 3.238 0 0 1-2.726 1.257 2.81 2.81 0 0 1-2.342-1.152l-.119.976h-2.654v-13.5h2.962v4.755a2.711 2.711 0 0 1 2.136-.94 3.239 3.239 0 0 1 2.742 1.274 5.826 5.826 0 0 1 .967 3.586Zm-2.971-.189a3.866 3.866 0 0 0-.364-1.952 1.229 1.229 0 0 0-1.122-.583 1.418 1.418 0 0 0-1.389.763v3.773a1.426 1.426 0 0 0 1.406.755 1.258 1.258 0 0 0 1.327-1.018 7.309 7.309 0 0 0 .141-1.738Zm7.399 4.865h-2.971v-13.5h2.971Zm4.948 0h-2.971v-9.51h2.971Zm-3.146-11.962a1.322 1.322 0 0 1 .457-1.038 1.724 1.724 0 0 1 1.187-.4 1.724 1.724 0 0 1 1.191.4 1.322 1.322 0 0 1 .457 1.037 1.322 1.322 0 0 1-.457 1.037 1.724 1.724 0 0 1-1.187.4 1.724 1.724 0 0 1-1.187-.4 1.322 1.322 0 0 1-.461-1.036Zm4.6 7.119a5.613 5.613 0 0 1 .554-2.536 3.96 3.96 0 0 1 1.587-1.709 4.791 4.791 0 0 1 2.435-.6 4.373 4.373 0 0 1 3.366 1.325 5.076 5.076 0 0 1 1.23 3.6v.105a4.925 4.925 0 0 1-1.237 3.529 4.384 4.384 0 0 1-3.342 1.305 4.434 4.434 0 0 1-3.258-1.218 4.761 4.761 0 0 1-1.327-3.3Zm2.962.185a3.538 3.538 0 0 0 .413 1.934 1.376 1.376 0 0 0 1.222.615q1.582 0 1.617-2.435v-.3q0-2.558-1.635-2.558-1.485 0-1.608 2.206Zm7.173-.167a6.421 6.421 0 0 1 .47-2.549 3.821 3.821 0 0 1 1.363-1.709 3.591 3.591 0 0 1 2.065-.6 2.855 2.855 0 0 1 2.32 1l.105-.826h2.69v9.149a4.009 4.009 0 0 1-.584 2.184 3.75 3.75 0 0 1-1.692 1.424 6.219 6.219 0 0 1-2.566.5 5.365 5.365 0 0 1-2.026-.4 3.657 3.657 0 0 1-1.499-1.028l1.239-1.74a2.716 2.716 0 0 0 2.18.976 1.764 1.764 0 0 0 1.969-2.022v-.3a2.781 2.781 0 0 1-2.154.942 3.437 3.437 0 0 1-2.812-1.332A5.517 5.517 0 0 1 178 416.28Zm2.971.185a3.383 3.383 0 0 0 .439 1.85 1.386 1.386 0 0 0 1.23.681 1.573 1.573 0 0 0 1.4-.642v-4a1.534 1.534 0 0 0-1.38-.65 1.4 1.4 0 0 0-1.239.708 3.858 3.858 0 0 0-.455 2.052Zm13.478-2.189-.976-.07a1.752 1.752 0 0 0-1.793.879V421h-2.962v-9.51h2.782l.1 1.222a2.294 2.294 0 0 1 2.083-1.4 2.888 2.888 0 0 1 .826.105ZM200.61 421a3.344 3.344 0 0 1-.281-.853 2.754 2.754 0 0 1-2.286 1.029 3.374 3.374 0 0 1-2.285-.813 2.588 2.588 0 0 1-.94-2.043 2.66 2.66 0 0 1 1.142-2.339 5.821 5.821 0 0 1 3.322-.791h.918v-.5q0-1.316-1.134-1.316a.927.927 0 0 0-1.055 1.042h-2.965a2.655 2.655 0 0 1 1.174-2.241 4.931 4.931 0 0 1 2.993-.86 4.323 4.323 0 0 1 2.874.888 3.086 3.086 0 0 1 1.081 2.435v4.21a4.311 4.311 0 0 0 .4 2V421Zm-1.855-1.934a1.652 1.652 0 0 0 .918-.237 1.487 1.487 0 0 0 .523-.536v-1.521h-.861q-1.547 0-1.547 1.389a.848.848 0 0 0 .272.655.986.986 0 0 0 .695.25Zm6.706 1.934v-7.453h-1.38v-2.057h1.38v-.756a3.286 3.286 0 0 1 .958-2.522 3.785 3.785 0 0 1 2.689-.9 5.89 5.89 0 0 1 1.392.188l.009 2.18a2.706 2.706 0 0 0-.729-.079q-1.345 0-1.345 1.16v.729h1.854v2.057h-1.857V421Zm9.1 0h-2.982v-9.51h2.979Zm-1.11-13.324h3.129l-2.443 2.76h-2.417ZM221.818 421a3.344 3.344 0 0 1-.281-.853 2.754 2.754 0 0 1-2.286 1.029 3.374 3.374 0 0 1-2.285-.813 2.588 2.588 0 0 1-.94-2.043 2.66 2.66 0 0 1 1.143-2.338 5.821 5.821 0 0 1 3.322-.791h.909v-.5q0-1.316-1.134-1.316a.927.927 0 0 0-1.055 1.042h-2.957a2.655 2.655 0 0 1 1.173-2.239 4.931 4.931 0 0 1 2.993-.86 4.323 4.323 0 0 1 2.874.888 3.086 3.086 0 0 1 1.081 2.435v4.21a4.311 4.311 0 0 0 .4 2V421Zm-1.855-1.934a1.652 1.652 0 0 0 .918-.237 1.487 1.487 0 0 0 .523-.536v-1.521h-.861q-1.543 0-1.543 1.389a.848.848 0 0 0 .272.655.986.986 0 0 0 .691.25ZM157.442 472.667a4.673 4.673 0 0 1-.721 2.36 4.35 4.35 0 0 1-1.85 1.586 6.3 6.3 0 0 1-2.72.563 5.025 5.025 0 0 1-3.973-1.644 6.786 6.786 0 0 1-1.45-4.641v-.633a7.746 7.746 0 0 1 .655-3.292 4.961 4.961 0 0 1 1.885-2.18 5.26 5.26 0 0 1 2.848-.769 5.516 5.516 0 0 1 3.744 1.226 4.844 4.844 0 0 1 1.608 3.379h-3.076a2.292 2.292 0 0 0-.589-1.679 2.422 2.422 0 0 0-1.687-.51 1.843 1.843 0 0 0-1.687.861 5.536 5.536 0 0 0-.562 2.751v.905a6.126 6.126 0 0 0 .513 2.93 1.882 1.882 0 0 0 1.771.879 2.369 2.369 0 0 0 1.626-.5 2.126 2.126 0 0 0 .6-1.591Zm.949-.51a5.613 5.613 0 0 1 .554-2.536 3.96 3.96 0 0 1 1.591-1.709 4.791 4.791 0 0 1 2.435-.6 4.373 4.373 0 0 1 3.366 1.323 5.076 5.076 0 0 1 1.23 3.6v.105a4.925 4.925 0 0 1-1.235 3.529 4.384 4.384 0 0 1-3.344 1.307 4.434 4.434 0 0 1-3.261-1.217 4.761 4.761 0 0 1-1.327-3.3Zm2.962.185a3.538 3.538 0 0 0 .413 1.934 1.376 1.376 0 0 0 1.222.615q1.582 0 1.617-2.435v-.3q0-2.558-1.635-2.558-1.485 0-1.608 2.206ZM172 477h-2.974v-13.5H172Zm1.45-4.843a5.613 5.613 0 0 1 .55-2.535 3.96 3.96 0 0 1 1.592-1.71 4.791 4.791 0 0 1 2.435-.6 4.373 4.373 0 0 1 3.366 1.325 5.076 5.076 0 0 1 1.23 3.6v.105a4.925 4.925 0 0 1-1.235 3.529 4.384 4.384 0 0 1-3.344 1.305 4.434 4.434 0 0 1-3.261-1.218 4.761 4.761 0 0 1-1.327-3.3Zm2.962.185a3.538 3.538 0 0 0 .413 1.934 1.376 1.376 0 0 0 1.222.615q1.582 0 1.617-2.435v-.3q-.003-2.556-1.638-2.556-1.485 0-1.608 2.206Zm8.171 4.658v-7.453H183.2v-2.057h1.38v-.756a3.286 3.286 0 0 1 .958-2.522 3.785 3.785 0 0 1 2.689-.9 5.89 5.89 0 0 1 1.389.185l.009 2.18a2.706 2.706 0 0 0-.725-.077q-1.345 0-1.345 1.16v.729h1.854v2.057h-1.855V477Zm5.493-4.843a5.613 5.613 0 0 1 .554-2.536 3.96 3.96 0 0 1 1.591-1.709 4.791 4.791 0 0 1 2.435-.6 4.373 4.373 0 0 1 3.366 1.323 5.076 5.076 0 0 1 1.23 3.6v.105a4.925 4.925 0 0 1-1.235 3.529 4.384 4.384 0 0 1-3.344 1.307 4.434 4.434 0 0 1-3.261-1.217 4.761 4.761 0 0 1-1.327-3.3Zm2.962.185a3.538 3.538 0 0 0 .413 1.934 1.376 1.376 0 0 0 1.222.615q1.582 0 1.617-2.435v-.3q0-2.558-1.635-2.558-1.485 0-1.608 2.206Zm2.022-8.842h3.129l-2.443 2.76h-2.417Zm8.218 3.99.1 1.116a3.225 3.225 0 0 1 2.712-1.292 2.713 2.713 0 0 1 2.219.888 4.226 4.226 0 0 1 .76 2.672V477H206.1v-6a1.6 1.6 0 0 0-.29-1.059 1.342 1.342 0 0 0-1.056-.341 1.413 1.413 0 0 0-1.292.686V477H200.5v-9.51ZM156.476 527.568h-4.852v3.059h5.73V533h-8.815v-12.8h8.833v2.382h-5.748v2.7h4.852Zm10.828.747a5.735 5.735 0 0 1-1 3.538 3.2 3.2 0 0 1-2.692 1.323 2.742 2.742 0 0 1-2.153-.958v4.438H158.5V523.49h2.769l.088.879a2.742 2.742 0 0 1 2.241-1.055 3.224 3.224 0 0 1 2.733 1.3 5.805 5.805 0 0 1 .969 3.561Zm-2.962-.185q0-2.531-1.477-2.531a1.394 1.394 0 0 0-1.406.756v3.745a1.439 1.439 0 0 0 1.424.791q1.415 0 1.459-2.443Zm7.497 4.87h-2.98v-9.51h2.979Zm-1.108-13.324h3.129l-2.443 2.76H169ZM176.866 533H173.9v-13.5h2.971Zm1.45-4.843a5.613 5.613 0 0 1 .554-2.535 3.96 3.96 0 0 1 1.591-1.71 4.791 4.791 0 0 1 2.435-.6 4.373 4.373 0 0 1 3.366 1.325 5.076 5.076 0 0 1 1.23 3.6v.105a4.925 4.925 0 0 1-1.235 3.529 4.384 4.384 0 0 1-3.344 1.305 4.434 4.434 0 0 1-3.261-1.218 4.761 4.761 0 0 1-1.327-3.3Zm2.962.185a3.538 3.538 0 0 0 .413 1.934 1.376 1.376 0 0 0 1.222.615q1.582 0 1.617-2.435v-.3q0-2.556-1.63-2.556-1.49 0-1.613 2.206Zm7.172-.167a6.421 6.421 0 0 1 .475-2.549 3.821 3.821 0 0 1 1.362-1.709 3.591 3.591 0 0 1 2.065-.6 2.855 2.855 0 0 1 2.32 1l.105-.826h2.689v9.149a4.009 4.009 0 0 1-.584 2.184 3.75 3.75 0 0 1-1.692 1.424 6.219 6.219 0 0 1-2.566.5 5.365 5.365 0 0 1-2.026-.4 3.657 3.657 0 0 1-1.498-1.028l1.24-1.74a2.716 2.716 0 0 0 2.18.976 1.764 1.764 0 0 0 1.968-2.022v-.3a2.781 2.781 0 0 1-2.153.94 3.437 3.437 0 0 1-2.812-1.332 5.517 5.517 0 0 1-1.073-3.562Zm2.971.185a3.383 3.383 0 0 0 .439 1.85 1.386 1.386 0 0 0 1.23.681 1.573 1.573 0 0 0 1.4-.642v-4a1.534 1.534 0 0 0-1.38-.65 1.4 1.4 0 0 0-1.239.708 3.858 3.858 0 0 0-.45 2.052Zm7.356-.2a5.613 5.613 0 0 1 .554-2.536 3.96 3.96 0 0 1 1.591-1.709 4.791 4.791 0 0 1 2.435-.6 4.373 4.373 0 0 1 3.366 1.323 5.076 5.076 0 0 1 1.23 3.6v.105a4.925 4.925 0 0 1-1.235 3.529 4.384 4.384 0 0 1-3.344 1.304 4.434 4.434 0 0 1-3.261-1.217 4.761 4.761 0 0 1-1.327-3.3Zm2.962.185a3.538 3.538 0 0 0 .413 1.934 1.376 1.376 0 0 0 1.222.615q1.582 0 1.617-2.435v-.3q0-2.558-1.635-2.558-1.485 0-1.608 2.206Z" fill="#12263f"/><g transform="translate(81 12)"><circle cx="10.5" cy="10.5" r="10.5" fill="#fff"/><circle cx="8.5" cy="8.5" r="8.5" transform="translate(2 2)" fill="#fdd835"/><path d="M9.309 6h2.523v3.52h3.321v2.347h-3.321v3.743H9.309v-3.743H6V9.52h3.309Z" fill="#12263f"/></g><g transform="translate(81 236)"><circle cx="10.5" cy="10.5" r="10.5" fill="#fff"/><circle cx="8.5" cy="8.5" r="8.5" transform="translate(2 2)" fill="#fdd835"/><path d="M9.309 6h2.523v3.52h3.321v2.347h-3.321v3.743H9.309v-3.743H6V9.52h3.309Z" fill="#12263f"/></g><g transform="translate(81 124)"><circle cx="10.5" cy="10.5" r="10.5" fill="#fff"/><circle cx="8.5" cy="8.5" r="8.5" transform="translate(2 2)" fill="#fdd835"/><path d="M9.309 6h2.523v3.52h3.321v2.347h-3.321v3.743H9.309v-3.743H6V9.52h3.309Z" fill="#12263f"/></g><g transform="translate(81 348)"><circle cx="10.5" cy="10.5" r="10.5" fill="#fff"/><circle cx="8.5" cy="8.5" r="8.5" transform="translate(2 2)" fill="#fdd835"/><path d="M9.309 6h2.523v3.52h3.321v2.347h-3.321v3.743H9.309v-3.743H6V9.52h3.309Z" fill="#12263f"/></g><g transform="translate(81 460)"><circle cx="10.5" cy="10.5" r="10.5" fill="#fff"/><circle cx="8.5" cy="8.5" r="8.5" transform="translate(2 2)" fill="#fdd835"/><path d="M9.309 6h2.523v3.52h3.321v2.347h-3.321v3.743H9.309v-3.743H6V9.52h3.309Z" fill="#12263f"/></g><g transform="translate(81 68)"><circle cx="10.5" cy="10.5" r="10.5" fill="#fff"/><circle cx="8.5" cy="8.5" r="8.5" transform="translate(2 2)" fill="#fdd835"/><path d="M9.309 6h2.523v3.52h3.321v2.347h-3.321v3.743H9.309v-3.743H6V9.52h3.309Z" fill="#12263f"/></g><g transform="translate(81 292)"><circle cx="10.5" cy="10.5" r="10.5" fill="#fff"/><circle cx="8.5" cy="8.5" r="8.5" transform="translate(2 2)" fill="#fdd835"/><path d="M9.309 6h2.523v3.52h3.321v2.347h-3.321v3.743H9.309v-3.743H6V9.52h3.309Z" fill="#12263f"/></g><g transform="translate(81 180)"><circle cx="10.5" cy="10.5" r="10.5" fill="#fff"/><circle cx="8.5" cy="8.5" r="8.5" transform="translate(2 2)" fill="#fdd835"/><path d="M9.309 6h2.523v3.52h3.321v2.347h-3.321v3.743H9.309v-3.743H6V9.52h3.309Z" fill="#12263f"/></g><g transform="translate(81 404)"><circle cx="10.5" cy="10.5" r="10.5" fill="#fff"/><circle cx="8.5" cy="8.5" r="8.5" transform="translate(2 2)" fill="#fdd835"/><path d="M9.309 6h2.523v3.52h3.321v2.347h-3.321v3.743H9.309v-3.743H6V9.52h3.309Z" fill="#12263f"/></g><g transform="translate(81 516)"><circle cx="10.5" cy="10.5" r="10.5" fill="#fff"/><circle cx="8.5" cy="8.5" r="8.5" transform="translate(2 2)" fill="#fdd835"/><path d="M9.309 6h2.523v3.52h3.321v2.347h-3.321v3.743H9.309v-3.743H6V9.52h3.309Z" fill="#12263f"/></g><path fill="#fdd835" d="M586.98 198.562h64.341v47.453H586.98z"/><path d="M592.703 192.142v46.9h19.4l6 2.372 1.954 1.4 4.606-3.768h21.772v-46.904h-21.772l-4.606 4.605-5.164-4.605Z" fill="#fff"/><path fill="#e8e8e8" d="M640.994 192.142h5.443v46.337h-5.443z"/><path d="M591.698 190.802a1.7 1.7 0 0 1 1.181-.335c6.236.008 12.47 0 18.706.007a9.867 9.867 0 0 1 5.936 1.957 11.2 11.2 0 0 1 1.992 1.965 9.839 9.839 0 0 1 7.842-3.92q9.494-.017 18.987 0a1.347 1.347 0 0 1 1.414 1.361c.021 1.9 0 3.8.008 5.7 1.341.018 2.685-.032 4.027.024a1.33 1.33 0 0 1 1.2 1.39q.017 23.242.006 46.485a1.5 1.5 0 0 1-.5 1.262 1.916 1.916 0 0 1-1.27.3c-2.652-.014-5.305.008-7.957-.011a1.331 1.331 0 0 1-1.292-.871 1.3 1.3 0 0 1 .657-1.6 3.348 3.348 0 0 1 1.316-.145c2.142.007 4.285 0 6.427 0q.008-22.114 0-44.227h-2.617v38.292a1.367 1.367 0 0 1-1.417 1.478c-6.237.013-12.475 0-18.712.006a7.607 7.607 0 0 0-3.195.628 7.288 7.288 0 0 0-3.736 3.82h11.551a1.571 1.571 0 0 1 1.112.348 1.3 1.3 0 0 1 .11 1.81 1.517 1.517 0 0 1-1.234.461h-44.67a1.513 1.513 0 0 1-1.234-.463 2.426 2.426 0 0 1-.334-1.669q.008-22.4 0-44.8a8.443 8.443 0 0 1 .061-1.549 1.294 1.294 0 0 1 1.23-.966c1.313-.036 2.628 0 3.941-.015v-5.574a1.469 1.469 0 0 1 .458-1.158m2.164 2.294v44.226c5.951 0 11.9-.007 17.854 0a9.9 9.9 0 0 1 6.483 2.487v-31.785c-.015-3.577.032-7.159-.022-10.734a7.131 7.131 0 0 0-4.737-3.962 11.176 11.176 0 0 0-2.973-.236h-16.605m26.975 4.205c-.056.642 0 1.291-.02 1.936v40.578a9.908 9.908 0 0 1 6.543-2.49q8.9-.013 17.792 0v-44.227h-16.534c-.656 0-1.312-.013-1.967.047a7.147 7.147 0 0 0-5.814 4.158m-32.207 2.863v44.224h29.675a7.65 7.65 0 0 0-1.475-2.236 7.235 7.235 0 0 0-5.238-2.204c-6.285-.011-12.571 0-18.857-.006a1.465 1.465 0 0 1-1.149-.455 1.648 1.648 0 0 1-.339-1.156v-38.165q-1.309-.004-2.617-.002Z"/><path d="M598.797 197.23a1.292 1.292 0 1 1-.847 1.445 1.3 1.3 0 0 1 .847-1.445ZM603.935 197.176c2.871-.08 5.749-.01 8.623-.035a1.4 1.4 0 0 1 1.513.957 1.306 1.306 0 0 1-1.241 1.65c-2.837.027-5.678.007-8.515.01a1.364 1.364 0 0 1-1.431-.957 1.293 1.293 0 0 1 1.051-1.625ZM625.989 197.177a11.063 11.063 0 0 1 1.361-.033h12.149a1.563 1.563 0 0 1 1.23.428 1.3 1.3 0 0 1-.008 1.771 1.563 1.563 0 0 1-1.214.42h-13.138a1.367 1.367 0 0 1-1.435-.953 1.292 1.292 0 0 1 1.055-1.633ZM599.049 205.548a8.245 8.245 0 0 1 1.083-.032c4.2.007 8.391-.007 12.586.006a1.309 1.309 0 1 1-.021 2.61q-6.632.013-13.265 0a1.377 1.377 0 0 1-1.456-.963 1.294 1.294 0 0 1 1.073-1.621ZM625.992 205.551a11.131 11.131 0 0 1 1.365-.034h11.856a1.959 1.959 0 0 1 1.447.361 1.3 1.3 0 0 1 .06 1.84 1.566 1.566 0 0 1-1.216.42h-13.138a1.384 1.384 0 0 1-1.39-.822 1.3 1.3 0 0 1 1.016-1.765ZM599.056 213.92a11.92 11.92 0 0 1 1.358-.029h12.143a1.494 1.494 0 0 1 1.3.525 1.3 1.3 0 0 1-.225 1.8 1.846 1.846 0 0 1-1.2.3c-4.378-.013-8.757.008-13.135-.01a1.323 1.323 0 0 1-1.343-1.076 1.292 1.292 0 0 1 1.102-1.51ZM625.996 213.923a5.5 5.5 0 0 1 .8-.035c4.325.014 8.651-.014 12.976.014a1.3 1.3 0 0 1 1.281 1.519 1.344 1.344 0 0 1-1.415 1.084q-6.637.01-13.274 0a1.367 1.367 0 0 1-1.433-.955 1.293 1.293 0 0 1 1.065-1.627ZM599.046 222.297a8.133 8.133 0 0 1 1.091-.034c4.193.007 8.387-.007 12.581.006a1.309 1.309 0 1 1-.021 2.61q-6.63.013-13.259 0a1.378 1.378 0 0 1-1.461-.962 1.292 1.292 0 0 1 1.069-1.62ZM625.994 222.297c4.36-.078 8.726-.007 13.089-.035a2.146 2.146 0 0 1 1.58.364 1.3 1.3 0 0 1 .061 1.833 1.57 1.57 0 0 1-1.23.424h-13.122a1.389 1.389 0 0 1-1.4-.822 1.3 1.3 0 0 1 1.022-1.764ZM599.057 230.669a12.309 12.309 0 0 1 1.362-.029h12.141a1.494 1.494 0 0 1 1.291.522 1.3 1.3 0 0 1-.145 1.738 1.746 1.746 0 0 1-1.276.363c-4.334-.008-8.666 0-13 0a1.377 1.377 0 0 1-1.452-.956 1.294 1.294 0 0 1 1.079-1.638ZM625.989 230.673c4.5-.08 9.006-.01 13.507-.035a1.392 1.392 0 0 1 1.565 1.118 1.33 1.33 0 0 1-1.417 1.5q-6.643.01-13.287 0a1.364 1.364 0 0 1-1.426-.96 1.292 1.292 0 0 1 1.058-1.623ZM637.321 244.523a1.292 1.292 0 1 1-.145 2.241 1.3 1.3 0 0 1 .145-2.241Z"/><path d="M264 22.5h54V290M987 508h-54V240.5M264 79h54M933 101h54M933 159h54M933 276h54M933 392h54M933 217h54M933 334h54M933 450h54M264 135h54M264 191h54M264 245h54M318 267.5h49M872.001 267.5h61M264 303h54M264 359h54M264 415h54M264 471h54" fill="none" stroke="#12263f" stroke-width="3"/><path d="M264 527h54V259.5M987 44h-54v267.5" fill="none" stroke="#12263f" stroke-width="3"/></svg>