<svg xmlns="http://www.w3.org/2000/svg" width="1030" height="440"><path fill="#fff" d="M0 0h1030v440H0z"/><g transform="translate(266 6813)"><g transform="translate(-217 -6775)" fill="#d0f2f5" stroke="#26ccda" stroke-width="2"><rect width="197" height="138" rx="7" stroke="none"/><rect x="1" y="1" width="195" height="136" rx="6" fill="none"/></g><g transform="translate(31 -6775)" fill="#d0f2f5" stroke="#26ccda" stroke-width="2"><rect width="197" height="138" rx="7" stroke="none"/><rect x="1" y="1" width="195" height="136" rx="6" fill="none"/></g><g transform="translate(279 -6775)" fill="#d0f2f5" stroke="#26ccda" stroke-width="2"><rect width="197" height="138" rx="7" stroke="none"/><rect x="1" y="1" width="195" height="136" rx="6" fill="none"/></g><g transform="translate(-217 -6559)" fill="#f2e7b6" stroke="#fdd835" stroke-width="2"><rect width="197" height="138" rx="7" stroke="none"/><rect x="1" y="1" width="195" height="136" rx="6" fill="none"/></g><g transform="translate(31 -6559)" fill="#f2e7b6" stroke="#fdd835" stroke-width="2"><rect width="197" height="138" rx="7" stroke="none"/><rect x="1" y="1" width="195" height="136" rx="6" fill="none"/></g><g transform="translate(279 -6559)" fill="#f2e7b6" stroke="#fdd835" stroke-width="2"><rect width="197" height="138" rx="7" stroke="none"/><rect x="1" y="1" width="195" height="136" rx="6" fill="none"/></g><g transform="translate(527 -6559)" fill="#f2e7b6" stroke="#fdd835" stroke-width="2"><rect width="197" height="138" rx="7" stroke="none"/><rect x="1" y="1" width="195" height="136" rx="6" fill="none"/></g><path d="M-152.617-6703.511v5.511h-3.223v-15.641h6.1a7.059 7.059 0 0 1 3.1.645 4.75 4.75 0 0 1 2.057 1.832 5.107 5.107 0 0 1 .72 2.7 4.491 4.491 0 0 1-1.574 3.625 6.555 6.555 0 0 1-4.356 1.327Zm0-2.61h2.879a2.831 2.831 0 0 0 1.95-.6 2.188 2.188 0 0 0 .671-1.719 2.58 2.58 0 0 0-.677-1.858 2.528 2.528 0 0 0-1.869-.73h-2.954Zm10.141 2.2a6.893 6.893 0 0 1 .666-3.079 4.876 4.876 0 0 1 1.917-2.1 5.594 5.594 0 0 1 2.906-.741 5.293 5.293 0 0 1 3.84 1.439 5.777 5.777 0 0 1 1.66 3.91l.021.795a6.075 6.075 0 0 1-1.492 4.297 5.19 5.19 0 0 1-4.007 1.615 5.216 5.216 0 0 1-4.013-1.615 6.182 6.182 0 0 1-1.5-4.383Zm3.1.22a4.345 4.345 0 0 0 .623 2.534 2.055 2.055 0 0 0 1.783.877 2.06 2.06 0 0 0 1.77-.864 4.754 4.754 0 0 0 .634-2.77 4.3 4.3 0 0 0-.634-2.518 2.06 2.06 0 0 0-1.783-.893 2.027 2.027 0 0 0-1.762.888 4.834 4.834 0 0 0-.627 2.747Zm16.35-3.013a8.434 8.434 0 0 0-1.113-.086 2.274 2.274 0 0 0-2.31 1.192v7.608h-3.1v-11.623h2.933l.086 1.386a2.877 2.877 0 0 1 2.589-1.6 3.253 3.253 0 0 1 .967.14Zm5.751-5.766v2.857h1.987v2.277h-1.987v5.8a1.385 1.385 0 0 0 .247.924 1.241 1.241 0 0 0 .945.279 4.951 4.951 0 0 0 .913-.075v2.354a6.391 6.391 0 0 1-1.879.279q-3.266 0-3.33-3.3v-6.261h-1.7v-2.277h1.7v-2.857Zm10.452 14.48a3.447 3.447 0 0 1-.312-1.042 3.756 3.756 0 0 1-2.932 1.257 4.127 4.127 0 0 1-2.833-.988 3.178 3.178 0 0 1-1.12-2.493 3.285 3.285 0 0 1 1.37-2.834 6.758 6.758 0 0 1 3.958-1h1.429v-.666a1.915 1.915 0 0 0-.414-1.289 1.627 1.627 0 0 0-1.305-.483 1.85 1.85 0 0 0-1.23.376 1.277 1.277 0 0 0-.446 1.031h-3.1a3.118 3.118 0 0 1 .619-1.869 4.118 4.118 0 0 1 1.762-1.348 6.42 6.42 0 0 1 2.557-.489 5.073 5.073 0 0 1 3.411 1.08 3.777 3.777 0 0 1 1.262 3.035v5.038a5.557 5.557 0 0 0 .462 2.5v.184Zm-2.567-2.159a2.674 2.674 0 0 0 1.268-.306 2.011 2.011 0 0 0 .859-.822v-2h-1.16q-2.331 0-2.481 1.611l-.011.183a1.243 1.243 0 0 0 .408.956 1.586 1.586 0 0 0 1.117.378Zm7.143-3.741a7 7 0 0 1 1.219-4.329 3.956 3.956 0 0 1 3.335-1.611 3.56 3.56 0 0 1 2.8 1.268v-5.928h3.115v16.5h-2.8l-.15-1.235a3.653 3.653 0 0 1-2.985 1.45 3.945 3.945 0 0 1-3.293-1.615 7.23 7.23 0 0 1-1.241-4.5Zm3.1.231a4.588 4.588 0 0 0 .569 2.507 1.855 1.855 0 0 0 1.654.871 2.077 2.077 0 0 0 2.036-1.209v-4.6a2.048 2.048 0 0 0-2.012-1.213q-2.242 0-2.242 3.647Zm16.516 5.669a3.447 3.447 0 0 1-.312-1.042 3.756 3.756 0 0 1-2.932 1.257 4.127 4.127 0 0 1-2.831-.988 3.178 3.178 0 0 1-1.123-2.492 3.285 3.285 0 0 1 1.37-2.835 6.758 6.758 0 0 1 3.958-1h1.429v-.666a1.915 1.915 0 0 0-.414-1.289 1.627 1.627 0 0 0-1.305-.483 1.85 1.85 0 0 0-1.23.376 1.277 1.277 0 0 0-.446 1.031h-3.1a3.118 3.118 0 0 1 .619-1.869 4.118 4.118 0 0 1 1.762-1.348 6.42 6.42 0 0 1 2.557-.489 5.073 5.073 0 0 1 3.411 1.08 3.777 3.777 0 0 1 1.262 3.035v5.038a5.557 5.557 0 0 0 .462 2.5v.184Zm-2.569-2.159a2.674 2.674 0 0 0 1.268-.306 2.011 2.011 0 0 0 .859-.822v-2h-1.16q-2.331 0-2.481 1.611l-.011.183a1.243 1.243 0 0 0 .408.956 1.586 1.586 0 0 0 1.117.378ZM-144.222-6499.511v5.511h-3.223v-15.641h6.1a7.059 7.059 0 0 1 3.1.645 4.75 4.75 0 0 1 2.057 1.832 5.107 5.107 0 0 1 .72 2.7 4.491 4.491 0 0 1-1.574 3.625 6.555 6.555 0 0 1-4.358 1.328Zm0-2.61h2.879a2.831 2.831 0 0 0 1.95-.6 2.188 2.188 0 0 0 .671-1.719 2.58 2.58 0 0 0-.678-1.86 2.528 2.528 0 0 0-1.869-.73h-2.954Zm14.04 8.121h-3.118v-11.623h3.115Zm-3.3-14.631a1.529 1.529 0 0 1 .467-1.149 1.755 1.755 0 0 1 1.273-.451 1.759 1.759 0 0 1 1.268.451 1.52 1.52 0 0 1 .474 1.149 1.524 1.524 0 0 1-.478 1.16 1.764 1.764 0 0 1-1.262.451 1.764 1.764 0 0 1-1.26-.451 1.524 1.524 0 0 1-.479-1.16Zm11.207 14.846a5.706 5.706 0 0 1-4.163-1.569 5.575 5.575 0 0 1-1.606-4.179v-.3a7.021 7.021 0 0 1 .677-3.131 4.967 4.967 0 0 1 1.917-2.127 5.382 5.382 0 0 1 2.831-.747 4.824 4.824 0 0 1 3.754 1.5 6.111 6.111 0 0 1 1.365 4.269v1.269h-7.4a2.884 2.884 0 0 0 .908 1.826 2.744 2.744 0 0 0 1.917.688 3.351 3.351 0 0 0 2.8-1.3l1.533 1.706a4.66 4.66 0 0 1-1.891 1.542 6.2 6.2 0 0 1-2.642.553Zm-.354-9.55a1.94 1.94 0 0 0-1.5.626 3.241 3.241 0 0 0-.736 1.791h4.318v-.248a2.311 2.311 0 0 0-.559-1.6 2 2 0 0 0-1.524-.569Zm11.891 3.435a7 7 0 0 1 1.219-4.329 3.956 3.956 0 0 1 3.335-1.611 3.56 3.56 0 0 1 2.8 1.268v-5.928h3.115v16.5h-2.8l-.15-1.235a3.653 3.653 0 0 1-2.986 1.45 3.945 3.945 0 0 1-3.295-1.615 7.23 7.23 0 0 1-1.238-4.5Zm3.1.231a4.588 4.588 0 0 0 .569 2.507 1.855 1.855 0 0 0 1.654.871 2.077 2.077 0 0 0 2.035-1.209v-4.6a2.048 2.048 0 0 0-2.009-1.216q-2.245.003-2.245 3.65Zm15.129 5.884a5.706 5.706 0 0 1-4.163-1.568 5.575 5.575 0 0 1-1.606-4.179v-.3a7.021 7.021 0 0 1 .678-3.132 4.967 4.967 0 0 1 1.917-2.127 5.382 5.382 0 0 1 2.831-.747 4.824 4.824 0 0 1 3.754 1.5 6.111 6.111 0 0 1 1.37 4.265v1.273h-7.4a2.884 2.884 0 0 0 .908 1.826 2.744 2.744 0 0 0 1.917.688 3.351 3.351 0 0 0 2.8-1.3l1.527 1.706a4.66 4.66 0 0 1-1.89 1.542 6.2 6.2 0 0 1-2.643.553Zm-.354-9.55a1.94 1.94 0 0 0-1.5.626 3.241 3.241 0 0 0-.737 1.791h4.318v-.248a2.311 2.311 0 0 0-.559-1.6 2 2 0 0 0-1.522-.569ZM-157.794-6470h-3.116v-11.623h3.115Zm-3.3-14.631a1.529 1.529 0 0 1 .467-1.149 1.755 1.755 0 0 1 1.273-.451 1.759 1.759 0 0 1 1.268.451 1.52 1.52 0 0 1 .473 1.149 1.524 1.524 0 0 1-.478 1.16 1.764 1.764 0 0 1-1.262.451 1.764 1.764 0 0 1-1.262-.451 1.524 1.524 0 0 1-.477-1.16Zm8.766 3.008.1 1.3a4.085 4.085 0 0 1 3.341-1.515 3.1 3.1 0 0 1 3.083 1.772 3.991 3.991 0 0 1 3.491-1.772 3.467 3.467 0 0 1 2.814 1.1 5.061 5.061 0 0 1 .924 3.314v7.424h-3.115v-7.412a2.213 2.213 0 0 0-.387-1.445 1.714 1.714 0 0 0-1.364-.457 1.938 1.938 0 0 0-1.934 1.332l.009 7.982h-3.1v-7.4a2.186 2.186 0 0 0-.4-1.461 1.731 1.731 0 0 0-1.354-.451 2.012 2.012 0 0 0-1.912 1.1v8.212h-3.1v-11.623Zm26.6 5.919a6.971 6.971 0 0 1-1.219 4.3 3.909 3.909 0 0 1-3.292 1.617 3.621 3.621 0 0 1-2.847-1.225v5.479h-3.1v-16.09h2.879l.107 1.139a3.649 3.649 0 0 1 2.943-1.354 3.936 3.936 0 0 1 3.341 1.59 7.16 7.16 0 0 1 1.192 4.383Zm-3.1-.226a4.574 4.574 0 0 0-.575-2.5 1.872 1.872 0 0 0-1.67-.881 2.033 2.033 0 0 0-2.014 1.111v4.759a2.067 2.067 0 0 0 2.03 1.149q2.224.004 2.224-3.638Zm11.553-2.782a8.434 8.434 0 0 0-1.117-.088 2.274 2.274 0 0 0-2.308 1.195v7.605h-3.1v-11.623h2.933l.086 1.386a2.877 2.877 0 0 1 2.581-1.601 3.253 3.253 0 0 1 .967.14Zm6.639 8.927a5.706 5.706 0 0 1-4.164-1.569 5.575 5.575 0 0 1-1.6-4.178v-.3a7.021 7.021 0 0 1 .677-3.131 4.967 4.967 0 0 1 1.917-2.127 5.382 5.382 0 0 1 2.831-.747 4.824 4.824 0 0 1 3.754 1.5 6.111 6.111 0 0 1 1.37 4.265v1.272h-7.4a2.884 2.884 0 0 0 .908 1.826 2.744 2.744 0 0 0 1.917.688 3.351 3.351 0 0 0 2.8-1.3l1.526 1.706a4.66 4.66 0 0 1-1.891 1.542 6.2 6.2 0 0 1-2.645.553Zm-.354-9.55a1.94 1.94 0 0 0-1.5.626 3.241 3.241 0 0 0-.736 1.791h4.319v-.248a2.311 2.311 0 0 0-.559-1.6 2 2 0 0 0-1.525-.569Zm9.754-2.288.1 1.343a4.058 4.058 0 0 1 3.336-1.558 3.372 3.372 0 0 1 2.75 1.085 5.062 5.062 0 0 1 .924 3.244v7.509h-3.1v-7.434a2.014 2.014 0 0 0-.43-1.434 1.924 1.924 0 0 0-1.429-.446 2.136 2.136 0 0 0-1.969 1.114v8.2h-3.1v-11.623Zm13.18-2.857v2.857h1.987v2.277h-1.987v5.8a1.385 1.385 0 0 0 .247.924 1.241 1.241 0 0 0 .945.279 4.951 4.951 0 0 0 .913-.075v2.353a6.391 6.391 0 0 1-1.88.279q-3.266 0-3.33-3.3v-6.26h-1.7v-2.277h1.7v-2.857ZM-77.6-6470a3.447 3.447 0 0 1-.312-1.042 3.756 3.756 0 0 1-2.933 1.257 4.127 4.127 0 0 1-2.831-.988 3.178 3.178 0 0 1-1.124-2.493 3.285 3.285 0 0 1 1.37-2.836 6.758 6.758 0 0 1 3.958-1h1.429v-.666a1.915 1.915 0 0 0-.414-1.289 1.627 1.627 0 0 0-1.305-.483 1.85 1.85 0 0 0-1.23.376 1.277 1.277 0 0 0-.446 1.031h-3.1a3.119 3.119 0 0 1 .618-1.867 4.118 4.118 0 0 1 1.762-1.348 6.42 6.42 0 0 1 2.557-.489 5.073 5.073 0 0 1 3.411 1.08 3.777 3.777 0 0 1 1.262 3.035v5.038a5.557 5.557 0 0 0 .462 2.5v.184Zm-2.567-2.159a2.674 2.674 0 0 0 1.268-.306 2.011 2.011 0 0 0 .859-.822v-2h-1.16q-2.331 0-2.481 1.611l-.011.183a1.243 1.243 0 0 0 .408.956 1.586 1.586 0 0 0 1.113.378ZM116.685-6499.21a5.535 5.535 0 0 1-1.864 3.975 6.546 6.546 0 0 1-4.431 1.45 5.886 5.886 0 0 1-4.732-2.025 8.3 8.3 0 0 1-1.724-5.559v-.956a9.376 9.376 0 0 1 .795-3.975 5.957 5.957 0 0 1 2.271-2.637 6.364 6.364 0 0 1 3.432-.918 6.376 6.376 0 0 1 4.361 1.45 5.948 5.948 0 0 1 1.912 4.071h-3.223a3.266 3.266 0 0 0-.843-2.2 3.123 3.123 0 0 0-2.208-.682 2.738 2.738 0 0 0-2.412 1.155 6.472 6.472 0 0 0-.819 3.585v1.182a6.927 6.927 0 0 0 .768 3.706 2.687 2.687 0 0 0 2.422 1.171 3.182 3.182 0 0 0 2.229-.683 3.081 3.081 0 0 0 .843-2.111Zm8.648 5.21a3.447 3.447 0 0 1-.312-1.042 3.756 3.756 0 0 1-2.933 1.257 4.127 4.127 0 0 1-2.831-.988 3.178 3.178 0 0 1-1.123-2.492 3.285 3.285 0 0 1 1.366-2.835 6.758 6.758 0 0 1 3.958-1h1.429v-.666a1.915 1.915 0 0 0-.414-1.289 1.627 1.627 0 0 0-1.305-.483 1.85 1.85 0 0 0-1.23.376 1.277 1.277 0 0 0-.438 1.03h-3.1a3.118 3.118 0 0 1 .616-1.868 4.118 4.118 0 0 1 1.762-1.348 6.42 6.42 0 0 1 2.557-.489 5.073 5.073 0 0 1 3.411 1.08 3.777 3.777 0 0 1 1.261 3.033v5.038a5.557 5.557 0 0 0 .462 2.5v.186Zm-2.568-2.159a2.674 2.674 0 0 0 1.268-.306 2.011 2.011 0 0 0 .859-.822v-2h-1.16q-2.331 0-2.481 1.611l-.011.183a1.243 1.243 0 0 0 .408.956 1.586 1.586 0 0 0 1.117.378Zm14.158-6.553a8.434 8.434 0 0 0-1.117-.088 2.274 2.274 0 0 0-2.306 1.195v7.605h-3.108v-11.623h2.933l.086 1.386a2.877 2.877 0 0 1 2.589-1.601 3.253 3.253 0 0 1 .967.14Zm5.747-5.768v2.857h1.987v2.277h-1.987v5.8a1.385 1.385 0 0 0 .247.924 1.241 1.241 0 0 0 .945.279 4.951 4.951 0 0 0 .913-.075v2.354a6.391 6.391 0 0 1-1.875.279q-3.266 0-3.33-3.3v-6.261h-1.7v-2.277h1.7v-2.857Zm10.453 14.48a3.448 3.448 0 0 1-.312-1.042 3.756 3.756 0 0 1-2.933 1.257 4.127 4.127 0 0 1-2.831-.988 3.178 3.178 0 0 1-1.123-2.492 3.285 3.285 0 0 1 1.371-2.835 6.758 6.758 0 0 1 3.958-1h1.429v-.666a1.915 1.915 0 0 0-.414-1.289 1.627 1.627 0 0 0-1.305-.483 1.85 1.85 0 0 0-1.23.376 1.277 1.277 0 0 0-.446 1.031h-3.1a3.118 3.118 0 0 1 .619-1.869 4.118 4.118 0 0 1 1.762-1.348 6.42 6.42 0 0 1 2.557-.489 5.073 5.073 0 0 1 3.411 1.08 3.777 3.777 0 0 1 1.264 3.033v5.038a5.557 5.557 0 0 0 .462 2.5v.186Zm-2.568-2.159a2.674 2.674 0 0 0 1.268-.306 2.011 2.011 0 0 0 .859-.822v-2h-1.16q-2.331 0-2.481 1.611l-.011.183a1.243 1.243 0 0 0 .408.956 1.586 1.586 0 0 0 1.117.378ZM84.061-6475.9a7 7 0 0 1 1.219-4.329 3.956 3.956 0 0 1 3.335-1.611 3.56 3.56 0 0 1 2.8 1.268v-5.928h3.115v16.5h-2.8l-.15-1.235a3.653 3.653 0 0 1-2.986 1.45 3.945 3.945 0 0 1-3.294-1.615 7.23 7.23 0 0 1-1.239-4.5Zm3.1.231a4.588 4.588 0 0 0 .569 2.507 1.855 1.855 0 0 0 1.654.871 2.077 2.077 0 0 0 2.03-1.216v-4.593a2.048 2.048 0 0 0-2.009-1.216q-2.239.003-2.239 3.65Zm15.125 5.881a5.706 5.706 0 0 1-4.163-1.568 5.575 5.575 0 0 1-1.606-4.179v-.3a7.021 7.021 0 0 1 .677-3.131 4.967 4.967 0 0 1 1.917-2.127 5.382 5.382 0 0 1 2.831-.747 4.824 4.824 0 0 1 3.754 1.5 6.111 6.111 0 0 1 1.37 4.265v1.275h-7.4a2.884 2.884 0 0 0 .908 1.826 2.744 2.744 0 0 0 1.917.688 3.351 3.351 0 0 0 2.8-1.3l1.525 1.708a4.66 4.66 0 0 1-1.891 1.542 6.2 6.2 0 0 1-2.634.551Zm-.354-9.55a1.94 1.94 0 0 0-1.5.626 3.241 3.241 0 0 0-.736 1.791h4.318v-.248a2.311 2.311 0 0 0-.559-1.6 2 2 0 0 0-1.519-.566Zm10.177 9.338h-3.115v-16.5h3.115Zm13.385.215a5.706 5.706 0 0 1-4.163-1.568 5.575 5.575 0 0 1-1.606-4.179v-.3a7.021 7.021 0 0 1 .675-3.132 4.967 4.967 0 0 1 1.917-2.127 5.382 5.382 0 0 1 2.831-.747 4.824 4.824 0 0 1 3.754 1.5 6.111 6.111 0 0 1 1.37 4.265v1.273h-7.4a2.884 2.884 0 0 0 .908 1.826 2.744 2.744 0 0 0 1.917.688 3.351 3.351 0 0 0 2.8-1.3l1.53 1.706a4.66 4.66 0 0 1-1.891 1.542 6.2 6.2 0 0 1-2.642.553Zm-.354-9.55a1.94 1.94 0 0 0-1.5.626 3.241 3.241 0 0 0-.74 1.791h4.318v-.248a2.311 2.311 0 0 0-.559-1.6 2 2 0 0 0-1.52-.569Zm6.412 3.435a7 7 0 0 1 1.219-4.329 3.956 3.956 0 0 1 3.335-1.611 3.56 3.56 0 0 1 2.8 1.268v-5.928h3.115v16.5h-2.8l-.15-1.235a3.653 3.653 0 0 1-2.986 1.45 3.945 3.945 0 0 1-3.292-1.615 7.23 7.23 0 0 1-1.241-4.5Zm3.1.231a4.588 4.588 0 0 0 .569 2.507 1.855 1.855 0 0 0 1.654.871 2.077 2.077 0 0 0 2.036-1.209v-4.6a2.048 2.048 0 0 0-2.011-1.213q-2.243 0-2.243 3.647Zm13.056 5.669h-3.115v-11.623h3.115Zm-3.3-14.631a1.529 1.529 0 0 1 .467-1.149 1.755 1.755 0 0 1 1.273-.451 1.759 1.759 0 0 1 1.268.451 1.52 1.52 0 0 1 .473 1.149 1.524 1.524 0 0 1-.478 1.16 1.764 1.764 0 0 1-1.262.451 1.764 1.764 0 0 1-1.262-.451 1.524 1.524 0 0 1-.476-1.16Zm9.571.15v2.857h1.987v2.277h-1.984v5.8a1.385 1.385 0 0 0 .247.924 1.241 1.241 0 0 0 .945.279 4.951 4.951 0 0 0 .913-.075v2.353a6.391 6.391 0 0 1-1.88.279q-3.266 0-3.33-3.3v-6.259h-1.7v-2.277h1.7v-2.857Zm2.911 8.562a6.893 6.893 0 0 1 .669-3.081 4.876 4.876 0 0 1 1.918-2.1 5.594 5.594 0 0 1 2.906-.741 5.293 5.293 0 0 1 3.84 1.439 5.777 5.777 0 0 1 1.66 3.91l.021.795a6.075 6.075 0 0 1-1.493 4.297 5.19 5.19 0 0 1-4.011 1.615 5.216 5.216 0 0 1-4.008-1.615 6.182 6.182 0 0 1-1.5-4.383Zm3.1.22a4.345 4.345 0 0 0 .623 2.534 2.238 2.238 0 0 0 3.545.011 4.754 4.754 0 0 0 .634-2.77 4.3 4.3 0 0 0-.634-2.518 2.06 2.06 0 0 0-1.783-.893 2.027 2.027 0 0 0-1.762.888 4.834 4.834 0 0 0-.613 2.747Zm16.35-3.013a8.434 8.434 0 0 0-1.11-.088 2.274 2.274 0 0 0-2.31 1.192v7.608h-3.1v-11.623h2.933l.086 1.386a2.877 2.877 0 0 1 2.589-1.6 3.253 3.253 0 0 1 .967.14ZM343.131-6485.223h-5.65l-1.075 3.223h-3.427l5.821-15.641h2.986l5.857 15.641h-3.427Zm-4.78-2.61h3.91l-1.966-5.854Zm17.08-2.879a8.434 8.434 0 0 0-1.118-.088 2.274 2.274 0 0 0-2.313 1.195v7.605h-3.1v-11.623h2.933l.086 1.386a2.877 2.877 0 0 1 2.589-1.6 3.253 3.253 0 0 1 .967.14Zm5.747-5.769v2.857h1.987v2.277h-1.987v5.8a1.385 1.385 0 0 0 .247.924 1.241 1.241 0 0 0 .945.279 4.951 4.951 0 0 0 .913-.075v2.355a6.391 6.391 0 0 1-1.883.279q-3.266 0-3.33-3.3v-6.261h-1.7v-2.277h1.7v-2.857Zm7.068 14.481h-3.1v-11.623h3.1Zm-.913-16.339h3.384l-2.976 3.33h-2.524Zm8.422 14.051a2.036 2.036 0 0 0 1.4-.473 1.656 1.656 0 0 0 .555-1.257h2.911a3.982 3.982 0 0 1-.645 2.165 4.253 4.253 0 0 1-1.734 1.525 5.43 5.43 0 0 1-2.433.543 5.046 5.046 0 0 1-3.932-1.585 6.27 6.27 0 0 1-1.439-4.377v-.2a6.2 6.2 0 0 1 1.429-4.286 4.987 4.987 0 0 1 3.921-1.6 4.889 4.889 0 0 1 3.5 1.241 4.393 4.393 0 0 1 1.337 3.3h-2.915a2.133 2.133 0 0 0-.559-1.476 1.862 1.862 0 0 0-1.418-.567 1.87 1.87 0 0 0-1.633.791 4.583 4.583 0 0 0-.553 2.566v.323a4.641 4.641 0 0 0 .543 2.582 1.893 1.893 0 0 0 1.665.785Zm13.6 1.106a3.893 3.893 0 0 1-3.18 1.4 3.672 3.672 0 0 1-2.852-1.077 4.586 4.586 0 0 1-1-3.147v-7.616h3.1v7.518q0 1.817 1.654 1.817a2.242 2.242 0 0 0 2.17-1.1v-8.238h3.115V-6482h-2.922Zm8.625 1.182h-3.115v-16.5h3.115Zm2.073-5.919a6.893 6.893 0 0 1 .667-3.081 4.876 4.876 0 0 1 1.917-2.1 5.594 5.594 0 0 1 2.906-.741 5.293 5.293 0 0 1 3.84 1.439 5.777 5.777 0 0 1 1.66 3.91l.021.795a6.075 6.075 0 0 1-1.493 4.297 5.19 5.19 0 0 1-4.007 1.615 5.216 5.216 0 0 1-4.012-1.615 6.182 6.182 0 0 1-1.5-4.383Zm3.1.22a4.345 4.345 0 0 0 .623 2.534 2.055 2.055 0 0 0 1.783.877 2.06 2.06 0 0 0 1.762-.866 4.754 4.754 0 0 0 .634-2.77 4.3 4.3 0 0 0-.634-2.518 2.06 2.06 0 0 0-1.783-.893 2.027 2.027 0 0 0-1.762.888 4.834 4.834 0 0 0-.618 2.747Zm16.118 2.487a1 1 0 0 0-.564-.9 6.406 6.406 0 0 0-1.81-.585q-4.146-.87-4.146-3.523a3.194 3.194 0 0 1 1.284-2.58 5.178 5.178 0 0 1 3.357-1.037 5.573 5.573 0 0 1 3.54 1.042 3.284 3.284 0 0 1 1.327 2.707h-3.1a1.5 1.5 0 0 0-.43-1.1 1.818 1.818 0 0 0-1.343-.435 1.858 1.858 0 0 0-1.214.354 1.119 1.119 0 0 0-.43.9.957.957 0 0 0 .489.833 5.028 5.028 0 0 0 1.649.548 13.468 13.468 0 0 1 1.955.521 3.212 3.212 0 0 1 2.46 3.126 3.032 3.032 0 0 1-1.369 2.573 5.885 5.885 0 0 1-3.526.983 6.147 6.147 0 0 1-2.594-.521 4.353 4.353 0 0 1-1.776-1.429 3.32 3.32 0 0 1-.645-1.96h2.943a1.621 1.621 0 0 0 .612 1.268 2.429 2.429 0 0 0 1.525.44 2.248 2.248 0 0 0 1.348-.338 1.053 1.053 0 0 0 .458-.887ZM556.111-6487.511v5.511h-3.223v-15.641h6.1a7.059 7.059 0 0 1 3.1.645 4.75 4.75 0 0 1 2.057 1.832 5.107 5.107 0 0 1 .72 2.7 4.491 4.491 0 0 1-1.574 3.625 6.555 6.555 0 0 1-4.356 1.327Zm0-2.61h2.879a2.831 2.831 0 0 0 1.95-.6 2.188 2.188 0 0 0 .671-1.719 2.58 2.58 0 0 0-.677-1.858 2.528 2.528 0 0 0-1.869-.73h-2.954Zm17.381 8.121a3.447 3.447 0 0 1-.312-1.042 3.756 3.756 0 0 1-2.932 1.257 4.127 4.127 0 0 1-2.831-.988 3.178 3.178 0 0 1-1.123-2.492 3.285 3.285 0 0 1 1.371-2.835 6.758 6.758 0 0 1 3.958-1h1.429v-.666a1.915 1.915 0 0 0-.414-1.289 1.627 1.627 0 0 0-1.305-.483 1.85 1.85 0 0 0-1.23.376 1.277 1.277 0 0 0-.446 1.031h-3.1a3.119 3.119 0 0 1 .619-1.869 4.118 4.118 0 0 1 1.762-1.348 6.42 6.42 0 0 1 2.557-.489 5.073 5.073 0 0 1 3.411 1.08 3.777 3.777 0 0 1 1.262 3.035v5.038a5.557 5.557 0 0 0 .462 2.5v.184Zm-2.567-2.159a2.674 2.674 0 0 0 1.268-.306 2.011 2.011 0 0 0 .859-.822v-2h-1.16q-2.331 0-2.481 1.611l-.011.183a1.243 1.243 0 0 0 .408.956 1.586 1.586 0 0 0 1.117.378Zm14.158-6.553a8.434 8.434 0 0 0-1.117-.088 2.274 2.274 0 0 0-2.31 1.192v7.608h-3.1v-11.623h2.933l.086 1.386a2.877 2.877 0 0 1 2.589-1.6 3.253 3.253 0 0 1 .967.14Zm5.747-5.769v2.857h1.987v2.277h-1.987v5.8a1.385 1.385 0 0 0 .247.924 1.241 1.241 0 0 0 .945.279 4.951 4.951 0 0 0 .913-.075v2.355a6.391 6.391 0 0 1-1.88.279q-3.266 0-3.33-3.3v-6.261h-1.7v-2.277h1.7v-2.857Zm9.07 14.696a5.706 5.706 0 0 1-4.163-1.568 5.575 5.575 0 0 1-1.606-4.179v-.3a7.021 7.021 0 0 1 .669-3.132 4.967 4.967 0 0 1 1.917-2.127 5.382 5.382 0 0 1 2.831-.747 4.824 4.824 0 0 1 3.754 1.5 6.111 6.111 0 0 1 1.37 4.265v1.273h-7.4a2.884 2.884 0 0 0 .908 1.826 2.744 2.744 0 0 0 1.917.688 3.351 3.351 0 0 0 2.8-1.3l1.533 1.706a4.66 4.66 0 0 1-1.891 1.542 6.2 6.2 0 0 1-2.639.553Zm-.354-9.55a1.94 1.94 0 0 0-1.5.626 3.241 3.241 0 0 0-.736 1.791h4.318v-.248a2.311 2.311 0 0 0-.559-1.6 2 2 0 0 0-1.527-.569Zm22.834 3.635a6.971 6.971 0 0 1-1.219 4.3 3.909 3.909 0 0 1-3.293 1.615 3.621 3.621 0 0 1-2.847-1.225v5.479h-3.1v-16.092h2.879l.107 1.139a3.649 3.649 0 0 1 2.943-1.354 3.936 3.936 0 0 1 3.341 1.59 7.16 7.16 0 0 1 1.189 4.383Zm-3.1-.226a4.574 4.574 0 0 0-.575-2.5 1.872 1.872 0 0 0-1.67-.881 2.033 2.033 0 0 0-2.014 1.107v4.759a2.067 2.067 0 0 0 2.03 1.149q2.224.004 2.224-3.638Zm4.544.011a6.893 6.893 0 0 1 .661-3.085 4.876 4.876 0 0 1 1.915-2.1 5.594 5.594 0 0 1 2.906-.741 5.293 5.293 0 0 1 3.843 1.441 5.777 5.777 0 0 1 1.66 3.91l.021.795a6.075 6.075 0 0 1-1.493 4.295 5.19 5.19 0 0 1-4.007 1.615 5.216 5.216 0 0 1-4.012-1.615 6.182 6.182 0 0 1-1.5-4.383Zm3.1.22a4.345 4.345 0 0 0 .623 2.534 2.055 2.055 0 0 0 1.783.877 2.06 2.06 0 0 0 1.762-.866 4.754 4.754 0 0 0 .634-2.77 4.3 4.3 0 0 0-.634-2.518 2.06 2.06 0 0 0-1.783-.893 2.027 2.027 0 0 0-1.762.888 4.834 4.834 0 0 0-.623 2.743Zm16.113 2.483a1 1 0 0 0-.564-.9 6.406 6.406 0 0 0-1.81-.585q-4.146-.87-4.146-3.523a3.194 3.194 0 0 1 1.283-2.58 5.178 5.178 0 0 1 3.357-1.037 5.573 5.573 0 0 1 3.543 1.037 3.284 3.284 0 0 1 1.327 2.707h-3.1a1.5 1.5 0 0 0-.43-1.1 1.818 1.818 0 0 0-1.343-.435 1.858 1.858 0 0 0-1.214.354 1.119 1.119 0 0 0-.43.9.957.957 0 0 0 .489.833 5.028 5.028 0 0 0 1.649.548 13.468 13.468 0 0 1 1.955.521 3.212 3.212 0 0 1 2.46 3.126 3.032 3.032 0 0 1-1.372 2.578 5.885 5.885 0 0 1-3.523.983 6.147 6.147 0 0 1-2.594-.521 4.353 4.353 0 0 1-1.774-1.429 3.32 3.32 0 0 1-.645-1.96h2.943a1.621 1.621 0 0 0 .612 1.268 2.429 2.429 0 0 0 1.525.44 2.248 2.248 0 0 0 1.348-.338 1.053 1.053 0 0 0 .454-.887Zm8.734-11.268v2.857h1.987v2.277h-1.987v5.8a1.385 1.385 0 0 0 .247.924 1.241 1.241 0 0 0 .945.279 4.951 4.951 0 0 0 .913-.075v2.354a6.391 6.391 0 0 1-1.876.279q-3.266 0-3.33-3.3v-6.261h-1.7v-2.277h1.7v-2.857Zm9.066 14.695a5.706 5.706 0 0 1-4.163-1.568 5.575 5.575 0 0 1-1.606-4.179v-.3a7.021 7.021 0 0 1 .677-3.131 4.967 4.967 0 0 1 1.917-2.127 5.382 5.382 0 0 1 2.831-.747 4.824 4.824 0 0 1 3.754 1.5 6.111 6.111 0 0 1 1.37 4.265v1.272h-7.4a2.884 2.884 0 0 0 .908 1.826 2.744 2.744 0 0 0 1.917.688 3.351 3.351 0 0 0 2.8-1.3l1.528 1.706a4.66 4.66 0 0 1-1.891 1.542 6.2 6.2 0 0 1-2.642.553Zm-.354-9.55a1.94 1.94 0 0 0-1.5.626 3.241 3.241 0 0 0-.736 1.791h4.318v-.248a2.311 2.311 0 0 0-.559-1.6 2 2 0 0 0-1.524-.569Zm13.428.623a8.434 8.434 0 0 0-1.118-.088 2.274 2.274 0 0 0-2.31 1.192v7.608h-3.1v-11.623h2.933l.086 1.386a2.877 2.877 0 0 1 2.589-1.6 3.253 3.253 0 0 1 .967.14Zm4.769 8.712h-3.116v-11.623h3.116Zm-3.3-14.631a1.529 1.529 0 0 1 .467-1.149 1.755 1.755 0 0 1 1.273-.451 1.759 1.759 0 0 1 1.268.451 1.52 1.52 0 0 1 .473 1.149 1.524 1.524 0 0 1-.478 1.16 1.764 1.764 0 0 1-1.262.451 1.764 1.764 0 0 1-1.262-.451 1.524 1.524 0 0 1-.477-1.16Zm5.371 8.712a6.893 6.893 0 0 1 .668-3.081 4.876 4.876 0 0 1 1.917-2.1 5.594 5.594 0 0 1 2.906-.741 5.293 5.293 0 0 1 3.84 1.439 5.777 5.777 0 0 1 1.66 3.91l.021.795a6.075 6.075 0 0 1-1.492 4.297 5.19 5.19 0 0 1-4.007 1.615 5.216 5.216 0 0 1-4.013-1.615 6.182 6.182 0 0 1-1.5-4.383Zm3.1.22a4.345 4.345 0 0 0 .623 2.534 2.055 2.055 0 0 0 1.783.877 2.06 2.06 0 0 0 1.762-.866 4.754 4.754 0 0 0 .634-2.77 4.3 4.3 0 0 0-.634-2.518 2.06 2.06 0 0 0-1.783-.893 2.027 2.027 0 0 0-1.762.888 4.834 4.834 0 0 0-.617 2.747Zm16.35-3.013a8.434 8.434 0 0 0-1.111-.088 2.274 2.274 0 0 0-2.31 1.192v7.608h-3.1v-11.623h2.933l.086 1.386a2.877 2.877 0 0 1 2.589-1.6 3.253 3.253 0 0 1 .967.14ZM94.776-6715.511v5.511h-3.223v-15.641h6.1a7.059 7.059 0 0 1 3.1.645 4.75 4.75 0 0 1 2.057 1.832 5.107 5.107 0 0 1 .72 2.7 4.491 4.491 0 0 1-1.574 3.625 6.555 6.555 0 0 1-4.356 1.328Zm0-2.61h2.879a2.831 2.831 0 0 0 1.95-.6 2.188 2.188 0 0 0 .671-1.719 2.58 2.58 0 0 0-.676-1.86 2.528 2.528 0 0 0-1.869-.73h-2.954Zm17.381 8.121a3.448 3.448 0 0 1-.312-1.042 3.756 3.756 0 0 1-2.932 1.257 4.127 4.127 0 0 1-2.831-.988 3.178 3.178 0 0 1-1.122-2.493 3.285 3.285 0 0 1 1.37-2.834 6.758 6.758 0 0 1 3.958-1h1.429v-.666a1.915 1.915 0 0 0-.417-1.29 1.627 1.627 0 0 0-1.3-.483 1.85 1.85 0 0 0-1.23.376 1.277 1.277 0 0 0-.446 1.031h-3.1a3.118 3.118 0 0 1 .617-1.868 4.118 4.118 0 0 1 1.759-1.349 6.42 6.42 0 0 1 2.557-.489 5.073 5.073 0 0 1 3.411 1.08 3.777 3.777 0 0 1 1.262 3.035v5.038a5.557 5.557 0 0 0 .462 2.5v.185Zm-2.567-2.159a2.674 2.674 0 0 0 1.268-.306 2.011 2.011 0 0 0 .859-.822v-2h-1.16q-2.331 0-2.481 1.611l-.011.183a1.243 1.243 0 0 0 .408.956 1.586 1.586 0 0 0 1.117.378Zm1.181-14.341h3.384l-2.976 3.33h-2.524Zm5.994 10.6a6.812 6.812 0 0 1 1.273-4.308 4.125 4.125 0 0 1 3.432-1.633 3.617 3.617 0 0 1 2.976 1.311l.129-1.1h2.815v11.243a4.968 4.968 0 0 1-.69 2.654 4.45 4.45 0 0 1-1.95 1.719 6.854 6.854 0 0 1-2.95.59 6.373 6.373 0 0 1-2.492-.51 4.423 4.423 0 0 1-1.833-1.316l1.375-1.891a3.637 3.637 0 0 0 2.814 1.3 2.662 2.662 0 0 0 1.923-.659 2.478 2.478 0 0 0 .687-1.876v-.624a3.591 3.591 0 0 1-2.825 1.215 4.114 4.114 0 0 1-3.389-1.638 6.81 6.81 0 0 1-1.294-4.345Zm3.1.231a4.242 4.242 0 0 0 .635 2.483 2.016 2.016 0 0 0 1.74.9 2.156 2.156 0 0 0 2.03-1.065v-4.9a2.151 2.151 0 0 0-2.004-1.062 2.029 2.029 0 0 0-1.757.913 4.781 4.781 0 0 0-.639 2.734Zm13.186 5.669h-3.115v-11.623h3.115Zm-3.3-14.631a1.529 1.529 0 0 1 .469-1.149 1.755 1.755 0 0 1 1.273-.451 1.759 1.759 0 0 1 1.268.451 1.52 1.52 0 0 1 .473 1.149 1.524 1.524 0 0 1-.478 1.16 1.764 1.764 0 0 1-1.262.451 1.764 1.764 0 0 1-1.262-.451 1.524 1.524 0 0 1-.479-1.16Zm8.712 3.008.1 1.343a4.058 4.058 0 0 1 3.337-1.558 3.372 3.372 0 0 1 2.75 1.085 5.062 5.062 0 0 1 .924 3.244v7.509h-3.1v-7.434a2.014 2.014 0 0 0-.43-1.434 1.924 1.924 0 0 0-1.429-.446 2.136 2.136 0 0 0-1.968 1.114v8.2h-3.1v-11.623ZM154.664-6710a3.448 3.448 0 0 1-.312-1.042 3.756 3.756 0 0 1-2.932 1.257 4.127 4.127 0 0 1-2.831-.988 3.178 3.178 0 0 1-1.123-2.492 3.285 3.285 0 0 1 1.37-2.835 6.758 6.758 0 0 1 3.958-1h1.429v-.666a1.915 1.915 0 0 0-.414-1.289 1.627 1.627 0 0 0-1.309-.484 1.85 1.85 0 0 0-1.23.376 1.277 1.277 0 0 0-.446 1.031h-3.1a3.118 3.118 0 0 1 .624-1.868 4.118 4.118 0 0 1 1.762-1.348 6.42 6.42 0 0 1 2.557-.489 5.073 5.073 0 0 1 3.411 1.08 3.777 3.777 0 0 1 1.262 3.035v5.038a5.557 5.557 0 0 0 .462 2.5v.184Zm-2.564-2.159a2.674 2.674 0 0 0 1.268-.306 2.011 2.011 0 0 0 .859-.822v-2h-1.16q-2.331 0-2.481 1.611l-.011.183a1.243 1.243 0 0 0 .408.956 1.586 1.586 0 0 0 1.117.378Zm13.919-1.053a1 1 0 0 0-.564-.9 6.406 6.406 0 0 0-1.81-.585q-4.145-.867-4.145-3.521a3.194 3.194 0 0 1 1.282-2.582 5.178 5.178 0 0 1 3.357-1.037 5.573 5.573 0 0 1 3.54 1.042 3.284 3.284 0 0 1 1.321 2.706h-3.1a1.5 1.5 0 0 0-.43-1.1 1.818 1.818 0 0 0-1.343-.435 1.858 1.858 0 0 0-1.214.354 1.119 1.119 0 0 0-.43.9.957.957 0 0 0 .489.833 5.028 5.028 0 0 0 1.649.548 13.468 13.468 0 0 1 1.955.521 3.212 3.212 0 0 1 2.46 3.126 3.032 3.032 0 0 1-1.363 2.574 5.885 5.885 0 0 1-3.523.983 6.147 6.147 0 0 1-2.594-.521 4.353 4.353 0 0 1-1.778-1.429 3.32 3.32 0 0 1-.645-1.96h2.943a1.621 1.621 0 0 0 .612 1.268 2.429 2.429 0 0 0 1.525.44 2.248 2.248 0 0 0 1.348-.338 1.053 1.053 0 0 0 .458-.887ZM74.984-6691.9a7 7 0 0 1 1.216-4.327 3.956 3.956 0 0 1 3.335-1.611 3.56 3.56 0 0 1 2.8 1.268v-5.93h3.115v16.5h-2.8l-.15-1.235a3.653 3.653 0 0 1-2.986 1.45 3.945 3.945 0 0 1-3.289-1.615 7.23 7.23 0 0 1-1.241-4.5Zm3.1.231a4.588 4.588 0 0 0 .569 2.507 1.855 1.855 0 0 0 1.654.871 2.077 2.077 0 0 0 2.03-1.216v-4.593a2.048 2.048 0 0 0-2.009-1.216q-2.24.003-2.24 3.65Zm15.125 5.881a5.706 5.706 0 0 1-4.163-1.568 5.575 5.575 0 0 1-1.606-4.179v-.3a7.021 7.021 0 0 1 .677-3.131 4.967 4.967 0 0 1 1.917-2.127 5.382 5.382 0 0 1 2.831-.747 4.824 4.824 0 0 1 3.754 1.5 6.111 6.111 0 0 1 1.37 4.265v1.275h-7.4a2.884 2.884 0 0 0 .908 1.826 2.744 2.744 0 0 0 1.917.688 3.351 3.351 0 0 0 2.8-1.3l1.525 1.708a4.66 4.66 0 0 1-1.891 1.542 6.2 6.2 0 0 1-2.635.551Zm-.354-9.55a1.94 1.94 0 0 0-1.5.626 3.241 3.241 0 0 0-.736 1.791h4.318v-.248a2.311 2.311 0 0 0-.559-1.6 2 2 0 0 0-1.519-.566Zm17.209 7.047a2.036 2.036 0 0 0 1.4-.473 1.656 1.656 0 0 0 .559-1.257h2.911a3.982 3.982 0 0 1-.645 2.165 4.253 4.253 0 0 1-1.735 1.525 5.43 5.43 0 0 1-2.433.542 5.046 5.046 0 0 1-3.931-1.581 6.27 6.27 0 0 1-1.439-4.377v-.2a6.2 6.2 0 0 1 1.429-4.286 4.987 4.987 0 0 1 3.921-1.6 4.889 4.889 0 0 1 3.499 1.233 4.393 4.393 0 0 1 1.337 3.3h-2.911a2.133 2.133 0 0 0-.559-1.474 1.862 1.862 0 0 0-1.418-.567 1.87 1.87 0 0 0-1.638.791 4.583 4.583 0 0 0-.553 2.566v.323a4.641 4.641 0 0 0 .548 2.582 1.893 1.893 0 0 0 1.662.791Zm13.6 1.106a3.893 3.893 0 0 1-3.18 1.4 3.672 3.672 0 0 1-2.852-1.074 4.586 4.586 0 0 1-1-3.147v-7.617h3.1v7.518q0 1.817 1.654 1.817a2.242 2.242 0 0 0 2.17-1.1v-8.235h3.115V-6686h-2.918Zm15.827-4.515a7.038 7.038 0 0 1-1.191 4.352 3.95 3.95 0 0 1-3.33 1.563 3.629 3.629 0 0 1-3.019-1.45l-.141 1.235h-2.793v-16.5h3.1v5.919a3.536 3.536 0 0 1 2.825-1.257 3.982 3.982 0 0 1 3.335 1.563 7.048 7.048 0 0 1 1.208 4.4Zm-3.1-.226a4.624 4.624 0 0 0-.563-2.574 1.889 1.889 0 0 0-1.665-.811 2.048 2.048 0 0 0-2.041 1.211v4.587a2.076 2.076 0 0 0 2.063 1.225 1.917 1.917 0 0 0 1.977-1.482 7.647 7.647 0 0 0 .224-2.16Zm8.288 5.926h-3.115v-11.623h3.115Zm-3.3-14.631a1.529 1.529 0 0 1 .467-1.149 1.755 1.755 0 0 1 1.273-.451 1.759 1.759 0 0 1 1.268.451 1.52 1.52 0 0 1 .473 1.149 1.524 1.524 0 0 1-.478 1.16 1.764 1.764 0 0 1-1.262.451 1.764 1.764 0 0 1-1.262-.451 1.524 1.524 0 0 1-.477-1.16Zm11.2 14.846a5.706 5.706 0 0 1-4.163-1.568 5.575 5.575 0 0 1-1.606-4.179v-.3a7.021 7.021 0 0 1 .677-3.131 4.967 4.967 0 0 1 1.917-2.127 5.382 5.382 0 0 1 2.831-.747 4.824 4.824 0 0 1 3.765 1.503 6.111 6.111 0 0 1 1.37 4.265v1.269h-7.4a2.884 2.884 0 0 0 .908 1.826 2.744 2.744 0 0 0 1.917.688 3.351 3.351 0 0 0 2.8-1.3l1.525 1.708a4.66 4.66 0 0 1-1.891 1.542 6.2 6.2 0 0 1-2.644.551Zm-.354-9.55a1.94 1.94 0 0 0-1.5.626 3.241 3.241 0 0 0-.725 1.791h4.318v-.248a2.311 2.311 0 0 0-.559-1.6 2 2 0 0 0-1.528-.569Zm13.428.623a8.434 8.434 0 0 0-1.117-.086 2.274 2.274 0 0 0-2.31 1.192v7.606h-3.1v-11.623h2.934l.086 1.386a2.877 2.877 0 0 1 2.589-1.6 3.253 3.253 0 0 1 .967.14Zm5.753-5.768v2.857h1.987v2.277h-1.987v5.8a1.385 1.385 0 0 0 .247.924 1.241 1.241 0 0 0 .945.279 4.951 4.951 0 0 0 .913-.075v2.353a6.391 6.391 0 0 1-1.88.279q-3.266 0-3.33-3.3v-6.26H166.6v-2.277h1.7v-2.857Zm10.452 14.48a3.447 3.447 0 0 1-.312-1.042 3.756 3.756 0 0 1-2.933 1.257 4.127 4.127 0 0 1-2.831-.988 3.178 3.178 0 0 1-1.123-2.492 3.285 3.285 0 0 1 1.371-2.835 6.758 6.758 0 0 1 3.958-1h1.429v-.666a1.915 1.915 0 0 0-.417-1.29 1.627 1.627 0 0 0-1.305-.483 1.85 1.85 0 0 0-1.23.376 1.277 1.277 0 0 0-.446 1.031h-3.1a3.119 3.119 0 0 1 .623-1.868 4.118 4.118 0 0 1 1.758-1.349 6.42 6.42 0 0 1 2.557-.489 5.073 5.073 0 0 1 3.411 1.08 3.777 3.777 0 0 1 1.262 3.035v5.038a5.557 5.557 0 0 0 .462 2.5v.185Zm-2.567-2.159a2.674 2.674 0 0 0 1.268-.306 2.011 2.011 0 0 0 .859-.822v-2h-1.16q-2.331 0-2.481 1.611l-.011.183a1.243 1.243 0 0 0 .408.956 1.586 1.586 0 0 0 1.117.378ZM342.078-6701.223h-5.65l-1.074 3.223h-3.427l5.822-15.641h2.986L346.59-6698h-3.427Zm-4.78-2.61h3.91l-1.966-5.854Zm12.891-5.79.1 1.343a4.058 4.058 0 0 1 3.341-1.558 3.372 3.372 0 0 1 2.75 1.085 5.062 5.062 0 0 1 .92 3.244v7.509h-3.1v-7.434a2.014 2.014 0 0 0-.43-1.434 1.924 1.924 0 0 0-1.429-.446 2.136 2.136 0 0 0-1.97 1.114v8.2h-3.1v-11.623Zm16.424 10.441a3.893 3.893 0 0 1-3.18 1.4 3.672 3.672 0 0 1-2.851-1.077 4.586 4.586 0 0 1-1-3.147v-7.616h3.1v7.518q0 1.817 1.654 1.817a2.242 2.242 0 0 0 2.17-1.1v-8.238h3.115V-6698H366.7Zm8.207-10.441.1 1.343a4.058 4.058 0 0 1 3.338-1.558 3.372 3.372 0 0 1 2.75 1.085 5.062 5.062 0 0 1 .924 3.244v7.509h-3.105v-7.434a2.014 2.014 0 0 0-.427-1.434 1.924 1.924 0 0 0-1.429-.446A2.136 2.136 0 0 0 375-6706.2v8.2h-3.1v-11.623Zm14.3 9.335a2.036 2.036 0 0 0 1.4-.473 1.656 1.656 0 0 0 .559-1.257h2.911a3.982 3.982 0 0 1-.645 2.165 4.253 4.253 0 0 1-1.745 1.525 5.43 5.43 0 0 1-2.433.542 5.046 5.046 0 0 1-3.927-1.584 6.27 6.27 0 0 1-1.44-4.377v-.2a6.2 6.2 0 0 1 1.429-4.286 4.987 4.987 0 0 1 3.921-1.6 4.889 4.889 0 0 1 3.5 1.241 4.393 4.393 0 0 1 1.337 3.3h-2.914a2.133 2.133 0 0 0-.559-1.474 1.862 1.862 0 0 0-1.414-.569 1.87 1.87 0 0 0-1.638.791 4.583 4.583 0 0 0-.553 2.566v.323a4.641 4.641 0 0 0 .548 2.582 1.893 1.893 0 0 0 1.661.785Zm9.913 2.288h-3.115v-11.623h3.115Zm-3.3-14.631a1.529 1.529 0 0 1 .467-1.149 1.755 1.755 0 0 1 1.273-.451 1.759 1.759 0 0 1 1.268.451 1.52 1.52 0 0 1 .473 1.149 1.524 1.524 0 0 1-.478 1.16 1.764 1.764 0 0 1-1.262.451 1.764 1.764 0 0 1-1.262-.451 1.524 1.524 0 0 1-.477-1.16Zm5.371 8.712a6.893 6.893 0 0 1 .668-3.081 4.876 4.876 0 0 1 1.918-2.1 5.594 5.594 0 0 1 2.906-.741 5.293 5.293 0 0 1 3.84 1.439 5.777 5.777 0 0 1 1.66 3.91l.021.795a6.075 6.075 0 0 1-1.493 4.297 5.19 5.19 0 0 1-4.007 1.615 5.216 5.216 0 0 1-4.017-1.615 6.182 6.182 0 0 1-1.5-4.383Zm3.1.22a4.345 4.345 0 0 0 .623 2.534 2.055 2.055 0 0 0 1.783.877 2.06 2.06 0 0 0 1.762-.866 4.754 4.754 0 0 0 .634-2.77 4.3 4.3 0 0 0-.634-2.518 2.06 2.06 0 0 0-1.772-.893 2.027 2.027 0 0 0-1.762.888 4.834 4.834 0 0 0-.627 2.747Zm16.12 2.487a1 1 0 0 0-.564-.9 6.406 6.406 0 0 0-1.81-.585q-4.15-.867-4.15-3.521a3.194 3.194 0 0 1 1.287-2.582 5.178 5.178 0 0 1 3.357-1.037 5.573 5.573 0 0 1 3.54 1.042 3.284 3.284 0 0 1 1.327 2.707h-3.1a1.5 1.5 0 0 0-.43-1.1 1.818 1.818 0 0 0-1.343-.435 1.858 1.858 0 0 0-1.214.354 1.119 1.119 0 0 0-.43.9.957.957 0 0 0 .489.833 5.028 5.028 0 0 0 1.649.548 13.468 13.468 0 0 1 1.955.521 3.212 3.212 0 0 1 2.46 3.126 3.032 3.032 0 0 1-1.368 2.573 5.885 5.885 0 0 1-3.523.983 6.147 6.147 0 0 1-2.594-.521 4.353 4.353 0 0 1-1.778-1.429 3.32 3.32 0 0 1-.645-1.96h2.943a1.621 1.621 0 0 0 .612 1.268 2.429 2.429 0 0 0 1.525.44 2.248 2.248 0 0 0 1.348-.338 1.053 1.053 0 0 0 .457-.887Z" fill="#12263f"/><path d="M-20-6705.5h41.25M-20-6489.5h41.25M228-6705.5h41.25M228-6489.5h41.25M476-6705.5h41.25M712-6707h41.25v108.5H458M-227.333-6490H-255v-108.5h725.25M476-6489.5h41.25" fill="none" stroke="#12263f" stroke-width="4"/><path d="m31-6706-14 7v-14ZM31-6490l-14 7v-14ZM-217-6490l-14 7v-14ZM279-6706l-14 7v-14ZM279-6490l-14 7v-14ZM527-6706l-14 7v-14ZM527-6490l-14 7v-14Z" fill="#12263f"/><g transform="translate(527 -6775)" fill="#d0f2f5" stroke="#26ccda" stroke-width="2"><rect width="197" height="138" rx="7" stroke="none"/><rect x="1" y="1" width="195" height="136" rx="6" fill="none"/></g><path d="M612.363-6723.03h-4.791v13.03h-3.223v-13.03h-4.727v-2.61h12.74Zm6.563 13.03a3.447 3.447 0 0 1-.312-1.042 3.756 3.756 0 0 1-2.932 1.257 4.127 4.127 0 0 1-2.831-.988 3.178 3.178 0 0 1-1.123-2.492 3.285 3.285 0 0 1 1.372-2.835 6.758 6.758 0 0 1 3.958-1h1.429v-.666a1.915 1.915 0 0 0-.414-1.289 1.627 1.627 0 0 0-1.305-.483 1.85 1.85 0 0 0-1.23.376 1.277 1.277 0 0 0-.446 1.031h-3.1a3.118 3.118 0 0 1 .618-1.869 4.118 4.118 0 0 1 1.762-1.348 6.42 6.42 0 0 1 2.557-.489 5.073 5.073 0 0 1 3.411 1.08 3.777 3.777 0 0 1 1.26 3.033v5.038a5.557 5.557 0 0 0 .462 2.5v.186Zm-2.567-2.159a2.674 2.674 0 0 0 1.268-.306 2.011 2.011 0 0 0 .859-.822v-2h-1.16q-2.331 0-2.481 1.611l-.011.183a1.243 1.243 0 0 0 .408.956 1.586 1.586 0 0 0 1.117.378Zm18.1-3.541a7.038 7.038 0 0 1-1.192 4.352 3.95 3.95 0 0 1-3.33 1.563 3.629 3.629 0 0 1-3.019-1.45l-.139 1.235h-2.793v-16.5h3.1v5.919a3.536 3.536 0 0 1 2.825-1.257 3.982 3.982 0 0 1 3.335 1.563 7.048 7.048 0 0 1 1.208 4.4Zm-3.1-.226a4.624 4.624 0 0 0-.559-2.574 1.889 1.889 0 0 0-1.665-.811 2.048 2.048 0 0 0-2.045 1.211v4.587a2.076 2.076 0 0 0 2.063 1.225 1.917 1.917 0 0 0 1.976-1.483 7.647 7.647 0 0 0 .226-2.159Zm8.289 5.926h-3.115v-16.5h3.115Zm9.292 0a3.448 3.448 0 0 1-.312-1.042 3.756 3.756 0 0 1-2.928 1.257 4.127 4.127 0 0 1-2.831-.988 3.178 3.178 0 0 1-1.123-2.492 3.285 3.285 0 0 1 1.366-2.835 6.758 6.758 0 0 1 3.958-1h1.43v-.666a1.915 1.915 0 0 0-.414-1.289 1.627 1.627 0 0 0-1.305-.483 1.85 1.85 0 0 0-1.23.376 1.277 1.277 0 0 0-.451 1.03H642a3.118 3.118 0 0 1 .624-1.868 4.118 4.118 0 0 1 1.762-1.348 6.42 6.42 0 0 1 2.557-.489 5.073 5.073 0 0 1 3.411 1.08 3.777 3.777 0 0 1 1.262 3.035v5.038a5.557 5.557 0 0 0 .462 2.5v.184Zm-2.567-2.159a2.674 2.674 0 0 0 1.268-.306 2.011 2.011 0 0 0 .859-.822v-2h-1.16q-2.331 0-2.481 1.611l-.011.183a1.243 1.243 0 0 0 .408.956 1.586 1.586 0 0 0 1.117.378Zm-83.822 20.259a7 7 0 0 1 1.219-4.329 3.956 3.956 0 0 1 3.335-1.611 3.56 3.56 0 0 1 2.8 1.268v-5.928h3.115v16.5h-2.8l-.15-1.235a3.653 3.653 0 0 1-2.986 1.45 3.945 3.945 0 0 1-3.292-1.615 7.23 7.23 0 0 1-1.241-4.5Zm3.1.231a4.588 4.588 0 0 0 .569 2.507 1.855 1.855 0 0 0 1.654.871 2.077 2.077 0 0 0 2.036-1.209v-4.6a2.048 2.048 0 0 0-2.01-1.213q-2.244 0-2.244 3.647Zm15.125 5.881a5.706 5.706 0 0 1-4.163-1.568 5.575 5.575 0 0 1-1.606-4.179v-.3a7.021 7.021 0 0 1 .677-3.131 4.967 4.967 0 0 1 1.917-2.127 5.382 5.382 0 0 1 2.831-.747 4.824 4.824 0 0 1 3.754 1.5 6.111 6.111 0 0 1 1.37 4.265v1.275h-7.4a2.884 2.884 0 0 0 .908 1.826 2.744 2.744 0 0 0 1.917.688 3.351 3.351 0 0 0 2.8-1.3l1.525 1.708a4.66 4.66 0 0 1-1.891 1.542 6.2 6.2 0 0 1-2.634.551Zm-.354-9.55a1.94 1.94 0 0 0-1.5.626 3.241 3.241 0 0 0-.736 1.791h4.318v-.248a2.311 2.311 0 0 0-.559-1.6 2 2 0 0 0-1.519-.566Zm17.209 7.047a2.036 2.036 0 0 0 1.4-.473 1.656 1.656 0 0 0 .559-1.257h2.91a3.982 3.982 0 0 1-.645 2.165 4.253 4.253 0 0 1-1.735 1.525 5.43 5.43 0 0 1-2.433.542 5.046 5.046 0 0 1-3.932-1.584 6.27 6.27 0 0 1-1.439-4.377v-.2a6.2 6.2 0 0 1 1.429-4.286 4.987 4.987 0 0 1 3.921-1.6 4.889 4.889 0 0 1 3.5 1.241 4.393 4.393 0 0 1 1.337 3.3h-2.913a2.133 2.133 0 0 0-.559-1.474 1.862 1.862 0 0 0-1.418-.567 1.87 1.87 0 0 0-1.638.791 4.583 4.583 0 0 0-.553 2.566v.323a4.641 4.641 0 0 0 .548 2.582 1.893 1.893 0 0 0 1.665.786Zm6.155-3.631a6.893 6.893 0 0 1 .671-3.078 4.876 4.876 0 0 1 1.917-2.1 5.594 5.594 0 0 1 2.906-.741 5.293 5.293 0 0 1 3.84 1.441 5.777 5.777 0 0 1 1.66 3.91l.021.795a6.075 6.075 0 0 1-1.493 4.295 5.19 5.19 0 0 1-4.008 1.615 5.216 5.216 0 0 1-4.011-1.615 6.182 6.182 0 0 1-1.5-4.383Zm3.1.22a4.345 4.345 0 0 0 .623 2.534 2.055 2.055 0 0 0 1.783.877 2.06 2.06 0 0 0 1.762-.866 4.754 4.754 0 0 0 .634-2.77 4.3 4.3 0 0 0-.634-2.518 2.06 2.06 0 0 0-1.783-.893 2.027 2.027 0 0 0-1.762.888 4.834 4.834 0 0 0-.609 2.75Zm12.676-5.924.1 1.343a4.058 4.058 0 0 1 3.341-1.558 3.372 3.372 0 0 1 2.75 1.085 5.062 5.062 0 0 1 .924 3.244v7.512h-3.1v-7.434a2.014 2.014 0 0 0-.43-1.434 1.924 1.924 0 0 0-1.429-.446 2.136 2.136 0 0 0-1.965 1.114v8.2h-3.1v-11.623Zm13.189-2.854v2.857h1.988v2.277h-1.988v5.8a1.385 1.385 0 0 0 .249.925 1.241 1.241 0 0 0 .945.279 4.951 4.951 0 0 0 .913-.075v2.353a6.391 6.391 0 0 1-1.88.279q-3.266 0-3.33-3.3v-6.261h-1.698v-2.277h1.7v-2.857Zm9.066 14.7a5.706 5.706 0 0 1-4.163-1.568 5.575 5.575 0 0 1-1.606-4.179v-.3a7.021 7.021 0 0 1 .677-3.131 4.967 4.967 0 0 1 1.917-2.127 5.382 5.382 0 0 1 2.831-.747 4.824 4.824 0 0 1 3.754 1.5 6.111 6.111 0 0 1 1.37 4.265v1.267H639.2a2.884 2.884 0 0 0 .908 1.826 2.744 2.744 0 0 0 1.917.688 3.351 3.351 0 0 0 2.8-1.3l1.525 1.708a4.66 4.66 0 0 1-1.891 1.542 6.2 6.2 0 0 1-2.641.551Zm-.354-9.55a1.94 1.94 0 0 0-1.5.626 3.241 3.241 0 0 0-.736 1.791h4.318v-.248a2.311 2.311 0 0 0-.559-1.6 2 2 0 0 0-1.523-.574Zm9.754-2.288.1 1.343a4.058 4.058 0 0 1 3.341-1.558 3.372 3.372 0 0 1 2.75 1.085 5.062 5.062 0 0 1 .924 3.244v7.504h-3.1v-7.434a2.014 2.014 0 0 0-.43-1.434 1.924 1.924 0 0 0-1.429-.446 2.136 2.136 0 0 0-1.973 1.114v8.2h-3.1v-11.623ZM663.958-6686h-3.116v-11.623h3.115Zm-3.298-14.631a1.529 1.529 0 0 1 .467-1.149 2.014 2.014 0 0 1 2.541 0 1.52 1.52 0 0 1 .473 1.149 1.524 1.524 0 0 1-.478 1.16 1.991 1.991 0 0 1-2.524 0 1.524 1.524 0 0 1-.479-1.16Zm5.371 8.731a7 7 0 0 1 1.219-4.329 3.956 3.956 0 0 1 3.335-1.611 3.56 3.56 0 0 1 2.8 1.268v-5.928h3.115v16.5h-2.8l-.15-1.235a3.653 3.653 0 0 1-2.986 1.45 3.945 3.945 0 0 1-3.293-1.615 7.23 7.23 0 0 1-1.24-4.5Zm3.1.231a4.588 4.588 0 0 0 .569 2.509 1.855 1.855 0 0 0 1.654.871 2.077 2.077 0 0 0 2.03-1.216v-4.595a2.048 2.048 0 0 0-2.009-1.216q-2.24.003-2.24 3.65Zm9.292-.253a6.893 6.893 0 0 1 .67-3.078 4.876 4.876 0 0 1 1.918-2.1 5.594 5.594 0 0 1 2.906-.741 5.293 5.293 0 0 1 3.84 1.439 5.777 5.777 0 0 1 1.66 3.91l.021.795a6.075 6.075 0 0 1-1.493 4.297 5.787 5.787 0 0 1-8.019.005 6.182 6.182 0 0 1-1.5-4.383Zm3.1.22a4.345 4.345 0 0 0 .623 2.534 2.238 2.238 0 0 0 3.545.011 4.754 4.754 0 0 0 .634-2.77 4.3 4.3 0 0 0-.634-2.518 2.06 2.06 0 0 0-1.783-.893 2.027 2.027 0 0 0-1.762.888 4.834 4.834 0 0 0-.614 2.75Z" fill="#12263f"/><circle cx="10.5" cy="10.5" r="10.5" transform="translate(-128 -6649)" fill="#fff"/><circle cx="10.5" cy="10.5" r="10.5" transform="translate(-128 -6431)" fill="#fff"/><circle cx="10.5" cy="10.5" r="10.5" transform="translate(120 -6649)" fill="#fff"/><circle cx="10.5" cy="10.5" r="10.5" transform="translate(120 -6431)" fill="#fff"/><circle cx="10.5" cy="10.5" r="10.5" transform="translate(367 -6649)" fill="#fff"/><circle cx="10.5" cy="10.5" r="10.5" transform="translate(367 -6431)" fill="#fff"/><circle cx="10.5" cy="10.5" r="10.5" transform="translate(615 -6649)" fill="#fff"/><circle cx="10.5" cy="10.5" r="10.5" transform="translate(615 -6431)" fill="#fff"/><circle cx="8.5" cy="8.5" r="8.5" transform="translate(-126 -6647)" fill="#26ccda"/><circle cx="8.5" cy="8.5" r="8.5" transform="translate(-126 -6429)" fill="#fdd835"/><circle cx="8.5" cy="8.5" r="8.5" transform="translate(122 -6647)" fill="#26ccda"/><circle cx="8.5" cy="8.5" r="8.5" transform="translate(122 -6429)" fill="#fdd835"/><circle cx="8.5" cy="8.5" r="8.5" transform="translate(369 -6647)" fill="#26ccda"/><circle cx="8.5" cy="8.5" r="8.5" transform="translate(369 -6429)" fill="#fdd835"/><circle cx="8.5" cy="8.5" r="8.5" transform="translate(617 -6647)" fill="#26ccda"/><circle cx="8.5" cy="8.5" r="8.5" transform="translate(617 -6429)" fill="#fdd835"/><path d="M-118.691-6643h2.523v3.52h3.321v2.347h-3.321v3.743h-2.523v-3.743H-122v-2.347h3.309ZM-118.691-6425h2.523v3.52h3.321v2.347h-3.321v3.743h-2.523v-3.743H-122v-2.347h3.309ZM129.309-6643h2.523v3.52h3.321v2.347h-3.321v3.743h-2.523v-3.743H126v-2.347h3.309ZM129.309-6425h2.523v3.52h3.321v2.347h-3.321v3.743h-2.523v-3.743H126v-2.347h3.309ZM376.309-6643h2.523v3.52h3.321v2.347h-3.321v3.743h-2.523v-3.743H373v-2.347h3.309ZM376.309-6425h2.523v3.52h3.321v2.347h-3.321v3.743h-2.523v-3.743H373v-2.347h3.309ZM624.309-6643h2.523v3.52h3.321v2.347h-3.321v3.743h-2.523v-3.743H621v-2.347h3.309ZM624.309-6425h2.523v3.52h3.321v2.347h-3.321v3.743h-2.523v-3.743H621v-2.347h3.309Z" fill="#12263f"/></g></svg>