<svg xmlns="http://www.w3.org/2000/svg" width="295" height="280"><path d="M20 0h255a20 20 0 0 1 20 20v240a20 20 0 0 1-20 20H20a20 20 0 0 1-20-20V20A20 20 0 0 1 20 0Z" fill="#26ccda"/><path d="M114.581 236.372h-5.93v3.728h7v2.9H104.88v-15.641h10.8v2.911h-7.029v3.3h5.93Zm8.529 3.362a.836.836 0 0 0-.483-.741 7.353 7.353 0 0 0-1.837-.58 8.376 8.376 0 0 1-2.234-.79 3.743 3.743 0 0 1-1.343-1.187 2.834 2.834 0 0 1-.462-1.6 3.212 3.212 0 0 1 1.321-2.636 5.443 5.443 0 0 1 3.459-1.037 6.03 6.03 0 0 1 3.7 1.042 3.258 3.258 0 0 1 1.4 2.739h-3.639q0-1.4-1.472-1.4a1.459 1.459 0 0 0-.956.317.981.981 0 0 0-.387.79.9.9 0 0 0 .473.784 4.466 4.466 0 0 0 1.509.494 13.043 13.043 0 0 1 1.821.462q2.621.9 2.621 3.233a3.044 3.044 0 0 1-1.413 2.589 6.2 6.2 0 0 1-3.658 1 6.322 6.322 0 0 1-2.664-.537 4.455 4.455 0 0 1-1.826-1.461 3.308 3.308 0 0 1-.655-1.944h3.384a1.4 1.4 0 0 0 .537 1.176 2.209 2.209 0 0 0 1.321.371 1.738 1.738 0 0 0 1.112-.3.962.962 0 0 0 .371-.784Zm9.4-11.247v2.89h1.912v2.514h-1.912v5.317a1.358 1.358 0 0 0 .236.913 1.268 1.268 0 0 0 .935.258 5.311 5.311 0 0 0 .9-.064v2.585a6.681 6.681 0 0 1-2.041.312 3.792 3.792 0 0 1-2.761-.881 3.61 3.61 0 0 1-.892-2.675v-5.765h-1.48v-2.514h1.482v-2.89ZM142.392 243a4.087 4.087 0 0 1-.344-1.042 3.366 3.366 0 0 1-2.793 1.257 4.124 4.124 0 0 1-2.793-.994 3.163 3.163 0 0 1-1.149-2.5 3.251 3.251 0 0 1 1.4-2.857 7.114 7.114 0 0 1 4.061-.967h1.117v-.612q0-1.6-1.386-1.6a1.13 1.13 0 0 0-1.289 1.268h-3.62a3.25 3.25 0 0 1 1.434-2.739 6.022 6.022 0 0 1 3.658-1.053 5.284 5.284 0 0 1 3.513 1.085 3.772 3.772 0 0 1 1.321 2.976v5.146a5.269 5.269 0 0 0 .494 2.449V243Zm-2.267-2.363a2.019 2.019 0 0 0 1.123-.29 1.818 1.818 0 0 0 .639-.655v-1.859h-1.053q-1.891 0-1.891 1.7a1.036 1.036 0 0 0 .333.8 1.205 1.205 0 0 0 .849.304Zm.9-14.137h3.824l-2.986 3.373h-2.954Zm9.818 4.877.118 1.364a3.942 3.942 0 0 1 3.319-1.579 3.316 3.316 0 0 1 2.72 1.085 5.165 5.165 0 0 1 .929 3.266V243h-3.631v-7.337a1.961 1.961 0 0 0-.354-1.294 1.64 1.64 0 0 0-1.289-.414 1.726 1.726 0 0 0-1.579.838V243h-3.62v-11.623Zm8.626 5.726a7.1 7.1 0 0 1 1.192-4.351 3.925 3.925 0 0 1 3.33-1.59 3.338 3.338 0 0 1 2.621 1.225V226.5h3.631V243h-3.255l-.183-1.246a3.428 3.428 0 0 1-2.836 1.461 3.918 3.918 0 0 1-3.287-1.59 7.325 7.325 0 0 1-1.21-4.525Zm3.62.226q0 3.094 1.8 3.094a1.782 1.782 0 0 0 1.719-1.01v-4.427a1.734 1.734 0 0 0-1.7-1.031q-1.676 0-1.815 2.707ZM178.851 243a4.088 4.088 0 0 1-.344-1.042 3.366 3.366 0 0 1-2.793 1.257 4.124 4.124 0 0 1-2.793-.994 3.163 3.163 0 0 1-1.149-2.5 3.251 3.251 0 0 1 1.4-2.857 7.114 7.114 0 0 1 4.061-.967h1.117v-.612q0-1.6-1.386-1.6a1.13 1.13 0 0 0-1.289 1.268h-3.62a3.25 3.25 0 0 1 1.434-2.739 6.022 6.022 0 0 1 3.658-1.053 5.284 5.284 0 0 1 3.513 1.085 3.772 3.772 0 0 1 1.321 2.976v5.146a5.269 5.269 0 0 0 .494 2.449V243Zm-2.267-2.363a2.019 2.019 0 0 0 1.123-.29 1.818 1.818 0 0 0 .639-.655v-1.859h-1.053q-1.891 0-1.891 1.7a1.036 1.036 0 0 0 .333.8 1.205 1.205 0 0 0 .849.304Zm14.427-5.983-1.192-.086a2.142 2.142 0 0 0-2.191 1.074V243h-3.62v-11.623h3.392l.118 1.493a2.8 2.8 0 0 1 2.546-1.708 3.53 3.53 0 0 1 1.01.129Z" fill="#12263f"/><path d="M85 192h125v3H85Z" fill="#fff"/><g fill="#12263f"><path d="M112.931 51h84.231a1.461 1.461 0 0 1 1.138 1.114v79.969a9.282 9.282 0 0 1-8.9 8.917h-84.481A9.289 9.289 0 0 1 96 132.107V67.954a1.338 1.338 0 0 1 1.209-1.114c1.354-.056 2.709 0 4.064-.019.019-1.357-.037-2.714.019-4.069a1.264 1.264 0 0 1 1.19-1.185c1.354-.056 2.709 0 4.064-.019.019-1.359-.037-2.719.021-4.075a1.261 1.261 0 0 1 1.187-1.179c1.354-.056 2.711 0 4.066-.019.019-1.355-.037-2.714.019-4.068A1.352 1.352 0 0 1 112.931 51m1.526 2.637v76.633a14.454 14.454 0 0 1-.278 3.714 9.4 9.4 0 0 1-2.494 4.379h77.31a6.606 6.606 0 0 0 6.671-6.676q.005-39.026 0-78.049h-81.209m-5.273 5.272c-.014 1.354.028 2.707-.018 4.061a1.3 1.3 0 0 1-1.371 1.208c-1.294.018-2.589 0-3.885.005v66.623c.028.6-.121 1.3.3 1.8a1.32 1.32 0 0 0 1.948.093c.517-.487.367-1.257.392-1.891q-.013-30.852-.007-61.706c.026-.633-.128-1.4.388-1.888a1.318 1.318 0 0 1 1.944.086c.4.446.294 1.085.311 1.633q-.021 31.464-.011 62.93a3.95 3.95 0 0 1-7.631 1.336 6.663 6.663 0 0 1-.271-2.575v-61.17h-2.636v62.22a6.591 6.591 0 1 0 13.18.016q.005-36.392 0-72.782Z"/><path d="M123.144 60.608a5.532 5.532 0 0 1 1.688-.118h60.643c.635.026 1.406-.128 1.893.392a1.513 1.513 0 0 1 .392 1.2c-.007 6.158.007 12.317-.007 18.475a1.327 1.327 0 0 1-1.394 1.383c-16.7.011-45.7 0-62.4.005a1.479 1.479 0 0 1-1.283-.482 1.573 1.573 0 0 1-.308-1.1c.007-6.156-.005-12.312.005-18.466a1.332 1.332 0 0 1 .773-1.281m1.86 2.521V79.3h60.117V63.128ZM123.158 85.212a4.794 4.794 0 0 1 1.5-.114c16.467.011 45.239 0 61.7.007a1.309 1.309 0 0 1 1.383 1.206c.044 1.587 0 3.178.021 4.765a2.128 2.128 0 0 1-.311 1.454 1.481 1.481 0 0 1-1.281.483c-16.7-.007-45.708.005-62.411-.005a1.328 1.328 0 0 1-1.389-1.4q-.011-2.555 0-5.113a1.33 1.33 0 0 1 .788-1.285m1.846 2.526v2.637h60.117v-2.637ZM123.16 96.284a2.814 2.814 0 0 1 .977-.112c6.506.016 20.044-.012 26.55.012a1.311 1.311 0 0 1 1.269 1.568 1.351 1.351 0 0 1-1.454 1.06c-6.572 0-20.174.005-26.747-.005a1.317 1.317 0 0 1-.6-2.522ZM156.357 96.262a1.329 1.329 0 0 1 1.781 1.311q.005 15.741 0 31.482a1.318 1.318 0 1 1-2.631 0q-.005-15.741 0-31.482a1.335 1.335 0 0 1 .85-1.311ZM162.503 96.263a2.657 2.657 0 0 1 .817-.091c6.507.011 16.532 0 23.04.007a1.317 1.317 0 1 1 0 2.63c-6.567.009-16.65 0-23.217 0a1.362 1.362 0 0 1-1.41-.886 1.321 1.321 0 0 1 .77-1.66ZM123.141 101.566a2.566 2.566 0 0 1 .974-.121c6.511.016 20.053-.011 26.562.012a1.314 1.314 0 0 1 1.234 1.737 1.363 1.363 0 0 1-1.412.891c-6.567 0-20.167.005-26.735 0a1.319 1.319 0 0 1-.624-2.515ZM162.514 101.534a2.684 2.684 0 0 1 .805-.088c6.449.007 16.414 0 22.864 0a1.5 1.5 0 0 1 1.188.392 1.324 1.324 0 0 1-.1 1.948 2.147 2.147 0 0 1-1.45.3c-6.513-.03-16.544.035-23.055-.033a1.319 1.319 0 0 1-.252-2.519ZM123.152 106.835a2.131 2.131 0 0 1 .795-.114c6.506.005 20.043 0 26.546 0a1.359 1.359 0 0 1 1.417.891 5.98 5.98 0 0 1 .079 1.385c-.009 6.681 0 13.363-.007 20.043a1.35 1.35 0 0 1-1.48 1.412c-6.567 0-20.166.005-26.733 0a1.331 1.331 0 0 1-1.4-1.4q-.011-10.463 0-20.925a1.334 1.334 0 0 1 .782-1.294m1.851 2.524v18.457h24.346V109.36ZM162.499 106.812a2.64 2.64 0 0 1 .831-.093c6.5.011 16.52 0 23.024.007a1.317 1.317 0 1 1 0 2.63c-6.565.009-16.646 0-23.21 0a1.376 1.376 0 0 1-1.362-.751 1.322 1.322 0 0 1 .717-1.793ZM162.495 112.088a2.6 2.6 0 0 1 .842-.095c6.507.012 16.53-.005 23.04.009a1.316 1.316 0 1 1-.019 2.628c-6.565.009-16.646 0-23.212 0a1.347 1.347 0 0 1-1.487-1.394 1.32 1.32 0 0 1 .836-1.148ZM162.507 117.357a2.659 2.659 0 0 1 .826-.091c6.5.011 16.525-.005 23.031.007a1.317 1.317 0 1 1-.009 2.63c-6.564.009-16.646 0-23.212 0a1.348 1.348 0 0 1-1.485-1.392 1.318 1.318 0 0 1 .849-1.154ZM162.501 122.632a2.575 2.575 0 0 1 .821-.093c6.506.011 16.529-.005 23.034.007a1.317 1.317 0 1 1 .009 2.63c-6.274.011-16.065 0-22.338.005-.68-.026-1.515.148-2.023-.429a1.325 1.325 0 0 1 .497-2.12ZM162.511 127.903a2.648 2.648 0 0 1 .807-.09c6.506.011 16.529 0 23.034.007a1.317 1.317 0 1 1 .009 2.63c-6.565.009-16.646 0-23.212 0a1.356 1.356 0 0 1-1.466-1.063 1.317 1.317 0 0 1 .828-1.484Z"/></g></svg>