<svg xmlns="http://www.w3.org/2000/svg" width="295" height="280"><path d="M20 0h255a20 20 0 0 1 20 20v240a20 20 0 0 1-20 20H20a20 20 0 0 1-20-20V20A20 20 0 0 1 20 0Z" fill="#26ccda"/><path d="M118.5 230.271h-4.7V243h-3.769v-12.729h-4.608v-2.912H118.5ZM124.662 243a4.087 4.087 0 0 1-.344-1.042 3.366 3.366 0 0 1-2.793 1.257 4.124 4.124 0 0 1-2.793-.994 3.163 3.163 0 0 1-1.149-2.5 3.251 3.251 0 0 1 1.4-2.857 7.114 7.114 0 0 1 4.057-.964h1.117v-.612q0-1.6-1.386-1.6a1.13 1.13 0 0 0-1.289 1.268h-3.62a3.25 3.25 0 0 1 1.438-2.741 6.022 6.022 0 0 1 3.658-1.053 5.284 5.284 0 0 1 3.513 1.085 3.772 3.772 0 0 1 1.321 2.976v5.146a5.269 5.269 0 0 0 .494 2.449V243Zm-2.262-2.363a2.019 2.019 0 0 0 1.123-.29 1.818 1.818 0 0 0 .639-.655v-1.859H123.1q-1.891 0-1.891 1.7a1.036 1.036 0 0 0 .333.8 1.205 1.205 0 0 0 .858.304Zm18.187-3.352a7.084 7.084 0 0 1-1.182 4.394 3.958 3.958 0 0 1-3.33 1.536 3.435 3.435 0 0 1-2.857-1.407l-.155 1.192h-3.245v-16.5h3.62v5.812a3.314 3.314 0 0 1 2.61-1.149 3.959 3.959 0 0 1 3.352 1.557 7.121 7.121 0 0 1 1.182 4.383Zm-3.631-.226a4.74 4.74 0 0 0-.446-2.39 1.5 1.5 0 0 0-1.37-.714 1.733 1.733 0 0 0-1.7.935v4.619a1.742 1.742 0 0 0 1.719.924 1.538 1.538 0 0 0 1.622-1.246 8.962 8.962 0 0 0 .17-2.127ZM146 243h-3.631v-16.5H146Zm1.772-5.919a6.86 6.86 0 0 1 .677-3.1 4.84 4.84 0 0 1 1.944-2.089 5.856 5.856 0 0 1 2.976-.73 5.344 5.344 0 0 1 4.114 1.617 6.2 6.2 0 0 1 1.5 4.4v.129a6.019 6.019 0 0 1-1.509 4.313 5.359 5.359 0 0 1-4.087 1.6 5.42 5.42 0 0 1-3.985-1.488 5.819 5.819 0 0 1-1.622-4.034Zm3.62.226a4.325 4.325 0 0 0 .5 2.363 1.682 1.682 0 0 0 1.493.752q1.934 0 1.977-2.976v-.365q0-3.126-2-3.126-1.815 0-1.966 2.7ZM164.4 243h-3.631v-11.623h3.631Zm-3.848-14.62a1.616 1.616 0 0 1 .559-1.268 2.375 2.375 0 0 1 2.9 0 1.616 1.616 0 0 1 .559 1.268 1.616 1.616 0 0 1-.559 1.268 2.375 2.375 0 0 1-2.9 0 1.616 1.616 0 0 1-.559-1.268Zm5.618 8.72a7.1 7.1 0 0 1 1.192-4.351 3.925 3.925 0 0 1 3.33-1.59 3.338 3.338 0 0 1 2.621 1.225V226.5h3.631V243h-3.255l-.183-1.246a3.428 3.428 0 0 1-2.836 1.461 3.918 3.918 0 0 1-3.287-1.59 7.325 7.325 0 0 1-1.213-4.525Zm3.62.226q0 3.094 1.8 3.094a1.782 1.782 0 0 0 1.719-1.01v-4.424a1.734 1.734 0 0 0-1.7-1.031q-1.676 0-1.815 2.707Zm14.835 5.887a5.975 5.975 0 0 1-4.329-1.6 5.509 5.509 0 0 1-1.654-4.152v-.3a7.138 7.138 0 0 1 .661-3.147 4.834 4.834 0 0 1 1.928-2.111 5.821 5.821 0 0 1 3.008-.747 5.031 5.031 0 0 1 3.867 1.52 5.973 5.973 0 0 1 1.418 4.238v1.407h-7.2a2.609 2.609 0 0 0 .849 1.536 2.525 2.525 0 0 0 1.7.559 3.254 3.254 0 0 0 2.686-1.2l1.654 1.955a4.624 4.624 0 0 1-1.917 1.488 6.48 6.48 0 0 1-2.671.556Zm-.408-9.26q-1.59 0-1.891 2.105h3.652v-.279a1.793 1.793 0 0 0-.44-1.348 1.753 1.753 0 0 0-1.321-.476Z" fill="#12263f"/><path d="M85 192h125v3H85Z" fill="#fff"/><g fill="#12263f"><path d="M116.042 51h67.808a1.807 1.807 0 0 1 1.635 1.635V131.7a9.533 9.533 0 0 1-9.271 9.3h-67.926A9.535 9.535 0 0 1 99 131.742V73.393a1.769 1.769 0 0 1 1.733-1.642c2-.025 4 0 6-.009.011-3.173-.012-6.346.011-9.517a1.744 1.744 0 0 1 1.731-1.725c2-.023 4 0 5.994-.009.007-2.586-.014-5.17.009-7.754A1.783 1.783 0 0 1 116.042 51m1.942 3.516q-.008 18.729-.007 37.459a1.759 1.759 0 0 1-1.949 1.725 1.788 1.788 0 0 1-1.559-1.913V64.008h-4.219v64.867a2.767 2.767 0 0 1-.443 2.03 1.763 1.763 0 0 1-2.64-.005 2.793 2.793 0 0 1-.434-2.03q.005-26.8 0-53.61h-4.217v56.067a6.122 6.122 0 0 0 .649 2.879 5.971 5.971 0 0 0 11.3-2.519c.025-7.973-.005-15.947.016-23.92a1.751 1.751 0 0 1 3.5 0c.016 7.388 0 14.778.007 22.166a17.48 17.48 0 0 1-.172 3.349 9.66 9.66 0 0 1-1.949 4.206c21.219 0 38.921.005 60.14 0a6.011 6.011 0 0 0 5.963-5.968q.011-38.5 0-77Z"/><path d="M124.031 62.723a2.278 2.278 0 0 1 .807-.121h50.282a1.782 1.782 0 0 1 1.921 1.738c.016 4.168 0 8.339.007 12.507a1.816 1.816 0 0 1-.8 1.638 3.2 3.2 0 0 1-1.832.29h-49.567a1.784 1.784 0 0 1-1.932-1.74c-.016-4.166 0-8.334-.007-12.5a1.8 1.8 0 0 1 1.123-1.811m2.392 3.394v9.141h47.106v-9.142ZM124.03 83.812a2.744 2.744 0 0 1 .979-.125c8.912.011 17.826-.007 26.738.009a1.757 1.757 0 0 1 1.738 1.744q.024 16.8.007 33.6a1.783 1.783 0 0 1-1.742 1.909q-13.547.018-27.1 0a1.781 1.781 0 0 1-1.747-1.92v-33.41a1.8 1.8 0 0 1 1.123-1.8m2.392 3.394v30.234h23.555V87.212ZM159.549 83.812a2.81 2.81 0 0 1 .969-.12c6.1.012 8.689-.007 14.79.011a1.758 1.758 0 0 1 1.724 1.925 1.788 1.788 0 0 1-1.9 1.584c-6.165 0-8.814.009-14.977-.007a1.754 1.754 0 0 1-.6-3.393ZM159.539 92.254a2.292 2.292 0 0 1 .81-.121h14.416a1.986 1.986 0 0 1 2.115 1.021 1.765 1.765 0 0 1-1.572 2.491c-6.165.016-8.814 0-14.978.007a1.8 1.8 0 0 1-1.814-1.181 1.763 1.763 0 0 1 1.023-2.217ZM115.921 98.159a1.752 1.752 0 1 1-.884 2.907 1.762 1.762 0 0 1 .884-2.907ZM159.534 100.694a2.77 2.77 0 0 1 .991-.127c6.1.011 8.678-.007 14.774.011a1.757 1.757 0 0 1 1.733 1.918 1.789 1.789 0 0 1-1.918 1.591c-6.159-.005-8.8.009-14.964-.007a1.753 1.753 0 0 1-.617-3.385ZM159.548 109.125a2.243 2.243 0 0 1 .787-.118h14.8a1.811 1.811 0 0 1 1.477.6 1.758 1.758 0 0 1 .007 2.3 1.832 1.832 0 0 1-1.485.612c-6.163 0-8.812.009-14.975-.007a1.753 1.753 0 0 1-.606-3.391ZM159.536 117.569a2.211 2.211 0 0 1 .809-.123h14.783a1.787 1.787 0 0 1 1.9 1.557 1.762 1.762 0 0 1-1.733 1.951c-6.159.016-8.8 0-14.961.007a1.8 1.8 0 0 1-1.822-1.186 1.763 1.763 0 0 1 1.024-2.206ZM124.033 126.002a2.228 2.228 0 0 1 .8-.12h50.3a1.764 1.764 0 1 1-.011 3.516h-50.295a1.8 1.8 0 0 1-1.821-1.184 1.764 1.764 0 0 1 1.027-2.212Z"/></g></svg>