<svg xmlns="http://www.w3.org/2000/svg" width="130" height="130"><g transform="translate(-8813 10987)"><circle cx="65" cy="65" r="65" transform="translate(8813 -10987)" fill="#fff"/><g transform="translate(1534 -603)"><path d="M7346.225-10319.494h-38.444s2.226-36.7 36.7-36.7 36.33 36.7 36.33 36.7Z" fill="#26ccda"/><path d="M7380.815-10319.495h-15.877c-.457-4.478-3.685-27.292-22.453-36.661.66-.028 1.333-.042 2-.042a43.821 43.821 0 0 1 6.09.412 36.552 36.552 0 0 1 5.37 1.165 32.4 32.4 0 0 1 4.7 1.81 30.69 30.69 0 0 1 4.066 2.348 34.025 34.025 0 0 1 10.872 12.617 46.24 46.24 0 0 1 2.832 6.739 52.406 52.406 0 0 1 1.576 5.878 42.428 42.428 0 0 1 .828 5.735Z" fill="#84e0e8"/><circle cx="2.579" cy="2.579" r="2.579" transform="translate(7324.503 -10313.242)" fill="#fdd835"/><circle cx="2.579" cy="2.579" r="2.579" transform="translate(7312.001 -10305.741)" fill="#fdd835"/><circle cx="2.579" cy="2.579" r="2.579" transform="translate(7319.346 -10296.989)" fill="#fdd835"/><circle cx="2.579" cy="2.579" r="2.579" transform="translate(7329.348 -10296.989)" fill="#fdd835"/><circle cx="2.579" cy="2.579" r="2.579" transform="translate(7339.349 -10314.493)" fill="#fdd835"/><circle cx="2.579" cy="2.579" r="2.579" transform="translate(7336.849 -10288.238)" fill="#fdd835"/><circle cx="2.579" cy="2.579" r="2.579" transform="translate(7348.101 -10289.645)" fill="#fdd835"/><circle cx="2.579" cy="2.579" r="2.579" transform="translate(7350.757 -10310.898)" fill="#fdd835"/><circle cx="2.579" cy="2.579" r="2.579" transform="translate(7358.103 -10292.146)" fill="#fdd835"/><circle cx="2.579" cy="2.579" r="2.579" transform="translate(7369.354 -10302.146)" fill="#fdd835"/><circle cx="2.579" cy="2.579" r="2.579" transform="translate(7374.512 -10314.962)" fill="#fdd835"/><path d="M7336.617-10356.155a37.512 37.512 0 0 1 45.383 36.67 1.238 1.238 0 0 1-1.227 1.235c-.839.023-1.677 0-2.516.008.006.914-.017 1.828.016 2.741a3.779 3.779 0 0 1 2.314 2.425 3.739 3.739 0 0 1-4.512 4.709 3.8 3.8 0 0 1-2.586-2.366c-1.989-.017-3.979 0-5.968-.006l-3.309 3.308a1.305 1.305 0 0 1-.937.437c-2.169.027-4.338-.014-6.507.02a3.786 3.786 0 0 1-2.249 2.249c-.041 1.331 0 2.665-.022 4a1.31 1.31 0 0 1-.436.953c-.683.686-1.372 1.369-2.057 2.055.011 2.411-.031 4.826.022 7.237a3.733 3.733 0 1 1-4.777 2.183 3.827 3.827 0 0 1 2.243-2.2c.03-2.583-.006-5.17.019-7.753a1.272 1.272 0 0 1 .438-.944c.681-.688 1.369-1.369 2.053-2.053 0-1.156.013-2.314-.009-3.471a3.8 3.8 0 0 1-2.485-3.351 3.758 3.758 0 0 1 2.479-3.671c.053-.972-.022-1.947.038-2.918a1.413 1.413 0 0 1 .5-.866c.911-.9 1.814-1.807 2.718-2.711h-11.985c0 .911-.011 1.822.009 2.733a3.728 3.728 0 0 1 0 7.031c-.03 2.11 0 4.219-.013 6.329a1.35 1.35 0 0 1-.366 1.036c-.7.722-1.425 1.424-2.133 2.139 0 3.238-.009 6.478 0 9.716a3.821 3.821 0 0 1 2.286 2.319 3.744 3.744 0 0 1-4.749 4.751 3.735 3.735 0 0 1-.059-7.057c.034-3.243.008-6.487.014-9.731q-2.282-2.279-4.554-4.56a1.371 1.371 0 0 1-.444-1.113v-13.6h-5c0 1.327-.009 2.654.008 3.982a3.805 3.805 0 0 1 2.458 3.043 3.739 3.739 0 0 1-2.441 3.973c-.064 1.342 0 2.686-.033 4.029a1.239 1.239 0 0 1-1.224 1.221c-3 .028-6.009-.019-9.012.023a3.779 3.779 0 0 1-2.429 2.316 3.745 3.745 0 1 1-1.074-7.331 3.775 3.775 0 0 1 3.505 2.485c2.579.031 5.16.006 7.74.014 0-.9-.009-1.8.009-2.7a3.884 3.884 0 0 1-2.261-2.274c-2.168-.059-4.338 0-6.507-.03a1.306 1.306 0 0 1-.96-.444l-3.3-3.3h-4.487v-2.5c1.672 0 3.344-.011 5.015.006a1.3 1.3 0 0 1 .941.431q1.668 1.646 3.315 3.304c1.989 0 3.979.014 5.967-.009a3.8 3.8 0 0 1 2.255-2.252c.031-1.328.006-2.658.014-3.988h-17.354a1.27 1.27 0 0 1-1.392-1.238 37.574 37.574 0 0 1 29.615-36.674m7.359 1.75a5.367 5.367 0 0 0-2.375 2.321 29.532 29.532 0 0 0-2.965 7.4 93.288 93.288 0 0 0 11.732 0 36.082 36.082 0 0 0-2.091-5.784 10.818 10.818 0 0 0-2.277-3.343 2.064 2.064 0 0 0-2.024-.589m-15.074 8.544c2.38.434 4.779.745 7.186.97a30.778 30.778 0 0 1 3.635-8.9 22.182 22.182 0 0 0-10.821 7.928m20.38-7.929a30.931 30.931 0 0 1 3.632 8.9c2.408-.223 4.81-.527 7.187-.974a22.257 22.257 0 0 0-10.819-7.928m-26.081 6.546a59.9 59.9 0 0 0 3.049.824 30.823 30.823 0 0 1 5.06-5.488 34.828 34.828 0 0 0-8.109 4.665m34.486-4.666a30.7 30.7 0 0 1 5.065 5.492 53.879 53.879 0 0 0 3.051-.827 35.044 35.044 0 0 0-8.115-4.665m-43.5 14.932a63.1 63.1 0 0 0 6.384 2.075 42.542 42.542 0 0 1 4.205-9.308c-1.3-.334-2.571-.747-3.848-1.144a35.943 35.943 0 0 0-6.742 8.376m50.034-7.234a42.66 42.66 0 0 1 4.205 9.309 61.343 61.343 0 0 0 6.384-2.078 35.648 35.648 0 0 0-6.759-8.381q-1.9.638-3.83 1.15m-36.9.58a39.129 39.129 0 0 0-4.337 9.328 95.1 95.1 0 0 0 10.943 1.775 95.931 95.931 0 0 1 1.566-9.9c-2.74-.277-5.471-.658-8.172-1.2m26.186 1.2a96.686 96.686 0 0 1 1.564 9.9 92.424 92.424 0 0 0 10.944-1.772 39.317 39.317 0 0 0-4.338-9.328 80.844 80.844 0 0 1-8.17 1.2m-17.109 10.119a106.249 106.249 0 0 0 16.206 0 87.73 87.73 0 0 0-1.614-9.91 96.907 96.907 0 0 1-12.976 0 87.036 87.036 0 0 0-1.616 9.91m-26.882 11.565h8.752a52.156 52.156 0 0 1 1.609-11.75 65.741 65.741 0 0 1-6.862-2.261 34.962 34.962 0 0 0-3.5 14.015m59.609-11.761a52.464 52.464 0 0 1 1.61 11.757h8.752a34.962 34.962 0 0 0-3.5-14.016 61.818 61.818 0 0 1-6.862 2.26m-46.833.6a49.815 49.815 0 0 0-1.526 11.156h12.488q.056-4.653.434-9.3a98.244 98.244 0 0 1-11.4-1.857m33.021 1.853q.375 4.641.433 9.3h12.487a50.1 50.1 0 0 0-1.52-11.146 96.22 96.22 0 0 1-11.4 1.853m-19.555 9.3h17.486c-.03-3.022-.172-6.045-.4-9.059a112.328 112.328 0 0 1-16.674-.019 128.44 128.44 0 0 0-.409 9.075m-.008 2.5v13.238q1.878 1.871 3.749 3.746c.419-.414.833-.831 1.249-1.247-.006-1.993.022-3.987-.014-5.979a3.723 3.723 0 0 1 .006-7.023c.019-.913 0-1.824.009-2.735h-5m23.02 0q-2.131 2.136-4.265 4.265c0 .739-.013 1.48.011 2.219a3.817 3.817 0 0 1 2.258 2.257c1.989.019 3.979.006 5.968.008q1.648-1.655 3.3-3.307a1.3 1.3 0 0 1 .947-.436c2.168-.025 4.335.016 6.5-.019a3.746 3.746 0 0 1 2.247-2.246c.036-.914.009-1.828.017-2.743h-16.987m-17.176 5.078a1.247 1.247 0 1 0 1.625 1.474 1.256 1.256 0 0 0-1.625-1.475m35 0a1.247 1.247 0 1 0 1.629 1.475 1.255 1.255 0 0 0-1.627-1.475m-50.01 1.25a1.247 1.247 0 1 0 1.625 1.488 1.256 1.256 0 0 0-1.625-1.488m26.256 2.5a1.247 1.247 0 1 0 1.63 1.486 1.256 1.256 0 0 0-1.625-1.483m-38.749 5a1.247 1.247 0 1 0 1.617 1.488 1.256 1.256 0 0 0-1.617-1.488m36.244 16.254a1.247 1.247 0 1 0 1.63 1.478 1.256 1.256 0 0 0-1.627-1.478m-11.25 1.247a1.247 1.247 0 1 0 1.622 1.478 1.258 1.258 0 0 0-1.622-1.478Z"/><path d="M7370.797-10303.03a3.743 3.743 0 1 1-.436 6.895 3.847 3.847 0 0 1-1.871-2.1c-2.161-.017-4.321 0-6.482-.008.008 1.747-.016 3.493.013 5.238a3.776 3.776 0 0 1 2.319 2.433 3.744 3.744 0 0 1-4.779 4.632 3.737 3.737 0 0 1-.064-7.067c.031-2.164-.006-4.33.017-6.5a1.237 1.237 0 0 1 1.231-1.235c2.582-.023 5.165.012 7.748-.017a3.819 3.819 0 0 1 2.3-2.28m.794 2.366a1.247 1.247 0 1 0 1.627 1.482 1.256 1.256 0 0 0-1.627-1.482m-11.25 10a1.247 1.247 0 1 0 1.628.88 1.255 1.255 0 0 0-1.628-.871ZM7319.774-10297.506a3.729 3.729 0 0 1 5.724 1.747 52.3 52.3 0 0 0 2.99.006 3.791 3.791 0 0 1 2.429-2.319 3.745 3.745 0 0 1 4.827 3.429 3.737 3.737 0 0 1-7.251 1.422c-1-.03-1.991-.025-2.986 0a3.779 3.779 0 0 1-2.432 2.318 3.706 3.706 0 0 1-3.3-.566 3.745 3.745 0 0 1 0-6.034m1.808 1.841a1.247 1.247 0 1 0 1.624 1.477 1.256 1.256 0 0 0-1.624-1.477m10 0a1.247 1.247 0 1 0 1.622 1.482 1.256 1.256 0 0 0-1.621-1.485Z"/></g></g></svg>