<svg xmlns="http://www.w3.org/2000/svg" width="130" height="130"><g transform="translate(-7830 10987)"><circle cx="65" cy="65" r="65" transform="translate(7830 -10987)" fill="#fff"/><g transform="translate(761 -977)"><path d="M7105.004-9978.971h62.967s6.448 2.1 6.448 7.064-4.39 7.683-4.39 7.683l-3.156.961H7105Z" fill="#e8e8e8"/><path d="M7105.004-9958.187h62.967s6.448 2.1 6.448 7.064-4.39 7.683-4.39 7.683l-3.156.961H7105Z" fill="#afafaf"/><g transform="translate(7094.234 -9978.972)" fill="#fdd835" stroke="#707070"><circle cx="7.923" cy="7.923" r="7.923" stroke="none"/><circle cx="7.923" cy="7.923" r="7.423" fill="none"/></g><g transform="translate(7094.234 -9958.187)" fill="#fdd835" stroke="#707070"><circle cx="7.923" cy="7.923" r="7.923" stroke="none"/><circle cx="7.923" cy="7.923" r="7.423" fill="none"/></g><path d="M7112.413-9963.127v51.583h41.294v-7.271h7.545v-44.312Z" fill="#c5e5e8"/><path d="M7154.221-9911.541v-7.032h6.585Z" fill="#84e0e8"/><circle cx="2.572" cy="2.572" r="2.572" transform="translate(7123.044 -9952.63)" fill="#fdd835"/><path d="m7142.112-9946.8 11.321 16.667-1.235.754h-20.853v-1.44Z" fill="#84e0e8" stroke="#707070"/><path d="m7131.344-9941.861 3.293 4.939-4.734 7.065-6.31.548v-1.783Z" fill="#26ccda" stroke="#707070"/><path d="M7095.826-9977.493a9.112 9.112 0 0 1 6.413-2.506h64.462a9.3 9.3 0 0 1 3.672.711 9.15 9.15 0 0 1 5.559 8.143v.437a9.147 9.147 0 0 1-5.578 8.141c-2.328 1.02-4.916.646-7.378.721v2.579c2.43.081 4.979-.311 7.284.669a9.151 9.151 0 0 1 5.672 8.183v.449a9.153 9.153 0 0 1-5.692 8.184c-2.3.975-4.84.572-7.263.658v20.913c0 .76.143 1.676-.538 2.211q-3.773 3.761-7.54 7.534a1.468 1.468 0 0 1-1.155.462h-41.163a1.309 1.309 0 0 1-1.427-1.288c-.018-9.939 0-19.879-.008-29.82h-8.1a11.854 11.854 0 0 1-3.4-.35 9.131 9.131 0 0 1-5.677-4.67 9.261 9.261 0 0 1-.969-3.822v-.455a9.134 9.134 0 0 1 5.345-8.045 10.161 10.161 0 0 1 4.7-.813h8.1v-2.59c-3.079-.01-6.158.011-9.237-.01a9.1 9.1 0 0 1-8.908-8.821v-.45a9.123 9.123 0 0 1 2.826-6.354m5.457.136a6.476 6.476 0 1 0 4.095.862 6.505 6.505 0 0 0-4.095-.862m7.129-.05a9.065 9.065 0 0 1 0 12.956h58.3a6.481 6.481 0 1 0-.015-12.958h-58.279m5.326 15.559v49.25h38.865c.008-2.169-.01-4.339.008-6.508a1.284 1.284 0 0 1 1.28-1.268c2.164-.021 4.328 0 6.492-.01v-41.463h-46.644m-12.445 5.224a6.476 6.476 0 1 0 4.474 1.122 6.505 6.505 0 0 0-4.474-1.122m7.106-.05a8.67 8.67 0 0 1 2.653 5.959c.164-1.983.05-3.973.083-5.959h-2.736m54.568 0v12.956c1.353 0 2.7.01 4.056-.006a6.473 6.473 0 0 0 .479-12.908c-1.51-.084-3.022-.021-4.532-.039m-54.577 12.963h2.744c-.031-2.015.078-4.035-.081-6.045a8.665 8.665 0 0 1-2.663 6.045m46.8 25.919v3.355q1.681-1.674 3.356-3.355-1.682-.004-3.356 0Z"/><path d="M7101.161-9974.703a3.887 3.887 0 1 1-2.63 2.179 3.9 3.9 0 0 1 2.63-2.179m.473 2.562a1.292 1.292 0 1 0 1.659.8 1.3 1.3 0 0 0-1.659-.8ZM7101.167-9953.972a3.885 3.885 0 1 1-2.684 2.3 3.9 3.9 0 0 1 2.684-2.3m.473 2.561a1.292 1.292 0 1 0 1.688 1.536 1.3 1.3 0 0 0-1.693-1.536ZM7124.614-9954.036a3.885 3.885 0 1 1-3.108 3.355 3.9 3.9 0 0 1 3.108-3.355m.324 2.593a1.292 1.292 0 1 0 1.689.951 1.295 1.295 0 0 0-1.689-.951ZM7141.019-9948.148a1.375 1.375 0 0 1 1.226-.726 1.4 1.4 0 0 1 1.161.745l11.431 17.759a1.435 1.435 0 0 1 .2 1.4 1.413 1.413 0 0 1-1.446.807h-29.983c-.549-.016-1.184.092-1.638-.295a1.322 1.322 0 0 1-.262-1.751c2.687-4.171 5.408-8.319 8.1-12.485a1.929 1.929 0 0 1 .98-.949 1.334 1.334 0 0 1 1.534.6c.914 1.385 1.809 2.783 2.716 4.171q2.993-4.636 5.974-9.278m1.187 2.95q-4.65 7.216-9.293 14.439h18.587q-4.645-7.221-9.294-14.439m-11.008 5.159q-3.022 4.636-6.035 9.28c1.565 0 3.129.019 4.694-.011 1.2-1.913 2.444-3.8 3.657-5.706q-1.15-1.784-2.316-3.563Z"/></g></g></svg>