<svg xmlns="http://www.w3.org/2000/svg" width="130" height="130"><g transform="translate(-8155 10987)"><circle cx="65" cy="65" r="65" transform="translate(8155 -10987)" fill="#fff"/><g transform="translate(1325 -805)"><path d="M6907.239-10152.323h-40.7l-4.726.609-2.135 4.573v28.354h44.36l7.316-1.372 6.4 1.372v-28.354l-1.982-4.573Z" fill="#84e0e8"/><path d="M6870.907-10146.48h15.854l3.862 1.626 1.118 3.557v12.906l-1.118 2.744-3.862 1.524h-16.768l-3.354-2.235-1.118-3.658v-12.4l2.134-3.558Z" fill="#f57c00" stroke="#707070"/><path d="M6874.972-10139.874v7.826l1.475 1.475 7.265-4.727-7.265-5.59Z" fill="#dee4f0"/><path d="m6901.445-10118.024-7.165 8.231h-30.488l-3.2-3.2-1.068-5.031ZM6892.655-10094.345h-14.431l1.524-4.371 4.369-2.642h7.927Z" fill="#b0c0d2"/><path d="M6884.321-10109.793h9.655l-1.931 8.537h-7.724Z" fill="#727997"/><circle cx="19.512" cy="19.512" r="19.512" transform="translate(6892.451 -10120.158)" fill="#afafaf"/><circle cx="4.421" cy="4.421" r="4.421" transform="translate(6907.695 -10114.061)" fill="#636363"/><circle cx="4.421" cy="4.421" r="4.421" transform="translate(6897.329 -10104.915)" fill="#636363"/><circle cx="4.421" cy="4.421" r="4.421" transform="translate(6907.695 -10094.244)" fill="#636363"/><circle cx="4.421" cy="4.421" r="4.421" transform="translate(6917.756 -10104.915)" fill="#636363"/><path d="M6864.508-10154h7.709a1.6 1.6 0 0 1 1.008.6 1.467 1.467 0 0 1-.292 2.024 1.751 1.751 0 0 1-1.156.308c-2.4 0-4.8-.012-7.2 0a3.745 3.745 0 0 0-3.641 3.657q-.02 13.825 0 27.65h42.2a1.854 1.854 0 0 0 .668-.155 21.2 21.2 0 0 1 12.794-1.008c0-8.83.009-17.659-.006-26.487a3.745 3.745 0 0 0-3.649-3.652c-9.239-.019-18.478.009-27.716-.013a1.462 1.462 0 0 1-1.447-1.616 1.512 1.512 0 0 1 1.261-1.308h28.178a6.748 6.748 0 0 1 5.845 4.248 8.618 8.618 0 0 1 .46 3.511v26.221a21.348 21.348 0 0 1 13.476 19.006v1.132a21.3 21.3 0 0 1-20.738 20.882h-48.628a4.5 4.5 0 0 1-3.564-2.377 4.388 4.388 0 0 1 3.782-6.4c2.3-.023 4.608.009 6.913-.013a1.456 1.456 0 0 0 .144-2.906c-1.081-.064-2.167.034-3.248-.041a1.453 1.453 0 0 1-.009-2.883c.589-.054 1.181-.015 1.771-.023a6.663 6.663 0 0 1 3.344.479 4.39 4.39 0 0 1-.732 8.123 9.965 9.965 0 0 1-2.754.188c-1.813.013-3.628-.025-5.44.018a1.462 1.462 0 0 0-1.083 2.263 1.755 1.755 0 0 0 1.69.653q18.277-.022 36.552-.012a21.454 21.454 0 0 1-9.229-11.127c-4.475-.015-8.95.009-13.424-.012a1.459 1.459 0 0 1-1.447-1.449 7.87 7.87 0 0 1 2.391-5.669 8.146 8.146 0 0 1 3.315-1.942v-6.753h-17.875a6.716 6.716 0 0 1-4.919-2.106 6.809 6.809 0 0 1-1.812-4.16v-32.451a6.705 6.705 0 0 1 6.508-6.4m45.28 35.558a18.316 18.316 0 1 0 11.38 2.5 18.314 18.314 0 0 0-11.38-2.5m-48.857 1.611a6.475 6.475 0 0 0 .318 2.788 3.772 3.772 0 0 0 3.492 2.231c9.744-.006 19.487.012 29.231-.009a21.464 21.464 0 0 1 4.535-5.01h-37.576m24.608 7.948v6.445h5.093a21.343 21.343 0 0 1 1.724-6.442h-6.817m-2.339 9.64a5.059 5.059 0 0 0-3.161 3.24q5.454.009 10.907 0a22.646 22.646 0 0 1-.413-3.513h-5.3a5.663 5.663 0 0 0-2.033.273Z"/><path d="M6878.538-10154h.275a1.489 1.489 0 0 1 1.115 2.155 1.471 1.471 0 0 1-2.5.125 1.478 1.478 0 0 1 1.11-2.28ZM6869.496-10148.038a8.474 8.474 0 0 1 1.541-.1c5.224.006 10.449 0 15.674 0a6.159 6.159 0 0 1 6.125 6.145q.009 6.374 0 12.749a6.32 6.32 0 0 1-.579 2.742 6.182 6.182 0 0 1-5.54 3.554q-8.064.009-16.125 0a6.162 6.162 0 0 1-6.141-6.156c0-4.346-.01-8.694 0-13.04a6.179 6.179 0 0 1 5.043-5.893m.429 2.9a3.237 3.237 0 0 0-2.547 3.144q-.007 6.449 0 12.9a3.235 3.235 0 0 0 3.064 3.214c5.276.022 10.553 0 15.831.012a3.79 3.79 0 0 0 1.756-.3 3.234 3.234 0 0 0 1.878-2.925q.007-6.447 0-12.9a3.238 3.238 0 0 0-3.193-3.215c-5.127-.007-10.254 0-15.382 0a7.259 7.259 0 0 0-1.405.068ZM6898.248-10146.638a1.491 1.491 0 1 1 2.982 0c3.413.006 6.828 0 10.241 0a1.5 1.5 0 0 1 1.462.842 1.466 1.466 0 0 1-1.329 2.083c-3.457.01-6.916 0-10.373 0a1.491 1.491 0 1 1-2.982 0c-.656 0-1.433.116-1.937-.409a1.469 1.469 0 0 1 .127-2.206 2.817 2.817 0 0 1 1.809-.31Z"/><path d="M6875.638-10142.049a2.851 2.851 0 0 1 2.181.447c1.939 1.245 3.885 2.481 5.82 3.732a2.781 2.781 0 0 1 1.22 2.752 2.816 2.816 0 0 1-1.315 1.966l-5.718 3.663a2.845 2.845 0 0 1-2.52.359 2.79 2.79 0 0 1-1.874-2.6c-.01-2.5 0-4.991 0-7.487a2.805 2.805 0 0 1 2.209-2.832m.721 2.99v7.028c1.833-1.165 3.656-2.341 5.484-3.513l-5.487-3.515ZM6906.558-10136.884a1.487 1.487 0 1 1 2.974 0c.743.015 1.485-.025 2.227.018a1.456 1.456 0 0 1-.007 2.9c-.738.038-1.479 0-2.218.016a1.488 1.488 0 1 1-2.977 0c-3.051-.006-6.1 0-9.152 0a1.464 1.464 0 1 1 0-2.924c3.048-.01 6.1-.005 9.153-.01ZM6900.151-10127.376a1.492 1.492 0 1 1 2.984 0c2.824 0 5.65-.006 8.476 0a1.46 1.46 0 0 1 0 2.919c-2.826.016-5.653 0-8.478.007a1.491 1.491 0 1 1-2.981 0c-.968-.01-1.938.021-2.9-.012a1.457 1.457 0 0 1 0-2.909c.968-.023 1.935-.002 2.899-.005ZM6910.658-10115.507a5.491 5.491 0 1 1-3.8 2.9 5.512 5.512 0 0 1 3.8-2.9m.435 2.9a2.562 2.562 0 1 0 2.522.709 2.576 2.576 0 0 0-2.522-.701ZM6900.797-10105.625a5.49 5.49 0 1 1-4.009 3.316 5.5 5.5 0 0 1 4.009-3.316m.185 2.981a2.562 2.562 0 1 0 3.412 1.954 2.576 2.576 0 0 0-3.413-1.954ZM6920.571-10105.625a5.488 5.488 0 1 1-4.047 3.413 5.5 5.5 0 0 1 4.047-3.413m.182 2.982a2.562 2.562 0 1 0 3.368 1.73 2.579 2.579 0 0 0-3.369-1.73ZM6911.238-10101.606a1.461 1.461 0 1 1-.442 2.462 1.47 1.47 0 0 1 .442-2.462ZM6910.655-10095.731a5.491 5.491 0 1 1-3.847 3.007 5.519 5.519 0 0 1 3.847-3.007m.437 2.9a2.563 2.563 0 1 0 3.142 1.811 2.579 2.579 0 0 0-3.142-1.808Z"/></g></g></svg>