<svg xmlns="http://www.w3.org/2000/svg" width="130" height="130" viewBox="0 0 130 130"><g transform="translate(-407 -713)"><circle cx="65" cy="65" r="65" transform="translate(407 713)" fill="#fff"/><g transform="translate(-5879 11030)"><path d="M13.594,23.047H10l-.234-2.969L6.719,19.063l-2.5,1.68L2.227,18.164l1.992-2.227-.938-2.148L0,13.008V9.492l2.969-.586,1.25-2.344L2.422,3.32l2.227-2.3,2.461,2.3L9.453,2.3,9.766,0h3.828l.352,2.7,1.992.9,3.125-2.109,1.953,2.109L19.3,6.563l.938,2.344,3.242.9v2.7l-2.461.9-1.562,2.539,1.367,2.227-1.758,2.344-2.656-1.445-2.461.7-.352,3.281ZM11.68,6.758a4.375,4.375,0,1,0,4.375,4.375A4.38,4.38,0,0,0,11.68,6.758Z" transform="translate(6352.742 -10236.336)" fill="#f57c00"/><path d="M6412.459-10232.527s-18.021-2.5-23.437,17.813,11.979,27.5,11.979,27.5v4.792l2.188,2.188h9.271Z" transform="translate(-64.105 -50.097)" fill="#fdd835"/><path d="M6499.1-9897.333v11.979h-4.375l-4.062-3.438v-8.541Z" transform="translate(-150.75 -333)" fill="#afafaf"/><path d="M6553.641-10222l16.719,7.579-2.969,6.953.391,1.64,7.422,3.36-2.422,6.953h-5.391l-4.453,5.078-.468,12.891h-1.8l-13.672-6.329v-23.593Z" transform="translate(-198.281 -59.061)" fill="#dee4f0"/><path d="M6682.917-10172.333l-2.917,6.666.469,1.354,6.927,3.125Z" transform="translate(-310.5 -100.969)" fill="#b0c0d2"/><path d="M6630.329-10270.3s2.227-7.734,8.945-4.023-1.914,9.8-1.914,9.8l1.914,4.883,2.617-1.406,3.32,1.953,2.656-3.047-1.68-2.892.742-2.89,3.868-.781-.274-4.062-4.1-.508a30.641,30.641,0,0,1-1.055-3.008c.117,0,1.836-3.164,1.836-3.164l-3.2-2.617-3.164,2.109-2.54-.977-.937-3.828s-4.062.155-4.062.273-.391,3.906-.391,3.906l-2.93,1.444-3.711-1.8-2.266,2.5,2.266,3.36-.821,2.5Z" transform="translate(-263.25 -6.117)" fill="#ffa726"/><path d="M6668.219-10019l.573,5.624v14.168h-11.407v-.989l.99-1.979-2.761-2.136-1.823,1.771-2.917-.469-.885-3.177H6649V-10019Z" transform="translate(-284.344 -230.344)" fill="#84e0e8"/><path d="M6658.344-10050.677l-4.01,4.219h19.01s4.271-4.323,4.063-4.219S6658.344-10050.677,6658.344-10050.677Z" transform="translate(-288.844 -203.615)" fill="#c5e5e8"/><path d="M6780.282-10045.667l-4.948,4.323v19.53l4.948-5.208Z" transform="translate(-390.938 -207.843)" fill="#26ccda"/><g transform="translate(6312 -10292)"><path d="M124.694,0h.442a1.225,1.225,0,0,1,.95.848c.292,1.084.508,2.188.78,3.277q.888.265,1.745.616c.906-.681,1.786-1.4,2.708-2.064a1.185,1.185,0,0,1,1.511.169c.964.864,1.93,1.725,2.889,2.6a1.193,1.193,0,0,1,.258,1.566c-.564.941-1.172,1.855-1.744,2.791q.431.8.786,1.644c1.106.155,2.22.261,3.325.433a1.161,1.161,0,0,1,1,1.117c.077,1.345.153,2.692.2,4.039a1.163,1.163,0,0,1-.914,1.194c-1.072.272-2.156.494-3.231.752-.18.581-.387,1.153-.619,1.717q.9,1.16,1.806,2.311a1.652,1.652,0,0,1,.469,1.047,1.857,1.857,0,0,1-.666,1.177c-.786.836-1.538,1.706-2.327,2.539a1.178,1.178,0,0,1-1.442.311c-1-.556-1.947-1.2-2.928-1.788a19.058,19.058,0,0,1-1.822.845c.37,1,.8,1.97,1.142,2.975a1.555,1.555,0,0,1-.175,1.156c-.7,1.561-1.375,3.127-2.061,4.691,4.483.006,8.967,0,13.45,0a1.214,1.214,0,0,1,1.266.877,8.258,8.258,0,0,1,.052,1.445q-.007,9.45,0,18.9a1.385,1.385,0,0,1-.445,1.03q-2.316,2.454-4.623,4.917a1.418,1.418,0,0,1-1.1.573c-3.4.011-6.791-.006-10.186.023a25.56,25.56,0,0,1,2.6.57c.6.308.619,1.053.6,1.642-.034.986.064,1.977-.036,2.959a1.228,1.228,0,0,1-1.116.925c-.777.145-1.558.266-2.334.411q-.237.586-.481,1.169c.483.72,1.009,1.409,1.48,2.138a1.174,1.174,0,0,1-.161,1.5c-.75.769-1.514,1.527-2.278,2.283a1.165,1.165,0,0,1-1.427.228c-.767-.472-1.477-1.031-2.227-1.528-.386.161-.775.32-1.166.472-.192.9-.275,1.813-.508,2.7a1.3,1.3,0,0,1-.867.8h-3.633a1.219,1.219,0,0,1-1.027-.825c-.223-.886-.331-1.8-.52-2.689-.4-.163-.8-.323-1.194-.489-.742.506-1.452,1.067-2.227,1.525a1.186,1.186,0,0,1-1.456-.3c-.756-.764-1.531-1.509-2.275-2.284A1.147,1.147,0,0,1,104.8,73.5c.464-.731.991-1.422,1.47-2.142q-.253-.588-.491-1.181c-.862-.178-1.738-.291-2.6-.491a1.139,1.139,0,0,1-.9-1.1c-.028-1.1-.023-2.2-.019-3.291a1.162,1.162,0,0,1,.919-1.2c.85-.189,1.717-.289,2.57-.467.153-.391.314-.778.478-1.166-.488-.727-1.02-1.422-1.491-2.158a1.169,1.169,0,0,1,.2-1.509c.755-.761,1.509-1.523,2.275-2.272a1.165,1.165,0,0,1,1.5-.163c.731.466,1.422,1,2.142,1.48.386-.166.773-.323,1.164-.478.091-.506.183-1.014.28-1.52-4-1.786-8.025-3.53-12.039-5.291q0,14.02,0,28.041a1.221,1.221,0,0,1-.566,1.214,1.183,1.183,0,0,1-1.786-.9c-.037-1.422,0-2.845-.014-4.267A12.148,12.148,0,0,1,93.9,74.3a6.584,6.584,0,0,1-4.466-6.169c-.013-1.872,0-3.744-.006-5.614a4.251,4.251,0,0,1-2.952-3.592c-.066-1.258-.011-2.52-.028-3.78A25.27,25.27,0,0,1,74.939,25.653a1.189,1.189,0,0,1,2.073-.264c.378.461.134,1.072,0,1.577A22.882,22.882,0,0,0,87.914,53.242a1.361,1.361,0,0,1,.88,1.125c.061,1.414-.025,2.831.033,4.245A1.8,1.8,0,0,0,90.666,60.3c2.409.009,4.819,0,7.228,0q0-25,0-50a22.852,22.852,0,0,0-17.719,9.947c-.263.356-.488.8-.92.972a1.235,1.235,0,0,1-1.567-1.375,4.04,4.04,0,0,1,.591-1.02,25.583,25.583,0,0,1,6.114-6.216,25.156,25.156,0,0,1,13.5-4.673q0-2.409,0-4.819a1.8,1.8,0,0,1,.2-1.02,1.254,1.254,0,0,1,1.941-.036,1.473,1.473,0,0,1,.225.9q0,9.07,0,18.139,2.259-5.154,4.516-10.309a1.7,1.7,0,0,1,.82-1.013,1.6,1.6,0,0,1,1.242.152q2.595,1.151,5.2,2.283.239-.67.5-1.334c-.609-.773-1.211-1.556-1.823-2.328a1.562,1.562,0,0,1-.45-1.05,1.918,1.918,0,0,1,.678-1.159c.811-.861,1.583-1.755,2.4-2.611a1.157,1.157,0,0,1,1.455-.181c.959.561,1.888,1.172,2.839,1.744a17.182,17.182,0,0,1,1.664-.784c.153-1.084.262-2.177.43-3.259A1.16,1.16,0,0,1,120.838.214C122.122.123,123.409.1,124.694,0m-2.758,2.517c-.142,1.016-.25,2.038-.4,3.052a1.2,1.2,0,0,1-.872.966,10.47,10.47,0,0,0-2.323,1.1,1.214,1.214,0,0,1-1.3.07c-.894-.527-1.763-1.1-2.653-1.627-.467.514-.936,1.027-1.4,1.544.622.813,1.269,1.608,1.881,2.428a1.164,1.164,0,0,1,.1,1.256,11.822,11.822,0,0,0-.748,1.867c.914.4,1.83.8,2.745,1.2a6.861,6.861,0,0,1,12.669-1.911,6.761,6.761,0,0,1,.359,5.908,6.953,6.953,0,0,1-4.031,3.839c.355.906.7,1.816,1.063,2.722a12.41,12.41,0,0,0,2.1-1.052,1.176,1.176,0,0,1,1.244.042c.859.522,1.711,1.059,2.569,1.588.473-.509.939-1.028,1.408-1.542-.622-.827-1.283-1.625-1.9-2.458a1.155,1.155,0,0,1-.075-1.241,10.575,10.575,0,0,0,.886-2.455,1.183,1.183,0,0,1,.877-.963c1-.255,2.016-.464,3.02-.706-.033-.689-.069-1.378-.1-2.067-1.023-.139-2.05-.248-3.072-.4a1.249,1.249,0,0,1-1.006-.956,10.659,10.659,0,0,0-1.125-2.317,1.158,1.158,0,0,1,.016-1.267c.525-.858,1.073-1.7,1.6-2.559l-1.555-1.4c-.822.623-1.627,1.266-2.455,1.878a1.219,1.219,0,0,1-1.352.055,10.539,10.539,0,0,0-2.4-.847,1.206,1.206,0,0,1-.977-.964c-.236-.964-.447-1.934-.681-2.9l-2.1.106m-.122,9.23a4.534,4.534,0,0,0-2.63,3.608c1.391.6,2.775,1.222,4.167,1.822a1.556,1.556,0,0,1,.888.68c.325.7.563,1.442.861,2.156a4.567,4.567,0,0,0,2.834-2.894A4.41,4.41,0,0,0,126.8,12.63a4.523,4.523,0,0,0-4.989-.883m-15.172.688q-3.141,7.144-6.27,14.292a3.118,3.118,0,0,0-.117,1.245q.007,10,0,20,6.284,2.759,12.57,5.513a4.473,4.473,0,0,0,1.183.414q.012-5.466,0-10.931a2.014,2.014,0,0,1,.475-1.5q2.4-2.534,4.781-5.08a1.219,1.219,0,0,1,.938-.423c1.325-.012,2.65-.008,3.977,0,.741-1.625,1.441-3.269,2.161-4.9-2.347-1.039-4.692-2.081-7.045-3.109a1.541,1.541,0,0,1-.858-.72A1.482,1.482,0,0,1,118.558,26c1.036-2.32,2.05-4.65,3.088-6.97-4.991-2.22-10-4.392-15-6.591m14.433,13.717q2.341,1.036,4.684,2.067-1.308-3.368-2.623-6.733-1.031,2.332-2.061,4.666M120.7,38.319q-1.359,1.427-2.7,2.869c5.653,0,11.306.011,16.958-.008.881-.962,1.788-1.9,2.675-2.856-5.644,0-11.288.006-16.93,0m16.155,4.273c-.116.148-.311.286-.27.5-.009,2.094.009,4.189-.009,6.283a1.111,1.111,0,0,1-1.042,1.116,1.134,1.134,0,0,1-1.306-1.117c-.019-1.923,0-3.847-.006-5.772q-8.916,0-17.83,0c.1,3.414.011,6.831,0,10.247.637-.034,1.452.134,1.659.833.222.889.334,1.8.52,2.7q.6.225,1.177.487c.692-.47,1.375-.955,2.066-1.428a1.168,1.168,0,0,1,1.458.038c.52.466.989.986,1.492,1.472.414.472,1,.834,1.239,1.434.244.777-.444,1.366-.811,1.966,3.011.008,6.02-.017,9.03-.009.009-1.959-.014-3.919.011-5.877a1.107,1.107,0,0,1,1.136-1.087,1.118,1.118,0,0,1,1.206,1.084c.028,1.363,0,2.727.016,4.091.853-.939,1.781-1.819,2.586-2.8.027-5.541.006-11.084.009-16.625-.781.814-1.545,1.645-2.327,2.461M114.619,56.228c-.17.831-.248,1.684-.473,2.5-.272.758-1.189.747-1.811,1.042-.664.237-1.339.9-2.075.509-.713-.43-1.367-.95-2.061-1.409q-.469.466-.933.934c.47.717,1.022,1.384,1.445,2.131.323.714-.3,1.333-.527,1.967-.3.614-.277,1.509-1,1.825-.831.258-1.709.32-2.559.5q0,.668.008,1.338c.842.169,1.7.252,2.53.494.761.314.741,1.247,1.066,1.884.231.611.82,1.208.53,1.9-.411.756-.969,1.422-1.438,2.142q.473.483.956.958c.72-.469,1.386-1.028,2.142-1.439.727-.291,1.333.328,1.973.558.613.3,1.491.289,1.8,1,.252.834.325,1.713.511,2.564.444,0,.889,0,1.333,0,.181-.859.247-1.747.506-2.586.331-.7,1.206-.672,1.817-.975.625-.223,1.225-.831,1.931-.542.766.419,1.438.988,2.169,1.461l.93-.936c-.464-.7-.984-1.356-1.417-2.072-.388-.727.269-1.389.5-2.042.3-.62.28-1.525,1.017-1.822.827-.238,1.692-.3,2.533-.481,0-.447,0-.894-.008-1.339-.833-.175-1.686-.27-2.508-.489-.753-.277-.755-1.186-1.05-1.808-.231-.65-.875-1.28-.556-2.013.419-.742.962-1.406,1.428-2.119q-.476-.478-.955-.955c-.714.467-1.378,1.013-2.12,1.43-.736.319-1.366-.328-2.019-.558-.62-.294-1.534-.3-1.8-1.05-.225-.819-.311-1.669-.487-2.5q-.668,0-1.336-.014M91.794,62.667c0,1.823-.006,3.648,0,5.472a4.2,4.2,0,0,0,2.563,3.809,9.346,9.346,0,0,0,3.536.333c0-3.2,0-6.409,0-9.614Q94.844,62.665,91.794,62.667Z" transform="translate(-62.946)" fill="#020202"/><path d="M69.965,46.17a1.108,1.108,0,0,1,1.247.317c1.33,1.33,2.672,2.648,3.988,3.992a1.208,1.208,0,0,1-.031,1.631,1.127,1.127,0,0,1-1.639.023c-1.261-1.236-2.492-2.5-3.752-3.742a1.8,1.8,0,0,1-.616-.906A1.255,1.255,0,0,1,69.965,46.17Z" transform="translate(-59.042 -38.887)" fill="#020202"/><path d="M5.511,206.057c1.766-.037,3.534,0,5.3-.019.47,0,1.033-.034,1.361.373a1.2,1.2,0,0,1-.734,1.98c-1.772.041-3.545,0-5.319.019-.472,0-1.042.031-1.366-.388A1.2,1.2,0,0,1,5.511,206.057Z" transform="translate(-4.476 -173.845)" fill="#020202"/><path d="M76.284,339.367a1.242,1.242,0,0,1,1.547,1.3,1.447,1.447,0,0,1-.489.823c-1.223,1.222-2.45,2.441-3.667,3.667a1.549,1.549,0,0,1-.892.545,1.258,1.258,0,0,1-1.316-1.423,1.5,1.5,0,0,1,.458-.72q1.88-1.873,3.752-3.752A1.768,1.768,0,0,1,76.284,339.367Z" transform="translate(-60.984 -286.295)" fill="#020202"/><path d="M309.87,394.089a5.346,5.346,0,1,1-4.32,4.594,5.336,5.336,0,0,1,4.32-4.594m.311,2.344a2.964,2.964,0,0,0-2.27,2.406,3.019,3.019,0,0,0,4.611,3.025,2.983,2.983,0,0,0,1.239-3.228A3.046,3.046,0,0,0,310.181,396.433Z" transform="translate(-258.469 -332.431)" fill="#020202"/></g></g></g></svg>