<svg xmlns="http://www.w3.org/2000/svg" width="130" height="130" viewBox="0 0 130 130"><g transform="translate(-7830 10987)"><circle cx="65" cy="65" r="65" transform="translate(7830 -10987)" fill="#fff"/><g transform="translate(761 -977)"><path d="M7151.333-9975H7214.3s6.448,2.1,6.448,7.064-4.39,7.683-4.39,7.683l-3.156.961h-61.873Z" transform="translate(-46.329 -3.971)" fill="#e8e8e8"/><path d="M7151.333-9975H7214.3s6.448,2.1,6.448,7.064-4.39,7.683-4.39,7.683l-3.156.961h-61.873Z" transform="translate(-46.329 16.813)" fill="#afafaf"/><g transform="translate(7094.234 -9978.972)" fill="#fdd835" stroke="#707070" stroke-width="1"><circle cx="7.923" cy="7.923" r="7.923" stroke="none"/><circle cx="7.923" cy="7.923" r="7.423" fill="none"/></g><g transform="translate(7094.234 -9958.187)" fill="#fdd835" stroke="#707070" stroke-width="1"><circle cx="7.923" cy="7.923" r="7.923" stroke="none"/><circle cx="7.923" cy="7.923" r="7.423" fill="none"/></g><path d="M7187.333-9898v51.583h41.294v-7.271h7.545V-9898Z" transform="translate(-74.92 -65.127)" fill="#c5e5e8"/><path d="M7390.5-9674.469v-7.032h6.585Z" transform="translate(-236.279 -237.072)" fill="#84e0e8"/><circle cx="2.572" cy="2.572" r="2.572" transform="translate(7123.044 -9952.63)" fill="#fdd835"/><path d="M7290.1-9818.667,7301.421-9802l-1.235.754h-20.853v-1.44Z" transform="translate(-147.988 -128.133)" fill="#84e0e8" stroke="#707070" stroke-width="1"/><path d="M7249.417-9794.667l3.293,4.939-4.734,7.065-6.31.548v-1.783Z" transform="translate(-118.073 -147.194)" fill="#26ccda" stroke="#707070" stroke-width="1"/><g transform="translate(7093 -9980)"><path d="M2.826,42.439a9.112,9.112,0,0,1,6.413-2.506q32.232,0,64.462,0a9.3,9.3,0,0,1,3.672.711,9.15,9.15,0,0,1,5.559,8.143v.437a9.147,9.147,0,0,1-5.578,8.141c-2.328,1.02-4.916.646-7.378.721q0,1.288,0,2.579c2.43.081,4.979-.311,7.284.669a9.151,9.151,0,0,1,5.672,8.183v.449A9.153,9.153,0,0,1,77.24,78.15c-2.3.975-4.84.572-7.263.658q0,10.457,0,20.913c0,.76.143,1.676-.538,2.211q-3.773,3.761-7.54,7.534a1.468,1.468,0,0,1-1.155.462q-20.581,0-41.163,0a1.309,1.309,0,0,1-1.427-1.288c-.018-9.939,0-19.879-.008-29.82q-4.053,0-8.1,0a11.854,11.854,0,0,1-3.4-.35A9.131,9.131,0,0,1,.969,73.8,9.261,9.261,0,0,1,0,69.978v-.455a9.134,9.134,0,0,1,5.345-8.045,10.161,10.161,0,0,1,4.7-.813q4.05,0,8.1,0c0-.863,0-1.727,0-2.59-3.079-.01-6.158.011-9.237-.01A9.1,9.1,0,0,1,0,49.244v-.45a9.123,9.123,0,0,1,2.826-6.354m5.457.136a6.476,6.476,0,1,0,4.095.862,6.505,6.505,0,0,0-4.095-.862m7.129-.05a9.065,9.065,0,0,1,0,12.956q29.148,0,58.3,0a6.481,6.481,0,1,0-.015-12.958q-29.141,0-58.279,0m5.326,15.559q0,24.627,0,49.25,19.432,0,38.865,0c.008-2.169-.01-4.339.008-6.508a1.284,1.284,0,0,1,1.28-1.268c2.164-.021,4.328,0,6.492-.01q0-20.732,0-41.463-23.322,0-46.644,0M8.3,63.308a6.476,6.476,0,1,0,4.474,1.122A6.505,6.505,0,0,0,8.3,63.308m7.106-.05a8.67,8.67,0,0,1,2.653,5.959c.164-1.983.05-3.973.083-5.959-.912,0-1.824,0-2.736,0m54.568,0q0,6.477,0,12.956c1.353,0,2.7.01,4.056-.006A6.473,6.473,0,0,0,74.509,63.3c-1.51-.084-3.022-.021-4.532-.039M15.4,76.224q1.37,0,2.744,0c-.031-2.015.078-4.035-.081-6.045A8.665,8.665,0,0,1,15.4,76.224M62.2,102.143q0,1.676,0,3.355,1.681-1.674,3.356-3.355Q63.874,102.139,62.2,102.143Z" transform="translate(0 -39.932)"/><path d="M34.99,72.08a3.887,3.887,0,1,1-2.63,2.179,3.9,3.9,0,0,1,2.63-2.179m.473,2.562a1.292,1.292,0,1,0,1.659.8A1.3,1.3,0,0,0,35.463,74.642Z" transform="translate(-26.829 -66.783)"/><path d="M35,200.07a3.885,3.885,0,1,1-2.684,2.3A3.9,3.9,0,0,1,35,200.07m.473,2.561a1.292,1.292,0,1,0,1.688,1.536A1.3,1.3,0,0,0,35.468,202.631Z" transform="translate(-26.833 -174.042)"/><path d="M178.936,199.859a3.885,3.885,0,1,1-3.108,3.355,3.9,3.9,0,0,1,3.108-3.355m.324,2.593a1.292,1.292,0,1,0,1.689.951A1.295,1.295,0,0,0,179.26,202.452Z" transform="translate(-147.322 -173.895)"/><path d="M195.428,232.8a1.375,1.375,0,0,1,1.226-.726,1.4,1.4,0,0,1,1.161.745q5.717,8.88,11.431,17.759a1.435,1.435,0,0,1,.2,1.4,1.413,1.413,0,0,1-1.446.807q-14.991,0-29.983,0c-.549-.016-1.184.092-1.638-.295a1.322,1.322,0,0,1-.262-1.751c2.687-4.171,5.408-8.319,8.1-12.485a1.929,1.929,0,0,1,.98-.949,1.334,1.334,0,0,1,1.534.6c.914,1.385,1.809,2.783,2.716,4.171q2.993-4.636,5.974-9.278m1.187,2.95q-4.65,7.216-9.293,14.439,9.293,0,18.587,0-4.645-7.221-9.294-14.439M185.6,240.907q-3.022,4.636-6.035,9.28c1.565,0,3.129.019,4.694-.011,1.2-1.913,2.444-3.8,3.657-5.706Q186.766,242.686,185.6,240.907Z" transform="translate(-147.409 -200.948)"/></g></g></g></svg>