<svg xmlns="http://www.w3.org/2000/svg" width="130" height="130" viewBox="0 0 130 130"><g transform="translate(-1061 -713)"><circle cx="65" cy="65" r="65" transform="translate(1061 713)" fill="#fff"/><g transform="translate(-5215 11211)" opacity="0.8"><path d="M6313.468-10460h63.477l2.93,1.172,1.562,3.319v63.086l-1.562,3.125-2.93,2.148h-63.477l-3.71-2.148-1.758-4.491v-61.72l1.758-3.319Z" transform="translate(-3.414 -8.535)" fill="#26ccda"/><rect width="58.636" height="59.091" transform="translate(6312.182 -10462.273)" fill="#fff"/><path d="M6571.21-10211.334l20.6,19.629v9.57h-6.152l-22.025-22.025Z" transform="translate(-221.604 -220.775)" fill="#f57c00"/><path d="M6388.057-10211.334l-25.39,25v4.1h54.785l-27.539-27.539Z" transform="translate(-50.073 -220.775)" fill="#ffa726"/><ellipse cx="6.364" cy="6.136" rx="6.364" ry="6.136" transform="translate(6332.636 -10452.728)" fill="#fdd835"/><g transform="translate(6304 -10470)"><path d="M5.517,0H69.357a5.909,5.909,0,0,1,4.336,2.181A5.978,5.978,0,0,1,75,5.64V69.456a6.024,6.024,0,0,1-1.437,3.517A5.918,5.918,0,0,1,69.357,75H5.647a5.933,5.933,0,0,1-4.526-2.426A6.191,6.191,0,0,1,0,69.589V5.446A6.038,6.038,0,0,1,1.575,1.874,5.988,5.988,0,0,1,5.517,0M5.041,2.44a3.532,3.532,0,0,0-2.7,3.412q0,31.643,0,63.284a3.531,3.531,0,0,0,3.5,3.517q31.647.007,63.3,0a3.532,3.532,0,0,0,3.51-3.516q0-31.641,0-63.281a3.529,3.529,0,0,0-3.511-3.511Q37.572,2.339,6,2.342A4.252,4.252,0,0,0,5.041,2.44Z"/><path d="M48,49.145A1.16,1.16,0,0,1,49.151,48q5.869-.015,11.739,0a1.166,1.166,0,0,1,0,2.332c-3.52.015-7.04,0-10.562.006q0,5.205,0,10.411a1.2,1.2,0,0,1-.88,1.267A1.17,1.17,0,0,1,48,60.9Q47.98,55.024,48,49.145Z" transform="translate(-40.958 -40.961)"/><path d="M368.017,49.164A1.166,1.166,0,0,1,369.173,48q5.871-.015,11.744,0a1.189,1.189,0,0,1,1.16,1.305c0,3.864.009,7.729-.006,11.593a1.166,1.166,0,0,1-2.332-.006c-.015-3.519,0-7.036-.006-10.554-3.523,0-7.046.009-10.567-.006A1.169,1.169,0,0,1,368.017,49.164Z" transform="translate(-314.108 -40.958)"/><path d="M197.818,112.142a7.023,7.023,0,1,1-5.4,4.633,7.023,7.023,0,0,1,5.4-4.633m.687,2.263a4.683,4.683,0,1,0,4.151,1.646A4.706,4.706,0,0,0,198.505,114.405Z" transform="translate(-163.906 -95.62)"/><path d="M121.469,248.78a2.351,2.351,0,0,1,.977-.743,1.2,1.2,0,0,1,1.188.372q2.485,2.479,4.963,4.96,2.333-2.325,4.658-4.657a2.068,2.068,0,0,1,.916-.677,1.2,1.2,0,0,1,1.185.376q6.816,6.812,13.629,13.626a2.114,2.114,0,0,1,.664.9,1.174,1.174,0,0,1-.738,1.4,1.2,1.2,0,0,1-1.291-.343q-6.579-6.585-13.165-13.163-2.1,2.1-4.2,4.2c2.451,2.465,4.922,4.912,7.37,7.381a1.173,1.173,0,0,1-.088,1.7,1.185,1.185,0,0,1-1.638-.117q-6.581-6.583-13.166-13.163L106.06,267.5a1.2,1.2,0,0,1-1.293.349,1.175,1.175,0,0,1-.744-1.392,2.068,2.068,0,0,1,.672-.905Q113.084,257.169,121.469,248.78Z" transform="translate(-88.752 -211.669)"/><path d="M48.663,368.118a1.175,1.175,0,0,1,1.506.489,1.665,1.665,0,0,1,.157.861q-.009,5.131,0,10.26c3.521,0,7.041-.009,10.562.006a1.166,1.166,0,0,1,0,2.332c-3.866.015-7.731,0-11.6.006a1.19,1.19,0,0,1-1.3-1.154c-.015-3.866,0-7.731-.006-11.6A1.208,1.208,0,0,1,48.663,368.118Z" transform="translate(-40.947 -314.103)"/><path d="M379.714,369.174a1.166,1.166,0,0,1,2.332,0q.013,5.867,0,11.735a1.166,1.166,0,0,1-1.159,1.157c-3.864.013-7.727,0-11.591.006A1.2,1.2,0,0,1,368,381.058a1.17,1.17,0,0,1,1.154-1.329c3.516-.012,7.034,0,10.551,0C379.712,376.208,379.7,372.691,379.714,369.174Z" transform="translate(-314.083 -314.1)"/></g></g></g></svg>