<svg xmlns="http://www.w3.org/2000/svg" width="214" height="214" viewBox="0 0 214 214"><g transform="translate(4983 5202)"><rect width="214" height="214" transform="translate(-4983 -5202)" fill="#fff"/><rect width="214" height="214" transform="translate(-4983 -5202)" fill="#001834"/><g transform="translate(-4936 -5140)"><path d="M445.41,190.476c5.069-.118,10.144-.273,15.215-.386,5.717-.1,11.454-.355,17.162.121,6.548.578,13.156,2.415,18.557,6.278a25.915,25.915,0,0,1,7.233,7.672,30.651,30.651,0,0,1,4.156,17.624,29.685,29.685,0,0,1-4.066,14.319,28.386,28.386,0,0,1-13.358,11.133,49.286,49.286,0,0,1-16.475,3.139c-3.657.2-7.309-.07-10.963-.11q-.013,13.389-.006,26.779a1.035,1.035,0,0,1-1.113,1.144q-7.9.021-15.8,0a1,1,0,0,1-1.169-1.169q-.021-42.692-.008-85.378c-.02-.442.039-1.169.631-1.169m17.574,16.018c-.056,9.329.006,18.658-.031,27.988a65.3,65.3,0,0,0,7.239.2,31.617,31.617,0,0,0,7.022-.7,17.755,17.755,0,0,0,7.943-3.415,10.727,10.727,0,0,0,4.01-6.227c.961-4.353.555-9.374-2.451-12.877-2.251-2.747-5.748-4.038-9.138-4.68a46.721,46.721,0,0,0-9.372-.4C466.467,206.469,464.722,206.356,462.984,206.495Z" transform="translate(-444.771 -189.933)" fill="#0af"/><path d="M723.759,263.372a70.079,70.079,0,0,1,12.533.606,30.123,30.123,0,0,1,7.751,2.012,1.638,1.638,0,0,1,.933,1.7q0,6.788,0,13.573c.127,1.1-1.375,1.2-2.071.78a36.268,36.268,0,0,0-12.341-3.514c-3.573-.372-7.326-.685-10.761.594a3.747,3.747,0,0,0-1.7,5.413c1.471,2.153,4.041,3.057,6.283,4.164,2.341,1.155,4.866,1.851,7.247,2.916a59.686,59.686,0,0,1,8.656,4.587,17.6,17.6,0,0,1,7.6,10.431,20.659,20.659,0,0,1-1.459,13.711,20.024,20.024,0,0,1-8.357,8.563,34.582,34.582,0,0,1-14.705,3.66,59.152,59.152,0,0,1-16.624-1.595,33.011,33.011,0,0,1-5.525-1.955A1.744,1.744,0,0,1,700,327.479c-.006-4.9-.023-9.805.008-14.708-.056-.533.51-1.074,1.006-.679a40.063,40.063,0,0,0,14.164,4.9,38.215,38.215,0,0,0,7.9.42,13.224,13.224,0,0,0,5.351-1.248,3.754,3.754,0,0,0,1.755-4.514,7.2,7.2,0,0,0-3.311-3.181c-4.21-2.3-8.924-3.452-13.139-5.734-4-2.065-7.935-4.59-10.484-8.394a18.217,18.217,0,0,1-2.753-13.916,19.2,19.2,0,0,1,7.067-11.617C712.137,265.187,718.006,263.617,723.759,263.372Z" transform="translate(-628.075 -242.635)" fill="#0af"/></g></g></svg>