<svg xmlns="http://www.w3.org/2000/svg" width="1030" height="440" viewBox="0 0 1030 440"><g transform="translate(-285 -4887)"><rect width="1030" height="440" transform="translate(285 4887)" fill="none"/><g transform="translate(0 5)"><g transform="translate(334 4925)" fill="#d0f2f5" stroke="#26ccda" stroke-width="2"><rect width="197" height="138" rx="7" stroke="none"/><rect x="1" y="1" width="195" height="136" rx="6" fill="none"/></g><g transform="translate(582 4925)" fill="#d0f2f5" stroke="#26ccda" stroke-width="2"><rect width="197" height="138" rx="7" stroke="none"/><rect x="1" y="1" width="195" height="136" rx="6" fill="none"/></g><g transform="translate(830 4925)" fill="#d0f2f5" stroke="#26ccda" stroke-width="2"><rect width="197" height="138" rx="7" stroke="none"/><rect x="1" y="1" width="195" height="136" rx="6" fill="none"/></g><g transform="translate(334 5141)" fill="#f2e7b6" stroke="#fdd835" stroke-width="2"><rect width="197" height="138" rx="7" stroke="none"/><rect x="1" y="1" width="195" height="136" rx="6" fill="none"/></g><g transform="translate(582 5141)" fill="#f2e7b6" stroke="#fdd835" stroke-width="2"><rect width="197" height="138" rx="7" stroke="none"/><rect x="1" y="1" width="195" height="136" rx="6" fill="none"/></g><g transform="translate(830 5141)" fill="#f2e7b6" stroke="#fdd835" stroke-width="2"><rect width="197" height="138" rx="7" stroke="none"/><rect x="1" y="1" width="195" height="136" rx="6" fill="none"/></g><g transform="translate(1078 5141)" fill="#f2e7b6" stroke="#fdd835" stroke-width="2"><rect width="197" height="138" rx="7" stroke="none"/><rect x="1" y="1" width="195" height="136" rx="6" fill="none"/></g><path d="M-34.617-5.511V0h-3.223V-15.641h6.1a7.059,7.059,0,0,1,3.1.645,4.75,4.75,0,0,1,2.057,1.832,5.107,5.107,0,0,1,.72,2.7,4.491,4.491,0,0,1-1.574,3.625,6.555,6.555,0,0,1-4.356,1.327Zm0-2.61h2.879a2.831,2.831,0,0,0,1.95-.6,2.188,2.188,0,0,0,.671-1.719,2.58,2.58,0,0,0-.677-1.858,2.528,2.528,0,0,0-1.869-.73h-2.954Zm10.141,2.2A6.893,6.893,0,0,1-23.81-9,4.876,4.876,0,0,1-21.893-11.1a5.594,5.594,0,0,1,2.906-.741,5.293,5.293,0,0,1,3.84,1.439,5.777,5.777,0,0,1,1.66,3.91l.021.795A6.075,6.075,0,0,1-14.958-1.4,5.19,5.19,0,0,1-18.965.215,5.216,5.216,0,0,1-22.978-1.4a6.182,6.182,0,0,1-1.5-4.383Zm3.1.22a4.345,4.345,0,0,0,.623,2.534,2.055,2.055,0,0,0,1.783.877A2.06,2.06,0,0,0-17.2-3.154a4.754,4.754,0,0,0,.634-2.77A4.3,4.3,0,0,0-17.2-8.442a2.06,2.06,0,0,0-1.783-.893,2.027,2.027,0,0,0-1.762.888A4.834,4.834,0,0,0-21.372-5.7Zm16.35-3.013A8.434,8.434,0,0,0-6.139-8.8a2.274,2.274,0,0,0-2.31,1.192V0h-3.1V-11.623h2.933l.086,1.386a2.877,2.877,0,0,1,2.589-1.6,3.253,3.253,0,0,1,.967.14ZM.725-14.48v2.857H2.712v2.277H.725v5.8a1.385,1.385,0,0,0,.247.924,1.241,1.241,0,0,0,.945.279,4.951,4.951,0,0,0,.913-.075V-.064A6.391,6.391,0,0,1,.951.215q-3.266,0-3.33-3.3V-9.346h-1.7v-2.277h1.7V-14.48ZM11.177,0a3.447,3.447,0,0,1-.312-1.042A3.756,3.756,0,0,1,7.933.215,4.127,4.127,0,0,1,5.1-.773,3.178,3.178,0,0,1,3.98-3.266,3.285,3.285,0,0,1,5.35-6.1a6.758,6.758,0,0,1,3.958-1h1.429v-.666a1.915,1.915,0,0,0-.414-1.289,1.627,1.627,0,0,0-1.305-.483,1.85,1.85,0,0,0-1.23.376,1.277,1.277,0,0,0-.446,1.031h-3.1A3.118,3.118,0,0,1,4.861-10a4.118,4.118,0,0,1,1.762-1.348,6.42,6.42,0,0,1,2.557-.489,5.073,5.073,0,0,1,3.411,1.08,3.777,3.777,0,0,1,1.262,3.035v5.038a5.557,5.557,0,0,0,.462,2.5V0ZM8.61-2.159a2.674,2.674,0,0,0,1.268-.306,2.011,2.011,0,0,0,.859-.822v-2H9.577q-2.331,0-2.481,1.611l-.011.183a1.243,1.243,0,0,0,.408.956A1.586,1.586,0,0,0,8.61-2.159ZM15.753-5.9a7,7,0,0,1,1.219-4.329,3.956,3.956,0,0,1,3.335-1.611,3.56,3.56,0,0,1,2.8,1.268V-16.5h3.115V0h-2.8l-.15-1.235A3.653,3.653,0,0,1,20.287.215,3.945,3.945,0,0,1,16.994-1.4,7.23,7.23,0,0,1,15.753-5.9Zm3.1.231a4.588,4.588,0,0,0,.569,2.507,1.855,1.855,0,0,0,1.654.871A2.077,2.077,0,0,0,23.112-3.5V-8.1A2.048,2.048,0,0,0,21.1-9.313Q18.858-9.313,18.858-5.666ZM35.369,0a3.447,3.447,0,0,1-.312-1.042A3.756,3.756,0,0,1,32.125.215a4.127,4.127,0,0,1-2.831-.988,3.178,3.178,0,0,1-1.123-2.492A3.285,3.285,0,0,1,29.541-6.1a6.758,6.758,0,0,1,3.958-1h1.429v-.666a1.915,1.915,0,0,0-.414-1.289,1.627,1.627,0,0,0-1.305-.483,1.85,1.85,0,0,0-1.23.376,1.277,1.277,0,0,0-.446,1.031h-3.1A3.118,3.118,0,0,1,29.052-10a4.118,4.118,0,0,1,1.762-1.348,6.42,6.42,0,0,1,2.557-.489,5.073,5.073,0,0,1,3.411,1.08,3.777,3.777,0,0,1,1.262,3.035v5.038a5.557,5.557,0,0,0,.462,2.5V0ZM32.8-2.159a2.674,2.674,0,0,0,1.268-.306,2.011,2.011,0,0,0,.859-.822v-2h-1.16q-2.331,0-2.481,1.611l-.011.183a1.243,1.243,0,0,0,.408.956A1.586,1.586,0,0,0,32.8-2.159Z" transform="translate(433 5002)" fill="#12263f"/><path d="M-26.222-5.511V0h-3.223V-15.641h6.1a7.059,7.059,0,0,1,3.1.645,4.75,4.75,0,0,1,2.057,1.832,5.107,5.107,0,0,1,.72,2.7,4.491,4.491,0,0,1-1.574,3.625A6.555,6.555,0,0,1-23.4-5.511Zm0-2.61h2.879a2.831,2.831,0,0,0,1.95-.6,2.188,2.188,0,0,0,.671-1.719A2.58,2.58,0,0,0-21.4-12.3a2.528,2.528,0,0,0-1.869-.73h-2.954ZM-12.182,0H-15.3V-11.623h3.115Zm-3.3-14.631a1.529,1.529,0,0,1,.467-1.149,1.755,1.755,0,0,1,1.273-.451,1.759,1.759,0,0,1,1.268.451A1.52,1.52,0,0,1-12-14.631a1.524,1.524,0,0,1-.478,1.16,1.764,1.764,0,0,1-1.262.451A1.764,1.764,0,0,1-15-13.471,1.524,1.524,0,0,1-15.479-14.631ZM-4.275.215A5.706,5.706,0,0,1-8.438-1.354a5.575,5.575,0,0,1-1.606-4.179v-.3a7.021,7.021,0,0,1,.677-3.131A4.967,4.967,0,0,1-7.45-11.091a5.382,5.382,0,0,1,2.831-.747,4.824,4.824,0,0,1,3.754,1.5A6.111,6.111,0,0,1,.5-6.069V-4.8H-6.9a2.884,2.884,0,0,0,.908,1.826,2.744,2.744,0,0,0,1.917.688,3.351,3.351,0,0,0,2.8-1.3L.258-1.88A4.66,4.66,0,0,1-1.633-.338,6.2,6.2,0,0,1-4.275.215Zm-.354-9.55a1.94,1.94,0,0,0-1.5.626,3.241,3.241,0,0,0-.736,1.791h4.318v-.248a2.311,2.311,0,0,0-.559-1.6A2,2,0,0,0-4.63-9.335ZM7.262-5.9a7,7,0,0,1,1.219-4.329,3.956,3.956,0,0,1,3.335-1.611,3.56,3.56,0,0,1,2.8,1.268V-16.5h3.115V0h-2.8l-.15-1.235A3.653,3.653,0,0,1,11.795.215,3.945,3.945,0,0,1,8.5-1.4,7.23,7.23,0,0,1,7.262-5.9Zm3.1.231a4.588,4.588,0,0,0,.569,2.507,1.855,1.855,0,0,0,1.654.871A2.077,2.077,0,0,0,14.62-3.5V-8.1a2.048,2.048,0,0,0-2.009-1.216Q10.366-9.313,10.366-5.666ZM25.491.215a5.706,5.706,0,0,1-4.163-1.568,5.575,5.575,0,0,1-1.606-4.179v-.3A7.021,7.021,0,0,1,20.4-8.964a4.967,4.967,0,0,1,1.917-2.127,5.382,5.382,0,0,1,2.831-.747,4.824,4.824,0,0,1,3.754,1.5,6.111,6.111,0,0,1,1.37,4.265V-4.8h-7.4a2.884,2.884,0,0,0,.908,1.826,2.744,2.744,0,0,0,1.917.688,3.351,3.351,0,0,0,2.8-1.3L30.024-1.88A4.66,4.66,0,0,1,28.134-.338,6.2,6.2,0,0,1,25.491.215Zm-.354-9.55a1.94,1.94,0,0,0-1.5.626A3.241,3.241,0,0,0,22.9-6.918h4.318v-.248a2.311,2.311,0,0,0-.559-1.6A2,2,0,0,0,25.137-9.335ZM-39.794,24H-42.91V12.377h3.115Zm-3.3-14.631a1.529,1.529,0,0,1,.467-1.149,1.755,1.755,0,0,1,1.273-.451,1.759,1.759,0,0,1,1.268.451,1.52,1.52,0,0,1,.473,1.149,1.524,1.524,0,0,1-.478,1.16,1.764,1.764,0,0,1-1.262.451,1.764,1.764,0,0,1-1.262-.451A1.524,1.524,0,0,1-43.092,9.369Zm8.766,3.008.1,1.3a4.085,4.085,0,0,1,3.341-1.515,3.1,3.1,0,0,1,3.083,1.772,3.991,3.991,0,0,1,3.491-1.772,3.467,3.467,0,0,1,2.814,1.1,5.061,5.061,0,0,1,.924,3.314V24h-3.115V16.588a2.213,2.213,0,0,0-.387-1.445,1.714,1.714,0,0,0-1.364-.457,1.938,1.938,0,0,0-1.934,1.332L-27.366,24h-3.1V16.6a2.186,2.186,0,0,0-.4-1.461,1.731,1.731,0,0,0-1.354-.451,2.012,2.012,0,0,0-1.912,1.1V24h-3.1V12.377Zm26.6,5.919a6.971,6.971,0,0,1-1.219,4.3,3.909,3.909,0,0,1-3.292,1.617,3.621,3.621,0,0,1-2.847-1.225v5.479h-3.1V12.377h2.879l.107,1.139a3.649,3.649,0,0,1,2.943-1.354,3.936,3.936,0,0,1,3.341,1.59,7.16,7.16,0,0,1,1.192,4.383Zm-3.1-.226a4.574,4.574,0,0,0-.575-2.5,1.872,1.872,0,0,0-1.67-.881A2.033,2.033,0,0,0-15.087,15.8v4.759a2.067,2.067,0,0,0,2.03,1.149Q-10.833,21.712-10.833,18.07ZM.725,15.288A8.434,8.434,0,0,0-.392,15.2,2.274,2.274,0,0,0-2.7,16.395V24h-3.1V12.377h2.933l.086,1.386A2.877,2.877,0,0,1-.2,12.162a3.253,3.253,0,0,1,.967.14Zm6.639,8.927A5.706,5.706,0,0,1,3.2,22.646,5.575,5.575,0,0,1,1.6,18.468v-.3a7.021,7.021,0,0,1,.677-3.131,4.967,4.967,0,0,1,1.917-2.127,5.382,5.382,0,0,1,2.831-.747,4.824,4.824,0,0,1,3.754,1.5,6.111,6.111,0,0,1,1.37,4.265V19.2h-7.4a2.884,2.884,0,0,0,.908,1.826,2.744,2.744,0,0,0,1.917.688,3.351,3.351,0,0,0,2.8-1.3L11.9,22.12a4.66,4.66,0,0,1-1.891,1.542A6.2,6.2,0,0,1,7.364,24.215Zm-.354-9.55a1.94,1.94,0,0,0-1.5.626,3.241,3.241,0,0,0-.736,1.791H9.093v-.248a2.311,2.311,0,0,0-.559-1.6A2,2,0,0,0,7.009,14.665Zm9.754-2.288.1,1.343A4.058,4.058,0,0,1,20.2,12.162a3.372,3.372,0,0,1,2.75,1.085,5.062,5.062,0,0,1,.924,3.244V24h-3.1V16.566a2.014,2.014,0,0,0-.43-1.434,1.924,1.924,0,0,0-1.429-.446A2.136,2.136,0,0,0,16.946,15.8V24h-3.1V12.377ZM29.944,9.52v2.857h1.987v2.277H29.944v5.8a1.385,1.385,0,0,0,.247.924,1.241,1.241,0,0,0,.945.279,4.951,4.951,0,0,0,.913-.075v2.353a6.391,6.391,0,0,1-1.88.279q-3.266,0-3.33-3.3V14.654h-1.7V12.377h1.7V9.52ZM40.4,24a3.447,3.447,0,0,1-.312-1.042,3.756,3.756,0,0,1-2.933,1.257,4.127,4.127,0,0,1-2.831-.988A3.178,3.178,0,0,1,33.2,20.734a3.285,3.285,0,0,1,1.37-2.836,6.758,6.758,0,0,1,3.958-1h1.429v-.666a1.915,1.915,0,0,0-.414-1.289,1.627,1.627,0,0,0-1.305-.483,1.85,1.85,0,0,0-1.23.376,1.277,1.277,0,0,0-.446,1.031h-3.1A3.119,3.119,0,0,1,34.08,14a4.118,4.118,0,0,1,1.762-1.348,6.42,6.42,0,0,1,2.557-.489,5.073,5.073,0,0,1,3.411,1.08,3.777,3.777,0,0,1,1.262,3.035v5.038a5.557,5.557,0,0,0,.462,2.5V24Zm-2.567-2.159a2.674,2.674,0,0,0,1.268-.306,2.011,2.011,0,0,0,.859-.822v-2H38.8q-2.331,0-2.481,1.611l-.011.183a1.243,1.243,0,0,0,.408.956A1.586,1.586,0,0,0,37.829,21.841Z" transform="translate(433 5206)" fill="#12263f"/><path d="M-13.315-5.21a5.535,5.535,0,0,1-1.864,3.975A6.546,6.546,0,0,1-19.61.215,5.886,5.886,0,0,1-24.342-1.81a8.3,8.3,0,0,1-1.724-5.559v-.956a9.376,9.376,0,0,1,.795-3.975A5.957,5.957,0,0,1-23-14.937a6.364,6.364,0,0,1,3.432-.918,6.376,6.376,0,0,1,4.361,1.45,5.948,5.948,0,0,1,1.912,4.071h-3.223a3.266,3.266,0,0,0-.843-2.2,3.123,3.123,0,0,0-2.208-.682,2.738,2.738,0,0,0-2.412,1.155A6.472,6.472,0,0,0-22.8-8.476v1.182a6.927,6.927,0,0,0,.768,3.706A2.687,2.687,0,0,0-19.61-2.417,3.182,3.182,0,0,0-17.381-3.1a3.081,3.081,0,0,0,.843-2.111ZM-4.667,0a3.447,3.447,0,0,1-.312-1.042A3.756,3.756,0,0,1-7.912.215a4.127,4.127,0,0,1-2.831-.988,3.178,3.178,0,0,1-1.123-2.492A3.285,3.285,0,0,1-10.5-6.1a6.758,6.758,0,0,1,3.958-1h1.429v-.666a1.915,1.915,0,0,0-.414-1.289,1.627,1.627,0,0,0-1.305-.483,1.85,1.85,0,0,0-1.23.376A1.277,1.277,0,0,0-8.5-8.132h-3.1A3.118,3.118,0,0,1-10.984-10a4.118,4.118,0,0,1,1.762-1.348,6.42,6.42,0,0,1,2.557-.489,5.073,5.073,0,0,1,3.411,1.08A3.777,3.777,0,0,1-1.993-7.724v5.038a5.557,5.557,0,0,0,.462,2.5V0ZM-7.235-2.159a2.674,2.674,0,0,0,1.268-.306,2.011,2.011,0,0,0,.859-.822v-2h-1.16q-2.331,0-2.481,1.611l-.011.183a1.243,1.243,0,0,0,.408.956A1.586,1.586,0,0,0-7.235-2.159ZM6.923-8.712A8.434,8.434,0,0,0,5.806-8.8,2.274,2.274,0,0,0,3.5-7.605V0H.392V-11.623H3.325l.086,1.386A2.877,2.877,0,0,1,6-11.838a3.253,3.253,0,0,1,.967.14ZM12.67-14.48v2.857h1.987v2.277H12.67v5.8a1.385,1.385,0,0,0,.247.924,1.241,1.241,0,0,0,.945.279,4.951,4.951,0,0,0,.913-.075V-.064A6.391,6.391,0,0,1,12.9.215q-3.266,0-3.33-3.3V-9.346h-1.7v-2.277h1.7V-14.48ZM23.123,0a3.448,3.448,0,0,1-.312-1.042A3.756,3.756,0,0,1,19.878.215a4.127,4.127,0,0,1-2.831-.988,3.178,3.178,0,0,1-1.123-2.492A3.285,3.285,0,0,1,17.295-6.1a6.758,6.758,0,0,1,3.958-1h1.429v-.666a1.915,1.915,0,0,0-.414-1.289,1.627,1.627,0,0,0-1.305-.483,1.85,1.85,0,0,0-1.23.376,1.277,1.277,0,0,0-.446,1.031h-3.1A3.118,3.118,0,0,1,16.806-10a4.118,4.118,0,0,1,1.762-1.348,6.42,6.42,0,0,1,2.557-.489,5.073,5.073,0,0,1,3.411,1.08A3.777,3.777,0,0,1,25.8-7.724v5.038a5.557,5.557,0,0,0,.462,2.5V0ZM20.555-2.159a2.674,2.674,0,0,0,1.268-.306,2.011,2.011,0,0,0,.859-.822v-2h-1.16q-2.331,0-2.481,1.611l-.011.183a1.243,1.243,0,0,0,.408.956A1.586,1.586,0,0,0,20.555-2.159ZM-45.939,18.1a7,7,0,0,1,1.219-4.329,3.956,3.956,0,0,1,3.335-1.611,3.56,3.56,0,0,1,2.8,1.268V7.5h3.115V24h-2.8l-.15-1.235a3.653,3.653,0,0,1-2.986,1.45A3.945,3.945,0,0,1-44.7,22.6,7.23,7.23,0,0,1-45.939,18.1Zm3.1.231a4.588,4.588,0,0,0,.569,2.507,1.855,1.855,0,0,0,1.654.871,2.077,2.077,0,0,0,2.03-1.216V15.9a2.048,2.048,0,0,0-2.009-1.216Q-42.834,14.687-42.834,18.334Zm15.125,5.881a5.706,5.706,0,0,1-4.163-1.568,5.575,5.575,0,0,1-1.606-4.179v-.3a7.021,7.021,0,0,1,.677-3.131,4.967,4.967,0,0,1,1.917-2.127,5.382,5.382,0,0,1,2.831-.747,4.824,4.824,0,0,1,3.754,1.5,6.111,6.111,0,0,1,1.37,4.265V19.2h-7.4a2.884,2.884,0,0,0,.908,1.826,2.744,2.744,0,0,0,1.917.688,3.351,3.351,0,0,0,2.8-1.3l1.525,1.708a4.66,4.66,0,0,1-1.891,1.542A6.2,6.2,0,0,1-27.709,24.215Zm-.354-9.55a1.94,1.94,0,0,0-1.5.626,3.241,3.241,0,0,0-.736,1.791h4.318v-.248a2.311,2.311,0,0,0-.559-1.6A2,2,0,0,0-28.064,14.665ZM-17.891,24h-3.115V7.5h3.115Zm13.385.215a5.706,5.706,0,0,1-4.163-1.568,5.575,5.575,0,0,1-1.606-4.179v-.3A7.021,7.021,0,0,1-9.6,15.036a4.967,4.967,0,0,1,1.917-2.127,5.382,5.382,0,0,1,2.831-.747,4.824,4.824,0,0,1,3.754,1.5,6.111,6.111,0,0,1,1.37,4.265V19.2h-7.4a2.884,2.884,0,0,0,.908,1.826,2.744,2.744,0,0,0,1.917.688,3.351,3.351,0,0,0,2.8-1.3L.027,22.12a4.66,4.66,0,0,1-1.891,1.542A6.2,6.2,0,0,1-4.506,24.215Zm-.354-9.55a1.94,1.94,0,0,0-1.5.626A3.241,3.241,0,0,0-7.1,17.082h4.318v-.248a2.311,2.311,0,0,0-.559-1.6A2,2,0,0,0-4.861,14.665ZM1.552,18.1a7,7,0,0,1,1.219-4.329,3.956,3.956,0,0,1,3.335-1.611,3.56,3.56,0,0,1,2.8,1.268V7.5h3.115V24h-2.8l-.15-1.235a3.653,3.653,0,0,1-2.986,1.45A3.945,3.945,0,0,1,2.793,22.6,7.23,7.23,0,0,1,1.552,18.1Zm3.1.231a4.588,4.588,0,0,0,.569,2.507,1.855,1.855,0,0,0,1.654.871A2.077,2.077,0,0,0,8.911,20.5V15.9A2.048,2.048,0,0,0,6.9,14.687Q4.657,14.687,4.657,18.334ZM17.708,24H14.593V12.377h3.115Zm-3.3-14.631a1.529,1.529,0,0,1,.467-1.149,1.755,1.755,0,0,1,1.273-.451,1.759,1.759,0,0,1,1.268.451,1.52,1.52,0,0,1,.473,1.149,1.524,1.524,0,0,1-.478,1.16,1.764,1.764,0,0,1-1.262.451,1.764,1.764,0,0,1-1.262-.451A1.524,1.524,0,0,1,14.411,9.369Zm9.571.15v2.857h1.987v2.277H23.982v5.8a1.385,1.385,0,0,0,.247.924,1.241,1.241,0,0,0,.945.279,4.951,4.951,0,0,0,.913-.075v2.353a6.391,6.391,0,0,1-1.88.279q-3.266,0-3.33-3.3V14.654h-1.7V12.377h1.7V9.52Zm2.911,8.562A6.893,6.893,0,0,1,27.559,15,4.876,4.876,0,0,1,29.477,12.9a5.594,5.594,0,0,1,2.906-.741,5.293,5.293,0,0,1,3.84,1.439,5.777,5.777,0,0,1,1.66,3.91l.021.795A6.075,6.075,0,0,1,36.411,22.6,5.19,5.19,0,0,1,32.4,24.215,5.216,5.216,0,0,1,28.392,22.6a6.182,6.182,0,0,1-1.5-4.383Zm3.1.22a4.345,4.345,0,0,0,.623,2.534,2.238,2.238,0,0,0,3.545.011,4.754,4.754,0,0,0,.634-2.77,4.3,4.3,0,0,0-.634-2.518,2.06,2.06,0,0,0-1.783-.893,2.027,2.027,0,0,0-1.762.888A4.834,4.834,0,0,0,30,18.3Zm16.35-3.013A8.434,8.434,0,0,0,45.23,15.2a2.274,2.274,0,0,0-2.31,1.192V24h-3.1V12.377h2.933l.086,1.386a2.877,2.877,0,0,1,2.589-1.6,3.253,3.253,0,0,1,.967.14Z" transform="translate(681 5206)" fill="#12263f"/><path d="M-34.869-3.223h-5.65L-41.594,0h-3.427L-39.2-15.641h2.986L-30.357,0h-3.427Zm-4.78-2.61h3.91l-1.966-5.854Zm17.08-2.879A8.434,8.434,0,0,0-23.687-8.8,2.274,2.274,0,0,0-26-7.605V0h-3.1V-11.623h2.933l.086,1.386a2.877,2.877,0,0,1,2.589-1.6,3.253,3.253,0,0,1,.967.14Zm5.747-5.769v2.857h1.987v2.277h-1.987v5.8a1.385,1.385,0,0,0,.247.924,1.241,1.241,0,0,0,.945.279,4.951,4.951,0,0,0,.913-.075V-.064A6.391,6.391,0,0,1-16.6.215q-3.266,0-3.33-3.3V-9.346h-1.7v-2.277h1.7V-14.48ZM-9.754,0h-3.1V-11.623h3.1Zm-.913-16.339h3.384l-2.976,3.33h-2.524ZM-2.245-2.288a2.036,2.036,0,0,0,1.4-.473A1.656,1.656,0,0,0-.29-4.018H2.621a3.982,3.982,0,0,1-.645,2.165A4.253,4.253,0,0,1,.242-.328,5.43,5.43,0,0,1-2.191.215,5.046,5.046,0,0,1-6.123-1.37,6.27,6.27,0,0,1-7.562-5.747v-.2a6.2,6.2,0,0,1,1.429-4.286,4.987,4.987,0,0,1,3.921-1.6,4.889,4.889,0,0,1,3.5,1.241,4.393,4.393,0,0,1,1.337,3.3H-.29A2.133,2.133,0,0,0-.849-8.768a1.862,1.862,0,0,0-1.418-.567A1.87,1.87,0,0,0-3.9-8.544a4.583,4.583,0,0,0-.553,2.566v.323A4.641,4.641,0,0,0-3.91-3.073,1.893,1.893,0,0,0-2.245-2.288Zm13.6,1.106a3.893,3.893,0,0,1-3.18,1.4A3.672,3.672,0,0,1,5.323-.859a4.586,4.586,0,0,1-1-3.147v-7.616h3.1v7.518q0,1.817,1.654,1.817a2.242,2.242,0,0,0,2.17-1.1v-8.238h3.115V0H11.44ZM19.98,0H16.865V-16.5H19.98Zm2.073-5.919A6.893,6.893,0,0,1,22.72-9,4.876,4.876,0,0,1,24.637-11.1a5.594,5.594,0,0,1,2.906-.741,5.293,5.293,0,0,1,3.84,1.439,5.777,5.777,0,0,1,1.66,3.91l.021.795A6.075,6.075,0,0,1,31.571-1.4,5.19,5.19,0,0,1,27.564.215,5.216,5.216,0,0,1,23.552-1.4a6.182,6.182,0,0,1-1.5-4.383Zm3.1.22a4.345,4.345,0,0,0,.623,2.534,2.055,2.055,0,0,0,1.783.877,2.06,2.06,0,0,0,1.762-.866,4.754,4.754,0,0,0,.634-2.77,4.3,4.3,0,0,0-.634-2.518,2.06,2.06,0,0,0-1.783-.893,2.027,2.027,0,0,0-1.762.888A4.834,4.834,0,0,0,25.158-5.7ZM41.271-3.212a1,1,0,0,0-.564-.9,6.406,6.406,0,0,0-1.81-.585q-4.146-.87-4.146-3.523A3.194,3.194,0,0,1,36.035-10.8a5.178,5.178,0,0,1,3.357-1.037,5.573,5.573,0,0,1,3.54,1.042,3.284,3.284,0,0,1,1.327,2.707h-3.1a1.5,1.5,0,0,0-.43-1.1,1.818,1.818,0,0,0-1.343-.435,1.858,1.858,0,0,0-1.214.354,1.119,1.119,0,0,0-.43.9.957.957,0,0,0,.489.833,5.028,5.028,0,0,0,1.649.548,13.468,13.468,0,0,1,1.955.521,3.212,3.212,0,0,1,2.46,3.126A3.032,3.032,0,0,1,42.926-.768,5.885,5.885,0,0,1,39.4.215a6.147,6.147,0,0,1-2.594-.521A4.353,4.353,0,0,1,35.03-1.735a3.32,3.32,0,0,1-.645-1.96h2.943a1.621,1.621,0,0,0,.612,1.268,2.429,2.429,0,0,0,1.525.44,2.248,2.248,0,0,0,1.348-.338A1.053,1.053,0,0,0,41.271-3.212Z" transform="translate(929 5218)" fill="#12263f"/><path d="M-69.889-5.511V0h-3.223V-15.641h6.1a7.059,7.059,0,0,1,3.1.645,4.75,4.75,0,0,1,2.057,1.832,5.107,5.107,0,0,1,.72,2.7,4.491,4.491,0,0,1-1.574,3.625,6.555,6.555,0,0,1-4.356,1.327Zm0-2.61h2.879a2.831,2.831,0,0,0,1.95-.6,2.188,2.188,0,0,0,.671-1.719,2.58,2.58,0,0,0-.677-1.858,2.528,2.528,0,0,0-1.869-.73h-2.954ZM-52.508,0a3.447,3.447,0,0,1-.312-1.042A3.756,3.756,0,0,1-55.752.215a4.127,4.127,0,0,1-2.831-.988,3.178,3.178,0,0,1-1.123-2.492A3.285,3.285,0,0,1-58.335-6.1a6.758,6.758,0,0,1,3.958-1h1.429v-.666a1.915,1.915,0,0,0-.414-1.289,1.627,1.627,0,0,0-1.305-.483,1.85,1.85,0,0,0-1.23.376,1.277,1.277,0,0,0-.446,1.031h-3.1A3.119,3.119,0,0,1-58.824-10a4.118,4.118,0,0,1,1.762-1.348,6.42,6.42,0,0,1,2.557-.489,5.073,5.073,0,0,1,3.411,1.08,3.777,3.777,0,0,1,1.262,3.035v5.038a5.557,5.557,0,0,0,.462,2.5V0Zm-2.567-2.159a2.674,2.674,0,0,0,1.268-.306,2.011,2.011,0,0,0,.859-.822v-2h-1.16q-2.331,0-2.481,1.611l-.011.183a1.243,1.243,0,0,0,.408.956A1.586,1.586,0,0,0-55.075-2.159Zm14.158-6.553A8.434,8.434,0,0,0-42.034-8.8a2.274,2.274,0,0,0-2.31,1.192V0h-3.1V-11.623h2.933l.086,1.386a2.877,2.877,0,0,1,2.589-1.6,3.253,3.253,0,0,1,.967.14Zm5.747-5.769v2.857h1.987v2.277H-35.17v5.8a1.385,1.385,0,0,0,.247.924,1.241,1.241,0,0,0,.945.279,4.951,4.951,0,0,0,.913-.075V-.064a6.391,6.391,0,0,1-1.88.279q-3.266,0-3.33-3.3V-9.346h-1.7v-2.277h1.7V-14.48ZM-26.1.215a5.706,5.706,0,0,1-4.163-1.568,5.575,5.575,0,0,1-1.606-4.179v-.3A7.021,7.021,0,0,1-31.2-8.964a4.967,4.967,0,0,1,1.917-2.127,5.382,5.382,0,0,1,2.831-.747,4.824,4.824,0,0,1,3.754,1.5,6.111,6.111,0,0,1,1.37,4.265V-4.8h-7.4a2.884,2.884,0,0,0,.908,1.826,2.744,2.744,0,0,0,1.917.688,3.351,3.351,0,0,0,2.8-1.3L-21.57-1.88A4.66,4.66,0,0,1-23.461-.338,6.2,6.2,0,0,1-26.1.215Zm-.354-9.55a1.94,1.94,0,0,0-1.5.626,3.241,3.241,0,0,0-.736,1.791h4.318v-.248a2.311,2.311,0,0,0-.559-1.6A2,2,0,0,0-26.458-9.335ZM-3.62-5.7A6.971,6.971,0,0,1-4.839-1.4,3.909,3.909,0,0,1-8.132.215,3.621,3.621,0,0,1-10.979-1.01V4.469h-3.1V-11.623H-11.2l.107,1.139a3.649,3.649,0,0,1,2.943-1.354,3.936,3.936,0,0,1,3.341,1.59A7.16,7.16,0,0,1-3.62-5.865Zm-3.1-.226a4.574,4.574,0,0,0-.575-2.5,1.872,1.872,0,0,0-1.67-.881A2.033,2.033,0,0,0-10.979-8.2v4.759a2.067,2.067,0,0,0,2.03,1.149Q-6.725-2.288-6.725-5.93Zm4.544.011A6.893,6.893,0,0,1-1.515-9,4.876,4.876,0,0,1,.4-11.1a5.594,5.594,0,0,1,2.906-.741A5.293,5.293,0,0,1,7.149-10.4a5.777,5.777,0,0,1,1.66,3.91l.021.795A6.075,6.075,0,0,1,7.337-1.4,5.19,5.19,0,0,1,3.33.215,5.216,5.216,0,0,1-.682-1.4a6.182,6.182,0,0,1-1.5-4.383Zm3.1.22a4.345,4.345,0,0,0,.623,2.534,2.055,2.055,0,0,0,1.783.877,2.06,2.06,0,0,0,1.762-.866,4.754,4.754,0,0,0,.634-2.77,4.3,4.3,0,0,0-.634-2.518,2.06,2.06,0,0,0-1.783-.893,2.027,2.027,0,0,0-1.762.888A4.834,4.834,0,0,0,.924-5.7ZM17.037-3.212a1,1,0,0,0-.564-.9,6.406,6.406,0,0,0-1.81-.585q-4.146-.87-4.146-3.523A3.194,3.194,0,0,1,11.8-10.8a5.178,5.178,0,0,1,3.357-1.037A5.573,5.573,0,0,1,18.7-10.8a3.284,3.284,0,0,1,1.327,2.707h-3.1a1.5,1.5,0,0,0-.43-1.1,1.818,1.818,0,0,0-1.343-.435,1.858,1.858,0,0,0-1.214.354,1.119,1.119,0,0,0-.43.9.957.957,0,0,0,.489.833,5.028,5.028,0,0,0,1.649.548,13.468,13.468,0,0,1,1.955.521,3.212,3.212,0,0,1,2.46,3.126A3.032,3.032,0,0,1,18.691-.768a5.885,5.885,0,0,1-3.523.983,6.147,6.147,0,0,1-2.594-.521A4.353,4.353,0,0,1,10.8-1.735a3.32,3.32,0,0,1-.645-1.96h2.943a1.621,1.621,0,0,0,.612,1.268,2.429,2.429,0,0,0,1.525.44,2.248,2.248,0,0,0,1.348-.338A1.053,1.053,0,0,0,17.037-3.212ZM25.771-14.48v2.857h1.987v2.277H25.771v5.8a1.385,1.385,0,0,0,.247.924,1.241,1.241,0,0,0,.945.279,4.951,4.951,0,0,0,.913-.075V-.064A6.391,6.391,0,0,1,26,.215q-3.266,0-3.33-3.3V-9.346h-1.7v-2.277h1.7V-14.48ZM34.837.215a5.706,5.706,0,0,1-4.163-1.568,5.575,5.575,0,0,1-1.606-4.179v-.3a7.021,7.021,0,0,1,.677-3.131,4.967,4.967,0,0,1,1.917-2.127,5.382,5.382,0,0,1,2.831-.747,4.824,4.824,0,0,1,3.754,1.5,6.111,6.111,0,0,1,1.37,4.265V-4.8h-7.4a2.884,2.884,0,0,0,.908,1.826,2.744,2.744,0,0,0,1.917.688,3.351,3.351,0,0,0,2.8-1.3L39.37-1.88A4.66,4.66,0,0,1,37.479-.338,6.2,6.2,0,0,1,34.837.215Zm-.354-9.55a1.94,1.94,0,0,0-1.5.626,3.241,3.241,0,0,0-.736,1.791h4.318v-.248a2.311,2.311,0,0,0-.559-1.6A2,2,0,0,0,34.482-9.335Zm13.428.623A8.434,8.434,0,0,0,46.793-8.8a2.274,2.274,0,0,0-2.31,1.192V0h-3.1V-11.623h2.933l.086,1.386a2.877,2.877,0,0,1,2.589-1.6,3.253,3.253,0,0,1,.967.14ZM52.68,0H49.564V-11.623H52.68Zm-3.3-14.631a1.529,1.529,0,0,1,.467-1.149,1.755,1.755,0,0,1,1.273-.451,1.759,1.759,0,0,1,1.268.451,1.52,1.52,0,0,1,.473,1.149,1.524,1.524,0,0,1-.478,1.16,1.764,1.764,0,0,1-1.262.451,1.764,1.764,0,0,1-1.262-.451A1.524,1.524,0,0,1,49.382-14.631Zm5.371,8.712A6.893,6.893,0,0,1,55.419-9,4.876,4.876,0,0,1,57.336-11.1a5.594,5.594,0,0,1,2.906-.741,5.293,5.293,0,0,1,3.84,1.439,5.777,5.777,0,0,1,1.66,3.91l.021.795A6.075,6.075,0,0,1,64.271-1.4,5.19,5.19,0,0,1,60.264.215,5.216,5.216,0,0,1,56.251-1.4a6.182,6.182,0,0,1-1.5-4.383Zm3.1.22a4.345,4.345,0,0,0,.623,2.534,2.055,2.055,0,0,0,1.783.877,2.06,2.06,0,0,0,1.762-.866,4.754,4.754,0,0,0,.634-2.77,4.3,4.3,0,0,0-.634-2.518,2.06,2.06,0,0,0-1.783-.893,2.027,2.027,0,0,0-1.762.888A4.834,4.834,0,0,0,57.857-5.7Zm16.35-3.013A8.434,8.434,0,0,0,73.09-8.8a2.274,2.274,0,0,0-2.31,1.192V0h-3.1V-11.623h2.933l.086,1.386a2.877,2.877,0,0,1,2.589-1.6,3.253,3.253,0,0,1,.967.14Z" transform="translate(1177 5218)" fill="#12263f"/><path d="M-35.224-5.511V0h-3.223V-15.641h6.1a7.059,7.059,0,0,1,3.1.645,4.75,4.75,0,0,1,2.057,1.832,5.107,5.107,0,0,1,.72,2.7,4.491,4.491,0,0,1-1.574,3.625A6.555,6.555,0,0,1-32.4-5.511Zm0-2.61h2.879a2.831,2.831,0,0,0,1.95-.6,2.188,2.188,0,0,0,.671-1.719A2.58,2.58,0,0,0-30.4-12.3a2.528,2.528,0,0,0-1.869-.73h-2.954ZM-17.843,0a3.448,3.448,0,0,1-.312-1.042A3.756,3.756,0,0,1-21.087.215a4.127,4.127,0,0,1-2.831-.988A3.178,3.178,0,0,1-25.04-3.266,3.285,3.285,0,0,1-23.67-6.1a6.758,6.758,0,0,1,3.958-1h1.429v-.666A1.915,1.915,0,0,0-18.7-9.056,1.627,1.627,0,0,0-20-9.539a1.85,1.85,0,0,0-1.23.376,1.277,1.277,0,0,0-.446,1.031h-3.1A3.118,3.118,0,0,1-24.159-10,4.118,4.118,0,0,1-22.4-11.349a6.42,6.42,0,0,1,2.557-.489,5.073,5.073,0,0,1,3.411,1.08,3.777,3.777,0,0,1,1.262,3.035v5.038a5.557,5.557,0,0,0,.462,2.5V0ZM-20.41-2.159a2.674,2.674,0,0,0,1.268-.306,2.011,2.011,0,0,0,.859-.822v-2h-1.16q-2.331,0-2.481,1.611l-.011.183a1.243,1.243,0,0,0,.408.956A1.586,1.586,0,0,0-20.41-2.159ZM-19.229-16.5h3.384l-2.976,3.33h-2.524Zm5.994,10.6a6.812,6.812,0,0,1,1.273-4.308,4.125,4.125,0,0,1,3.432-1.633,3.617,3.617,0,0,1,2.976,1.311l.129-1.1H-2.61V-.387A4.968,4.968,0,0,1-3.3,2.267a4.45,4.45,0,0,1-1.95,1.719A6.854,6.854,0,0,1-8.2,4.576a6.373,6.373,0,0,1-2.492-.51A4.423,4.423,0,0,1-12.525,2.75L-11.15.859a3.637,3.637,0,0,0,2.814,1.3A2.662,2.662,0,0,0-6.413,1.5,2.478,2.478,0,0,0-5.726-.376V-1A3.591,3.591,0,0,1-8.551.215,4.114,4.114,0,0,1-11.94-1.423a6.81,6.81,0,0,1-1.294-4.345Zm3.1.231A4.242,4.242,0,0,0-9.5-3.186a2.016,2.016,0,0,0,1.74.9,2.156,2.156,0,0,0,2.03-1.065v-4.9A2.151,2.151,0,0,0-7.734-9.313,2.029,2.029,0,0,0-9.491-8.4,4.781,4.781,0,0,0-10.13-5.666ZM3.051,0H-.064V-11.623H3.051Zm-3.3-14.631A1.529,1.529,0,0,1,.22-15.78a1.755,1.755,0,0,1,1.273-.451,1.759,1.759,0,0,1,1.268.451,1.52,1.52,0,0,1,.473,1.149,1.524,1.524,0,0,1-.478,1.16,1.764,1.764,0,0,1-1.262.451,1.764,1.764,0,0,1-1.262-.451A1.524,1.524,0,0,1-.247-14.631Zm8.712,3.008.1,1.343A4.058,4.058,0,0,1,11.9-11.838a3.372,3.372,0,0,1,2.75,1.085,5.062,5.062,0,0,1,.924,3.244V0h-3.1V-7.434a2.014,2.014,0,0,0-.43-1.434,1.924,1.924,0,0,0-1.429-.446A2.136,2.136,0,0,0,8.647-8.2V0h-3.1V-11.623ZM24.664,0a3.448,3.448,0,0,1-.312-1.042A3.756,3.756,0,0,1,21.42.215a4.127,4.127,0,0,1-2.831-.988,3.178,3.178,0,0,1-1.123-2.492A3.285,3.285,0,0,1,18.836-6.1a6.758,6.758,0,0,1,3.958-1h1.429v-.666a1.915,1.915,0,0,0-.414-1.289A1.627,1.627,0,0,0,22.5-9.539a1.85,1.85,0,0,0-1.23.376,1.277,1.277,0,0,0-.446,1.031h-3.1A3.118,3.118,0,0,1,18.348-10a4.118,4.118,0,0,1,1.762-1.348,6.42,6.42,0,0,1,2.557-.489,5.073,5.073,0,0,1,3.411,1.08,3.777,3.777,0,0,1,1.262,3.035v5.038a5.557,5.557,0,0,0,.462,2.5V0ZM22.1-2.159a2.674,2.674,0,0,0,1.268-.306,2.011,2.011,0,0,0,.859-.822v-2h-1.16q-2.331,0-2.481,1.611l-.011.183a1.243,1.243,0,0,0,.408.956A1.586,1.586,0,0,0,22.1-2.159ZM36.019-3.212a1,1,0,0,0-.564-.9,6.406,6.406,0,0,0-1.81-.585Q29.5-5.564,29.5-8.218A3.194,3.194,0,0,1,30.782-10.8a5.178,5.178,0,0,1,3.357-1.037,5.573,5.573,0,0,1,3.54,1.042A3.284,3.284,0,0,1,39-8.089H35.9a1.5,1.5,0,0,0-.43-1.1,1.818,1.818,0,0,0-1.343-.435,1.858,1.858,0,0,0-1.214.354,1.119,1.119,0,0,0-.43.9.957.957,0,0,0,.489.833,5.028,5.028,0,0,0,1.649.548,13.468,13.468,0,0,1,1.955.521,3.212,3.212,0,0,1,2.46,3.126A3.032,3.032,0,0,1,37.673-.768a5.885,5.885,0,0,1-3.523.983,6.147,6.147,0,0,1-2.594-.521,4.353,4.353,0,0,1-1.778-1.429,3.32,3.32,0,0,1-.645-1.96h2.943a1.621,1.621,0,0,0,.612,1.268,2.429,2.429,0,0,0,1.525.44,2.248,2.248,0,0,0,1.348-.338A1.053,1.053,0,0,0,36.019-3.212ZM-55.016,18.1A7,7,0,0,1-53.8,13.773a3.956,3.956,0,0,1,3.335-1.611,3.56,3.56,0,0,1,2.8,1.268V7.5h3.115V24h-2.8l-.15-1.235a3.653,3.653,0,0,1-2.986,1.45A3.945,3.945,0,0,1-53.775,22.6,7.23,7.23,0,0,1-55.016,18.1Zm3.1.231a4.588,4.588,0,0,0,.569,2.507,1.855,1.855,0,0,0,1.654.871,2.077,2.077,0,0,0,2.03-1.216V15.9a2.048,2.048,0,0,0-2.009-1.216Q-51.912,14.687-51.912,18.334Zm15.125,5.881a5.706,5.706,0,0,1-4.163-1.568,5.575,5.575,0,0,1-1.606-4.179v-.3a7.021,7.021,0,0,1,.677-3.131,4.967,4.967,0,0,1,1.917-2.127,5.382,5.382,0,0,1,2.831-.747,4.824,4.824,0,0,1,3.754,1.5,6.111,6.111,0,0,1,1.37,4.265V19.2h-7.4a2.884,2.884,0,0,0,.908,1.826,2.744,2.744,0,0,0,1.917.688,3.351,3.351,0,0,0,2.8-1.3l1.525,1.708a4.66,4.66,0,0,1-1.891,1.542A6.2,6.2,0,0,1-36.787,24.215Zm-.354-9.55a1.94,1.94,0,0,0-1.5.626,3.241,3.241,0,0,0-.736,1.791h4.318v-.248a2.311,2.311,0,0,0-.559-1.6A2,2,0,0,0-37.141,14.665Zm17.209,7.047a2.036,2.036,0,0,0,1.4-.473,1.656,1.656,0,0,0,.559-1.257h2.911a3.982,3.982,0,0,1-.645,2.165,4.253,4.253,0,0,1-1.735,1.525,5.43,5.43,0,0,1-2.433.542A5.046,5.046,0,0,1-23.81,22.63a6.27,6.27,0,0,1-1.439-4.377v-.2a6.2,6.2,0,0,1,1.429-4.286,4.987,4.987,0,0,1,3.921-1.6A4.889,4.889,0,0,1-16.4,13.4a4.393,4.393,0,0,1,1.337,3.3h-2.911a2.133,2.133,0,0,0-.559-1.474,1.862,1.862,0,0,0-1.418-.567,1.87,1.87,0,0,0-1.638.791,4.583,4.583,0,0,0-.553,2.566v.323a4.641,4.641,0,0,0,.548,2.582A1.893,1.893,0,0,0-19.932,21.712Zm13.6,1.106a3.893,3.893,0,0,1-3.18,1.4,3.672,3.672,0,0,1-2.852-1.074,4.586,4.586,0,0,1-1-3.147V12.377h3.1v7.518q0,1.817,1.654,1.817a2.242,2.242,0,0,0,2.17-1.1V12.377h3.115V24H-6.247ZM9.491,18.3A7.038,7.038,0,0,1,8.3,22.652a3.95,3.95,0,0,1-3.33,1.563,3.629,3.629,0,0,1-3.019-1.45L1.81,24H-.983V7.5h3.1v5.919a3.536,3.536,0,0,1,2.825-1.257,3.982,3.982,0,0,1,3.335,1.563,7.048,7.048,0,0,1,1.208,4.4Zm-3.1-.226A4.624,4.624,0,0,0,5.828,15.5a1.889,1.889,0,0,0-1.665-.811A2.048,2.048,0,0,0,2.122,15.9v4.587a2.076,2.076,0,0,0,2.063,1.225,1.917,1.917,0,0,0,1.977-1.482A7.647,7.647,0,0,0,6.386,18.07ZM14.679,24H11.564V12.377h3.115Zm-3.3-14.631a1.529,1.529,0,0,1,.467-1.149,1.755,1.755,0,0,1,1.273-.451,1.759,1.759,0,0,1,1.268.451,1.52,1.52,0,0,1,.473,1.149,1.524,1.524,0,0,1-.478,1.16,1.764,1.764,0,0,1-1.262.451,1.764,1.764,0,0,1-1.262-.451A1.524,1.524,0,0,1,11.381,9.369Zm11.2,14.846a5.706,5.706,0,0,1-4.163-1.568,5.575,5.575,0,0,1-1.606-4.179v-.3a7.021,7.021,0,0,1,.677-3.131,4.967,4.967,0,0,1,1.917-2.127,5.382,5.382,0,0,1,2.831-.747A4.824,4.824,0,0,1,26,13.666a6.111,6.111,0,0,1,1.37,4.265V19.2h-7.4a2.884,2.884,0,0,0,.908,1.826,2.744,2.744,0,0,0,1.917.688,3.351,3.351,0,0,0,2.8-1.3l1.525,1.708a4.66,4.66,0,0,1-1.891,1.542A6.2,6.2,0,0,1,22.585,24.215Zm-.354-9.55a1.94,1.94,0,0,0-1.5.626A3.241,3.241,0,0,0,20,17.082h4.318v-.248a2.311,2.311,0,0,0-.559-1.6A2,2,0,0,0,22.231,14.665Zm13.428.623a8.434,8.434,0,0,0-1.117-.086,2.274,2.274,0,0,0-2.31,1.192V24h-3.1V12.377H32.06l.086,1.386a2.877,2.877,0,0,1,2.589-1.6,3.253,3.253,0,0,1,.967.14ZM41.406,9.52v2.857h1.987v2.277H41.406v5.8a1.385,1.385,0,0,0,.247.924,1.241,1.241,0,0,0,.945.279,4.951,4.951,0,0,0,.913-.075v2.353a6.391,6.391,0,0,1-1.88.279q-3.266,0-3.33-3.3V14.654H36.6V12.377h1.7V9.52ZM51.858,24a3.447,3.447,0,0,1-.312-1.042,3.756,3.756,0,0,1-2.933,1.257,4.127,4.127,0,0,1-2.831-.988,3.178,3.178,0,0,1-1.123-2.492A3.285,3.285,0,0,1,46.03,17.9a6.758,6.758,0,0,1,3.958-1h1.429v-.666A1.915,1.915,0,0,0,51,14.944a1.627,1.627,0,0,0-1.305-.483,1.85,1.85,0,0,0-1.23.376,1.277,1.277,0,0,0-.446,1.031h-3.1A3.119,3.119,0,0,1,45.542,14,4.118,4.118,0,0,1,47.3,12.651a6.42,6.42,0,0,1,2.557-.489,5.073,5.073,0,0,1,3.411,1.08,3.777,3.777,0,0,1,1.262,3.035v5.038a5.557,5.557,0,0,0,.462,2.5V24Zm-2.567-2.159a2.674,2.674,0,0,0,1.268-.306,2.011,2.011,0,0,0,.859-.822v-2h-1.16q-2.331,0-2.481,1.611l-.011.183a1.243,1.243,0,0,0,.408.956A1.586,1.586,0,0,0,49.291,21.841Z" transform="translate(681 4990)" fill="#12263f"/><path d="M-35.922-3.223h-5.65L-42.646,0h-3.427l5.822-15.641h2.986L-31.41,0h-3.427Zm-4.78-2.61h3.91l-1.966-5.854Zm12.891-5.79.1,1.343a4.058,4.058,0,0,1,3.341-1.558,3.372,3.372,0,0,1,2.75,1.085A5.062,5.062,0,0,1-20.7-7.509V0h-3.1V-7.434a2.014,2.014,0,0,0-.43-1.434,1.924,1.924,0,0,0-1.429-.446A2.136,2.136,0,0,0-27.629-8.2V0h-3.1V-11.623ZM-11.387-1.182a3.893,3.893,0,0,1-3.18,1.4A3.672,3.672,0,0,1-17.418-.859a4.586,4.586,0,0,1-1-3.147v-7.616h3.1v7.518q0,1.817,1.654,1.817a2.242,2.242,0,0,0,2.17-1.1v-8.238h3.115V0H-11.3ZM-3.18-11.623l.1,1.343A4.058,4.058,0,0,1,.258-11.838a3.372,3.372,0,0,1,2.75,1.085,5.062,5.062,0,0,1,.924,3.244V0H.827V-7.434A2.014,2.014,0,0,0,.4-8.868a1.924,1.924,0,0,0-1.429-.446A2.136,2.136,0,0,0-3-8.2V0H-6.1V-11.623Zm14.3,9.335a2.036,2.036,0,0,0,1.4-.473,1.656,1.656,0,0,0,.559-1.257h2.911a3.982,3.982,0,0,1-.645,2.165A4.253,4.253,0,0,1,13.6-.328a5.43,5.43,0,0,1-2.433.542A5.046,5.046,0,0,1,7.24-1.37,6.27,6.27,0,0,1,5.8-5.747v-.2a6.2,6.2,0,0,1,1.429-4.286,4.987,4.987,0,0,1,3.921-1.6,4.889,4.889,0,0,1,3.5,1.241,4.393,4.393,0,0,1,1.337,3.3H13.073a2.133,2.133,0,0,0-.559-1.474A1.862,1.862,0,0,0,11.1-9.335a1.87,1.87,0,0,0-1.638.791,4.583,4.583,0,0,0-.553,2.566v.323a4.641,4.641,0,0,0,.548,2.582A1.893,1.893,0,0,0,11.118-2.288ZM21.033,0H17.918V-11.623h3.115Zm-3.3-14.631A1.529,1.529,0,0,1,18.2-15.78a1.755,1.755,0,0,1,1.273-.451,1.759,1.759,0,0,1,1.268.451,1.52,1.52,0,0,1,.473,1.149,1.524,1.524,0,0,1-.478,1.16,1.764,1.764,0,0,1-1.262.451,1.764,1.764,0,0,1-1.262-.451A1.524,1.524,0,0,1,17.735-14.631Zm5.371,8.712A6.893,6.893,0,0,1,23.772-9,4.876,4.876,0,0,1,25.69-11.1a5.594,5.594,0,0,1,2.906-.741,5.293,5.293,0,0,1,3.84,1.439,5.777,5.777,0,0,1,1.66,3.91l.021.795A6.075,6.075,0,0,1,32.624-1.4,5.19,5.19,0,0,1,28.617.215,5.216,5.216,0,0,1,24.6-1.4a6.182,6.182,0,0,1-1.5-4.383Zm3.1.22a4.345,4.345,0,0,0,.623,2.534,2.055,2.055,0,0,0,1.783.877,2.06,2.06,0,0,0,1.762-.866,4.754,4.754,0,0,0,.634-2.77,4.3,4.3,0,0,0-.634-2.518A2.06,2.06,0,0,0,28.6-9.335a2.027,2.027,0,0,0-1.762.888A4.834,4.834,0,0,0,26.211-5.7ZM42.324-3.212a1,1,0,0,0-.564-.9,6.406,6.406,0,0,0-1.81-.585Q35.8-5.564,35.8-8.218A3.194,3.194,0,0,1,37.087-10.8a5.178,5.178,0,0,1,3.357-1.037,5.573,5.573,0,0,1,3.54,1.042,3.284,3.284,0,0,1,1.327,2.707h-3.1a1.5,1.5,0,0,0-.43-1.1,1.818,1.818,0,0,0-1.343-.435,1.858,1.858,0,0,0-1.214.354,1.119,1.119,0,0,0-.43.9.957.957,0,0,0,.489.833,5.028,5.028,0,0,0,1.649.548,13.468,13.468,0,0,1,1.955.521,3.212,3.212,0,0,1,2.46,3.126A3.032,3.032,0,0,1,43.979-.768a5.885,5.885,0,0,1-3.523.983,6.147,6.147,0,0,1-2.594-.521,4.353,4.353,0,0,1-1.778-1.429,3.32,3.32,0,0,1-.645-1.96h2.943a1.621,1.621,0,0,0,.612,1.268,2.429,2.429,0,0,0,1.525.44,2.248,2.248,0,0,0,1.348-.338A1.053,1.053,0,0,0,42.324-3.212Z" transform="translate(929 5002)" fill="#12263f"/><path d="M-32-6695H9.25" transform="translate(563 11689.5)" fill="none" stroke="#12263f" stroke-width="4"/><path d="M-32-6695H9.25" transform="translate(563 11905.5)" fill="none" stroke="#12263f" stroke-width="4"/><path d="M-32-6695H9.25" transform="translate(811 11689.5)" fill="none" stroke="#12263f" stroke-width="4"/><path d="M-32-6695H9.25" transform="translate(811 11905.5)" fill="none" stroke="#12263f" stroke-width="4"/><path d="M-32-6695H9.25" transform="translate(1059 11689.5)" fill="none" stroke="#12263f" stroke-width="4"/><path d="M-32-6695H9.25v108.5H-286" transform="translate(1295 11688)" fill="none" stroke="#12263f" stroke-width="4"/><path d="M-18.417-6695H9.25v108.5H-716" transform="translate(305.25 -1485) rotate(180)" fill="none" stroke="#12263f" stroke-width="4"/><path d="M-32-6695H9.25" transform="translate(1059 11905.5)" fill="none" stroke="#12263f" stroke-width="4"/><path d="M7,0l7,14H0Z" transform="translate(582 4987) rotate(90)" fill="#12263f"/><path d="M7,0l7,14H0Z" transform="translate(582 5203) rotate(90)" fill="#12263f"/><path d="M7,0l7,14H0Z" transform="translate(334 5203) rotate(90)" fill="#12263f"/><path d="M7,0l7,14H0Z" transform="translate(830 4987) rotate(90)" fill="#12263f"/><path d="M7,0l7,14H0Z" transform="translate(830 5203) rotate(90)" fill="#12263f"/><path d="M7,0l7,14H0Z" transform="translate(1078 4987) rotate(90)" fill="#12263f"/><path d="M7,0l7,14H0Z" transform="translate(1078 5203) rotate(90)" fill="#12263f"/><g transform="translate(1078 4925)" fill="#d0f2f5" stroke="#26ccda" stroke-width="2"><rect width="197" height="138" rx="7" stroke="none"/><rect x="1" y="1" width="195" height="136" rx="6" fill="none"/></g><path d="M-13.637-13.03h-4.791V0h-3.223V-13.03h-4.727v-2.61h12.74ZM-7.074,0a3.447,3.447,0,0,1-.312-1.042A3.756,3.756,0,0,1-10.318.215a4.127,4.127,0,0,1-2.831-.988,3.178,3.178,0,0,1-1.123-2.492A3.285,3.285,0,0,1-12.9-6.1a6.758,6.758,0,0,1,3.958-1h1.429v-.666a1.915,1.915,0,0,0-.414-1.289,1.627,1.627,0,0,0-1.305-.483,1.85,1.85,0,0,0-1.23.376,1.277,1.277,0,0,0-.446,1.031h-3.1A3.118,3.118,0,0,1-13.39-10a4.118,4.118,0,0,1,1.762-1.348,6.42,6.42,0,0,1,2.557-.489,5.073,5.073,0,0,1,3.411,1.08A3.777,3.777,0,0,1-4.4-7.724v5.038a5.557,5.557,0,0,0,.462,2.5V0ZM-9.641-2.159a2.674,2.674,0,0,0,1.268-.306,2.011,2.011,0,0,0,.859-.822v-2h-1.16q-2.331,0-2.481,1.611l-.011.183a1.243,1.243,0,0,0,.408.956A1.586,1.586,0,0,0-9.641-2.159ZM8.459-5.7A7.038,7.038,0,0,1,7.267-1.348,3.95,3.95,0,0,1,3.937.215,3.629,3.629,0,0,1,.918-1.235L.779,0H-2.014V-16.5h3.1v5.919a3.536,3.536,0,0,1,2.825-1.257,3.982,3.982,0,0,1,3.335,1.563,7.048,7.048,0,0,1,1.208,4.4Zm-3.1-.226A4.624,4.624,0,0,0,4.8-8.5a1.889,1.889,0,0,0-1.665-.811A2.048,2.048,0,0,0,1.09-8.1v4.587A2.076,2.076,0,0,0,3.153-2.288,1.917,1.917,0,0,0,5.129-3.771,7.647,7.647,0,0,0,5.355-5.93ZM13.648,0H10.533V-16.5h3.115ZM22.94,0a3.448,3.448,0,0,1-.312-1.042A3.756,3.756,0,0,1,19.7.215a4.127,4.127,0,0,1-2.831-.988,3.178,3.178,0,0,1-1.123-2.492A3.285,3.285,0,0,1,17.112-6.1a6.758,6.758,0,0,1,3.958-1H22.5v-.666a1.915,1.915,0,0,0-.414-1.289,1.627,1.627,0,0,0-1.305-.483,1.85,1.85,0,0,0-1.23.376A1.277,1.277,0,0,0,19.1-8.132H16A3.118,3.118,0,0,1,16.624-10a4.118,4.118,0,0,1,1.762-1.348,6.42,6.42,0,0,1,2.557-.489,5.073,5.073,0,0,1,3.411,1.08,3.777,3.777,0,0,1,1.262,3.035v5.038a5.557,5.557,0,0,0,.462,2.5V0ZM20.373-2.159a2.674,2.674,0,0,0,1.268-.306,2.011,2.011,0,0,0,.859-.822v-2h-1.16q-2.331,0-2.481,1.611l-.011.183a1.243,1.243,0,0,0,.408.956A1.586,1.586,0,0,0,20.373-2.159ZM-63.449,18.1a7,7,0,0,1,1.219-4.329,3.956,3.956,0,0,1,3.335-1.611,3.56,3.56,0,0,1,2.8,1.268V7.5h3.115V24h-2.8l-.15-1.235a3.653,3.653,0,0,1-2.986,1.45A3.945,3.945,0,0,1-62.208,22.6,7.23,7.23,0,0,1-63.449,18.1Zm3.1.231a4.588,4.588,0,0,0,.569,2.507,1.855,1.855,0,0,0,1.654.871A2.077,2.077,0,0,0-56.09,20.5V15.9A2.048,2.048,0,0,0-58.1,14.687Q-60.344,14.687-60.344,18.334Zm15.125,5.881a5.706,5.706,0,0,1-4.163-1.568,5.575,5.575,0,0,1-1.606-4.179v-.3a7.021,7.021,0,0,1,.677-3.131,4.967,4.967,0,0,1,1.917-2.127,5.382,5.382,0,0,1,2.831-.747,4.824,4.824,0,0,1,3.754,1.5,6.111,6.111,0,0,1,1.37,4.265V19.2h-7.4a2.884,2.884,0,0,0,.908,1.826,2.744,2.744,0,0,0,1.917.688,3.351,3.351,0,0,0,2.8-1.3l1.525,1.708a4.66,4.66,0,0,1-1.891,1.542A6.2,6.2,0,0,1-45.219,24.215Zm-.354-9.55a1.94,1.94,0,0,0-1.5.626,3.241,3.241,0,0,0-.736,1.791h4.318v-.248a2.311,2.311,0,0,0-.559-1.6A2,2,0,0,0-45.574,14.665Zm17.209,7.047a2.036,2.036,0,0,0,1.4-.473,1.656,1.656,0,0,0,.559-1.257H-23.5a3.982,3.982,0,0,1-.645,2.165,4.253,4.253,0,0,1-1.735,1.525,5.43,5.43,0,0,1-2.433.542,5.046,5.046,0,0,1-3.932-1.584,6.27,6.27,0,0,1-1.439-4.377v-.2a6.2,6.2,0,0,1,1.429-4.286,4.987,4.987,0,0,1,3.921-1.6,4.889,4.889,0,0,1,3.5,1.241,4.393,4.393,0,0,1,1.337,3.3H-26.41a2.133,2.133,0,0,0-.559-1.474,1.862,1.862,0,0,0-1.418-.567,1.87,1.87,0,0,0-1.638.791,4.583,4.583,0,0,0-.553,2.566v.323a4.641,4.641,0,0,0,.548,2.582A1.893,1.893,0,0,0-28.365,21.712Zm6.155-3.631A6.893,6.893,0,0,1-21.543,15,4.876,4.876,0,0,1-19.626,12.9a5.594,5.594,0,0,1,2.906-.741A5.293,5.293,0,0,1-12.88,13.6a5.777,5.777,0,0,1,1.66,3.91l.021.795A6.075,6.075,0,0,1-12.692,22.6,5.19,5.19,0,0,1-16.7,24.215,5.216,5.216,0,0,1-20.711,22.6a6.182,6.182,0,0,1-1.5-4.383Zm3.1.22a4.345,4.345,0,0,0,.623,2.534,2.055,2.055,0,0,0,1.783.877,2.06,2.06,0,0,0,1.762-.866,4.754,4.754,0,0,0,.634-2.77,4.3,4.3,0,0,0-.634-2.518,2.06,2.06,0,0,0-1.783-.893,2.027,2.027,0,0,0-1.762.888A4.834,4.834,0,0,0-19.1,18.3Zm12.676-5.924.1,1.343a4.058,4.058,0,0,1,3.341-1.558,3.372,3.372,0,0,1,2.75,1.085,5.062,5.062,0,0,1,.924,3.244V24h-3.1V16.566a2.014,2.014,0,0,0-.43-1.434,1.924,1.924,0,0,0-1.429-.446A2.136,2.136,0,0,0-6.247,15.8V24h-3.1V12.377ZM6.751,9.52v2.857H8.739v2.277H6.751v5.8A1.385,1.385,0,0,0,7,21.379a1.241,1.241,0,0,0,.945.279,4.951,4.951,0,0,0,.913-.075v2.353a6.391,6.391,0,0,1-1.88.279q-3.266,0-3.33-3.3V14.654H1.95V12.377h1.7V9.52Zm9.066,14.7a5.706,5.706,0,0,1-4.163-1.568,5.575,5.575,0,0,1-1.606-4.179v-.3a7.021,7.021,0,0,1,.677-3.131,4.967,4.967,0,0,1,1.917-2.127,5.382,5.382,0,0,1,2.831-.747,4.824,4.824,0,0,1,3.754,1.5,6.111,6.111,0,0,1,1.37,4.265V19.2H13.2a2.884,2.884,0,0,0,.908,1.826,2.744,2.744,0,0,0,1.917.688,3.351,3.351,0,0,0,2.8-1.3l1.525,1.708a4.66,4.66,0,0,1-1.891,1.542A6.2,6.2,0,0,1,15.818,24.215Zm-.354-9.55a1.94,1.94,0,0,0-1.5.626,3.241,3.241,0,0,0-.736,1.791h4.318v-.248a2.311,2.311,0,0,0-.559-1.6A2,2,0,0,0,15.463,14.665Zm9.754-2.288.1,1.343a4.058,4.058,0,0,1,3.341-1.558,3.372,3.372,0,0,1,2.75,1.085,5.062,5.062,0,0,1,.924,3.244V24h-3.1V16.566a2.014,2.014,0,0,0-.43-1.434,1.924,1.924,0,0,0-1.429-.446A2.136,2.136,0,0,0,25.4,15.8V24H22.3V12.377ZM37.958,24H34.842V12.377h3.115ZM34.66,9.369a1.529,1.529,0,0,1,.467-1.149,2.014,2.014,0,0,1,2.541,0,1.52,1.52,0,0,1,.473,1.149,1.524,1.524,0,0,1-.478,1.16,1.991,1.991,0,0,1-2.524,0A1.524,1.524,0,0,1,34.66,9.369ZM40.031,18.1a7,7,0,0,1,1.219-4.329,3.956,3.956,0,0,1,3.335-1.611,3.56,3.56,0,0,1,2.8,1.268V7.5H50.5V24H47.7l-.15-1.235a3.653,3.653,0,0,1-2.986,1.45A3.945,3.945,0,0,1,41.271,22.6,7.23,7.23,0,0,1,40.031,18.1Zm3.1.231A4.588,4.588,0,0,0,43.7,20.84a1.855,1.855,0,0,0,1.654.871,2.077,2.077,0,0,0,2.03-1.216V15.9a2.048,2.048,0,0,0-2.009-1.216Q43.135,14.687,43.135,18.334Zm9.292-.253A6.893,6.893,0,0,1,53.093,15,4.876,4.876,0,0,1,55.011,12.9a5.594,5.594,0,0,1,2.906-.741,5.293,5.293,0,0,1,3.84,1.439,5.777,5.777,0,0,1,1.66,3.91l.021.795A6.075,6.075,0,0,1,61.945,22.6a5.787,5.787,0,0,1-8.019.005,6.182,6.182,0,0,1-1.5-4.383Zm3.1.22a4.345,4.345,0,0,0,.623,2.534,2.238,2.238,0,0,0,3.545.011,4.754,4.754,0,0,0,.634-2.77,4.3,4.3,0,0,0-.634-2.518,2.06,2.06,0,0,0-1.783-.893,2.027,2.027,0,0,0-1.762.888A4.834,4.834,0,0,0,55.532,18.3Z" transform="translate(1177 4990)" fill="#12263f"/></g></g></svg>