<svg xmlns="http://www.w3.org/2000/svg" width="130" height="130" viewBox="0 0 130 130"><g transform="translate(-7501 10987)"><circle cx="65" cy="65" r="65" transform="translate(7501 -10987)" fill="#fff"/><g transform="translate(315 -536)"><circle cx="25.74" cy="25.74" r="25.74" transform="translate(7212.888 -10400.162)" fill="#e175a5"/><ellipse cx="25.297" cy="25.74" rx="25.297" ry="25.74" transform="translate(7226.202 -10422.353)" fill="#9ec8fc"/><circle cx="25.74" cy="25.74" r="25.74" transform="translate(7237.74 -10400.162)" fill="#fbf490"/><path d="M7386.5-10106.5" transform="translate(-147.778 -268.033)" fill="none" stroke="#707070" stroke-width="1"/><path d="M7317.578-10253.779l3.675-8.577,6.942-5.818.51-1.532-5.512-1.632-6.228-1.327-8.78,1.327-3.675,1.632-.511,1.532,1.736,8.677c.1.512,5,7.249,5,7.249l5.412,4.9s.408-5.207.816-4.9S7317.578-10253.779,7317.578-10253.779Z" transform="translate(-77.911 -127.313)" fill="#4980ac" stroke="#707070" stroke-width="1"/><path d="M7413.267-10230.41l-4.645,2.04-6.738,1.838-9.9-1.838L7388-10229.8l1.021-8.371,5.1-9.6,6.33-4.9a19.729,19.729,0,0,1,7.556,7.351C7410.562-10240.517,7413.267-10230.41,7413.267-10230.41Z" transform="translate(-149.048 -144.248)" fill="#4e5a61" stroke="#707070" stroke-width="1"/><path d="M7494.7-10268.889l-.97,7.759-5.411,8.779a38.793,38.793,0,0,1-2.96,3.063c-.511.306-3.165,1.94-3.165,1.94l-1.735-8.27-5-8.066-2.45-2.551-3.675-2.654,5.717-2.655,8.575-1.122,8.065,1.837Z" transform="translate(-217.927 -127.313)" fill="#abd641" stroke="#707070" stroke-width="1"/><path d="M7397.584-10083.587l5-3.371,5-6.432,2.45-6.432.919-5.513-6.534,2.757-8.065.51-7.044-1.837-3.981-1.43.613,5.513,2.45,5.821s3.165,5.1,3.369,5.411,4.594,3.979,4.594,3.979Z" transform="translate(-146.79 -269.02)" fill="#e06c57" stroke="#707070" stroke-width="1"/><g transform="translate(7212 -10423)"><path d="M29,13.153A26.533,26.533,0,0,1,64.927,31.172c.112.51.349,1.086.052,1.577a1.154,1.154,0,0,1-1.681.345,1.564,1.564,0,0,1-.518-1,23.918,23.918,0,0,0-5.456-10.5,24.5,24.5,0,0,0-11.416-7.233,24.226,24.226,0,0,0-30.847,21.31,26.644,26.644,0,0,1,24.151.632,26.511,26.511,0,0,1,25.9.319A26.577,26.577,0,0,1,78.4,59.242v1.041A26.551,26.551,0,0,1,44.557,85.089c-.47-.15-1.047-.231-1.322-.7a1.153,1.153,0,0,1,.515-1.66,1.519,1.519,0,0,1,1.115.046,24.213,24.213,0,0,0,20.779-43.1A26.426,26.426,0,0,1,60.78,53.039a27.262,27.262,0,0,1-7.755,7.231A26.523,26.523,0,0,1,0,60.308V59.115a26.637,26.637,0,0,1,8.687-19.13,1.142,1.142,0,0,1,1.778.426,1.218,1.218,0,0,1-.4,1.421A24.212,24.212,0,0,0,36.9,81.471a26.718,26.718,0,0,1-7.35-7.585,26.326,26.326,0,0,1-4.168-13.623,27.052,27.052,0,0,1-8.96-9.079,26.476,26.476,0,0,1,1.05-28.737A26.67,26.67,0,0,1,29,13.153M14.981,38.315a24.345,24.345,0,0,0,4.3,13.059,23.323,23.323,0,0,0,6.18,6.142A26.09,26.09,0,0,1,28.05,48a26.839,26.839,0,0,1,8.866-10.281,24.261,24.261,0,0,0-21.935.6m29.564-1.8a24.276,24.276,0,0,0-16.869,22.4,24.158,24.158,0,0,0,23.053-.009,24.319,24.319,0,0,0-7.7-17.025,1.337,1.337,0,0,1-.583-1.38,1.149,1.149,0,0,1,1.819-.6,26.625,26.625,0,0,1,8.695,17.633,24.582,24.582,0,0,0,6.416-6.543A24.215,24.215,0,0,0,63.414,38.3a24.245,24.245,0,0,0-18.869-1.786m-16.8,25.019A24.395,24.395,0,0,0,39.192,80.229a24.47,24.47,0,0,0,8.324-8.588A24.219,24.219,0,0,0,50.66,61.556a26.661,26.661,0,0,1-22.912-.018Z" transform="translate(0 -11.11)"/><path d="M227.94,58.932a5.855,5.855,0,0,1,4.6.91,1.147,1.147,0,0,1,.089,1.749,1.179,1.179,0,0,1-1.485.075,3.591,3.591,0,0,0-5.449,2.22,3.586,3.586,0,0,0,.962,3.337,3.483,3.483,0,0,0,3.795.792c.5-.194.783-.677,1.222-.949a1.152,1.152,0,0,1,1.655.951c.037.758-.663,1.248-1.194,1.665a5.7,5.7,0,0,1-7.459-1.228,5.888,5.888,0,0,1,3.263-9.52Z" transform="translate(-189.119 -51.494)"/><path d="M230.713,240.033a1.165,1.165,0,0,1,.953-1.248A1.144,1.144,0,0,1,233,239.872c.025.744,0,1.49.009,2.234,1.063-.969,2.115-1.951,3.181-2.916a1.144,1.144,0,1,1,1.541,1.692c-1.289,1.2-2.6,2.386-3.891,3.583,1.323,1.271,2.639,2.551,3.965,3.819a1.374,1.374,0,0,1,.609,1.387,1.149,1.149,0,0,1-1.844.6c-1.2-1.122-2.367-2.285-3.56-3.416-.015.893.025,1.787-.017,2.678a1.143,1.143,0,0,1-2.277-.17C230.707,246.258,230.713,243.145,230.713,240.033Z" transform="translate(-195.379 -203.903)"/><path d="M62.64,329.881a1.357,1.357,0,0,1,2.635-.15c.594,2.029,1.159,4.066,1.744,6.1q.887-2.988,1.766-5.981a1.388,1.388,0,0,1,1.115-1.064,1.365,1.365,0,0,1,1.556,1.084c.565,3.06,1.11,6.122,1.66,9.185a1.159,1.159,0,0,1-.554,1.273,1.146,1.146,0,0,1-1.66-.7c-.358-1.807-.651-3.628-1-5.438-.533,1.767-1.044,3.54-1.571,5.309a1.383,1.383,0,0,1-1.164,1.035,1.356,1.356,0,0,1-1.45-.92c-.538-1.81-1.031-3.634-1.565-5.445-.348,1.805-.677,3.616-1.041,5.418a1.144,1.144,0,1,1-2.225-.531Q61.755,334.467,62.64,329.881Z" transform="translate(-51.535 -280.119)"/><path d="M389.339,329a1.147,1.147,0,0,1,1.6.345c.688,1.037,1.355,2.086,2.04,3.124.712-1.069,1.392-2.161,2.116-3.222a1.142,1.142,0,0,1,1.9,1.265c-.926,1.495-1.96,2.928-2.853,4.438-.04,1.53.028,3.064-.018,4.594a1.142,1.142,0,0,1-2.277-.153c-.011-1.326-.011-2.652-.009-3.978a1.071,1.071,0,0,0-.141-.706c-.884-1.358-1.772-2.714-2.652-4.075A1.155,1.155,0,0,1,389.339,329Z" transform="translate(-329.283 -280.143)"/></g></g></g></svg>