<svg xmlns="http://www.w3.org/2000/svg" width="130" height="130" viewBox="0 0 130 130"><g transform="translate(-8484 10987)"><circle cx="65" cy="65" r="65" transform="translate(8484 -10987)" fill="#fff"/><g transform="translate(1334 -533)"><path d="M7187.172-10294h20.947l2.93,2.49,5.713,12.158h23.584l5.273,4.1v28.711l1.611,3.662,2.637,2.637h-59.473l-4.395-4.834V-10294Z" transform="translate(-6.828 -112.664)" fill="#fdd835"/><path d="M7597.42-10256h3.076l4.395,4.248v39.7l-2.2,3.516-3.809,1.025h-3.076l-3.809-3.516v-6.006h3.809l1.611-2.637Z" transform="translate(-353.355 -145.098)" fill="#f57c00"/><path d="M7297.92-10129.3v15.015l-3.226,3.226H7263.2l-3.226-3.226v-15.015l3.226-3.226h31.491Z" transform="translate(-69.969 -250.488)" fill="#dee4f0"/><path d="M7331.8-10401.549l.586,2.344v45.264l-1.9,2.344h-3.223v-25.049l-1.611-3.369-3.369-1.758H7297.82l-5.273-13.184-4.395-1.758H7282v-13.916l1.465-3.369h35.742v8.789l3.076,3.662Z" transform="translate(-88.766 -10.242)" fill="#d2e1f1"/><path d="M7541-10409v7.91l2.637,3.369h9.082l-9.082-9.814Z" transform="translate(-309.826 -14.51)" fill="#b0c0d2"/><g transform="translate(7178 -10426)"><path d="M17.852,0H52.786a1.623,1.623,0,0,1,1.05.5q6.381,6.372,12.751,12.751a1.6,1.6,0,0,1,.5,1.245q.007,4.392,0,8.785a7.666,7.666,0,0,1,4.982,1.482A7.4,7.4,0,0,1,75,30.442v36.8A7.932,7.932,0,0,1,67.257,75H7.175A7.361,7.361,0,0,1,0,67.948V18.659a1.474,1.474,0,0,1,1.447-1.367c4.107-.018,8.215,0,12.322-.007.006-4.352-.012-8.7.007-13.056A4.44,4.44,0,0,1,17.852,0m-.476,3.164A1.507,1.507,0,0,0,16.7,4.532V17.285c1.564.009,3.127-.016,4.692.012a7.324,7.324,0,0,1,6.344,4.339c1.589,3.722,3.161,7.452,4.748,11.177q11.083,0,22.165,0a7.472,7.472,0,0,1,2.947.565,7.359,7.359,0,0,1,4.523,6.614c.016,7.569,0,15.136.007,22.7a2.337,2.337,0,0,0,1.355-.236,1.51,1.51,0,0,0,.68-1.359V15.82q-3.256,0-6.513,0c-.01,1.018.021,2.039-.013,3.057a1.467,1.467,0,0,1-1.513,1.333q-12.469.009-24.94,0A1.488,1.488,0,0,1,29.6,18.891a1.464,1.464,0,0,1,1.436-1.6c7.894-.015,15.788,0,23.682-.007V15.432a5.559,5.559,0,0,1-3.448-5.18q0-3.661,0-7.323-16.189,0-32.379,0a2.672,2.672,0,0,0-1.515.236M54.2,5c0,1.8-.009,3.609,0,5.414a2.565,2.565,0,0,0,2.47,2.467c1.8.013,3.608,0,5.413,0Q58.143,8.947,54.2,5M2.93,20.215q0,23.515,0,47.032a4.875,4.875,0,0,0,.4,2.241,4.418,4.418,0,0,0,4,2.58q26.818.009,53.635,0A7.965,7.965,0,0,1,59.2,67.094q-.011-13.474,0-26.947a4.412,4.412,0,0,0-2.7-4.053,5.236,5.236,0,0,0-2.3-.353q-11.285,0-22.569,0a1.484,1.484,0,0,1-1.452-.87c-1.712-4.008-3.4-8.026-5.114-12.035A4.388,4.388,0,0,0,21.1,20.218q-9.086-.009-18.17,0m64.162,5.994q-.007,17.512,0,35.024A4.408,4.408,0,0,1,65.246,64.8a4.782,4.782,0,0,1-3.12.826,7.816,7.816,0,0,0,.432,3.488,4.969,4.969,0,0,0,9.51-2.024q.007-18.242,0-36.483a4.415,4.415,0,0,0-2.1-3.747A4.942,4.942,0,0,0,67.091,26.209Z"/><path d="M158.6,54.028a5.571,5.571,0,0,1,.989-.044c6.839.006,13.68,0,20.52,0a1.462,1.462,0,1,1,0,2.924c-6.568.009-13.138,0-19.708,0-.018,1.006.037,2.016-.026,3.021a1.467,1.467,0,0,1-2.272.959,1.712,1.712,0,0,1-.634-1.639c.01-1.267-.006-2.534.007-3.8A1.462,1.462,0,0,1,158.6,54.028Z" transform="translate(-134.393 -46.075)"/><path d="M234,166.068a1.46,1.46,0,1,1-.425,2.462A1.47,1.47,0,0,1,234,166.068Z" transform="translate(-198.939 -141.647)"/><path d="M279.935,166.084a2.336,2.336,0,0,1,.825-.1c4.494.007,8.988,0,13.484,0a1.465,1.465,0,1,1-.006,2.927q-6.82.007-13.644,0a1.5,1.5,0,0,1-1.512-.986A1.47,1.47,0,0,1,279.935,166.084Z" transform="translate(-238.13 -141.667)"/><path d="M76.447,286.088a6.853,6.853,0,0,1,1.248-.1q14.875,0,29.75,0A5.475,5.475,0,0,1,113,291.407c.01,4.3,0,8.6,0,12.9a5.772,5.772,0,0,1-.378,2.227,5.489,5.489,0,0,1-5.035,3.48q-15.018.013-30.038,0a5.489,5.489,0,0,1-5.563-5.566c0-4.4-.013-8.795.007-13.191a5.492,5.492,0,0,1,4.449-5.169m.431,2.9a2.544,2.544,0,0,0-1.954,2.411q-.011,6.6,0,13.213a2.544,2.544,0,0,0,2.473,2.468q14.583.015,29.169,0a4.779,4.779,0,0,0,1.985-.215,2.561,2.561,0,0,0,1.525-2.413v-12.9a2.562,2.562,0,0,0-1.521-2.42,4.282,4.282,0,0,0-1.847-.215H77.55A3.045,3.045,0,0,0,76.878,288.989Z" transform="translate(-61.443 -244.097)"/><path d="M134.7,358.011a1.46,1.46,0,1,1-.737,2.414A1.469,1.469,0,0,1,134.7,358.011Z" transform="translate(-114.011 -305.527)"/><path d="M175.967,358.081a2.329,2.329,0,0,1,.812-.1q6.229.009,12.458,0a1.516,1.516,0,0,1,1.236.5,1.461,1.461,0,0,1,0,1.931,1.529,1.529,0,0,1-1.236.5c-4.252,0-8.5.007-12.756-.006a1.461,1.461,0,0,1-.511-2.826Z" transform="translate(-149.388 -305.542)"/></g></g></g></svg>