<svg xmlns="http://www.w3.org/2000/svg" width="130" height="130" viewBox="0 0 130 130"><g transform="translate(-736 -713)"><circle cx="65" cy="65" r="65" transform="translate(736 713)" fill="#fff"/><g transform="translate(-5515 11057)"><path d="M6413-10269h56.777v47.314h-37.852l-4.15-19.423-2.656-2.822-12.119,2.822Z" transform="translate(-115.923 -40.031)" fill="#84e0e8"/><path d="M6737-10269v47.646h3.652l3.159-3.158v-41.666l-2.823-2.822Z" transform="translate(-386.134 -40.031)" fill="#26ccda"/><path d="M6418-10155h60.1v10.791h-45.654l-.83-3.154-2.656-1.493L6418-10146.7Z" transform="translate(-120.093 -135.105)" fill="#fdd835"/><path d="M6737-10160v11.953h6.973V-10160Z" transform="translate(-386.134 -130.935)" fill="#fdd835" style="mix-blend-mode:multiply;isolation:isolate"/><path d="M6486-10213.755l2.656,2.212,1.882,9.076a18.545,18.545,0,0,0,17.265,5.313c10.625-2.324,15.716-14.389,13.17-22.467s-8.411-12.729-17.044-13.171a16.582,16.582,0,0,0-15.273,8.189C6486.775-10221.5,6486-10213.755,6486-10213.755Z" transform="translate(-176.805 -70.207)" fill="#afafaf"/><path d="M289.633,94.257h0a26.9,26.9,0,0,0-.548-32.862,16.736,16.736,0,0,1,3.37,1.881,16.428,16.428,0,0,1,2.811,2.588,18.349,18.349,0,0,1,2.235,3.27,22.64,22.64,0,0,1,1.641,3.927,14.014,14.014,0,0,1,.565,2.783,16.708,16.708,0,0,1,.03,2.962,18.917,18.917,0,0,1-.487,3.033,20.08,20.08,0,0,1-2.461,5.842,19.024,19.024,0,0,1-1.94,2.592A16.971,16.971,0,0,1,289.633,94.257Z" transform="translate(6045.027 -10362.89)" fill="#636363"/><path d="M6486-10220.163l.737,2.663,2.275,4.831a12.312,12.312,0,0,0,11.462,3.527c7.053-1.543,10.433-9.552,8.744-14.915a11.732,11.732,0,0,0-11.315-8.744,11.009,11.009,0,0,0-10.14,5.438C6486.514-10225.306,6486-10220.163,6486-10220.163Z" transform="translate(-170.818 -64.139)" fill="#dee4f0" stroke="#707070" stroke-width="1"/><path d="M289.578,83.211h0a14.921,14.921,0,0,0,4.8-10.673,15.072,15.072,0,0,0-5.289-11.143,17.159,17.159,0,0,1,3.031,1.249,14.085,14.085,0,0,1,2.529,1.718,12.817,12.817,0,0,1,2.011,2.171,13.242,13.242,0,0,1,1.476,2.607,7.224,7.224,0,0,1,.508,1.848,8.2,8.2,0,0,1,.027,1.966,9.572,9.572,0,0,1-.438,2.013,11.08,11.08,0,0,1-.889,1.988,12.519,12.519,0,0,1-1.325,1.89,13.822,13.822,0,0,1-1.745,1.721A15.672,15.672,0,0,1,289.578,83.211Z" transform="translate(6040.115 -10357.336)" fill="#b0c0d2"/><path d="M6333.333-10256.092h6.087l1.356,1.357v14.957l6.28-1V-10268h-10.183l-2.767,2.435Z" transform="translate(-49.483 -40.865)" fill="#f57c00"/><path d="M6388.667-10272.447h1.66v27.891l2.767-.554v-28.223h-4.427Z" transform="translate(-95.63 -36.418)" fill="#f57c00" opacity="0.6" style="mix-blend-mode:multiply;isolation:isolate"/><path d="M6360-10302.838v4.206h9.186v-4.648l-2.158-.72h-5.645Z" transform="translate(-71.723 -10.842)" fill="#afafaf" stroke="#707070" stroke-width="1"/><path d="M6399-10300.134v-6.2h2.158s1.3.747,1.1,1.1a43.154,43.154,0,0,0,0,5.1Z" transform="translate(-104.248 -8.898)" fill="#636363" stroke="#707070" stroke-width="1"/><path d="M6503.2-10307.425s-1.909,4.981-1.494,4.731,26.231,0,26.231,0l-2.408-5.894-2.656-.912H6505.6Z" transform="translate(-189.851 -6.256)" fill="#afafaf"/><path d="M6588.5-10311.585l3.735,6.807h8.218l-2.324-6.309-3.32-.912Z" transform="translate(-262.288 -4.171)" fill="#636363"/><path d="M6338.5-10191.5h4.814l.765.766v14.674l-5.579,1.328Z" transform="translate(-53.792 -104.665)" fill="#fdd835"/><path d="M6290.048-10075.662l31.128-6.392,2.075-2.158-5.312-29.8-3.071-2.988-30.962,5.894-2.905,2.739,5.479,29.717Z" transform="translate(-5.838 -166.797)" fill="#f3f9ff"/><path d="M6447.5-10114.586l7.139,34.78,5.313-.913,2.49-2.241-5.81-30.215-1.661-2.325H6451.4Z" transform="translate(-144.696 -168.048)" fill="#d2e1f1"/><path d="M6320.328-10072.415l-1.328,1.809,2.822,13.033a20.278,20.278,0,0,0,12.036-5.812,12.272,12.272,0,0,1,11.787-3.4l-1.66-9.712Z" transform="translate(-37.529 -200.573)" fill="#84e0e8"/><path d="M6338.5-10007.122l1.328,6.558,1,1,22.744-4.814,1.246-1.328-2.657-10.791-2.241-.5-6.309,1.411-4.648,3.652-7.72,3.4Z" transform="translate(-53.792 -250.195)" fill="#fdd835"/><g transform="translate(6274 -10317)"><path d="M40.018,29.156a3.014,3.014,0,0,1,1.663-.377c6.358.01,12.717,0,19.075.008a3.052,3.052,0,0,1,2.769,2.083c.6,1.517,1.112,3.071,1.692,4.6q7.478-.007,14.958,0a4.73,4.73,0,0,1,3.007.973A4.887,4.887,0,0,1,85,39.685V81.154a4.916,4.916,0,0,1-1.873,3.234,4.759,4.759,0,0,1-2.94.938c-5.591,0-11.183,0-16.773,0a1.668,1.668,0,0,1-1.1-.277,1.25,1.25,0,0,1-.193-1.768,1.313,1.313,0,0,1,1.119-.45q7.981.007,15.962,0a6.2,6.2,0,0,0,1.886-.146A2.192,2.192,0,0,0,82.5,80.615q.015-6.7,0-13.407c-3.875,0-7.748.012-11.621,0a19.5,19.5,0,0,1-8.334,10.054A19.127,19.127,0,0,1,48.825,79.5a19.387,19.387,0,0,1-7.53-3.418q.642,3.379,1.31,6.755,7.087,0,14.174,0a1.384,1.384,0,0,1,1.071.354,1.252,1.252,0,0,1,.065,1.708,1.394,1.394,0,0,1-1.136.432c-4.565,0-9.129-.007-13.695,0,.51,2.684,1.063,5.361,1.546,8.048a4.389,4.389,0,0,1-3.422,4.856q-6.086,1.2-12.177,2.364a1.243,1.243,0,1,1-.462-2.439c4-.787,8.014-1.546,12.016-2.338a1.906,1.906,0,0,0,1.559-2.233Q39.4,79.3,36.608,65.017A2,2,0,0,0,35.479,63.4a2.828,2.828,0,0,0-1.854-.007Q18.87,66.274,4.112,69.125a1.916,1.916,0,0,0-1.569,2.318q2.767,14.294,5.54,28.585a1.939,1.939,0,0,0,1.381,1.625,4.075,4.075,0,0,0,1.8-.138q5.571-1.086,11.146-2.162a1.245,1.245,0,1,1,.495,2.437q-6.046,1.185-12.1,2.344A4.4,4.4,0,0,1,6.495,102.5a4.673,4.673,0,0,1-.888-2.15Q2.81,85.872,0,71.4v-.926A4.5,4.5,0,0,1,3.163,66.8c1.972-.45,3.979-.745,5.95-1.2l.061-.058C9.207,57,9.166,48.464,9.2,39.927a4.748,4.748,0,0,1,3.95-4.433c0-1.121-.037-2.243.017-3.362a2.974,2.974,0,0,1,2.943-2.648c1.883-.007,3.765-.017,5.648,0A2.967,2.967,0,0,1,24.6,32.14c.06,1.1.012,2.21.022,3.314,4.114.018,8.229.035,12.342-.008.45-1.325.948-2.631,1.414-3.95a4.26,4.26,0,0,1,1.639-2.339m.9,2.7c-.473,1.189-.88,2.406-1.323,3.608q11.478,0,22.955,0c-.4-1.175-.825-2.342-1.265-3.5-.146-.286-.277-.747-.686-.691q-9.548,0-19.1,0c-.334-.033-.457.347-.583.583m-25.278.6c-.025,1,0,2-.008,3.007q3.252,0,6.506,0c-.007-1,.017-2-.008-2.993a.48.48,0,0,0-.523-.5c-1.778-.017-3.558,0-5.336,0a.519.519,0,0,0-.631.488m-3.956,7.633c-.018,2.533,0,5.068-.007,7.6,1.416.017,2.834-.023,4.25.018a2.165,2.165,0,0,1,1.991,2.171c.013,4.673,0,9.347.007,14.022,1.406-.276,2.816-.535,4.218-.827q-.017-12.561,0-25.122c-2.787,0-5.576-.012-8.362.008a2.172,2.172,0,0,0-2.092,2.127m12.939-2.125c.015,5.445,0,10.891.008,16.338,3.377,0,6.752,0,10.129,0a19.16,19.16,0,0,1,30.9-7.775A19.8,19.8,0,0,1,70.9,54.316q5.8-.027,11.595,0c.045-4.514,0-9.03.02-13.545a3.389,3.389,0,0,0-.232-1.6,2.211,2.211,0,0,0-2.085-1.215q-27.786.007-55.572.01M40.8,49.193a16.508,16.508,0,0,0-4.647,11.8,4.383,4.383,0,0,1,2.437,2.117,8.9,8.9,0,0,1,.647,2.409c.43,2.153.817,4.318,1.272,6.466a16.246,16.246,0,0,0,5.7,4.081A16.682,16.682,0,1,0,40.8,49.193M11.681,65.12c1.248-.251,2.5-.476,3.75-.73q0-7.1,0-14.2c-1.242-.012-2.485.018-3.725-.017-.066,4.98-.017,9.966-.025,14.948m12.954-2.512c3-.591,6.013-1.15,9.011-1.763a19.729,19.729,0,0,1,.407-4.047c-3.138-.008-6.277,0-9.415-.008-.02,1.939-.015,3.88,0,5.819m46.943-5.814a19.7,19.7,0,0,1,0,7.926q5.466,0,10.932,0,0-3.959,0-7.922Q77.044,56.791,71.578,56.795Z" transform="translate(0 -28.779)"/><path d="M421.127,109.144c1.4-.146,2.834-.027,4.25-.063a1.25,1.25,0,0,1,1.316,1.484,1.266,1.266,0,0,1-1.318,1c-1.27,0-2.54.01-3.81,0a1.244,1.244,0,0,1-.438-2.421Z" transform="translate(-350.508 -95.74)"/><path d="M253.914,145.316a12.63,12.63,0,1,1-10.655,7.262,12.615,12.615,0,0,1,10.655-7.262m-.012,2.5a10.16,10.16,0,1,0,6.558,1.773A10.154,10.154,0,0,0,253.9,147.813Z" transform="translate(-201.887 -125.948)"/><path d="M61.848,262.27a2.225,2.225,0,0,1,2.809,1.537q2.122,10.623,4.225,21.25a2.209,2.209,0,0,1-1.976,2.46q-11.445,2.234-22.9,4.439a2.2,2.2,0,0,1-2.719-1.514q-2.127-10.589-4.225-21.182a2.005,2.005,0,0,1,.722-2.014,3.544,3.544,0,0,1,1.808-.654q11.126-2.162,22.253-4.323m-22.266,6.863q1.178,5.917,2.367,11.829a22.557,22.557,0,0,0,7.022-2.387c1.987-1.152,3.42-3.036,5.42-4.172,2.822-1.672,6.126-2.117,9.287-2.756-.452-2.309-.921-4.614-1.373-6.921q-11.363,2.2-22.724,4.408M56,276.355c-1.692.88-2.935,2.364-4.453,3.486-2.645,2-5.912,2.9-9.108,3.578.4,2.019.813,4.034,1.187,6.058,7.584-1.411,15.147-2.934,22.724-4.388-.716-3.662-1.463-7.32-2.175-10.984C61.408,274.652,58.524,275.006,56,276.355Z" transform="translate(-30.87 -223.438)"/></g></g></g></svg>